<svg width="39" height="40" viewBox="0 0 39 40" fill="none" xmlns="http://www.w3.org/2000/svg">
<path d="M6.35269 24.2367L3.93196 21.816C2.94455 20.8286 2.94455 19.2041 3.93196 18.2167L6.35269 15.7959C6.76676 15.3818 7.10121 14.5696 7.10121 13.9963V10.5722C7.10121 9.17069 8.24788 8.02406 9.64936 8.02406H13.0734C13.6468 8.02406 14.459 7.68966 14.8731 7.27559L17.2938 4.85481C18.2812 3.86741 19.9057 3.86741 20.8931 4.85481L23.3138 7.27559C23.7279 7.68966 24.5401 8.02406 25.1134 8.02406H28.5375C29.939 8.02406 31.0856 9.17069 31.0856 10.5722V13.9963C31.0856 14.5696 31.4201 15.3818 31.8342 15.7959L34.2549 18.2167C35.2423 19.2041 35.2423 20.8286 34.2549 21.816L31.8342 24.2367C31.4201 24.6508 31.0856 25.463 31.0856 26.0364V29.4603C31.0856 30.8618 29.939 32.0086 28.5375 32.0086H25.1134C24.5401 32.0086 23.7279 32.343 23.3138 32.7571L20.8931 35.1778C19.9057 36.1652 18.2812 36.1652 17.2938 35.1778L14.8731 32.7571C14.459 32.343 13.6468 32.0086 13.0734 32.0086H9.64936C8.24788 32.0086 7.10121 30.8618 7.10121 29.4603V26.0364C7.10121 25.4471 6.76676 24.6349 6.35269 24.2367Z" stroke="#272727" stroke-opacity="0.6" stroke-width="1.5" stroke-linecap="round" stroke-linejoin="round"/>
<path d="M14.3333 24.7775L23.8888 15.2219" stroke="#272727" stroke-opacity="0.6" stroke-width="1.5" stroke-linecap="round" stroke-linejoin="round"/>
<path d="M23.0839 23.9814H23.0982" stroke="#272727" stroke-opacity="0.6" stroke-width="2" stroke-linecap="round" stroke-linejoin="round"/>
<path d="M15.1208 16.0182H15.1351" stroke="#272727" stroke-opacity="0.6" stroke-width="2" stroke-linecap="round" stroke-linejoin="round"/>
</svg>
