<svg width="39" height="27" viewBox="0 0 39 27" fill="none" xmlns="http://www.w3.org/2000/svg">
<path d="M8.55279 13.1372C4.92341 13.1372 1.9707 16.0899 1.9707 19.7192C1.9707 23.3483 4.92341 26.3009 8.55279 26.3009H8.55296C12.1822 26.3009 15.1348 23.3483 15.1348 19.7192C15.1348 16.0899 12.1821 13.1372 8.55279 13.1372ZM8.55296 25.12H8.55279C5.57461 25.12 3.15165 22.6972 3.15165 19.7193C3.15165 16.7411 5.57461 14.3182 8.55279 14.3182C11.531 14.3182 13.9538 16.7412 13.9538 19.7193C13.9538 22.6972 11.5311 25.12 8.55296 25.12Z" fill="#686666"/>
<path d="M8.55259 17.6672C7.42175 17.6672 6.50171 18.5873 6.50171 19.7182C6.50171 20.8487 7.42175 21.7686 8.55259 21.7686C9.68343 21.7686 10.6035 20.8488 10.6035 19.7182C10.6035 18.5873 9.68343 17.6672 8.55259 17.6672Z" fill="#686666"/>
<path d="M32.3298 13.1374C31.5285 13.1374 30.7605 13.2817 30.0497 13.545L28.0714 9.27405C28.3606 9.44479 28.6974 9.54323 29.0569 9.54323C29.3831 9.54323 29.6474 9.27886 29.6474 8.95275V6.24274C29.6474 5.91663 29.3831 5.65226 29.0569 5.65226C28.0978 5.65226 27.2991 6.35012 27.1405 7.26459L25.7395 4.23993C25.6427 4.03124 25.4337 3.89763 25.2037 3.89763H23.4424C23.1163 3.89763 22.8519 4.16199 22.8519 4.4881C22.8519 4.81421 23.1163 5.07857 23.4424 5.07857H24.8265L25.6784 6.91781C25.6535 6.94557 25.6307 6.97585 25.6107 7.00908L19.9501 16.4448H19.2396C19.0151 16.4448 18.8325 16.2621 18.8325 16.0378V11.8346C18.8325 10.0838 17.4081 8.65929 15.6573 8.65929H11.0929V0.590473C11.0929 0.264363 10.8285 0 10.5024 0H0.996479C0.670369 0 0.406006 0.264363 0.406006 0.590473V11.4588C0.406006 11.7849 0.670369 12.0493 0.996479 12.0493H4.14488C2.81311 12.8146 1.67856 13.9238 0.886314 15.2934C0.723006 15.5758 0.819506 15.9369 1.10175 16.1002C1.38391 16.2634 1.7452 16.1671 1.90851 15.8847C3.27705 13.5189 5.82309 12.0492 8.55302 12.0492C12.7824 12.0492 16.2233 15.4901 16.2233 19.7195C16.2233 20.0456 16.4876 20.31 16.8137 20.31H22.9342C23.142 20.31 23.3345 20.2008 23.441 20.0224L28.1205 12.1898L28.9841 14.0544C27.0488 15.2017 25.7478 17.311 25.7478 19.7194C25.7478 23.3486 28.7005 26.3011 32.3298 26.3011H32.33C35.9592 26.3011 38.9119 23.3486 38.9119 19.7194C38.9118 16.0901 35.9591 13.1374 32.3298 13.1374ZM1.58695 8.65937V3.70758H9.91195V8.65937H8.32509H1.58695ZM9.91195 1.18095V2.52663H1.58695V1.18095H9.91195ZM27.4514 11.0073L22.5991 19.1291H17.384C17.0791 14.5228 13.2351 10.8682 8.5531 10.8682C8.48115 10.8682 1.58704 10.8682 1.58704 10.8682V9.84023H15.6575C16.7571 9.84023 17.6517 10.735 17.6517 11.8346V16.0378C17.6517 16.9133 18.3641 17.6257 19.2397 17.6257H20.2846C20.492 17.6257 20.6842 17.5169 20.791 17.339L26.2729 8.201L27.5265 10.9074C27.4986 10.9375 27.4732 10.9707 27.4514 11.0073ZM32.3299 25.1202H32.3298C29.3515 25.1202 26.9286 22.6974 26.9286 19.7194C26.9286 17.7853 27.9511 16.0863 29.4833 15.1321L30.9195 18.2325C30.5254 18.6066 30.2788 19.1345 30.2788 19.7195C30.2788 20.85 31.1988 21.7699 32.3297 21.7699C33.4604 21.7699 34.3805 20.8501 34.3805 19.7195C34.3805 18.5887 33.4605 17.6686 32.3297 17.6686C32.2084 17.6686 32.0898 17.6798 31.9743 17.7L30.5484 14.6216C31.1065 14.426 31.7057 14.3183 32.3298 14.3183C35.3079 14.3183 37.7308 16.7413 37.7308 19.7194C37.7308 22.6974 35.308 25.1202 32.3299 25.1202Z" fill="#686666"/>
</svg>
