<svg width="12" height="12" viewBox="0 0 12 12" fill="none" xmlns="http://www.w3.org/2000/svg">
<path d="M5.12307 1.27275C5.42242 0.351441 6.72583 0.351443 7.02518 1.27275L7.71225 3.38732C7.84612 3.79934 8.23008 4.0783 8.66331 4.0783H10.8867C11.8554 4.0783 12.2582 5.31792 11.4745 5.88732L9.67572 7.19419C9.32523 7.44884 9.17857 7.9002 9.31245 8.31223L9.99951 10.4268C10.2989 11.3481 9.24438 12.1142 8.46067 11.5448L6.66191 10.238C6.31143 9.98331 5.83683 9.98331 5.48634 10.238L3.68758 11.5448C2.90387 12.1142 1.84939 11.3481 2.14874 10.4268L2.83581 8.31223C2.96968 7.9002 2.82302 7.44884 2.47254 7.19419L0.673778 5.88732C-0.109936 5.31792 0.292841 4.0783 1.26156 4.0783H3.48495C3.91818 4.0783 4.30213 3.79934 4.43601 3.38732L5.12307 1.27275Z" fill="#D9D9D9"/>
</svg>
