<svg width="13" height="12" viewBox="0 0 13 12" fill="none" xmlns="http://www.w3.org/2000/svg">
<path d="M5.34524 1.27275C5.64459 0.351441 6.948 0.351443 7.24735 1.27275L7.93442 3.38732C8.06829 3.79934 8.45225 4.0783 8.88547 4.0783H11.1089C12.0776 4.0783 12.4804 5.31792 11.6966 5.88732L9.89789 7.19419C9.5474 7.44884 9.40074 7.9002 9.53462 8.31223L10.2217 10.4268C10.521 11.3481 9.46655 12.1142 8.68284 11.5448L6.88408 10.238C6.53359 9.98331 6.059 9.98331 5.70851 10.238L3.90975 11.5448C3.12604 12.1142 2.07156 11.3481 2.37091 10.4268L3.05798 8.31223C3.19185 7.9002 3.04519 7.44884 2.6947 7.19419L0.895946 5.88732C0.112232 5.31792 0.515009 4.0783 1.48373 4.0783H3.70712C4.14035 4.0783 4.5243 3.79934 4.65818 3.38732L5.34524 1.27275Z" fill="#E5B301"/>
</svg>
