<svg width="43" height="42" viewBox="0 0 43 42" fill="none" xmlns="http://www.w3.org/2000/svg">
<path d="M31.9997 32.5975H30.6861C29.3033 32.5975 27.9898 33.1333 27.0219 34.1012L24.0663 37.0222C22.7181 38.3531 20.5231 38.3531 19.175 37.0222L16.2194 34.1012C15.2515 33.1333 13.9206 32.5975 12.5552 32.5975H11.2589C8.38978 32.5975 6.07373 30.2988 6.07373 27.4642V8.6074C6.07373 5.77284 8.38978 3.47412 11.2589 3.47412H31.9997C34.8688 3.47412 37.1848 5.77284 37.1848 8.6074V27.4642C37.1848 30.2815 34.8688 32.5975 31.9997 32.5975Z" stroke="#292D32" stroke-width="1.5" stroke-miterlimit="10" stroke-linecap="round" stroke-linejoin="round"/>
<path d="M21.6292 17.2838C23.8534 17.2838 25.6564 15.4807 25.6564 13.2566C25.6564 11.0324 23.8534 9.22949 21.6292 9.22949C19.4051 9.22949 17.6021 11.0324 17.6021 13.2566C17.6021 15.4807 19.4051 17.2838 21.6292 17.2838Z" stroke="#292D32" stroke-width="1.5" stroke-linecap="round" stroke-linejoin="round"/>
<path d="M28.543 27.0666C28.543 23.9555 25.4492 21.4321 21.6294 21.4321C17.8096 21.4321 14.7158 23.9555 14.7158 27.0666" stroke="#292D32" stroke-width="1.5" stroke-linecap="round" stroke-linejoin="round"/>
</svg>
