<svg width="169" height="183" viewBox="0 0 169 183" fill="none" xmlns="http://www.w3.org/2000/svg">
<g clip-path="url(#clip0_800_62953)">
<mask id="mask0_800_62953" style="mask-type:luminance" maskUnits="userSpaceOnUse" x="0" y="0" width="169" height="183">
<path d="M169 0H0V183H169V0Z" fill="white"/>
</mask>
<g mask="url(#mask0_800_62953)">
<path d="M85.0774 162.996C44.2289 162.996 10.9922 130.917 10.9922 91.4928C10.9922 52.0683 44.2289 19.9902 85.0774 19.9902C125.926 19.9902 159.163 52.0683 159.163 91.4928C159.163 130.917 125.926 162.996 85.0774 162.996ZM85.0774 25.2548C47.238 25.2548 16.4469 54.9723 16.4469 91.4928C16.4469 128.013 47.238 157.732 85.0774 157.732C122.917 157.732 153.708 128.013 153.708 91.4928C153.708 54.9723 122.917 25.2548 85.0774 25.2548Z" fill="#6AB04C"/>
<path d="M149.764 43.7612C167.877 67.8907 178.427 100.549 150.362 139.239" stroke="#6AB04C" stroke-linecap="round"/>
<path d="M19.2358 43.7612C1.1222 67.8907 -9.42749 100.549 18.6387 139.239" stroke="#6AB04C" stroke-linecap="round"/>
<path d="M23.8848 26.0029L25.4545 35.0495L24.2791 35.7238L17.1455 29.87L18.3994 29.1505L23.9437 33.8957L24.0221 33.8509L22.631 26.7224L23.8848 26.0029Z" fill="#6AB04C"/>
<path d="M37.2748 25.2547C36.5405 25.6543 35.8183 25.8387 35.1075 25.8076C34.3987 25.7716 33.7396 25.5421 33.1302 25.1193C32.5221 24.6915 32.004 24.0913 31.575 23.3187C31.1461 22.5461 30.9104 21.7879 30.8677 21.0438C30.8265 20.2947 30.9705 19.6153 31.2995 19.0057C31.6301 18.391 32.1395 17.8964 32.8273 17.522C33.2239 17.306 33.6522 17.1582 34.112 17.0785C34.5715 16.9988 35.0418 17.0199 35.523 17.1417C36.0022 17.2602 36.4697 17.5088 36.925 17.8874C37.3807 18.266 37.8038 18.8072 38.1948 19.511L38.4671 20.0021L32.5939 23.199L32.0378 22.1973L36.7207 19.6484C36.4844 19.2228 36.1875 18.8899 35.8304 18.6496C35.4764 18.4075 35.0887 18.2754 34.6671 18.2533C34.2491 18.2293 33.8285 18.3326 33.4051 18.563C32.9389 18.8168 32.599 19.151 32.3853 19.5655C32.1736 19.975 32.0773 20.4109 32.0974 20.8733C32.1172 21.3357 32.2425 21.7747 32.473 22.1905L32.8439 22.8582C33.1602 23.4278 33.5272 23.8567 33.9455 24.1448C34.3655 24.4278 34.811 24.5752 35.2829 24.587C35.7526 24.5956 36.2239 24.4711 36.6967 24.2137C37.0044 24.0463 37.2586 23.8526 37.4595 23.6325C37.6616 23.4072 37.8058 23.1584 37.8912 22.8859C37.9751 22.6102 37.9939 22.3143 37.9477 21.9984L39.2531 21.6971C39.3449 22.1416 39.33 22.5844 39.2088 23.0255C39.086 23.4633 38.8622 23.8749 38.5379 24.2603C38.2117 24.6424 37.7908 24.9739 37.2748 25.2547Z" fill="#6AB04C"/>
<path d="M48.3102 19.4126C47.7014 19.6241 47.1504 19.7285 46.6572 19.7257C46.1655 19.7263 45.7289 19.6523 45.3482 19.5036C44.9723 19.3572 44.6486 19.1727 44.3776 18.9502L45.1342 17.9035C45.3007 18.0119 45.5051 18.131 45.7471 18.2606C45.9904 18.3938 46.2885 18.4783 46.6412 18.514C46.9987 18.5521 47.425 18.4851 47.9202 18.3131C48.5825 18.083 49.0729 17.7345 49.3911 17.2676C49.7097 16.8008 49.7486 16.2291 49.5085 15.5525L48.923 13.9033L48.8162 13.9405C48.7764 14.1206 48.7094 14.3496 48.616 14.6275C48.5251 14.9006 48.351 15.1768 48.094 15.4561C47.8395 15.7306 47.4451 15.9606 46.911 16.1463C46.2484 16.3764 45.5988 16.428 44.9614 16.301C44.3278 16.1728 43.7529 15.8659 43.2367 15.3803C42.7236 14.8935 42.3174 14.2273 42.017 13.3815C41.7217 12.5499 41.6127 11.7745 41.6892 11.0551C41.7648 10.3322 42.0058 9.71006 42.413 9.18864C42.8186 8.66371 43.3671 8.28121 44.0581 8.04116C44.5922 7.85558 45.0472 7.79642 45.4231 7.86372C45.8013 7.92625 46.1135 8.03946 46.3597 8.20328C46.6084 8.36236 46.8038 8.4963 46.9464 8.60509L47.0746 8.56054L46.617 7.27083L47.8347 6.84766L50.7992 15.199C51.047 15.8968 51.0878 16.5197 50.9227 17.068C50.7619 17.6187 50.4491 18.0896 49.9839 18.4808C49.5235 18.8743 48.9654 19.1849 48.3102 19.4126ZM46.6839 14.9663C47.1897 14.7906 47.5765 14.5276 47.8443 14.1773C48.1118 13.827 48.2604 13.4053 48.2894 12.9123C48.3185 12.4193 48.2266 11.8733 48.0139 11.2742C47.8064 10.6893 47.534 10.204 47.197 9.81831C46.8603 9.43269 46.4722 9.17362 46.0331 9.04116C45.594 8.90871 45.118 8.93158 44.6052 9.10976C44.0711 9.29538 43.6735 9.58395 43.4124 9.97547C43.1547 10.3658 43.017 10.8174 42.9991 11.3303C42.9848 11.842 43.075 12.3727 43.2701 12.9224C43.4704 13.4862 43.7363 13.9539 44.0683 14.3254C44.4024 14.6922 44.7895 14.9377 45.2299 15.0619C45.6722 15.1813 46.1569 15.1494 46.6839 14.9663Z" fill="#6AB04C"/>
<path d="M62.0792 11.5985C61.2617 11.7793 60.5158 11.7567 59.8421 11.5306C59.1712 11.3001 58.6026 10.8977 58.1364 10.3235C57.6731 9.74472 57.3441 9.02528 57.1499 8.16509C56.9554 7.30492 56.9426 6.51174 57.111 5.78564C57.2825 5.05506 57.6122 4.44258 58.0998 3.9482C58.5905 3.44936 59.219 3.11522 59.9852 2.9458C60.4272 2.84805 60.8803 2.82443 61.3443 2.87492C61.8082 2.92541 62.254 3.07558 62.6816 3.32543C63.1086 3.57163 63.4874 3.93939 63.8187 4.42876C64.1497 4.91813 64.4035 5.55462 64.5808 6.33827L64.7042 6.885L58.162 8.33161L57.91 7.21629L63.1261 6.06292C63.019 5.58908 62.8276 5.18745 62.5521 4.85802C62.2805 4.5278 61.945 4.29385 61.5467 4.15619C61.1517 4.01771 60.7186 4.0006 60.247 4.10485C59.7276 4.2197 59.307 4.44665 58.9853 4.78567C58.6664 5.12025 58.4515 5.51225 58.3402 5.96161C58.2289 6.411 58.2257 6.86714 58.3303 7.33004L58.4984 8.07359C58.6415 8.70777 58.8737 9.22096 59.1941 9.61312C59.5178 10.0008 59.9042 10.2655 60.3542 10.4071C60.8028 10.5452 61.2907 10.5559 61.8175 10.4394C62.1599 10.3637 62.4587 10.2479 62.7138 10.092C62.9714 9.9317 63.1797 9.73257 63.3388 9.49458C63.4969 9.25296 63.598 8.97413 63.6427 8.65811L64.9816 8.72945C64.9446 9.18159 64.8056 9.60264 64.5651 9.99262C64.3234 10.3789 63.9928 10.7123 63.5728 10.9928C63.1519 11.2695 62.6538 11.4714 62.0792 11.5985Z" fill="#6AB04C"/>
<path d="M77.6357 1.19573L77.7244 2.31274L73.2312 2.66156L73.1426 1.54456L77.6357 1.19573ZM74.2889 -0.612397L75.6211 -0.71582L76.27 7.46064C76.2997 7.83298 76.3765 8.10799 76.5003 8.28569C76.6278 8.45938 76.7805 8.57113 76.9585 8.62102C77.1402 8.66683 77.3287 8.68216 77.5245 8.66699C77.6711 8.6556 77.791 8.63878 77.8838 8.6166C77.9766 8.59066 78.0506 8.56993 78.1061 8.55438L78.4712 9.71738C78.3835 9.75789 78.2601 9.80118 78.101 9.84727C77.9422 9.89706 77.7384 9.93161 77.49 9.95089C77.1138 9.98011 76.7388 9.92868 76.3647 9.7966C75.9945 9.66428 75.6779 9.44348 75.4148 9.13421C75.1556 8.82468 75.006 8.42044 74.9665 7.92152L74.2889 -0.612397Z" fill="#6AB04C"/>
<path d="M93.7713 9.12623C92.9342 9.16422 92.2037 9.01416 91.5797 8.67605C90.9595 8.33406 90.4697 7.84034 90.111 7.19486C89.7561 6.54546 89.5581 5.78052 89.5173 4.90004C89.4764 4.01955 89.6024 3.23616 89.8954 2.5499C90.1923 1.85973 90.624 1.31298 91.191 0.909643C91.7615 0.502411 92.439 0.281007 93.2231 0.245431C93.6756 0.224906 94.1259 0.279255 94.5739 0.408479C95.0222 0.537702 95.4348 0.761994 95.8123 1.08135C96.1899 1.39698 96.4985 1.82414 96.739 2.36283C96.9794 2.90152 97.1181 3.57193 97.1554 4.37407L97.1816 4.9337L90.485 5.23748L90.4321 4.09582L95.7712 3.85362C95.7486 3.36861 95.6303 2.94028 95.4166 2.56863C95.2068 2.1968 94.9176 1.90895 94.549 1.70508C94.1845 1.50103 93.7607 1.40996 93.2783 1.43185C92.7464 1.45597 92.2927 1.60742 91.9164 1.88619C91.5437 2.16107 91.2634 2.51028 91.0752 2.93381C90.8871 3.35735 90.8039 3.80601 90.8259 4.27986L90.8613 5.04095C90.8913 5.69012 91.03 6.23531 91.2774 6.67646C91.528 7.11374 91.8625 7.44068 92.2806 7.65725C92.6986 7.8701 93.1772 7.96428 93.7164 7.93982C94.0669 7.92392 94.3816 7.86104 94.6596 7.75121C94.9415 7.63747 95.1816 7.47702 95.38 7.26989C95.578 7.05903 95.7266 6.80179 95.8257 6.49816L97.1318 6.79784C97.0164 7.23679 96.8059 7.62768 96.5005 7.97056C96.1953 8.30967 95.8111 8.58134 95.3481 8.78551C94.8851 8.98599 94.3596 9.09954 93.7713 9.12623Z" fill="#6AB04C"/>
<path d="M119.28 15.8624L122.732 7.96467L123.959 8.48969L120.506 16.3874L119.28 15.8624ZM123.932 6.91536C123.693 6.813 123.522 6.6442 123.419 6.40895C123.32 6.17515 123.32 5.94514 123.418 5.71892C123.517 5.49269 123.687 5.33534 123.927 5.2469C124.171 5.15998 124.412 5.16767 124.651 5.27C124.89 5.37235 125.059 5.5404 125.158 5.77419C125.261 6.00944 125.263 6.24018 125.164 6.46644C125.065 6.69266 124.894 6.84926 124.65 6.93621C124.41 7.02465 124.171 7.01768 123.932 6.91536Z" fill="#6AB04C"/>
<path d="M131.204 22.4128C130.721 22.1497 130.333 21.821 130.04 21.4267C129.748 21.0291 129.582 20.5954 129.542 20.1258C129.504 19.6529 129.621 19.1711 129.894 18.6803C130.134 18.2484 130.415 17.9452 130.736 17.7706C131.059 17.5928 131.408 17.5053 131.781 17.5083C132.154 17.5113 132.535 17.5697 132.924 17.6837C133.318 17.7961 133.705 17.9258 134.084 18.0728C134.58 18.2661 134.98 18.4265 135.284 18.5538C135.593 18.6796 135.835 18.7409 136.009 18.7377C136.186 18.7364 136.327 18.6424 136.43 18.4559L136.452 18.4167C136.722 17.9325 136.797 17.4833 136.679 17.069C136.563 16.6566 136.236 16.3036 135.697 16.0099C135.139 15.7054 134.633 15.5878 134.181 15.6569C133.729 15.7261 133.362 15.8629 133.08 16.0675L132.188 15.0695C132.641 14.7196 133.104 14.5071 133.577 14.4321C134.054 14.3556 134.518 14.3738 134.968 14.4868C135.423 14.5983 135.842 14.7585 136.226 14.9675C136.47 15.1008 136.735 15.2834 137.02 15.5153C137.31 15.7457 137.554 16.0303 137.753 16.3691C137.956 16.7097 138.057 17.1124 138.057 17.5771C138.057 18.0418 137.89 18.5735 137.557 19.1722L134.794 24.1386L133.623 23.5009L134.191 22.4801L134.132 22.4477C133.961 22.568 133.732 22.671 133.443 22.7566C133.154 22.8422 132.819 22.8666 132.439 22.8299C132.058 22.7932 131.647 22.6542 131.204 22.4128ZM131.962 21.4697C132.424 21.7219 132.865 21.8445 133.282 21.8375C133.703 21.8323 134.073 21.7316 134.394 21.5352C134.718 21.3407 134.967 21.0864 135.142 20.7723L135.732 19.7123C135.649 19.7441 135.51 19.7386 135.314 19.6958C135.123 19.6515 134.909 19.5879 134.67 19.505C134.437 19.4207 134.211 19.3357 133.991 19.2501C133.777 19.1632 133.602 19.0936 133.468 19.0415C133.142 18.915 132.822 18.8239 132.508 18.7681C132.2 18.7108 131.916 18.7247 131.658 18.8098C131.404 18.8935 131.196 19.0825 131.032 19.377C130.808 19.7794 130.789 20.1657 130.975 20.5357C131.167 20.9043 131.495 21.2156 131.962 21.4697Z" fill="#6AB04C"/>
<path d="M143.601 25.8167L140.85 30.22L139.714 29.5248L144.286 22.2051L145.384 22.8767L144.67 24.0204L144.766 24.0793C145.172 23.8137 145.621 23.6761 146.115 23.6666C146.611 23.6539 147.139 23.8183 147.697 24.1601C148.198 24.4665 148.573 24.8362 148.821 25.2693C149.072 25.6992 149.174 26.1829 149.127 26.7204C149.081 27.2547 148.864 27.8332 148.475 28.4559L145.57 33.1069L144.433 32.4118L147.291 27.8369C147.65 27.2619 147.779 26.7216 147.678 26.2161C147.578 25.7075 147.265 25.2921 146.739 24.97C146.376 24.7481 146.003 24.6276 145.62 24.6085C145.24 24.5913 144.875 24.682 144.525 24.8805C144.175 25.0789 143.867 25.391 143.601 25.8167Z" fill="#6AB04C"/>
<path d="M106.55 11.2486L107.971 2.75928L109.245 2.96813L109.03 4.25037L109.12 4.26501C109.346 3.87062 109.687 3.57621 110.14 3.38179C110.594 3.18736 111.077 3.13228 111.591 3.21655C111.688 3.23242 111.808 3.25413 111.953 3.28161C112.098 3.30912 112.207 3.33266 112.28 3.35225L112.058 4.67869C112.015 4.66033 111.915 4.62694 111.759 4.57858C111.607 4.52715 111.443 4.48708 111.268 4.45836C110.851 4.38996 110.464 4.41548 110.108 4.53494C109.755 4.6513 109.459 4.84497 109.218 5.11596C108.982 5.38387 108.832 5.70942 108.768 6.09262L107.869 11.4648L106.55 11.2486Z" fill="#6AB04C"/>
<path d="M146.899 157.329L145.534 148.25L146.724 147.602L153.724 153.611L152.454 154.303L147.018 149.437L146.939 149.48L148.169 156.637L146.899 157.329Z" fill="#6AB04C"/>
<path d="M133.496 157.781C134.239 157.398 134.965 157.229 135.675 157.276C136.383 157.328 137.037 157.572 137.636 158.008C138.234 158.449 138.739 159.06 139.151 159.842C139.562 160.624 139.78 161.387 139.806 162.132C139.831 162.882 139.671 163.558 139.329 164.16C138.984 164.767 138.464 165.251 137.768 165.61C137.366 165.817 136.935 165.955 136.474 166.025C136.012 166.095 135.543 166.063 135.064 165.931C134.588 165.802 134.126 165.543 133.679 165.154C133.232 164.766 132.821 164.215 132.447 163.503L132.185 163.006L138.129 159.939L138.663 160.953L133.923 163.398C134.15 163.829 134.439 164.168 134.791 164.416C135.14 164.666 135.524 164.807 135.945 164.838C136.362 164.871 136.785 164.778 137.214 164.556C137.686 164.313 138.033 163.986 138.256 163.577C138.477 163.172 138.583 162.738 138.573 162.276C138.564 161.813 138.448 161.371 138.227 160.95L137.872 160.275C137.568 159.698 137.211 159.261 136.799 158.964C136.386 158.672 135.943 158.515 135.472 158.492C135.003 158.474 134.529 158.588 134.05 158.835C133.739 158.995 133.48 159.183 133.274 159.399C133.067 159.62 132.918 159.865 132.826 160.136C132.736 160.41 132.711 160.705 132.75 161.022L131.438 161.294C131.356 160.848 131.381 160.405 131.512 159.967C131.645 159.532 131.878 159.125 132.21 158.747C132.545 158.373 132.973 158.05 133.496 157.781Z" fill="#6AB04C"/>
<path d="M122.331 163.379C122.945 163.18 123.498 163.088 123.991 163.102C124.482 163.112 124.917 163.196 125.294 163.353C125.667 163.508 125.986 163.699 126.252 163.928L125.472 164.957C125.308 164.845 125.106 164.722 124.868 164.587C124.627 164.448 124.331 164.357 123.979 164.314C123.623 164.268 123.195 164.325 122.696 164.486C122.029 164.702 121.531 165.039 121.202 165.499C120.873 165.959 120.821 166.53 121.046 167.211L121.594 168.873L121.702 168.838C121.746 168.659 121.818 168.431 121.917 168.156C122.015 167.885 122.195 167.612 122.458 167.339C122.719 167.07 123.118 166.849 123.657 166.675C124.324 166.459 124.975 166.422 125.609 166.563C126.239 166.705 126.807 167.025 127.313 167.522C127.814 168.02 128.206 168.695 128.487 169.547C128.763 170.385 128.855 171.162 128.762 171.88C128.67 172.601 128.415 173.218 127.996 173.73C127.579 174.246 127.022 174.616 126.326 174.841C125.788 175.015 125.332 175.064 124.957 174.988C124.581 174.917 124.271 174.797 124.028 174.628C123.784 174.464 123.591 174.325 123.451 174.213L123.322 174.255L123.75 175.555L122.523 175.951L119.748 167.536C119.516 166.833 119.489 166.209 119.667 165.665C119.839 165.118 120.163 164.654 120.637 164.273C121.106 163.89 121.671 163.592 122.331 163.379ZM123.857 167.86C123.347 168.024 122.954 168.279 122.679 168.623C122.403 168.967 122.246 169.385 122.205 169.878C122.166 170.37 122.245 170.918 122.444 171.521C122.638 172.111 122.9 172.602 123.228 172.995C123.556 173.388 123.938 173.656 124.374 173.798C124.81 173.94 125.286 173.927 125.803 173.76C126.341 173.587 126.745 173.307 127.015 172.921C127.281 172.537 127.429 172.088 127.459 171.576C127.485 171.065 127.406 170.532 127.223 169.978C127.036 169.41 126.781 168.937 126.457 168.558C126.131 168.184 125.75 167.93 125.313 167.796C124.873 167.667 124.388 167.688 123.857 167.86Z" fill="#6AB04C"/>
<path d="M108.389 170.887C109.211 170.724 109.956 170.763 110.625 171.004C111.29 171.249 111.849 171.664 112.303 172.248C112.753 172.838 113.066 173.564 113.24 174.428C113.415 175.293 113.41 176.086 113.225 176.808C113.038 177.535 112.694 178.14 112.195 178.623C111.694 179.111 111.058 179.431 110.288 179.584C109.844 179.672 109.391 179.685 108.928 179.625C108.465 179.564 108.023 179.404 107.601 179.145C107.18 178.889 106.809 178.513 106.489 178.016C106.169 177.52 105.93 176.878 105.77 176.091L105.659 175.542L112.232 174.239L112.459 175.36L107.218 176.398C107.315 176.874 107.497 177.28 107.765 177.615C108.029 177.951 108.359 178.193 108.755 178.339C109.146 178.486 109.579 178.513 110.053 178.419C110.574 178.316 111 178.098 111.329 177.766C111.656 177.439 111.879 177.052 112.001 176.605C112.122 176.158 112.136 175.702 112.041 175.237L111.89 174.49C111.761 173.853 111.541 173.335 111.229 172.935C110.915 172.541 110.534 172.268 110.087 172.116C109.642 171.968 109.154 171.947 108.625 172.052C108.281 172.12 107.98 172.229 107.721 172.379C107.46 172.534 107.247 172.728 107.083 172.963C106.919 173.201 106.812 173.477 106.76 173.792L105.423 173.691C105.471 173.24 105.619 172.822 105.868 172.437C106.118 172.057 106.456 171.731 106.883 171.46C107.31 171.192 107.812 171.001 108.389 170.887Z" fill="#6AB04C"/>
<path d="M92.6026 180.944L92.5392 179.826L97.039 179.576L97.1025 180.695L92.6026 180.944ZM95.9077 182.826L94.5735 182.9L94.109 174.711C94.0879 174.338 94.0174 174.062 93.8976 173.881C93.7741 173.705 93.624 173.59 93.447 173.536C93.2665 173.486 93.0781 173.467 92.8823 173.477C92.7353 173.486 92.6151 173.5 92.5216 173.52C92.4285 173.544 92.3539 173.563 92.2981 173.577L91.9595 172.406C92.0481 172.368 92.1725 172.327 92.3325 172.285C92.4923 172.238 92.6967 172.208 92.9454 172.194C93.3223 172.174 93.696 172.233 94.0672 172.374C94.4342 172.514 94.7457 172.742 95.0018 173.057C95.254 173.372 95.3943 173.779 95.4227 174.279L95.9077 182.826Z" fill="#6AB04C"/>
<path d="M76.6492 172.66C77.4869 172.64 78.2139 172.806 78.8303 173.158C79.4428 173.514 79.9211 174.018 80.2652 174.671C80.6054 175.328 80.7862 176.098 80.8073 176.979C80.8283 177.86 80.6845 178.64 80.3762 179.32C80.064 180.003 79.6198 180.54 79.0439 180.931C78.4645 181.326 77.7822 181.532 76.9974 181.55C76.5446 181.561 76.0957 181.497 75.6505 181.358C75.2054 181.218 74.7979 180.985 74.4277 180.657C74.0575 180.334 73.7581 179.9 73.5301 179.356C73.3018 178.812 73.178 178.139 73.1589 177.336L73.1455 176.776L79.8472 176.62L79.8746 177.763L74.5313 177.887C74.5428 178.372 74.6515 178.803 74.8566 179.179C75.0581 179.556 75.3409 179.85 75.7044 180.062C76.0644 180.274 76.486 180.374 76.9691 180.363C77.5009 180.351 77.9582 180.209 78.3408 179.939C78.7196 179.672 79.0076 179.329 79.2053 178.91C79.403 178.491 79.4961 178.044 79.4849 177.57L79.4667 176.808C79.4511 176.159 79.3249 175.61 79.0876 175.164C78.8469 174.721 78.5197 174.387 78.1065 174.161C77.6935 173.939 77.2171 173.834 76.6776 173.847C76.3269 173.855 76.0109 173.911 75.7303 174.015C75.4458 174.122 75.2022 174.277 74.9994 174.48C74.7966 174.687 74.6423 174.941 74.5361 175.242L73.237 174.913C73.3627 174.477 73.5817 174.091 73.8948 173.755C74.2077 173.423 74.5979 173.16 75.0651 172.965C75.5326 172.775 76.0606 172.673 76.6492 172.66Z" fill="#6AB04C"/>
<path d="M51.2993 165.362L47.6693 173.182L46.4551 172.63L50.085 164.81L51.2993 165.362ZM46.4471 174.204C46.6837 174.312 46.8508 174.484 46.948 174.722C47.0421 174.958 47.0373 175.188 46.933 175.412C46.8291 175.636 46.6563 175.789 46.4139 175.872C46.1684 175.954 45.9273 175.941 45.6907 175.833C45.4541 175.726 45.2886 175.554 45.1949 175.318C45.0973 175.081 45.1005 174.85 45.2045 174.626C45.3084 174.402 45.4831 174.249 45.7287 174.168C45.971 174.084 46.2102 174.097 46.4471 174.204Z" fill="#6AB04C"/>
<path d="M39.5255 158.551C40.0022 158.824 40.3829 159.162 40.6671 159.562C40.9496 159.966 41.1058 160.404 41.1355 160.874C41.1632 161.348 41.035 161.827 40.7509 162.311C40.5009 162.738 40.2136 163.035 39.8884 163.202C39.5615 163.373 39.2114 163.452 38.8384 163.441C38.4653 163.43 38.0858 163.363 37.6994 163.241C37.3078 163.12 36.9242 162.981 36.5482 162.826C36.0572 162.622 35.6608 162.453 35.3598 162.319C35.0537 162.186 34.8133 162.12 34.6392 162.119C34.4619 162.117 34.319 162.207 34.2113 162.391L34.1886 162.43C33.9083 162.908 33.8226 163.356 33.9319 163.772C34.0378 164.187 34.3567 164.548 34.8889 164.853C35.4408 165.17 35.9433 165.299 36.3971 165.239C36.8505 165.18 37.2204 165.051 37.5068 164.853L38.3766 165.871C37.9155 166.21 37.4481 166.413 36.9739 166.477C36.4944 166.543 36.031 166.515 35.584 166.392C35.1315 166.27 34.716 166.101 34.3372 165.883C34.0958 165.745 33.8353 165.556 33.556 165.318C33.2712 165.082 33.0334 164.792 32.8417 164.449C32.6469 164.104 32.5547 163.699 32.5653 163.234C32.5758 162.77 32.7544 162.242 33.101 161.65L35.9756 156.746L37.1315 157.41L36.5406 158.418L36.5993 158.451C36.7724 158.335 37.0042 158.237 37.295 158.158C37.5858 158.079 37.921 158.061 38.3004 158.107C38.6796 158.152 39.088 158.3 39.5255 158.551ZM38.7472 159.477C38.2899 159.215 37.8527 159.082 37.435 159.08C37.0141 159.076 36.6414 159.169 36.3167 159.358C35.9886 159.545 35.7339 159.794 35.5521 160.104L34.9383 161.151C35.0215 161.121 35.1605 161.129 35.3554 161.176C35.5451 161.225 35.7581 161.293 35.9944 161.381C36.2255 161.471 36.45 161.561 36.6675 161.651C36.8799 161.743 37.053 161.816 37.1866 161.871C37.5096 162.005 37.8272 162.103 38.1397 162.166C38.4468 162.23 38.7306 162.222 38.9908 162.143C39.2462 162.065 39.4589 161.881 39.6295 161.59C39.8622 161.192 39.89 160.806 39.712 160.433C39.529 160.06 39.2073 159.741 38.7472 159.477Z" fill="#6AB04C"/>
<path d="M27.2086 154.874L30.0576 150.533L31.1782 151.253L26.4422 158.47L25.3596 157.774L26.0996 156.647L26.0046 156.586C25.5932 156.842 25.1404 156.97 24.6462 156.969C24.15 156.97 23.6266 156.794 23.0757 156.44C22.5819 156.123 22.2156 155.745 21.9768 155.306C21.736 154.871 21.6452 154.385 21.7046 153.849C21.762 153.316 21.9921 152.742 22.395 152.129L25.4043 147.542L26.5249 148.263L23.5649 152.773C23.1929 153.34 23.0518 153.877 23.1417 154.385C23.2296 154.896 23.5332 155.318 24.0523 155.652C24.41 155.882 24.7801 156.01 25.1625 156.038C25.5418 156.063 25.9088 155.981 26.2634 155.79C26.6181 155.599 26.9332 155.294 27.2086 154.874Z" fill="#6AB04C"/>
<path d="M63.9217 170.256L62.3095 178.712L61.041 178.475L61.2843 177.198L61.1954 177.181C60.9601 177.571 60.6134 177.857 60.1555 178.042C59.698 178.226 59.2133 178.271 58.7015 178.175C58.6049 178.157 58.4847 178.132 58.3409 178.102C58.1967 178.071 58.0883 178.045 58.0156 178.024L58.2675 176.703C58.3099 176.722 58.4088 176.758 58.5641 176.81C58.7149 176.864 58.8775 176.908 59.0519 176.94C59.4674 177.018 59.8545 177.001 60.2139 176.89C60.5688 176.781 60.8695 176.594 61.116 176.328C61.3583 176.066 61.5155 175.743 61.5885 175.362L62.6086 170.011L63.9217 170.256Z" fill="#6AB04C"/>
<path d="M92.3649 123.044C92.3649 123.044 100.98 70.5057 38.2642 73.281C38.2642 106.393 72.7319 124.436 86.3536 121.859C86.3536 121.859 87.1571 96.0869 58.0981 83.3955C72.1216 86.1708 86.3536 96.2857 92.3649 123.052V123.044Z" fill="#6AB04C"/>
<path d="M96.4837 123.044C96.4837 123.044 90.7584 88.1207 132.443 89.9709C132.443 111.974 109.534 123.969 100.478 122.257C100.478 122.257 99.945 105.124 119.253 96.6911C109.928 98.5337 100.478 105.254 96.4837 123.044Z" fill="#6AB04C"/>
<path d="M95.7871 81.1061L95.7893 81.1089L95.7941 81.1143L95.8091 81.1323L95.8614 81.1963C95.9057 81.2512 95.9682 81.3304 96.0463 81.4336C96.2026 81.6396 96.421 81.9416 96.6786 82.3338C97.1936 83.1182 97.8667 84.2663 98.5128 85.7395C99.6262 88.2788 100.661 91.7883 100.661 96.0594C104.457 91.8141 106.243 87.106 106.2 82.7717C106.153 77.9367 103.832 73.4977 99.344 70.5685C90.5414 64.8305 87.0683 58.8798 84.7944 52.4912C78.4987 65.1349 79.9454 79.6705 88.5896 90.6401C93.3021 96.6204 94.9599 102.433 95.4322 106.765C95.4794 107.197 95.5144 107.613 95.54 108.014C97.5568 100.822 97.5514 94.8544 96.9347 90.4606C96.5508 87.7225 95.9283 85.5912 95.4063 84.1515C95.1452 83.4318 94.9092 82.885 94.7409 82.5221C94.6567 82.341 94.5891 82.2057 94.5441 82.1177C94.5215 82.0735 94.5046 82.0416 94.4937 82.0214L94.4823 82.0003L94.48 81.9965C94.48 81.9965 94.4804 81.9965 94.4848 81.994L95.7871 81.1061ZM95.7871 81.1061C95.7868 81.1058 95.7868 81.1055 95.1777 81.6144L95.7871 81.1061Z" stroke="#6AB04C" stroke-width="0.5"/>
</g>
</g>
<defs>
<clipPath id="clip0_800_62953">
<rect width="169" height="183" fill="white"/>
</clipPath>
</defs>
</svg>
