<svg width="30" height="32" viewBox="0 0 30 32" fill="none" xmlns="http://www.w3.org/2000/svg">
<path d="M3.33334 29.3334C2.8 29.3334 2.33334 29.1334 1.93334 28.7334C1.53334 28.3334 1.33334 27.8667 1.33334 27.3334V9.66671C1.33334 9.13337 1.53334 8.66671 1.93334 8.26671C2.33334 7.86671 2.8 7.66671 3.33334 7.66671H7C7 5.91115 7.58889 4.41671 8.76667 3.18337C9.94445 1.95004 11.4111 1.33337 13.1667 1.33337C14.9222 1.33337 16.4444 1.95087 17.7333 3.18587C19.0222 4.42087 19.6667 5.91449 19.6667 7.66671H23.3333C23.8667 7.66671 24.3333 7.86671 24.7333 8.26671C25.1333 8.66671 25.3333 9.13337 25.3333 9.66671V27.3334C25.3333 27.8667 25.1333 28.3334 24.7333 28.7334C24.3333 29.1334 23.8667 29.3334 23.3333 29.3334H3.33334ZM3.33334 27.3334H23.3333V9.66671H3.33334V27.3334ZM13.3333 17.6667C15.0889 17.6667 16.6111 17.0223 17.9 15.7334C19.1889 14.4445 19.8333 12.9223 19.8333 11.1667H17.8333C17.8333 12.3889 17.3889 13.4445 16.5 14.3334C15.6111 15.2223 14.5556 15.6667 13.3333 15.6667C12.1111 15.6667 11.0556 15.2223 10.1667 14.3334C9.27778 13.4445 8.83334 12.3889 8.83334 11.1667H6.83334C6.83334 12.9223 7.47778 14.4445 8.76667 15.7334C10.0556 17.0223 11.5778 17.6667 13.3333 17.6667ZM9 7.66671H17.6667C17.6667 6.44449 17.25 5.41671 16.4167 4.58337C15.5833 3.75004 14.5556 3.33337 13.3333 3.33337C12.1111 3.33337 11.0833 3.75004 10.25 4.58337C9.41667 5.41671 9 6.44449 9 7.66671Z" fill="#090909"/>
</svg>
