<svg width="32" height="32" viewBox="0 0 32 32" fill="none" xmlns="http://www.w3.org/2000/svg">
<g clip-path="url(#clip0_2385_3798)">
<g clip-path="url(#clip1_2385_3798)">
<path d="M16.0667 30.6666V28.6666H26V26.8666H21.0667V17H26V14.7333C26 11.9777 25.0333 9.60552 23.1 7.61663C21.1667 5.62774 18.8222 4.6333 16.0667 4.6333C13.3111 4.6333 10.9444 5.62774 8.96667 7.61663C6.98889 9.60552 6 11.9777 6 14.7333V17H10.9333V26.8666H6C5.46667 26.8666 5 26.6666 4.6 26.2666C4.2 25.8666 4 25.4 4 24.8666V14.7333C4 13.0726 4.31667 11.5072 4.95 10.0373C5.58333 8.56729 6.44444 7.28247 7.53333 6.1828C8.62222 5.08313 9.90227 4.21663 11.3735 3.5833C12.8447 2.94997 14.4114 2.6333 16.0735 2.6333C17.7356 2.6333 19.2944 2.94997 20.75 3.5833C22.2056 4.21663 23.4672 5.08313 24.5351 6.1828C25.6029 7.28247 26.4473 8.56729 27.0684 10.0373C27.6895 11.5072 28 13.0726 28 14.7333V28.6666C28 29.2 27.8 29.6666 27.4 30.0666C27 30.4666 26.5333 30.6666 26 30.6666H16.0667ZM6 24.8666H8.93333V19H6V24.8666ZM23.0667 24.8666H26V19H23.0667V24.8666Z" fill="#090909"/>
</g>
</g>
<defs>
<clipPath id="clip0_2385_3798">
<rect width="32" height="32" fill="white"/>
</clipPath>
<clipPath id="clip1_2385_3798">
<rect width="32" height="32" fill="white"/>
</clipPath>
</defs>
</svg>
