<svg width="20" height="24" viewBox="0 0 20 24" fill="none" xmlns="http://www.w3.org/2000/svg">
<path d="M14.773 0.0120105C14.722 -0.0449895 12.8845 0.0345106 11.2855 1.77001C9.68651 3.50401 9.93251 5.49301 9.96851 5.54401C10.0045 5.59501 12.2485 5.67451 13.681 3.65701C15.1135 1.63951 14.824 0.0705105 14.773 0.0120105ZM19.744 17.6115C19.672 17.4675 16.2565 15.7605 16.5745 12.4785C16.8925 9.19501 19.087 8.29501 19.1215 8.19751C19.156 8.10001 18.226 7.01251 17.2405 6.46201C16.5169 6.07389 15.7161 5.85152 14.896 5.81101C14.734 5.80651 14.1715 5.66851 13.015 5.98501C12.253 6.19351 10.5355 6.86851 10.063 6.89551C9.58901 6.92251 8.17901 6.11251 6.66251 5.89801C5.69201 5.71051 4.66301 6.09451 3.92651 6.39001C3.19151 6.68401 1.79351 7.52101 0.815511 9.74551C-0.162489 11.9685 0.349011 15.4905 0.715011 16.5855C1.08101 17.679 1.65251 19.4715 2.62451 20.7795C3.48851 22.2555 4.63451 23.28 5.11301 23.628C5.59151 23.976 6.94151 24.207 7.87751 23.7285C8.63051 23.2665 9.98951 23.001 10.5265 23.0205C11.062 23.04 12.118 23.2515 13.1995 23.829C14.056 24.1245 14.866 24.0015 15.6775 23.6715C16.489 23.34 17.6635 22.083 19.0345 19.5345C19.555 18.3495 19.792 17.709 19.744 17.6115Z" fill="black"/>
<path d="M14.773 0.0120105C14.722 -0.0449895 12.8845 0.0345106 11.2855 1.77001C9.68651 3.50401 9.93251 5.49301 9.96851 5.54401C10.0045 5.59501 12.2485 5.67451 13.681 3.65701C15.1135 1.63951 14.824 0.0705105 14.773 0.0120105ZM19.744 17.6115C19.672 17.4675 16.2565 15.7605 16.5745 12.4785C16.8925 9.19501 19.087 8.29501 19.1215 8.19751C19.156 8.10001 18.226 7.01251 17.2405 6.46201C16.5169 6.07389 15.7161 5.85152 14.896 5.81101C14.734 5.80651 14.1715 5.66851 13.015 5.98501C12.253 6.19351 10.5355 6.86851 10.063 6.89551C9.58901 6.92251 8.17901 6.11251 6.66251 5.89801C5.69201 5.71051 4.66301 6.09451 3.92651 6.39001C3.19151 6.68401 1.79351 7.52101 0.815511 9.74551C-0.162489 11.9685 0.349011 15.4905 0.715011 16.5855C1.08101 17.679 1.65251 19.4715 2.62451 20.7795C3.48851 22.2555 4.63451 23.28 5.11301 23.628C5.59151 23.976 6.94151 24.207 7.87751 23.7285C8.63051 23.2665 9.98951 23.001 10.5265 23.0205C11.062 23.04 12.118 23.2515 13.1995 23.829C14.056 24.1245 14.866 24.0015 15.6775 23.6715C16.489 23.34 17.6635 22.083 19.0345 19.5345C19.555 18.3495 19.792 17.709 19.744 17.6115Z" fill="black"/>
</svg>
