<svg width="447" height="440" viewBox="0 0 447 440" fill="none" xmlns="http://www.w3.org/2000/svg">
<g clip-path="url(#clip0_1_38608)">
<path d="M231.057 84.8293C231.028 84.752 232.219 84.559 234.131 83.4294C235.967 82.2999 238.619 79.9154 239.58 75.7642C239.81 74.7409 239.887 73.6307 239.849 72.4722C239.762 71.3138 239.493 70.136 239.138 68.881C238.475 66.3806 237.754 63.6679 236.976 60.7524C235.429 54.9117 233.67 48.2698 231.729 40.9232C229.788 33.5766 227.665 25.5252 225.387 16.8849C224.82 14.7224 224.244 12.531 223.658 10.2913C223.158 8.07089 222.13 5.9953 220.506 4.34448C218.901 2.71296 216.787 1.51588 214.471 1.0718C212.127 0.531177 209.792 0.994565 207.37 1.71861C188.018 6.83519 166.753 12.4538 144.422 18.3523C141.732 19.0667 139.349 20.7658 137.802 23.0441C136.226 25.3032 135.534 28.1318 135.832 30.8252C135.957 32.1574 136.389 33.4993 136.735 34.8702C137.091 36.2217 137.437 37.5733 137.792 38.9248C138.494 41.6183 139.185 44.2828 139.877 46.928C142.635 57.5087 145.287 67.7129 147.824 77.444C149.083 82.3096 150.322 87.0497 151.514 91.6546C152.042 93.9908 152.82 96.1147 154.329 97.8138C155.761 99.5225 157.683 100.758 159.739 101.395C163.948 102.892 168.128 100.864 172.115 99.9956C176.113 98.953 179.947 97.949 183.608 96.9932C198.232 93.1992 210.071 90.1293 218.305 87.9958C222.38 86.9628 225.551 86.1519 227.751 85.5919C228.798 85.3313 229.625 85.1382 230.211 84.9934C230.768 84.8582 231.057 84.8196 231.057 84.8196C231.057 84.8196 230.778 84.9258 230.23 85.0899C229.644 85.254 228.837 85.4857 227.789 85.785C225.599 86.3836 222.437 87.2524 218.392 88.353C210.176 90.554 198.357 93.7205 183.771 97.64C180.11 98.6151 176.286 99.6384 172.288 100.7C170.29 101.231 168.252 101.772 166.177 102.322C164.034 102.853 161.699 102.843 159.499 102.148C157.308 101.482 155.252 100.169 153.714 98.3544C152.1 96.5974 151.225 94.1743 150.707 91.8863C149.496 87.2814 148.256 82.5413 146.978 77.6854C144.432 67.9639 141.751 57.7597 138.984 47.1886C138.292 44.5434 137.59 41.8789 136.889 39.1855C136.533 37.8436 136.187 36.4921 135.832 35.1309C135.496 33.7793 135.054 32.4278 134.9 30.9507C134.583 28.0352 135.323 24.9846 137.023 22.5421C138.695 20.0804 141.271 18.2461 144.172 17.4835C166.504 11.6042 187.778 6.00495 207.14 0.917334C209.475 0.222251 212.165 -0.318369 214.625 0.280175C217.104 0.762871 219.362 2.04684 221.073 3.80386C222.802 5.55122 223.907 7.8392 224.417 10.1175C224.993 12.3476 225.57 14.5487 226.127 16.7112C228.366 25.3611 230.451 33.4125 232.354 40.7784C234.247 48.1347 235.967 54.7862 237.475 60.6365C238.225 63.5617 238.926 66.2744 239.56 68.7844C239.897 70.0201 240.175 71.2655 240.243 72.4626C240.272 73.6597 240.175 74.8085 239.926 75.8511C238.888 80.1085 236.12 82.5027 234.227 83.5936C233.247 84.1535 232.45 84.4624 231.902 84.6169C231.354 84.781 231.066 84.8389 231.066 84.8389L231.057 84.8293Z" fill="#E0E0E0"/>
<path d="M205.737 60.1156C205.737 60.1156 205.544 60.1928 205.15 60.3087C204.728 60.4342 204.161 60.5886 203.45 60.801C201.931 61.2258 199.789 61.8147 197.146 62.5484C191.765 63.9965 184.328 66.0045 175.958 68.2635L175.785 68.3118L175.718 68.1477C175.267 67.0664 174.786 65.9176 174.296 64.7495C170.164 54.7963 166.474 45.905 164.063 40.0934L164.216 40.1706C161.824 40.7788 159.911 41.2711 158.557 41.6187C157.922 41.7731 157.423 41.8986 157.048 41.9855C156.702 42.0628 156.52 42.1014 156.52 42.0917C156.52 42.0821 156.692 42.0241 157.029 41.9179C157.404 41.8118 157.894 41.6669 158.518 41.4835C159.863 41.107 161.766 40.5857 164.149 39.9196L164.255 39.8906L164.303 39.9968C166.743 45.7892 170.481 54.6611 174.671 64.595C175.161 65.7632 175.641 66.912 176.093 67.9932L175.853 67.8774C184.232 65.6763 191.679 63.7165 197.069 62.2974C199.721 61.6216 201.874 61.0713 203.402 60.6755C204.122 60.5018 204.689 60.3569 205.122 60.2604C205.516 60.1735 205.717 60.1253 205.727 60.1446L205.737 60.1156Z" fill="#E0E0E0"/>
<path d="M173.422 62.0849C173.422 62.0849 173.47 62.0559 173.566 62.027C173.681 61.9884 173.826 61.9497 173.998 61.8918C174.412 61.776 174.979 61.6119 175.699 61.4091C177.217 60.994 179.37 60.3955 182.07 59.6521C187.537 58.1751 195.196 56.1091 204.055 53.7246L203.911 53.937C203.584 50.0464 203.229 45.8277 202.854 41.4738C202.662 39.2341 202.479 37.033 202.306 34.9284L202.566 35.1118C192.265 37.8246 183.165 40.2284 176.612 41.9565C173.364 42.7964 170.751 43.4721 168.915 43.9452C168.031 44.1672 167.339 44.341 166.84 44.4568C166.619 44.5051 166.446 44.5437 166.302 44.5823C166.177 44.6113 166.119 44.6209 166.119 44.6113C166.119 44.6113 166.177 44.5823 166.292 44.5437C166.436 44.5051 166.609 44.4472 166.821 44.3796C167.32 44.2348 168.002 44.0417 168.877 43.7907C170.703 43.2887 173.307 42.5743 176.535 41.6862C183.079 39.9291 192.159 37.477 202.451 34.716L202.691 34.6484L202.71 34.8898C202.883 36.9943 203.075 39.1954 203.258 41.4351C203.623 45.7987 203.969 50.0078 204.295 53.8984V54.0625L204.151 54.1011C195.273 56.4374 187.614 58.4454 182.128 59.8935C179.418 60.5885 177.256 61.1485 175.728 61.5346C175.007 61.7181 174.431 61.8532 174.018 61.9594C173.835 61.998 173.691 62.0366 173.576 62.0559C173.48 62.0752 173.422 62.0849 173.422 62.0752V62.0849Z" fill="#E0E0E0"/>
<path d="M185.529 74.2008C185.529 74.2008 185.423 73.9402 185.173 73.5347C184.933 73.1293 184.452 72.579 183.664 72.2701C182.896 71.9515 181.791 71.9708 180.897 72.608C180.003 73.2161 179.427 74.5001 179.763 75.7358C180.08 76.9715 181.205 77.8018 182.29 77.8886C183.386 78.0045 184.356 77.4639 184.866 76.8074C185.394 76.1509 185.538 75.4366 185.548 74.9635C185.557 74.4808 185.49 74.2105 185.529 74.2105C185.548 74.2105 185.673 74.4615 185.711 74.9635C185.75 75.4559 185.654 76.2475 185.096 76.9908C184.568 77.7342 183.501 78.381 182.262 78.2748C181.032 78.2072 179.725 77.2611 179.369 75.842C178.985 74.4325 179.658 72.9651 180.686 72.299C181.714 71.5846 182.963 71.6233 183.78 71.9998C184.625 72.3763 185.096 73.0134 185.317 73.4575C185.538 73.9112 185.548 74.2008 185.529 74.2008Z" fill="#E0E0E0"/>
<path d="M204.718 69.0934C204.718 69.0934 204.612 68.8328 204.362 68.4273C204.122 68.0218 203.642 67.4716 202.854 67.1626C202.085 66.8441 200.98 66.8634 200.087 67.5005C199.193 68.1087 198.616 69.3927 198.953 70.6284C199.27 71.8641 200.394 72.6943 201.48 72.7812C202.575 72.8971 203.546 72.3565 204.055 71.7C204.584 71.0435 204.728 70.3291 204.737 69.8561C204.747 69.3734 204.68 69.1031 204.718 69.1031C204.737 69.1031 204.862 69.3541 204.901 69.8561C204.939 70.3484 204.843 71.1401 204.286 71.8834C203.757 72.6268 202.691 73.2736 201.451 73.1674C200.221 73.0998 198.914 72.1537 198.559 70.7346C198.174 69.3251 198.847 67.8577 199.875 67.1916C200.903 66.4772 202.152 66.5158 202.969 66.8923C203.815 67.2688 204.286 67.906 204.507 68.3501C204.728 68.8038 204.737 69.0934 204.718 69.0934Z" fill="#E0E0E0"/>
<path d="M379.275 431.241C357.702 420.583 349.4 395.888 346.681 372.96C346.229 369.137 345.192 365.179 346.489 361.569C347.786 357.948 351.639 355.014 355.271 356.095C358.289 356.993 360.018 360.092 362.007 362.563C364.659 365.855 368.234 368.375 372.202 369.717C374.806 370.605 377.91 370.914 380.091 369.224C383.08 366.907 382.772 362.312 382.167 358.528C381.043 351.48 379.918 344.423 378.794 337.376C378.189 333.592 377.583 329.73 378.208 325.955C378.833 322.181 380.908 318.445 384.338 316.881C387.769 315.317 392.525 316.707 393.842 320.298C394.389 321.794 394.322 323.445 394.668 325C395.014 326.554 396.013 328.185 397.56 328.388C399.136 328.6 400.472 327.297 401.433 326.013C404.738 321.592 406.622 316.253 408.342 310.972C410.062 305.692 411.686 300.305 414.578 295.594C417.47 290.883 421.842 286.818 427.194 285.679C432.547 284.54 438.812 286.992 440.993 292.109C443.174 297.235 440.906 303.133 438.197 307.97C434.17 315.153 429.116 321.737 423.245 327.452C422.188 328.485 421.035 329.595 420.804 331.072C420.372 333.727 423.139 335.86 425.743 336.304C428.693 336.806 431.701 336.044 434.689 335.937C437.678 335.831 441.06 336.642 442.607 339.258C444.74 342.888 442.146 347.445 439.379 350.592C433.844 356.896 427.242 362.215 419.94 366.26C417.326 367.709 414.539 369.05 412.608 371.358C410.677 373.665 409.841 377.276 411.599 379.728C413.357 382.189 416.961 382.508 419.776 381.514C422.601 380.529 424.955 378.54 427.56 377.063C432.441 374.302 439.186 373.626 443.193 377.604C445.826 380.22 446.652 384.313 446.086 388.001C445.519 391.699 443.751 395.077 441.8 398.244C434.997 409.307 425.57 418.836 414.203 424.879C402.826 430.922 391.872 433.77 379.255 431.231" fill="#F5F5F5"/>
<path d="M382.945 416.036C384.521 404.007 387.346 390.964 390.757 377.43C391.622 374.051 392.477 370.711 393.323 367.419C394.169 364.136 395.014 360.873 396.033 357.745C398.041 351.47 400.453 345.581 402.922 340.069C405.382 334.557 407.919 329.411 410.321 324.613C412.743 319.825 415.078 315.403 417.374 311.464C421.948 303.567 426.387 297.65 429.597 293.711C431.201 291.732 432.489 290.245 433.383 289.241C433.815 288.768 434.151 288.391 434.401 288.112C434.632 287.861 434.757 287.735 434.766 287.745C434.776 287.745 434.67 287.889 434.459 288.16C434.219 288.449 433.902 288.845 433.498 289.338C432.643 290.371 431.384 291.886 429.818 293.885C426.676 297.872 422.323 303.818 417.816 311.725C415.548 315.664 413.242 320.095 410.85 324.883C408.467 329.681 405.959 334.827 403.518 340.339C401.077 345.842 398.685 351.712 396.696 357.958C395.687 361.076 394.851 364.31 394.005 367.602C393.16 370.894 392.314 374.234 391.44 377.613C388.028 391.138 385.194 404.142 383.589 416.132" fill="#E0E0E0"/>
<path d="M396.234 357.688C396.234 357.688 395.975 357.147 395.619 356.133C395.264 355.12 394.793 353.633 394.235 351.789C393.121 348.101 391.766 342.956 390.286 337.279C388.806 331.593 387.375 326.486 386.212 322.827C385.635 320.993 385.155 319.516 384.809 318.502C384.473 317.479 384.3 316.909 384.348 316.89C384.396 316.871 384.646 317.411 385.068 318.406C385.491 319.4 386.049 320.858 386.683 322.673C387.97 326.303 389.479 331.419 390.959 337.105C392.4 342.714 393.707 347.783 394.706 351.664C395.167 353.411 395.561 354.888 395.869 356.066C396.138 357.108 396.272 357.688 396.224 357.707L396.234 357.688Z" fill="#E0E0E0"/>
<path d="M443.3 341.102C443.3 341.102 442.627 341.334 441.407 341.633C440.177 341.932 438.399 342.367 436.227 342.965C431.865 344.133 425.888 345.958 419.383 348.256C412.887 350.573 407.093 352.918 402.952 354.733C400.876 355.631 399.214 356.394 398.061 356.925C396.908 357.456 396.264 357.726 396.245 357.688C396.225 357.639 396.831 357.292 397.945 356.684C399.06 356.085 400.694 355.245 402.759 354.28C406.862 352.339 412.647 349.906 419.162 347.589C425.686 345.282 431.702 343.525 436.112 342.483C438.313 341.942 440.109 341.585 441.359 341.363C442.608 341.15 443.3 341.054 443.309 341.102H443.3Z" fill="#E0E0E0"/>
<path d="M383.406 415.051C383.406 415.051 383.243 414.877 382.983 414.511C382.686 414.066 382.32 413.526 381.888 412.879C380.937 411.46 379.62 409.365 378.025 406.749C374.835 401.536 370.646 394.189 366.139 386.022C361.632 377.855 357.52 370.479 354.445 365.198C352.936 362.63 351.697 360.526 350.784 358.962C350.39 358.276 350.063 357.716 349.794 357.263C349.573 356.867 349.467 356.655 349.487 356.645C349.506 356.635 349.65 356.819 349.909 357.186C350.207 357.63 350.572 358.161 351.005 358.817C351.956 360.236 353.273 362.331 354.868 364.947C358.058 370.16 362.238 377.507 366.754 385.674C371.26 393.841 375.373 401.217 378.448 406.488C379.957 409.046 381.196 411.161 382.109 412.725C382.503 413.41 382.83 413.97 383.099 414.424C383.32 414.819 383.425 415.032 383.406 415.042V415.051Z" fill="#E0E0E0"/>
<path d="M444.606 384.246C444.606 384.246 444.414 384.391 444.01 384.613C443.53 384.864 442.944 385.163 442.233 385.53C440.589 386.36 438.379 387.48 435.679 388.841C430.144 391.641 422.553 395.589 414.165 399.963C405.776 404.345 398.137 408.226 392.545 410.91C389.748 412.252 387.481 413.314 385.895 414.019C385.165 414.337 384.56 414.598 384.07 414.82C383.647 414.994 383.416 415.081 383.407 415.052C383.397 415.032 383.599 414.907 384.002 414.685C384.483 414.443 385.069 414.135 385.78 413.768C387.423 412.937 389.633 411.818 392.333 410.456C397.868 407.657 405.459 403.708 413.848 399.325C422.236 394.952 429.875 391.062 435.468 388.378C438.264 387.036 440.532 385.974 442.117 385.269C442.847 384.951 443.453 384.68 443.943 384.468C444.366 384.294 444.587 384.217 444.606 384.236V384.246Z" fill="#E0E0E0"/>
<path d="M10.0994 81.8074C10.0994 81.8074 -0.62419 84.4236 7.87973 107.728C16.3836 131.033 22.7928 142.84 22.7928 142.84C22.7928 142.84 24.1573 148.178 19.7948 148.448C15.4324 148.719 6.20777 146.074 3.67101 151.094C1.03816 156.297 4.36285 161.916 11.8002 167.389C19.2375 172.863 35.0923 185.462 36.524 186.61C37.9269 187.73 39.1665 190.289 36.2165 190.955C33.2762 191.621 11.8578 191.264 12.2998 201.487C12.7419 211.701 35.9571 223.537 38.465 224.879C40.9825 226.221 41.4726 227.418 41.0786 228.846C40.6847 230.275 33.5068 229.474 27.4051 229.619C21.313 229.773 14.2697 231.019 15.0192 236.888C15.7687 242.758 28.7023 256.486 63.2177 264.17L79.4472 266.68L89.9786 253.937C110.859 225.274 111.57 206.382 108.264 201.477C104.969 196.573 98.8572 200.3 94.1777 204.229C89.4981 208.158 84.6264 213.526 83.3964 212.715C82.1665 211.904 81.7533 210.668 82.7526 207.994C83.7616 205.32 93.4282 181.04 87.0478 173.066C80.6675 165.102 64.8127 179.563 62.1607 181.011C59.5086 182.459 58.7591 179.727 59.0762 177.951C59.4029 176.146 63.0351 156.162 65.0241 147.116C67.0132 138.071 65.8217 131.651 60.4214 129.488C55.223 127.403 50.0342 135.503 46.575 138.196C43.1157 140.889 40.6366 135.976 40.6366 135.976C40.6366 135.976 37.6963 122.856 28.7792 99.7058C19.8525 76.5557 9.85917 81.875 9.85917 81.875" fill="#EBEBEB"/>
<path d="M79.832 270.628C73.346 253.599 62.3245 223.15 52.7252 197.056C43.1258 170.971 34.4201 147.357 28.0206 130.299C24.8208 121.784 22.2264 114.891 20.4199 110.103C19.5262 107.737 18.8344 105.884 18.354 104.61C18.1329 103.992 17.9504 103.519 17.8255 103.181C17.7102 102.853 17.6621 102.688 17.6621 102.688C17.6621 102.688 17.739 102.843 17.8735 103.162C18.008 103.499 18.2002 103.972 18.4404 104.581C18.9401 105.845 19.6608 107.68 20.5928 110.035C22.457 114.775 25.109 121.658 28.3473 130.173C34.8333 147.203 43.5967 170.787 53.196 196.882C62.7953 222.976 73.7591 253.454 80.1587 270.503" fill="#E0E0E0"/>
<path d="M16.4219 155.322C16.4219 155.322 16.8255 155.457 17.5173 155.776C18.2092 156.095 19.1989 156.587 20.4192 157.214C22.8503 158.46 26.1558 160.265 29.7783 162.331C33.3433 164.378 36.5623 166.222 39.0222 167.641C40.1368 168.268 41.0785 168.799 41.828 169.234C42.491 169.61 42.8561 169.832 42.8369 169.861C42.8177 169.89 42.4333 169.736 41.7319 169.417C41.04 169.098 40.0503 168.596 38.8396 167.969C36.4181 166.695 33.1319 164.851 29.5189 162.785C25.9444 160.767 22.7158 158.942 20.2367 157.543C19.122 156.915 18.1803 156.394 17.4212 155.969C16.7582 155.593 16.4027 155.371 16.4123 155.332L16.4219 155.322Z" fill="#E0E0E0"/>
<path d="M44.0854 168.934C43.9604 168.867 47.3716 161.848 51.6956 153.246C56.0293 144.645 59.6326 137.723 59.7575 137.791C59.8825 137.858 56.4809 144.877 52.1473 153.478C47.8232 162.08 44.2103 169.002 44.0854 168.934Z" fill="#E0E0E0"/>
<path d="M57.0195 209.674C57.0195 209.674 57.279 209.316 57.8075 208.747C58.4128 208.1 59.1623 207.289 60.056 206.333C61.9489 204.287 64.5626 201.458 67.3203 198.224C70.0877 195 72.4995 191.988 74.2195 189.796C75.0363 188.763 75.7185 187.894 76.2663 187.199C76.7563 186.591 77.035 186.263 77.0638 186.282C77.0926 186.301 76.862 186.668 76.4296 187.315C75.9876 187.962 75.3438 188.889 74.5078 190.008C72.8551 192.258 70.4817 195.318 67.7047 198.552C64.9373 201.796 62.2756 204.596 60.3154 206.584C59.3257 207.569 58.5185 208.361 57.9516 208.892C57.3847 209.423 57.0484 209.702 57.0291 209.683L57.0195 209.674Z" fill="#E0E0E0"/>
<path d="M29.3068 202.887C29.3068 202.887 29.7104 202.906 30.4215 203.041C31.2286 203.205 32.2279 203.408 33.4098 203.649C35.9274 204.18 39.3962 204.953 43.2206 205.841C47.0449 206.729 50.5042 207.55 52.9929 208.177C54.1556 208.476 55.1357 208.737 55.9428 208.94C56.6347 209.133 57.019 209.258 57.0094 209.287C57.0094 209.326 56.6058 209.268 55.8948 209.133C55.0876 208.969 54.0883 208.766 52.9064 208.525C50.3888 207.994 46.92 207.221 43.0957 206.333C39.2713 205.445 35.8217 204.624 33.3234 203.997C32.1607 203.698 31.1806 203.437 30.3734 203.234C29.6816 203.041 29.2972 202.916 29.3068 202.887Z" fill="#E0E0E0"/>
<path d="M36.1777 240.306C36.1777 240.306 36.687 240.344 37.5998 240.518C38.5992 240.721 39.8868 240.972 41.4242 241.281C44.6528 241.947 49.1018 242.902 54.0119 243.984C58.9221 245.075 63.3614 246.079 66.5708 246.841C68.0986 247.218 69.3766 247.527 70.3664 247.768C71.26 248 71.75 248.145 71.7404 248.174C71.7404 248.212 71.2312 248.135 70.3183 247.961C69.319 247.758 68.0314 247.507 66.4939 247.198C63.2653 246.532 58.8164 245.577 53.8966 244.486C48.9864 243.404 44.5471 242.391 41.3377 241.628C39.8099 241.252 38.5319 240.943 37.5422 240.701C36.6486 240.47 36.1585 240.325 36.1681 240.296L36.1777 240.306Z" fill="#E0E0E0"/>
<path d="M70.9531 247.749C70.9531 247.749 71.2702 247.295 71.914 246.542C72.6251 245.721 73.5475 244.659 74.6526 243.375C76.9683 240.701 80.1393 236.985 83.5409 232.785C86.9424 228.595 89.9212 224.714 92.0544 221.896C93.0825 220.544 93.9377 219.414 94.5911 218.555C95.1965 217.773 95.5424 217.349 95.5713 217.368C95.6001 217.387 95.3118 217.851 94.7545 218.671C94.2068 219.492 93.3804 220.669 92.3523 222.108C90.2863 224.985 87.346 228.904 83.9444 233.104C80.5429 237.303 77.3143 240.991 74.9312 243.607C73.7397 244.91 72.7596 245.963 72.0678 246.667C71.3759 247.382 70.982 247.758 70.9627 247.739L70.9531 247.749Z" fill="#E0E0E0"/>
<path d="M425.841 433.008C425.841 433.143 333.278 433.259 219.123 433.259C104.969 433.259 12.3867 433.143 12.3867 433.008C12.3867 432.873 104.93 432.757 219.123 432.757C333.316 432.757 425.841 432.873 425.841 433.008Z" fill="#263238"/>
<path d="M381.12 35.3623L353.244 35.343C349.506 35.343 346.47 38.5191 346.47 42.4483V47.5262C346.47 51.4554 343.433 54.6315 339.696 54.6315L285.357 54.6026C281.619 54.6026 278.592 51.4168 278.592 47.4876V42.4096C278.592 38.4805 275.565 35.2947 271.828 35.2947H262.026L237.629 35.2754C225.512 35.2754 215.683 45.1321 215.683 57.3057L215.615 410.804C215.615 422.977 225.426 432.843 237.533 432.843L381.033 432.93C393.15 432.93 402.98 423.074 402.98 410.9L403.047 57.4022C403.047 45.2382 393.237 35.3719 381.129 35.3623H381.12Z" fill="white"/>
<path d="M381.12 35.3627C381.12 35.3627 381.37 35.3627 381.87 35.382C382.369 35.4302 383.119 35.3723 384.089 35.5557C386.03 35.7874 388.99 36.4246 392.315 38.4133C393.996 39.369 395.707 40.7302 397.321 42.4873C398.935 44.2443 400.425 46.4357 401.501 49.0712C402.587 51.6875 403.173 54.7574 403.144 58.0204C403.144 61.2738 403.144 64.7396 403.154 68.4081C403.173 97.7753 403.192 140.262 403.23 192.751C403.23 245.249 403.25 307.758 403.259 377.17C403.259 385.849 403.259 394.634 403.259 403.515C403.259 405.736 403.259 407.966 403.259 410.196C403.23 412.435 403.086 414.743 402.423 416.915C401.789 419.097 400.895 421.22 399.617 423.122C398.349 425.024 396.812 426.743 395.044 428.22C391.479 431.096 387.011 432.931 382.379 433.162C377.776 433.298 373.212 433.201 368.59 433.22C359.366 433.22 350.055 433.22 340.657 433.211C321.862 433.211 302.73 433.191 283.32 433.182C273.615 433.182 263.833 433.172 253.994 433.162C249.074 433.162 244.135 433.162 239.187 433.162C234.219 433.413 229.059 432.1 224.898 429.195C220.718 426.318 217.643 421.964 216.202 417.127C215.433 414.723 215.289 412.146 215.289 409.674C215.289 407.193 215.289 404.712 215.289 402.241C215.289 392.346 215.289 382.528 215.289 372.767C215.289 353.257 215.299 334.036 215.308 315.153C215.318 277.377 215.337 240.943 215.347 206.228C215.366 171.522 215.376 138.534 215.395 107.661C215.395 92.2243 215.414 77.3186 215.424 62.9922C215.424 61.1966 215.424 59.4202 215.424 57.6439C215.433 56.7558 215.5 55.8579 215.549 54.9698C215.702 54.0913 215.77 53.2031 216 52.3439C216.807 48.8975 218.393 45.6634 220.612 43.0086C222.851 40.3634 225.657 38.2685 228.751 36.8976C231.836 35.4978 235.228 35.0055 238.504 35.0441C245.038 35.0441 251.409 35.0634 257.626 35.0634C260.73 35.0634 263.795 35.0634 266.822 35.073C268.33 35.073 269.839 35.073 271.328 35.073C272.837 34.9958 274.403 35.4109 275.643 36.2894C276.882 37.1583 277.834 38.4133 278.324 39.8324C278.891 41.2516 278.756 42.7769 278.766 44.1864C278.766 44.9007 278.766 45.6151 278.766 46.3295C278.766 47.0439 278.747 47.7486 278.833 48.4341C279.006 49.7953 279.583 51.1082 280.467 52.1219C281.341 53.1549 282.532 53.8982 283.82 54.2168C284.464 54.3809 285.117 54.4292 285.8 54.4099C286.472 54.4099 287.145 54.4099 287.817 54.4099C290.498 54.4099 293.141 54.4099 295.735 54.4195C306.113 54.4388 315.77 54.4485 324.658 54.4581C329.107 54.4581 333.354 54.4678 337.409 54.4774C338.418 54.4581 339.437 54.5257 340.398 54.4388C341.358 54.3326 342.281 53.9947 343.078 53.4927C344.693 52.4887 345.779 50.8186 346.153 49.0519C346.355 48.1734 346.317 47.2756 346.326 46.3778C346.326 45.4896 346.326 44.6111 346.326 43.7423C346.336 42.8831 346.288 42.0142 346.442 41.1743C346.586 40.3344 346.874 39.5332 347.268 38.8091C348.056 37.361 349.343 36.2605 350.766 35.7005C352.207 35.073 353.735 35.2661 355.118 35.2372C360.74 35.2565 365.496 35.2661 369.349 35.2758C373.193 35.2951 376.124 35.3047 378.103 35.3144C380.073 35.324 381.082 35.3434 381.082 35.3434C381.082 35.3434 380.073 35.3627 378.103 35.3723C376.124 35.3723 373.193 35.382 369.349 35.4013C365.506 35.4013 360.74 35.4109 355.118 35.4206C353.716 35.4495 352.226 35.2758 350.833 35.884C349.449 36.4342 348.21 37.5058 347.441 38.9153C347.057 39.62 346.778 40.3924 346.643 41.2129C346.49 42.0239 346.547 42.8831 346.538 43.7423C346.538 44.6111 346.538 45.4896 346.538 46.3778C346.538 47.266 346.576 48.1927 346.365 49.1002C345.99 50.9248 344.856 52.6528 343.194 53.7051C342.367 54.2264 341.407 54.5836 340.407 54.6995C339.389 54.7864 338.408 54.7284 337.39 54.7477C333.335 54.7477 329.078 54.7477 324.639 54.7477C315.751 54.7477 306.094 54.7477 295.716 54.7477C293.122 54.7477 290.479 54.7477 287.798 54.7477C287.126 54.7477 286.453 54.7477 285.78 54.7477C285.108 54.7671 284.387 54.7188 283.714 54.545C282.35 54.2071 281.091 53.4252 280.169 52.3439C279.227 51.2723 278.622 49.8918 278.439 48.463C278.343 47.739 278.372 47.0246 278.362 46.3102C278.362 45.5958 278.362 44.8814 278.362 44.167C278.343 42.7286 278.468 41.2805 277.93 39.9483C277.469 38.6064 276.556 37.4189 275.383 36.5984C274.202 35.7778 272.77 35.3916 271.29 35.4592H266.783C263.757 35.4592 260.691 35.4592 257.588 35.4592C251.371 35.4592 245 35.4592 238.466 35.4592C235.218 35.4206 231.922 35.9129 228.895 37.2838C225.869 38.6257 223.12 40.682 220.93 43.2789C218.758 45.8854 217.201 49.0519 216.423 52.4211C216.202 53.261 216.135 54.1299 215.981 54.9891C215.933 55.8579 215.875 56.7268 215.866 57.615C215.866 59.3913 215.866 61.1676 215.866 62.9632C215.866 77.2897 215.866 92.1953 215.866 107.632C215.866 138.505 215.866 171.483 215.866 206.199C215.866 240.914 215.866 277.348 215.866 315.124C215.866 334.007 215.866 353.238 215.866 372.738C215.866 382.489 215.866 392.317 215.866 402.212C215.866 404.683 215.866 407.164 215.866 409.645C215.866 412.117 216 414.569 216.759 416.924C218.153 421.616 221.151 425.854 225.215 428.654C229.28 431.473 234.219 432.757 239.148 432.506C244.097 432.506 249.036 432.506 253.955 432.506C263.795 432.506 273.577 432.516 283.282 432.525C302.692 432.535 321.823 432.554 340.619 432.564C350.016 432.564 359.327 432.574 368.552 432.583C373.154 432.554 377.776 432.66 382.302 432.525C386.809 432.303 391.162 430.517 394.63 427.718C396.35 426.289 397.849 424.609 399.079 422.755C400.319 420.902 401.193 418.836 401.808 416.712C402.462 414.579 402.606 412.368 402.625 410.147C402.625 407.917 402.625 405.687 402.625 403.467C402.625 394.585 402.625 385.8 402.635 377.121C402.673 307.71 402.712 245.2 402.74 192.702C402.788 140.204 402.837 97.727 402.865 68.3598C402.865 64.6913 402.875 61.2255 402.885 57.9722C402.923 54.7284 402.356 51.6971 401.28 49.0905C400.223 46.484 398.753 44.2925 397.158 42.5452C395.563 40.7978 393.871 39.427 392.199 38.4712C388.904 36.4729 385.963 35.8164 384.022 35.575C383.052 35.382 382.302 35.4302 381.803 35.3723C381.303 35.3434 381.053 35.3144 381.053 35.3144L381.12 35.3627Z" fill="#263238"/>
<path d="M251.197 71.0632C251.197 71.1598 247.574 71.2659 243.096 71.3046C238.619 71.3432 234.996 71.3046 234.996 71.1984C234.996 71.0922 238.619 70.9956 243.096 70.957C247.565 70.9184 251.197 70.957 251.197 71.0632Z" fill="#263238"/>
<path d="M251.236 75.2243C251.236 75.3209 247.613 75.4271 243.135 75.4657C238.658 75.5043 235.035 75.4657 235.035 75.3595C235.035 75.263 238.658 75.1568 243.135 75.1182C247.604 75.0795 251.236 75.1182 251.236 75.2243Z" fill="#263238"/>
<path d="M251.263 79.3845C251.263 79.481 247.641 79.5872 243.163 79.6258C238.685 79.6645 235.062 79.6258 235.062 79.5197C235.062 79.4231 238.685 79.3169 243.163 79.2783C247.631 79.2397 251.263 79.2783 251.263 79.3845Z" fill="#263238"/>
<path d="M304.392 343.632H232.277V416.085H304.392V343.632Z" fill="#F5F5F5"/>
<path d="M295.869 385.086C289.998 376.851 277.535 371.213 267.407 372.729C259.192 373.955 251.937 377.788 247.959 385.974C246.835 388.281 248.276 391.033 250.822 391.332C264.477 392.973 278.333 392.925 291.977 391.197C294.082 390.927 296.59 390.347 296.734 387.722C296.782 386.775 296.417 385.858 295.869 385.076V385.086Z" fill="#F30990"/>
<g opacity="0.5">
<path d="M295.869 385.086C289.998 376.851 277.535 371.213 267.408 372.729C259.192 373.955 251.937 377.788 247.959 385.974" fill="white"/>
</g>
<path d="M263.449 384.671C263.401 384.71 262.978 384.295 262.421 383.513C261.873 382.741 261.191 381.553 260.864 380.095C260.547 378.647 260.566 377.315 260.557 376.369C260.566 375.423 260.614 374.834 260.682 374.834C260.749 374.834 260.835 375.413 260.912 376.359C260.999 377.296 261.047 378.609 261.354 379.989C261.662 381.37 262.257 382.509 262.719 383.32C263.189 384.131 263.516 384.623 263.449 384.671Z" fill="#F5F5F5"/>
<path d="M272.154 384.266C272.001 384.246 272.222 381.929 271.914 379.091C271.626 376.253 270.934 374.023 271.078 373.974C271.193 373.926 272.116 376.127 272.414 379.033C272.731 381.939 272.279 384.285 272.154 384.266Z" fill="#F5F5F5"/>
<path d="M281.139 382.943C281.004 382.885 281.677 381.321 281.84 379.274C282.032 377.228 281.629 375.577 281.783 375.538C281.898 375.49 282.542 377.16 282.34 379.313C282.167 381.466 281.244 383.01 281.139 382.933V382.943Z" fill="#F5F5F5"/>
<g opacity="0.3">
<path d="M270.549 373.115C270.549 373.115 270.598 373.212 270.627 373.261L270.539 373.125L270.549 373.115Z" fill="black"/>
</g>
<path d="M305.228 109.418H232.277V219.289H305.228V109.418Z" fill="#F5F5F5"/>
<path d="M305.228 227.572H232.277V337.444H305.228V227.572Z" fill="#F5F5F5"/>
<path d="M385.127 206.826H312.176V309.409H385.127V206.826Z" fill="#F5F5F5"/>
<path d="M384.531 316.63H311.58V416.085H384.531V316.63Z" fill="#F5F5F5"/>
<path d="M385.127 109.418H312.176V200.165H385.127V109.418Z" fill="#F5F5F5"/>
<path d="M280.206 142.27C280.206 142.27 280.206 142.309 280.206 142.318V172.728C280.206 174.061 279.14 175.441 277.17 176.484C275.209 177.526 272.346 178.241 268.762 178.25H268.714C261.555 178.241 257.27 175.412 257.27 172.738V142.328C257.27 142.328 257.27 142.309 257.27 142.28C257.27 142.261 257.27 142.241 257.27 142.222C257.289 139.249 259.46 136.15 261.651 133.08C263.121 131.033 263.477 128.079 263.544 126.351C263.544 126.148 263.563 125.965 263.563 125.791H263.362C262.42 125.791 261.651 125.134 261.651 124.324V123.04C261.651 122.219 262.41 121.562 263.362 121.562H274.114C274.825 121.562 275.43 121.929 275.69 122.46C275.776 122.644 275.824 122.837 275.824 123.04V124.324C275.824 125.134 275.065 125.791 274.114 125.791H273.912C273.912 125.955 273.912 126.148 273.931 126.351C273.999 128.079 274.354 131.033 275.824 133.08C278.015 136.15 280.187 139.249 280.206 142.222C280.206 142.241 280.206 142.27 280.206 142.28V142.27Z" fill="#FAFAFA"/>
<path d="M280.206 142.27C280.206 142.27 280.206 142.164 280.178 141.962C280.168 141.759 280.13 141.45 280.053 141.054C279.899 140.262 279.524 139.123 278.784 137.772C278.054 136.411 276.968 134.866 275.671 133.07C274.374 131.207 273.817 128.6 273.759 125.782V125.598L273.922 125.617C274.691 125.685 275.527 125.241 275.642 124.459C275.661 124.073 275.642 123.6 275.642 123.165C275.671 122.741 275.517 122.374 275.2 122.103C274.893 121.843 274.47 121.708 274.038 121.727C273.576 121.727 273.105 121.727 272.625 121.727C271.674 121.727 270.703 121.727 269.704 121.727C267.715 121.727 265.649 121.727 263.506 121.746C262.997 121.717 262.516 121.872 262.18 122.219C262.017 122.393 261.901 122.596 261.873 122.827C261.844 123.03 261.863 123.358 261.853 123.619C261.853 123.889 261.853 124.208 261.863 124.43C261.892 124.662 261.998 124.884 262.161 125.058C262.497 125.424 262.987 125.579 263.535 125.55H263.766V125.772C263.746 126.998 263.631 128.243 263.362 129.479C263.083 130.715 262.661 131.96 261.911 133.07C260.451 135.175 258.836 137.308 257.943 139.818C257.731 140.446 257.577 141.093 257.52 141.749C257.481 142.396 257.501 143.11 257.501 143.796C257.501 145.176 257.501 146.576 257.501 147.986C257.501 150.805 257.501 153.681 257.501 156.597C257.501 161.713 257.501 166.714 257.501 171.541C257.51 172.14 257.462 172.767 257.577 173.279C257.693 173.819 258.01 174.302 258.375 174.717C259.124 175.557 260.124 176.175 261.162 176.619C263.256 177.507 265.505 177.874 267.686 177.971C269.867 178.067 272.02 177.884 274.028 177.391C276.007 176.88 277.948 176.059 279.198 174.611C279.505 174.254 279.736 173.839 279.87 173.414C280.005 172.989 279.976 172.536 279.986 172.043C279.986 171.087 279.986 170.161 279.986 169.244C279.986 167.409 279.995 165.652 280.005 163.972C280.034 157.282 280.062 151.857 280.082 148.082C280.101 146.229 280.12 144.78 280.13 143.757C280.139 142.772 280.168 142.251 280.168 142.251C280.207 142.251 280.207 142.772 280.226 143.757C280.235 144.771 280.255 146.219 280.274 148.082C280.293 151.866 280.322 157.282 280.351 163.972C280.351 165.652 280.36 167.409 280.37 169.244C280.37 170.161 280.37 171.097 280.37 172.043C280.37 172.507 280.408 173.018 280.245 173.53C280.091 174.022 279.832 174.486 279.505 174.872C278.16 176.445 276.152 177.276 274.124 177.816C272.068 178.328 269.877 178.521 267.657 178.424C265.438 178.338 263.141 177.971 260.96 177.054C259.884 176.581 258.827 175.953 258 175.026C257.597 174.563 257.232 174.022 257.087 173.385C256.943 172.719 257.011 172.14 256.991 171.532C256.991 166.705 256.991 161.704 256.991 156.587C256.991 153.672 256.991 150.805 256.991 147.976C256.991 146.566 256.991 145.167 256.991 143.786C256.991 143.081 256.982 142.425 257.02 141.701C257.078 140.996 257.241 140.301 257.472 139.654C258.404 137.038 260.057 134.885 261.517 132.8C262.901 130.705 263.247 128.127 263.304 125.772L263.525 125.994C262.939 126.033 262.247 125.839 261.815 125.357C261.594 125.115 261.45 124.807 261.411 124.478C261.392 124.14 261.411 123.909 261.402 123.619C261.411 123.329 261.383 123.098 261.431 122.75C261.479 122.432 261.652 122.142 261.863 121.92C262.295 121.466 262.949 121.292 263.497 121.321C265.639 121.321 267.705 121.331 269.694 121.341C270.684 121.341 271.664 121.341 272.615 121.341C273.086 121.341 273.557 121.341 274.028 121.341C274.518 121.331 275.047 121.486 275.421 121.814C275.815 122.123 276.027 122.692 275.979 123.156C275.979 123.609 275.988 124.015 275.959 124.498C275.806 125.531 274.71 126.013 273.893 125.936L274.057 125.772C274.095 128.543 274.624 131.111 275.854 132.916C277.132 134.721 278.198 136.304 278.909 137.685C279.63 139.065 279.986 140.233 280.11 141.035C280.168 141.44 280.197 141.749 280.187 141.952C280.187 142.164 280.187 142.261 280.168 142.261L280.206 142.27Z" fill="#263238"/>
<path d="M273.326 125.714C273.326 125.849 271.184 125.965 268.541 125.965C265.899 125.965 263.756 125.849 263.756 125.714C263.756 125.579 265.899 125.463 268.541 125.463C271.184 125.463 273.326 125.579 273.326 125.714Z" fill="#263238"/>
<path d="M279.246 146.334C278.275 145.707 277.007 145.977 275.969 146.47C274.931 146.962 273.951 147.657 272.827 147.84C271.501 148.053 270.165 147.522 268.983 146.856C267.801 146.18 266.687 145.359 265.418 144.906C262.987 144.037 260.105 144.713 258.26 146.595V172.709C258.26 172.709 259.692 177.159 269.742 176.464C279.793 175.76 279.005 171.309 279.005 171.309L279.265 146.334H279.246Z" fill="#F30990"/>
<path d="M356.923 353.623C356.923 353.623 356.923 353.662 356.923 353.671V383.878C356.923 385.201 355.866 386.572 353.906 387.605C351.956 388.638 349.111 389.352 345.556 389.352H345.508C338.397 389.343 334.141 386.524 334.141 383.869V353.662C334.141 353.662 334.141 353.642 334.141 353.613C334.141 353.594 334.141 353.575 334.141 353.556C334.16 350.601 336.312 347.522 338.493 344.471C339.954 342.434 340.3 339.509 340.377 337.791C340.377 337.588 340.396 337.404 340.396 337.231H340.204C339.262 337.231 338.503 336.574 338.503 335.773V334.499C338.503 333.688 339.262 333.031 340.204 333.031H350.889C351.59 333.031 352.196 333.398 352.455 333.919C352.542 334.103 352.58 334.296 352.58 334.499V335.773C352.58 336.584 351.821 337.231 350.879 337.231H350.687C350.687 337.395 350.687 337.578 350.706 337.791C350.774 339.509 351.12 342.444 352.59 344.471C354.761 347.512 356.923 350.601 356.943 353.556C356.943 353.575 356.943 353.604 356.943 353.613L356.923 353.623Z" fill="#FAFAFA"/>
<path d="M356.924 353.623C356.924 353.623 356.924 353.517 356.895 353.314C356.886 353.112 356.847 352.803 356.77 352.417C356.617 351.635 356.242 350.495 355.512 349.154C354.781 347.802 353.715 346.267 352.427 344.481C351.14 342.628 350.582 340.04 350.525 337.241V337.057L350.688 337.077C351.447 337.144 352.283 336.7 352.398 335.928C352.418 335.551 352.398 335.078 352.398 334.644C352.427 334.219 352.273 333.852 351.966 333.591C351.658 333.331 351.245 333.196 350.813 333.215C350.352 333.215 349.881 333.215 349.41 333.215C348.468 333.215 347.498 333.215 346.508 333.215C344.538 333.215 342.482 333.215 340.358 333.234C339.849 333.205 339.378 333.36 339.042 333.698C338.888 333.871 338.763 334.074 338.734 334.306C338.706 334.509 338.725 334.827 338.715 335.088C338.715 335.348 338.715 335.667 338.715 335.889C338.744 336.121 338.85 336.333 339.013 336.507C339.349 336.864 339.839 337.028 340.378 336.99H340.608V337.212C340.589 338.428 340.474 339.664 340.205 340.899C339.936 342.126 339.513 343.371 338.763 344.462C337.312 346.557 335.708 348.671 334.824 351.162C334.612 351.779 334.458 352.426 334.41 353.083C334.372 353.72 334.391 354.434 334.391 355.11C334.391 356.481 334.391 357.871 334.391 359.281C334.391 362.08 334.391 364.938 334.391 367.834C334.391 372.922 334.391 377.884 334.391 382.682C334.401 383.28 334.353 383.908 334.468 384.41C334.583 384.941 334.9 385.423 335.266 385.839C336.015 386.678 337.005 387.287 338.033 387.731C340.109 388.609 342.347 388.976 344.509 389.073C346.681 389.169 348.814 388.995 350.813 388.503C352.783 388.001 354.714 387.18 355.944 385.742C356.242 385.385 356.473 384.979 356.617 384.555C356.751 384.13 356.722 383.676 356.722 383.193C356.722 382.247 356.722 381.32 356.722 380.413C356.722 378.598 356.732 376.851 356.742 375.181C356.77 368.539 356.799 363.142 356.818 359.387C356.838 357.543 356.857 356.104 356.867 355.091C356.876 354.106 356.905 353.594 356.905 353.594C356.943 353.594 356.943 354.106 356.963 355.091C356.972 356.104 356.991 357.543 357.011 359.387C357.03 363.142 357.059 368.529 357.088 375.181C357.088 376.851 357.097 378.598 357.107 380.413C357.107 381.32 357.107 382.247 357.107 383.193C357.107 383.647 357.145 384.168 356.982 384.67C356.828 385.163 356.569 385.616 356.242 386.003C354.906 387.567 352.908 388.397 350.899 388.928C348.853 389.439 346.681 389.623 344.471 389.536C342.261 389.449 339.984 389.082 337.822 388.175C336.755 387.711 335.708 387.084 334.881 386.167C334.478 385.703 334.122 385.172 333.978 384.535C333.834 383.879 333.901 383.29 333.882 382.691C333.882 377.893 333.882 372.931 333.882 367.844C333.882 364.947 333.882 362.1 333.882 359.29C333.882 357.89 333.882 356.5 333.882 355.12C333.882 354.425 333.872 353.768 333.911 353.054C333.968 352.349 334.132 351.664 334.353 351.017C335.285 348.41 336.918 346.286 338.369 344.201C339.743 342.126 340.089 339.558 340.147 337.221L340.368 337.443C339.791 337.482 339.1 337.289 338.667 336.806C338.446 336.575 338.302 336.266 338.264 335.937C338.244 335.609 338.264 335.368 338.254 335.078C338.264 334.789 338.235 334.557 338.283 334.219C338.331 333.9 338.494 333.611 338.706 333.389C339.128 332.935 339.782 332.761 340.33 332.79C342.453 332.79 344.509 332.8 346.479 332.809C347.469 332.809 348.43 332.809 349.381 332.809C349.852 332.809 350.323 332.809 350.784 332.809C351.274 332.8 351.793 332.954 352.168 333.283C352.562 333.591 352.773 334.151 352.725 334.615C352.725 335.068 352.735 335.474 352.706 335.947C352.552 336.97 351.466 337.463 350.659 337.376L350.823 337.212C350.861 339.963 351.389 342.512 352.61 344.307C353.878 346.103 354.935 347.667 355.646 349.047C356.367 350.418 356.713 351.577 356.838 352.378C356.895 352.783 356.924 353.083 356.915 353.295C356.915 353.498 356.915 353.604 356.895 353.604L356.924 353.623Z" fill="#263238"/>
<path d="M350.083 337.163C350.083 337.298 347.95 337.414 345.327 337.414C342.704 337.414 340.57 337.298 340.57 337.163C340.57 337.028 342.704 336.912 345.327 336.912C347.95 336.912 350.083 337.028 350.083 337.163Z" fill="#263238"/>
<path d="M355.972 357.659C355.011 357.031 353.743 357.311 352.715 357.794C351.687 358.286 350.707 358.972 349.592 359.155C348.276 359.368 346.94 358.837 345.768 358.171C344.595 357.504 343.49 356.684 342.222 356.23C339.8 355.361 336.937 356.037 335.111 357.91V383.85C335.111 383.85 336.533 388.272 346.517 387.576C356.501 386.881 355.713 382.46 355.713 382.46L355.972 357.649V357.659Z" fill="#F30990"/>
<g opacity="0.5">
<path d="M355.972 357.659C355.011 357.031 353.743 357.311 352.715 357.794C351.687 358.286 350.707 358.972 349.592 359.155C348.276 359.368 346.94 358.837 345.768 358.171C344.595 357.504 343.49 356.684 342.222 356.23C339.8 355.361 336.937 356.037 335.111 357.91V383.85C335.111 383.85 336.533 388.272 346.517 387.576C356.501 386.881 355.713 382.46 355.713 382.46L355.972 357.649V357.659Z" fill="white"/>
</g>
<path d="M372.569 243.849C372.002 243.549 371.262 243.665 370.551 244.09C370.407 244.177 370.253 244.302 370.109 244.418C365.833 247.758 359.837 249.853 353.236 249.853C341.426 249.853 331.654 243.202 329.896 234.513V232.872C329.896 232.216 329.367 231.694 328.723 231.694C328.08 231.694 327.551 232.225 327.551 232.872V237.477C327.551 237.593 327.589 237.689 327.618 237.786C326.83 239.591 326.369 241.512 326.369 243.53C326.369 253.56 336.949 261.708 350.017 261.708C360.981 261.708 370.215 255.984 372.886 248.193C372.915 248.164 372.944 248.106 372.944 248.077C373.27 247.392 373.453 246.677 373.453 246.079C373.511 245.065 373.213 244.225 372.588 243.868L372.569 243.849Z" fill="#F30990"/>
<g opacity="0.3">
<path d="M329.012 238.983C329.012 238.983 340.139 264.711 370.301 246.677C370.301 246.677 362.528 254.787 352.39 256.756C343.233 258.542 329.636 253.339 329.021 238.974L329.012 238.983Z" fill="black"/>
</g>
<path d="M373.396 245.143C373.214 245.587 372.483 245.712 371.782 245.413C371.08 245.114 370.667 244.505 370.85 244.061C371.042 243.617 371.763 243.492 372.464 243.791C373.166 244.09 373.579 244.689 373.396 245.143Z" fill="#263238"/>
<path d="M384.638 79.2006C384.638 79.2006 384.561 79.2102 384.398 79.2199C384.225 79.2199 384.004 79.2295 383.716 79.2392C383.11 79.2392 382.245 79.2585 381.188 79.2778C379.036 79.2971 376.057 79.3261 372.704 79.355H372.636L372.627 79.2875C372.56 78.8337 372.492 78.3607 372.425 77.878C371.839 73.7461 371.31 70.0583 370.974 67.6448L371.022 67.6931C370.061 67.6931 369.302 67.6931 368.764 67.6835C368.514 67.6835 368.312 67.6834 368.159 67.6738C368.024 67.6738 367.947 67.6738 367.947 67.6641C367.947 67.6545 368.015 67.6545 368.159 67.6448C368.312 67.6448 368.505 67.6352 368.764 67.6255C369.302 67.6255 370.071 67.6062 371.022 67.5869H371.07V67.6352C371.426 70.039 371.973 73.7268 372.579 77.8587C372.646 78.3414 372.713 78.8241 372.781 79.2682L372.704 79.2006C376.057 79.2006 379.036 79.1813 381.188 79.1813C382.245 79.1813 383.11 79.1813 383.716 79.1909C384.004 79.1909 384.225 79.1909 384.398 79.2006C384.552 79.2006 384.638 79.2006 384.638 79.2102V79.2006Z" fill="#263238"/>
<path d="M372.348 76.7968C372.348 76.7968 372.367 76.7968 372.405 76.7968C372.454 76.7968 372.511 76.7968 372.578 76.7968C372.742 76.7968 372.972 76.7872 373.261 76.7775C373.866 76.7775 374.731 76.7582 375.817 76.7389C378.007 76.7196 381.073 76.6906 384.618 76.6617L384.542 76.7293C384.791 75.2426 385.07 73.6303 385.349 71.9602C385.493 71.101 385.637 70.2611 385.772 69.4598L385.848 69.5564C381.726 69.566 378.094 69.5853 375.471 69.595C374.174 69.595 373.126 69.595 372.396 69.595C372.04 69.595 371.771 69.595 371.57 69.595C371.483 69.595 371.416 69.595 371.358 69.595C371.31 69.595 371.281 69.595 371.281 69.595C371.281 69.595 371.31 69.595 371.358 69.595C371.416 69.595 371.483 69.595 371.57 69.595C371.771 69.595 372.05 69.5853 372.396 69.5757C373.126 69.566 374.174 69.5467 375.471 69.5371C378.094 69.5178 381.726 69.4792 385.848 69.4502H385.944L385.925 69.5467C385.791 70.348 385.647 71.1976 385.502 72.0471C385.214 73.7172 384.945 75.3294 384.686 76.8161V76.8837H384.609C381.063 76.8837 377.998 76.903 375.807 76.903C374.721 76.903 373.856 76.903 373.251 76.903C372.963 76.903 372.732 76.903 372.569 76.903C372.502 76.903 372.444 76.903 372.396 76.903C372.357 76.903 372.338 76.903 372.338 76.903L372.348 76.7968Z" fill="#263238"/>
<path d="M375.712 82.5122C375.712 82.5122 375.693 82.406 375.645 82.2322C375.597 82.0584 375.472 81.8074 375.203 81.6144C374.943 81.4213 374.53 81.3151 374.136 81.4696C373.742 81.6144 373.406 82.0391 373.406 82.5315C373.406 83.0238 373.752 83.4486 374.146 83.5838C374.549 83.7286 374.963 83.6224 375.212 83.4293C375.472 83.2362 375.597 82.9756 375.645 82.8018C375.693 82.6184 375.693 82.5122 375.712 82.5122C375.712 82.5122 375.741 82.6184 375.712 82.8114C375.674 83.0045 375.568 83.2845 375.289 83.5162C375.02 83.7479 374.559 83.883 374.098 83.7189C373.646 83.5741 373.243 83.0914 373.252 82.5315C373.252 81.9619 373.636 81.4792 374.088 81.3344C374.54 81.1703 375.001 81.3054 375.28 81.5275C375.558 81.7495 375.674 82.0295 375.712 82.2226C375.75 82.4156 375.731 82.5218 375.712 82.5218V82.5122Z" fill="#263238"/>
<path d="M383.39 82.4633C383.39 82.4633 383.371 82.3572 383.323 82.1834C383.274 82.0096 383.15 81.7586 382.88 81.5655C382.621 81.3725 382.208 81.2663 381.814 81.4207C381.42 81.5655 381.084 81.9903 381.084 82.4827C381.084 82.975 381.43 83.3998 381.823 83.5349C382.227 83.6797 382.64 83.5736 382.89 83.3805C383.15 83.1874 383.274 82.9267 383.323 82.753C383.371 82.5695 383.371 82.4633 383.39 82.4633C383.39 82.4633 383.419 82.5695 383.39 82.7626C383.351 82.9557 383.246 83.2357 382.967 83.4674C382.698 83.6991 382.237 83.8342 381.775 83.6701C381.324 83.5253 380.92 83.0426 380.93 82.4827C380.93 81.9131 381.314 81.4304 381.766 81.2856C382.217 81.1215 382.679 81.2566 382.957 81.4787C383.236 81.7007 383.351 81.9807 383.39 82.1737C383.428 82.3668 383.409 82.473 383.39 82.473V82.4633Z" fill="#263238"/>
<path d="M388.606 68.2146C388.616 70.1068 387.097 71.6418 385.224 71.6514C383.34 71.6611 381.812 70.1358 381.803 68.2532C381.793 66.3707 383.311 64.8261 385.185 64.8165C387.068 64.8068 388.596 66.3321 388.606 68.2146Z" fill="#F30990"/>
<path d="M385.619 66.9208L385.599 69.5177H385.004L385.023 67.3938H384.504V66.9111H385.619V66.9208Z" fill="white"/>
<path d="M358.942 382.914H259.615C252.249 382.914 246.277 388.913 246.277 396.314V402.743C246.277 410.144 252.249 416.143 259.615 416.143H358.942C366.308 416.143 372.279 410.144 372.279 402.743V396.314C372.279 388.913 366.308 382.914 358.942 382.914Z" fill="#F30990"/>
<g opacity="0.3">
<path d="M358.942 382.914H259.615C252.249 382.914 246.277 388.913 246.277 396.314V402.743C246.277 410.144 252.249 416.143 259.615 416.143H358.942C366.308 416.143 372.279 410.144 372.279 402.743V396.314C372.279 388.913 366.308 382.914 358.942 382.914Z" fill="black"/>
</g>
<path d="M354.052 382.914H254.724C247.358 382.914 241.387 388.913 241.387 396.314V402.743C241.387 410.144 247.358 416.143 254.724 416.143H354.052C361.418 416.143 367.389 410.144 367.389 402.743V396.314C367.389 388.913 361.418 382.914 354.052 382.914Z" fill="#F30990"/>
<path d="M300.606 397.705C300.606 399.413 299.376 400.446 297.339 400.446H295.408V402.821H294.293V394.963H297.339C299.376 394.963 300.606 395.996 300.606 397.705ZM299.491 397.705C299.491 396.585 298.742 395.938 297.31 395.938H295.408V399.462H297.31C298.742 399.462 299.491 398.824 299.491 397.695V397.705Z" fill="white"/>
<path d="M306.833 400.851H302.682L301.817 402.81H300.664L304.21 394.952H305.315L308.87 402.81H307.698L306.833 400.851ZM306.439 399.953L304.748 396.101L303.057 399.953H306.429H306.439Z" fill="white"/>
<path d="M312.55 400.098V402.81H311.445V400.069L308.342 394.952H309.533L312.032 399.094L314.549 394.952H315.654L312.55 400.088V400.098Z" fill="white"/>
<path d="M271.185 264.961C271.752 261.273 270.791 257.364 268.59 254.361C266.38 251.359 262.95 249.283 259.279 248.743C258.933 248.694 258.559 248.665 258.27 248.859C257.867 249.139 257.848 249.727 257.896 250.229C258.232 253.811 259.721 257.267 262.085 259.97C264.449 262.673 267.687 264.585 271.175 265.367" fill="#455A64"/>
<path d="M251.371 291.172C254.936 298.557 260.057 303.529 266.409 303.771C267.677 303.819 268.638 302.979 269.849 302.902C270.473 302.94 271.194 303.384 271.876 303.674C272.241 303.819 272.607 303.925 272.933 303.915C279.496 303.558 285.079 298.924 288.846 291.172C294.092 280.311 292.468 268.649 285.233 265.107C284.205 264.595 283.234 264.218 282.273 263.948C281.101 263.639 279.948 263.485 278.67 263.523C276.441 263.562 273.885 264.18 270.445 265.396C270.329 265.435 270.204 265.483 270.089 265.522C264.208 262.915 259.51 262.896 254.955 265.107C247.719 268.649 246.105 280.311 251.361 291.172H251.371Z" fill="#F30990"/>
<path d="M251.505 280.177C251.505 280.177 251.092 279.395 250.9 277.995C250.708 276.605 250.804 274.597 251.554 272.569C252.303 270.532 253.523 268.949 254.571 268.022C255.618 267.076 256.416 266.719 256.444 266.758C256.492 266.835 255.772 267.298 254.821 268.283C253.869 269.248 252.745 270.803 252.024 272.753C251.313 274.703 251.16 276.614 251.256 277.976C251.342 279.337 251.592 280.167 251.505 280.196V280.177Z" fill="#FAFAFA"/>
<path d="M252.831 285.332C252.697 285.361 252.466 284.849 252.312 284.183C252.159 283.517 252.149 282.957 252.284 282.928C252.418 282.899 252.649 283.411 252.803 284.077C252.956 284.743 252.966 285.303 252.831 285.332Z" fill="#FAFAFA"/>
<path d="M286.136 247.208C286.174 247.295 284.781 247.826 282.744 249.052C281.716 249.66 280.563 250.481 279.352 251.475C278.16 252.498 276.931 253.715 275.768 255.115C274.634 256.524 273.692 257.982 272.933 259.362C272.193 260.752 271.626 262.056 271.232 263.185C270.444 265.435 270.204 266.912 270.108 266.892C270.07 266.892 270.108 266.516 270.223 265.85C270.272 265.512 270.339 265.106 270.464 264.643C270.579 264.18 270.694 263.639 270.896 263.069C271.242 261.911 271.799 260.569 272.52 259.15C273.269 257.74 274.221 256.244 275.374 254.806C276.546 253.377 277.815 252.151 279.044 251.127C280.294 250.133 281.485 249.322 282.552 248.753C283.071 248.444 283.57 248.222 284.003 248.019C284.435 247.807 284.81 247.652 285.127 247.536C285.761 247.305 286.107 247.189 286.126 247.218L286.136 247.208Z" fill="#263238"/>
<path d="M375.135 146.161C369.264 137.926 356.801 132.289 346.673 133.804C338.457 135.03 331.202 138.863 327.224 147.049C326.1 149.357 327.541 152.108 330.088 152.407C343.742 154.048 357.598 154 371.243 152.272C373.347 152.002 375.855 151.423 375.999 148.797C376.047 147.851 375.682 146.934 375.135 146.152V146.161Z" fill="#F30990"/>
<path d="M342.705 145.755C342.657 145.794 342.234 145.379 341.677 144.597C341.129 143.825 340.447 142.637 340.12 141.179C339.803 139.731 339.822 138.399 339.812 137.453C339.822 136.507 339.87 135.918 339.937 135.918C340.005 135.918 340.091 136.497 340.168 137.443C340.255 138.38 340.303 139.693 340.61 141.073C340.918 142.454 341.513 143.593 341.975 144.404C342.445 145.215 342.772 145.707 342.705 145.755Z" fill="#263238"/>
<path d="M351.41 145.35C351.256 145.331 351.477 143.014 351.17 140.176C350.882 137.338 350.19 135.108 350.334 135.059C350.449 135.011 351.372 137.212 351.67 140.118C351.977 143.024 351.535 145.37 351.41 145.35Z" fill="#263238"/>
<path d="M360.395 144.018C360.26 143.96 360.933 142.396 361.096 140.349C361.288 138.303 360.885 136.652 361.038 136.613C361.154 136.565 361.798 138.235 361.596 140.388C361.423 142.541 360.5 144.085 360.395 144.008V144.018Z" fill="#263238"/>
<g opacity="0.3">
<path d="M349.814 134.2C349.814 134.2 349.863 134.297 349.892 134.346L349.805 134.21L349.814 134.2Z" fill="black"/>
</g>
<g opacity="0.3">
<path d="M349.891 134.345C348.181 137.289 348.392 141.585 351.333 144.694C352.169 141.315 351.679 137.337 349.891 134.345Z" fill="black"/>
</g>
<g opacity="0.3">
<path d="M341.533 144.307C340.601 142.618 340.043 140.726 339.899 138.805C339.842 137.955 339.842 137.067 339.525 136.275C338.525 137.53 338.016 139.162 338.131 140.755C338.256 142.435 339.073 144.047 340.341 145.147C340.543 145.321 340.755 145.476 341.014 145.534C341.273 145.591 341.571 145.505 341.696 145.283C341.869 144.983 341.696 144.616 341.523 144.307H341.533Z" fill="black"/>
</g>
<g opacity="0.3">
<path d="M361.182 137.386C361.125 137.058 361.077 136.72 360.894 136.44C360.721 136.16 360.394 135.938 360.068 135.996C359.616 136.073 359.395 136.584 359.261 137.029C358.655 138.979 358.107 141.054 358.597 143.033C358.713 143.497 359.001 144.028 359.472 143.999C359.827 143.97 360.068 143.622 360.231 143.294C361.24 141.315 361.413 139.587 361.182 137.386Z" fill="black"/>
</g>
<path d="M249.363 199.2V200.107H248.7V199.209C247.912 199.161 247.144 198.9 246.73 198.534L247.096 197.713C247.49 198.041 248.095 198.273 248.71 198.331V196.709C247.816 196.487 246.855 196.197 246.855 195.077C246.855 194.257 247.451 193.533 248.71 193.407V192.49H249.373V193.388C249.969 193.417 250.574 193.6 251.006 193.88L250.68 194.701C250.257 194.45 249.805 194.315 249.373 194.267V195.898C250.267 196.12 251.237 196.4 251.237 197.52C251.237 198.341 250.632 199.055 249.373 199.19L249.363 199.2ZM248.7 195.734V194.296C248.133 194.382 247.884 194.672 247.884 195.029C247.884 195.415 248.229 195.599 248.7 195.734ZM250.199 197.607C250.199 197.211 249.844 197.028 249.363 196.883V198.312C249.949 198.225 250.199 197.945 250.199 197.597V197.607Z" fill="#263238"/>
<path d="M256.042 193.475V199.132H254.994V194.353H253.803V193.475H256.042Z" fill="#263238"/>
<path d="M258.453 198.515C258.453 198.688 258.415 198.843 258.271 199.21L257.858 200.349H257.204L257.521 199.113C257.3 199.017 257.146 198.804 257.146 198.515C257.146 198.109 257.425 197.839 257.8 197.839C258.175 197.839 258.453 198.109 258.453 198.515Z" fill="#263238"/>
<path d="M263.23 197.394C263.23 198.388 262.509 199.219 261.001 199.219C260.203 199.219 259.396 198.977 258.887 198.562L259.329 197.742C259.742 198.08 260.347 198.302 260.991 198.302C261.741 198.302 262.183 197.973 262.183 197.433C262.183 196.892 261.837 196.554 260.664 196.554H259.309L259.598 193.475H262.903V194.353H260.482L260.357 195.666H260.895C262.557 195.666 263.23 196.39 263.23 197.394Z" fill="#263238"/>
<path d="M263.834 196.303C263.834 194.44 264.853 193.388 266.188 193.388C267.524 193.388 268.552 194.44 268.552 196.303C268.552 198.166 267.533 199.219 266.188 199.219C264.843 199.219 263.834 198.166 263.834 196.303ZM267.485 196.303C267.485 194.932 266.957 194.305 266.179 194.305C265.4 194.305 264.881 194.932 264.881 196.303C264.881 197.674 265.41 198.302 266.179 198.302C266.947 198.302 267.485 197.674 267.485 196.303Z" fill="#263238"/>
<path d="M291.833 206.344C291.833 206.479 281.504 206.595 268.753 206.595C256.001 206.595 245.672 206.479 245.672 206.344C245.672 206.209 256.001 206.093 268.753 206.093C281.504 206.093 291.833 206.209 291.833 206.344Z" fill="#263238"/>
<path d="M267.178 210.118C267.178 210.253 262.383 210.369 256.464 210.369C250.545 210.369 245.75 210.253 245.75 210.118C245.75 209.983 250.545 209.867 256.464 209.867C262.383 209.867 267.178 209.983 267.178 210.118Z" fill="#263238"/>
<path d="M330.24 176.049V176.957H329.577V176.059C328.789 176.011 328.021 175.75 327.607 175.383L327.973 174.563C328.367 174.881 328.972 175.123 329.587 175.18V173.559C328.693 173.337 327.732 173.047 327.732 171.927C327.732 171.107 328.328 170.382 329.587 170.257V169.34H330.25V170.238C330.846 170.267 331.451 170.45 331.883 170.73L331.557 171.551C331.134 171.3 330.682 171.164 330.25 171.116V172.748C331.144 172.97 332.114 173.25 332.114 174.37C332.114 175.19 331.509 175.905 330.25 176.04L330.24 176.049ZM329.577 172.584V171.145C329.01 171.232 328.761 171.522 328.761 171.879C328.761 172.265 329.106 172.448 329.577 172.584ZM331.076 174.456C331.076 174.061 330.721 173.877 330.24 173.732V175.161C330.826 175.074 331.076 174.794 331.076 174.447V174.456Z" fill="#263238"/>
<path d="M339.052 175.103V175.991H334.901V175.286L337.14 173.153C337.687 172.632 337.784 172.294 337.784 171.985C337.784 171.463 337.428 171.164 336.736 171.164C336.188 171.164 335.727 171.348 335.42 171.753L334.689 171.184C335.122 170.595 335.9 170.247 336.832 170.247C338.053 170.247 338.841 170.875 338.841 171.869C338.841 172.419 338.687 172.921 337.908 173.655L336.4 175.093H339.052V175.103Z" fill="#263238"/>
<path d="M341.031 175.374C341.031 175.548 340.993 175.693 340.849 176.069L340.436 177.208H339.782L340.099 175.973C339.878 175.876 339.725 175.664 339.725 175.374C339.725 174.969 340.003 174.698 340.378 174.698C340.753 174.698 341.031 174.969 341.031 175.374Z" fill="#263238"/>
<path d="M345.864 175.103V175.991H341.713V175.286L343.952 173.153C344.5 172.632 344.596 172.294 344.596 171.985C344.596 171.463 344.241 171.164 343.549 171.164C343.001 171.164 342.54 171.348 342.232 171.753L341.502 171.184C341.934 170.595 342.713 170.247 343.645 170.247C344.865 170.247 345.653 170.875 345.653 171.869C345.653 172.419 345.499 172.921 344.721 173.655L343.212 175.093H345.864V175.103Z" fill="#263238"/>
<path d="M350.574 174.253C350.574 175.248 349.853 176.078 348.344 176.078C347.547 176.078 346.74 175.837 346.23 175.422L346.672 174.601C347.086 174.939 347.691 175.161 348.335 175.161C349.084 175.161 349.526 174.833 349.526 174.292C349.526 173.751 349.18 173.414 348.008 173.414H346.653L346.942 170.334H350.247V171.212H347.826L347.701 172.525H348.239C349.901 172.525 350.574 173.249 350.574 174.253Z" fill="#263238"/>
<path d="M372.712 183.203C372.712 183.338 362.383 183.454 349.631 183.454C336.88 183.454 326.551 183.338 326.551 183.203C326.551 183.068 336.88 182.952 349.631 182.952C362.383 182.952 372.712 183.068 372.712 183.203Z" fill="#263238"/>
<path d="M348.057 186.978C348.057 187.113 343.262 187.229 337.343 187.229C331.424 187.229 326.629 187.113 326.629 186.978C326.629 186.842 331.424 186.727 337.343 186.727C343.262 186.727 348.057 186.842 348.057 186.978Z" fill="#263238"/>
<path d="M247.527 316.688V317.595H246.864V316.698C246.076 316.649 245.308 316.389 244.895 316.022L245.26 315.201C245.654 315.53 246.259 315.761 246.874 315.819V314.197C245.98 313.975 245.019 313.686 245.019 312.566C245.019 311.745 245.615 311.021 246.874 310.896V309.979H247.537V310.876C248.133 310.905 248.738 311.089 249.171 311.369L248.844 312.189C248.421 311.938 247.969 311.803 247.537 311.755V313.386C248.431 313.608 249.401 313.888 249.401 315.008C249.401 315.829 248.796 316.543 247.537 316.678L247.527 316.688ZM246.864 313.222V311.784C246.297 311.871 246.048 312.16 246.048 312.518C246.048 312.904 246.394 313.087 246.864 313.222ZM248.363 315.095C248.363 314.699 248.008 314.516 247.527 314.371V315.8C248.114 315.713 248.363 315.433 248.363 315.085V315.095Z" fill="#263238"/>
<path d="M252.256 313.791C252.256 311.928 253.274 310.876 254.61 310.876C255.946 310.876 256.964 311.928 256.964 313.791C256.964 315.655 255.946 316.707 254.61 316.707C253.274 316.707 252.256 315.655 252.256 313.791ZM255.907 313.791C255.907 312.421 255.379 311.793 254.6 311.793C253.822 311.793 253.303 312.421 253.303 313.791C253.303 315.162 253.832 315.79 254.6 315.79C255.369 315.79 255.907 315.162 255.907 313.791Z" fill="#263238"/>
<path d="M258.865 316.013C258.865 316.186 258.827 316.331 258.683 316.708L258.27 317.847H257.616L257.933 316.611C257.712 316.515 257.559 316.302 257.559 316.013C257.559 315.607 257.837 315.337 258.212 315.337C258.587 315.337 258.865 315.617 258.865 316.013Z" fill="#263238"/>
<path d="M263.642 314.882C263.642 315.877 262.921 316.697 261.413 316.697C260.615 316.697 259.808 316.456 259.299 316.041L259.741 315.22C260.154 315.558 260.759 315.78 261.403 315.78C262.153 315.78 262.595 315.452 262.595 314.911C262.595 314.371 262.249 314.033 261.076 314.033H259.722L260.01 310.953H263.315V311.832H260.894L260.769 313.145H261.307C262.969 313.145 263.642 313.869 263.642 314.873V314.882Z" fill="#263238"/>
<path d="M264.246 313.791C264.246 311.928 265.265 310.876 266.6 310.876C267.936 310.876 268.964 311.928 268.964 313.791C268.964 315.655 267.946 316.707 266.6 316.707C265.255 316.707 264.246 315.655 264.246 313.791ZM267.897 313.791C267.897 312.421 267.369 311.793 266.591 311.793C265.812 311.793 265.293 312.421 265.293 313.791C265.293 315.162 265.822 315.79 266.591 315.79C267.359 315.79 267.897 315.162 267.897 313.791Z" fill="#263238"/>
<path d="M289.99 323.841C289.99 323.976 279.66 324.092 266.909 324.092C254.158 324.092 243.828 323.976 243.828 323.841C243.828 323.706 254.158 323.59 266.909 323.59C279.66 323.59 289.99 323.706 289.99 323.841Z" fill="#263238"/>
<path d="M265.332 327.616C265.332 327.751 260.537 327.867 254.618 327.867C248.699 327.867 243.904 327.751 243.904 327.616C243.904 327.481 248.699 327.365 254.618 327.365C260.537 327.365 265.332 327.481 265.332 327.616Z" fill="#263238"/>
<path d="M326.504 286.056V286.964H325.841V286.066C325.053 286.018 324.284 285.757 323.871 285.39L324.236 284.569C324.63 284.888 325.236 285.129 325.851 285.187V283.565C324.957 283.343 323.996 283.054 323.996 281.934C323.996 281.113 324.592 280.389 325.851 280.264V279.347H326.514V280.245C327.109 280.273 327.715 280.457 328.147 280.737L327.82 281.557C327.398 281.306 326.946 281.171 326.514 281.123V282.755C327.407 282.977 328.378 283.257 328.378 284.376C328.378 285.197 327.772 285.911 326.514 286.047L326.504 286.056ZM325.841 282.59V281.152C325.274 281.239 325.024 281.528 325.024 281.886C325.024 282.272 325.37 282.455 325.841 282.59ZM327.34 284.463C327.34 284.067 326.984 283.884 326.504 283.739V285.168C327.09 285.081 327.34 284.801 327.34 284.454V284.463Z" fill="#263238"/>
<path d="M333.182 280.331V285.988H332.135V281.21H330.943V280.331H333.182Z" fill="#263238"/>
<path d="M335.584 285.381C335.584 285.555 335.546 285.699 335.402 286.076L334.988 287.215H334.335L334.652 285.979C334.431 285.883 334.277 285.67 334.277 285.381C334.277 284.975 334.556 284.705 334.931 284.705C335.305 284.705 335.584 284.985 335.584 285.381Z" fill="#263238"/>
<path d="M336.17 283.16C336.17 281.296 337.188 280.244 338.524 280.244C339.86 280.244 340.888 281.296 340.888 283.16C340.888 285.023 339.869 286.075 338.524 286.075C337.179 286.075 336.17 285.023 336.17 283.16ZM339.821 283.16C339.821 281.789 339.293 281.161 338.515 281.161C337.736 281.161 337.217 281.789 337.217 283.16C337.217 284.53 337.746 285.158 338.515 285.158C339.283 285.158 339.821 284.53 339.821 283.16Z" fill="#263238"/>
<path d="M341.59 283.16C341.59 281.296 342.608 280.244 343.944 280.244C345.28 280.244 346.298 281.296 346.298 283.16C346.298 285.023 345.28 286.075 343.944 286.075C342.608 286.075 341.59 285.023 341.59 283.16ZM345.241 283.16C345.241 281.789 344.713 281.161 343.934 281.161C343.156 281.161 342.637 281.789 342.637 283.16C342.637 284.53 343.166 285.158 343.934 285.158C344.703 285.158 345.241 284.53 345.241 283.16Z" fill="#263238"/>
<path d="M368.964 293.209C368.964 293.344 358.634 293.46 345.883 293.46C333.132 293.46 322.803 293.344 322.803 293.209C322.803 293.074 333.132 292.958 345.883 292.958C358.634 292.958 368.964 293.074 368.964 293.209Z" fill="#263238"/>
<path d="M344.319 296.984C344.319 297.12 339.524 297.235 333.605 297.235C327.685 297.235 322.891 297.12 322.891 296.984C322.891 296.849 327.685 296.733 333.605 296.733C339.524 296.733 344.319 296.849 344.319 296.984Z" fill="#263238"/>
<path d="M334.2 76.8262C334.2 76.9614 323.064 77.0772 309.323 77.0772C295.582 77.0772 284.445 76.9614 284.445 76.8262C284.445 76.691 295.582 76.5752 309.323 76.5752C323.064 76.5752 334.2 76.691 334.2 76.8262Z" fill="#F30990"/>
<path d="M10.215 376.6C10.215 376.6 5.25682 376.6 3.96922 381.948C2.68162 387.296 2.49905 389.14 2.49905 389.14C2.49905 389.14 -3.1414 394.228 2.49905 395.599C8.13951 396.96 10.2054 389.323 10.2054 389.323L11.0702 376.6H10.2054H10.215Z" fill="#FFBE9D"/>
<path d="M66.697 279.037C66.697 279.037 84.3198 219.579 86.1166 217.02C89.0762 212.782 117.605 200.049 117.605 200.049L125.254 184.361L172.674 176.744L184.416 191.939L217.442 216.248L215.136 300.353L213.906 359.078L220.152 432.38L70.1562 432.148L76.9401 416.712L84.0603 283.381L66.6777 279.037H66.697Z" fill="#F30990"/>
<path d="M87.0195 271.024C87.0195 271.024 86.981 270.86 86.9618 270.541C86.9426 270.165 86.9138 269.711 86.885 269.161C86.8273 267.964 86.7793 266.236 86.7408 264.093C86.6639 259.806 86.6543 253.888 86.8465 247.353C87.0387 240.817 87.375 234.909 87.7017 230.632C87.8651 228.499 88.0092 226.77 88.1341 225.573C88.1918 225.023 88.2398 224.569 88.2879 224.203C88.3263 223.894 88.3551 223.729 88.3743 223.729C88.3936 223.729 88.3936 223.894 88.384 224.212C88.3647 224.589 88.3455 225.042 88.3263 225.593C88.259 226.867 88.1629 228.576 88.0476 230.651C87.817 234.928 87.5288 240.836 87.3462 247.362C87.1636 253.888 87.106 259.806 87.0964 264.083C87.0964 266.168 87.0867 267.877 87.0771 269.151C87.0771 269.701 87.0579 270.155 87.0579 270.532C87.0483 270.85 87.0387 271.014 87.0195 271.014V271.024Z" fill="#263238"/>
<g opacity="0.3">
<path d="M120.997 253.927C120.969 253.232 121.18 252.595 121.555 252.064C122.679 250.471 125.264 249.766 127.157 250.664C129.674 251.871 130.923 254.767 131.423 257.518C131.971 260.53 131.894 263.639 132.461 266.651C133.028 269.663 134.402 272.733 137.025 274.297C140.283 276.228 144.559 275.349 147.979 276.971C153.072 279.385 154.254 286.036 154.513 291.684C154.994 302.39 154.533 313.106 154.071 323.812C153.091 346.605 152.111 369.388 151.131 392.181L148.46 426.482L134.661 432.37L116.404 311.87L121.017 253.918L120.997 253.927Z" fill="black"/>
</g>
<path d="M124.927 244.177C124.927 244.177 124.822 244.264 124.572 244.37C124.322 244.467 123.918 244.554 123.409 244.486C122.41 244.38 120.892 243.54 120.277 241.735C119.979 240.856 119.902 239.823 119.998 238.761C120.085 237.69 120.325 236.58 120.555 235.421C121.017 233.095 121.526 230.546 122.054 227.862C123.131 222.504 124.14 217.658 124.889 214.154C125.264 212.474 125.571 211.074 125.802 210.012C126.032 209.037 126.167 208.496 126.205 208.506C126.244 208.506 126.167 209.066 125.994 210.051C125.802 211.122 125.542 212.532 125.235 214.221C124.572 217.745 123.621 222.601 122.544 227.959C121.997 230.633 121.478 233.172 121.007 235.508C120.507 237.806 120.065 239.939 120.613 241.619C121.132 243.289 122.525 244.129 123.438 244.283C124.409 244.457 124.918 244.1 124.927 244.168V244.177Z" fill="#263238"/>
<path d="M129.808 221.809C129.808 221.857 129.414 221.857 128.761 222.06C128.117 222.262 127.195 222.735 126.445 223.701C125.696 224.628 125.177 226.143 125.734 227.659C126.234 229.136 127.685 230.545 129.491 230.7C131.307 230.825 132.96 229.667 133.681 228.296C134.469 226.896 134.19 225.313 133.594 224.28C133.008 223.218 132.172 222.591 131.567 222.291C130.952 221.982 130.567 221.925 130.577 221.876C130.577 221.857 130.673 221.867 130.865 221.886C131.048 221.905 131.326 221.973 131.653 222.108C132.307 222.369 133.229 222.977 133.902 224.097C134.228 224.657 134.497 225.332 134.574 226.114C134.642 226.887 134.497 227.746 134.084 228.518C133.296 230.053 131.509 231.347 129.443 231.212C127.387 231.019 125.821 229.455 125.282 227.813C124.994 226.983 124.994 226.114 125.177 225.371C125.369 224.618 125.744 223.99 126.157 223.488C127.002 222.484 128.002 222.04 128.694 221.886C129.04 221.799 129.318 221.78 129.51 221.789C129.693 221.789 129.799 221.809 129.799 221.818L129.808 221.809Z" fill="#263238"/>
<path d="M145.942 283.275L59.3075 267.529L18.873 276.44L109.37 292.803L145.942 283.275Z" fill="#F30990"/>
<g opacity="0.6">
<path d="M145.942 283.275L59.3075 267.529L18.873 276.44L109.37 292.803L145.942 283.275Z" fill="black"/>
</g>
<path d="M90.5449 321.234C91.7172 305.19 96.0989 264.45 99.3852 248.704C100.365 243.993 101.499 239.176 104.228 235.218C106.957 231.26 111.665 228.315 116.403 229.049C120.631 229.706 124.022 233.152 125.742 237.081C127.462 241.02 128.097 245.413 127.924 249.709C127.107 269.171 125.435 290.969 125.454 309.013" fill="#455A64"/>
<path d="M119.89 283.024C119.909 283.101 118.66 283.42 116.681 284.047C114.701 284.665 111.992 285.631 109.109 286.934C106.226 288.247 103.728 289.666 101.95 290.757C100.182 291.848 99.1155 292.572 99.0675 292.514C99.0483 292.485 99.2885 292.273 99.7497 291.906C100.211 291.539 100.893 291.037 101.758 290.458C103.488 289.28 105.986 287.803 108.897 286.48C111.809 285.158 114.557 284.24 116.575 283.71C117.584 283.439 118.41 283.246 118.987 283.15C119.563 283.043 119.88 282.995 119.89 283.034V283.024Z" fill="#263238"/>
<path d="M121.331 264.508C121.35 264.595 120.024 264.875 117.949 265.522C115.873 266.159 113.058 267.221 110.127 268.766C107.196 270.32 104.737 272.048 103.036 273.4C101.335 274.751 100.345 275.678 100.288 275.62C100.259 275.591 100.489 275.34 100.912 274.896C101.335 274.452 101.979 273.844 102.815 273.12C104.477 271.681 106.937 269.886 109.906 268.312C112.875 266.748 115.748 265.734 117.862 265.174C118.919 264.894 119.784 264.701 120.389 264.605C120.995 264.508 121.331 264.46 121.341 264.499L121.331 264.508Z" fill="#263238"/>
<path d="M119.382 249.602C119.382 249.689 118.354 249.737 116.73 250.037C115.106 250.336 112.896 250.954 110.648 252.074C108.399 253.203 106.573 254.603 105.363 255.723C104.142 256.843 103.489 257.644 103.422 257.586C103.393 257.567 103.537 257.345 103.816 256.968C104.085 256.582 104.536 256.07 105.122 255.462C106.295 254.255 108.13 252.778 110.427 251.62C112.733 250.471 115.01 249.892 116.672 249.679C117.508 249.573 118.181 249.525 118.652 249.544C119.123 249.544 119.382 249.564 119.382 249.602Z" fill="#263238"/>
<path d="M108.62 296.018C108.62 296.018 108.639 296.086 108.639 296.105V351.809C108.639 354.251 106.679 356.78 103.076 358.682C99.4821 360.584 94.2356 361.897 87.6823 361.907H87.5958C74.4796 361.878 66.6387 356.703 66.6387 351.799V296.096C66.6387 296.096 66.6483 296.057 66.6483 296.009C66.6483 295.98 66.6387 295.941 66.6387 295.893C66.6675 290.448 70.6456 284.762 74.6621 279.143C77.3623 275.398 77.9965 269.991 78.1214 266.815C78.131 266.439 78.1502 266.101 78.1502 265.792H77.785C76.0554 265.792 74.6525 264.585 74.6525 263.099V260.743C74.6525 259.237 76.0458 258.03 77.785 258.03H97.4834C98.7806 258.03 99.9049 258.706 100.376 259.671C100.529 260.009 100.616 260.357 100.616 260.733V263.089C100.616 264.576 99.2226 265.782 97.4834 265.782H97.1183C97.1183 266.091 97.1279 266.429 97.1471 266.806C97.272 269.982 97.9158 275.378 100.616 279.134C104.623 284.752 108.611 290.429 108.639 295.883C108.639 295.922 108.62 295.97 108.62 295.999V296.018Z" fill="#FAFAFA"/>
<path d="M108.621 296.019C108.621 296.019 108.621 295.825 108.592 295.449C108.582 295.072 108.515 294.513 108.39 293.779C108.111 292.331 107.448 290.226 106.094 287.735C104.768 285.235 102.788 282.378 100.424 279.095C99.2328 277.425 98.416 275.349 97.8491 273.1C97.2918 270.841 97.0035 268.389 96.9555 265.802V265.628H97.1188C97.8587 265.657 98.5794 265.541 99.2136 265.145C99.8286 264.769 100.319 264.132 100.415 263.398C100.463 262.655 100.424 261.815 100.434 261.013C100.501 260.212 100.194 259.459 99.5787 258.957C98.983 258.445 98.1758 258.194 97.3591 258.223C96.5039 258.223 95.6487 258.223 94.7742 258.223C93.035 258.223 91.2478 258.223 89.4317 258.223C85.7899 258.223 82.004 258.223 78.0835 258.243C77.1322 258.194 76.1809 258.484 75.5275 259.16C75.2104 259.498 74.9798 259.913 74.9029 260.367C74.8357 260.801 74.8837 261.351 74.8645 261.844C74.8645 262.336 74.8453 262.896 74.8837 263.35C74.9414 263.813 75.1528 264.247 75.4795 264.605C76.1329 265.319 77.1226 265.628 78.1412 265.57H78.3718V265.792C78.3429 268.022 78.1219 270.291 77.6319 272.54C77.1322 274.79 76.3539 277.049 74.999 279.037C73.6442 280.978 72.2509 282.899 70.9729 284.945C69.6949 286.982 68.4938 289.126 67.7058 291.443C67.3119 292.601 67.0236 293.808 66.9275 295.034C66.8603 296.25 66.8891 297.534 66.8891 298.799C66.8891 301.338 66.8891 303.896 66.8891 306.483C66.8891 311.658 66.8891 316.919 66.8891 322.248C66.8891 331.632 66.8891 340.784 66.8891 349.636C66.9083 350.737 66.8122 351.876 67.0332 352.87C67.2542 353.894 67.8596 354.801 68.5514 355.593C69.9639 357.166 71.8089 358.296 73.7307 359.136C75.6524 359.976 77.6703 360.526 79.6882 360.922C81.7061 361.337 83.7432 361.52 85.7514 361.617C89.768 361.791 93.7269 361.462 97.4167 360.545C99.2616 360.072 101.039 359.464 102.682 358.624C104.316 357.794 105.834 356.742 106.968 355.39C107.535 354.714 107.967 353.952 108.227 353.131C108.486 352.32 108.429 351.451 108.438 350.573C108.438 348.826 108.438 347.117 108.438 345.437C108.438 342.087 108.448 338.863 108.457 335.793C108.486 323.513 108.515 313.569 108.534 306.676C108.553 299.803 108.621 295.999 108.621 295.999C108.64 295.999 108.659 296.231 108.659 296.704C108.659 297.187 108.669 297.872 108.688 298.76C108.698 300.585 108.717 303.249 108.736 306.676C108.755 313.569 108.784 323.503 108.813 335.793C108.813 338.863 108.823 342.087 108.832 345.437C108.832 347.117 108.832 348.826 108.832 350.573C108.832 351.007 108.832 351.451 108.832 351.895C108.832 352.359 108.736 352.813 108.621 353.257C108.342 354.135 107.881 354.956 107.285 355.66C106.103 357.089 104.537 358.161 102.875 359.01C101.203 359.87 99.3865 360.497 97.5224 360.97C93.7749 361.907 89.7872 362.244 85.7322 362.071C83.7047 361.984 81.6484 361.791 79.6017 361.376C77.555 360.98 75.5083 360.42 73.5385 359.57C71.5782 358.721 69.6757 357.572 68.1863 355.911C67.4656 355.081 66.8122 354.116 66.5624 352.986C66.3125 351.838 66.4279 350.747 66.399 349.636C66.399 340.793 66.399 331.632 66.399 322.248C66.399 316.91 66.399 311.648 66.399 306.483C66.399 303.896 66.399 301.338 66.399 298.799C66.399 297.525 66.3798 296.289 66.4471 294.995C66.5528 293.721 66.8506 292.476 67.2542 291.288C68.0614 288.904 69.2913 286.741 70.5789 284.685C71.8665 282.629 73.279 280.688 74.6243 278.767C75.9311 276.855 76.6998 274.645 77.1899 272.434C77.6799 270.223 77.8913 267.974 77.9298 265.782L78.1508 266.004C77.0938 266.072 75.9023 265.734 75.1624 264.894C74.7876 264.489 74.5282 263.958 74.4609 263.398C74.4225 262.828 74.4513 262.355 74.4417 261.834C74.4609 261.313 74.4033 260.849 74.4898 260.28C74.5762 259.729 74.8645 259.237 75.2296 258.841C75.9791 258.059 77.0938 257.741 78.0931 257.799C82.0136 257.799 85.7995 257.808 89.4413 257.818C91.2574 257.818 93.0446 257.818 94.7839 257.818C95.6583 257.818 96.5135 257.818 97.3687 257.818C98.2431 257.789 99.1559 258.069 99.8286 258.648C100.52 259.198 100.886 260.154 100.799 260.984C100.789 261.805 100.818 262.577 100.77 263.417C100.655 264.267 100.088 264.991 99.3962 265.406C98.7139 265.84 97.8683 265.966 97.1284 265.927L97.2918 265.763C97.3687 270.86 98.3488 275.572 100.636 278.902C102.98 282.204 104.941 285.09 106.257 287.61C107.583 290.12 108.236 292.253 108.486 293.721C108.592 294.455 108.65 295.024 108.65 295.401C108.669 295.777 108.65 295.97 108.63 295.97L108.621 296.019Z" fill="#263238"/>
<path d="M96.0147 265.686C96.0147 265.821 92.0846 265.937 87.2417 265.937C82.3988 265.937 78.4688 265.821 78.4688 265.686C78.4688 265.55 82.3988 265.435 87.2417 265.435C92.0846 265.435 96.0147 265.55 96.0147 265.686Z" fill="#263238"/>
<path d="M106.871 303.462C105.093 302.303 102.768 302.815 100.865 303.713C98.9629 304.611 97.166 305.885 95.1001 306.223C92.669 306.619 90.2187 305.644 88.0567 304.408C85.8947 303.182 83.848 301.666 81.5226 300.826C77.0641 299.224 71.7791 300.479 68.416 303.925V351.751C68.416 351.751 71.0297 359.908 89.4404 358.624C107.851 357.34 106.4 349.183 106.4 349.183L106.871 303.442V303.462Z" fill="#F30990"/>
<path d="M58.0958 270.908C58.6339 267.385 57.7211 263.658 55.6167 260.791C53.5124 257.924 50.2357 255.945 46.7284 255.433C46.4017 255.385 46.0366 255.356 45.7676 255.549C45.3832 255.819 45.364 256.379 45.4024 256.852C45.7195 260.27 47.1416 263.571 49.3997 266.149C51.6578 268.727 54.7423 270.551 58.0766 271.304" fill="#455A64"/>
<path d="M39.1858 295.921C42.5873 302.969 47.4783 307.719 53.5415 307.95C54.7523 307.989 55.6651 307.197 56.8278 307.12C57.4235 307.159 58.1058 307.583 58.7688 307.854C59.1243 307.989 59.4702 308.095 59.7777 308.085C66.0428 307.748 71.3757 303.326 74.9695 295.921C79.9757 285.563 78.4287 274.422 71.5199 271.043C70.5398 270.561 69.6077 270.194 68.6948 269.933C67.5802 269.634 66.4752 269.489 65.2548 269.528C63.1313 269.566 60.6906 270.146 57.4043 271.314C57.2986 271.352 57.1737 271.401 57.068 271.439C51.4564 268.948 46.969 268.939 42.6258 271.043C35.7169 274.422 34.1795 285.563 39.1954 295.921H39.1858Z" fill="#F30990"/>
<path d="M39.311 285.428C39.311 285.428 38.9075 284.684 38.7249 283.343C38.5423 282.01 38.6288 280.099 39.3399 278.158C40.0605 276.218 41.2232 274.702 42.2322 273.814C43.2315 272.916 44.0002 272.569 44.0194 272.607C44.0675 272.685 43.3852 273.129 42.4724 274.065C41.5691 274.992 40.4929 276.469 39.8107 278.332C39.1285 280.195 38.9843 282.02 39.0804 283.314C39.1669 284.617 39.3975 285.408 39.311 285.428Z" fill="#FAFAFA"/>
<path d="M40.5787 290.352C40.4442 290.381 40.2136 289.898 40.0695 289.261C39.9253 288.624 39.9157 288.093 40.0502 288.054C40.1848 288.025 40.4154 288.508 40.5595 289.145C40.7037 289.782 40.7133 290.313 40.5787 290.352Z" fill="#FAFAFA"/>
<path d="M72.3747 253.956C72.4131 254.043 71.0871 254.545 69.1364 255.723C68.1563 256.302 67.0609 257.084 65.9078 258.039C64.774 259.015 63.5921 260.173 62.4967 261.505C61.4109 262.857 60.5172 264.247 59.7869 265.56C59.0855 266.882 58.5378 268.128 58.163 269.199C57.4039 271.343 57.1829 272.752 57.0868 272.733C57.0484 272.733 57.0868 272.376 57.1925 271.738C57.2406 271.42 57.3078 271.034 57.4231 270.59C57.5385 270.145 57.6442 269.634 57.8363 269.084C58.1726 267.973 58.6915 266.699 59.3834 265.338C60.104 263.986 61.0073 262.567 62.1123 261.187C63.2366 259.825 64.4473 258.657 65.6196 257.682C66.8111 256.727 67.9546 255.964 68.9731 255.414C69.4632 255.114 69.9436 254.912 70.3568 254.709C70.77 254.506 71.1351 254.361 71.433 254.255C72.0384 254.033 72.3747 253.927 72.3843 253.956H72.3747Z" fill="#263238"/>
<path d="M18.8733 276.44L7.98633 414.424L109.457 439.07C109.457 439.07 144.847 427.013 145.327 426.192C145.807 425.372 145.942 283.285 145.942 283.285L109.37 292.823L18.8733 276.45V276.44Z" fill="#F30990"/>
<g opacity="0.4">
<path d="M18.8733 276.44L7.98633 414.424L109.457 439.07C109.457 439.07 144.847 427.013 145.327 426.192C145.807 425.372 145.942 283.285 145.942 283.285L109.37 292.823L18.8733 276.45V276.44Z" fill="black"/>
</g>
<path d="M178.025 115.721L172.365 196.245C171.443 209.393 160.556 219.588 147.44 219.588C132.998 219.588 121.553 207.318 122.505 192.837C123.004 185.172 123.456 178.897 123.456 178.897C123.456 178.897 104.055 175.865 103.815 156.374C103.681 145.117 105.612 119.573 107.265 99.995C108.389 86.7595 119.411 76.6035 132.623 76.6035H144.346C164.534 77.7909 179.764 95.4769 178.025 115.712V115.721Z" fill="#FFBE9D"/>
<path d="M123.455 178.887C123.455 178.887 135.687 179.611 148.717 171.386C148.717 171.386 142.471 185.567 123.109 183.81L123.455 178.887Z" fill="#EB996E"/>
<path d="M110.907 120.105C111.252 120.472 113.347 118.908 116.326 118.917C119.305 118.879 121.496 120.424 121.813 120.057C121.976 119.893 121.621 119.236 120.669 118.541C119.728 117.846 118.132 117.17 116.278 117.18C114.423 117.189 112.857 117.875 111.964 118.58C111.051 119.284 110.734 119.941 110.907 120.105Z" fill="#263238"/>
<path d="M143.173 123.542C143.125 125.009 144.317 126.264 145.845 126.351C147.372 126.438 148.65 125.309 148.698 123.841C148.746 122.374 147.555 121.109 146.027 121.032C144.499 120.945 143.221 122.075 143.173 123.542Z" fill="#263238"/>
<path d="M113.597 123.542C113.549 125.009 114.741 126.264 116.268 126.351C117.796 126.438 119.074 125.309 119.122 123.841C119.17 122.374 117.979 121.109 116.451 121.032C114.923 120.945 113.645 122.075 113.597 123.542Z" fill="#263238"/>
<path d="M139.916 120.105C140.262 120.472 142.367 118.908 145.346 118.917C148.324 118.879 150.515 120.424 150.832 120.057C150.986 119.893 150.64 119.236 149.689 118.541C148.747 117.846 147.152 117.17 145.297 117.18C143.443 117.189 141.877 117.875 140.983 118.58C140.07 119.284 139.753 119.941 139.926 120.105H139.916Z" fill="#263238"/>
<path d="M129.096 142.318C129.106 142.145 127.261 141.826 124.253 141.44C123.494 141.363 122.774 141.208 122.639 140.687C122.456 140.137 122.774 139.306 123.148 138.418C123.869 136.565 124.609 134.624 125.397 132.597C128.52 124.304 130.787 117.489 130.451 117.363C130.115 117.238 127.309 123.86 124.186 132.153C123.437 134.2 122.716 136.15 122.034 138.013C121.745 138.882 121.246 139.866 121.64 141.015C121.841 141.585 122.399 142 122.889 142.135C123.379 142.28 123.802 142.29 124.186 142.318C127.213 142.483 129.087 142.492 129.096 142.318Z" fill="#263238"/>
<path d="M137.869 144.385C137.388 144.356 137.379 147.609 134.611 149.917C131.844 152.234 128.394 151.867 128.375 152.32C128.327 152.523 129.144 152.948 130.595 152.996C132.026 153.045 134.112 152.581 135.803 151.172C137.494 149.753 138.215 147.87 138.33 146.538C138.455 145.177 138.09 144.375 137.869 144.395V144.385Z" fill="#263238"/>
<path d="M139.138 110.364C139.436 111.175 142.405 110.788 145.903 111.213C149.41 111.57 152.226 112.594 152.697 111.86C152.908 111.512 152.408 110.74 151.274 109.958C150.141 109.167 148.344 108.423 146.239 108.192C144.135 107.96 142.213 108.298 140.945 108.819C139.657 109.34 139.013 109.977 139.138 110.364Z" fill="#263238"/>
<path d="M111.32 111.522C111.849 112.198 113.895 111.493 116.365 111.464C118.834 111.349 120.929 111.918 121.41 111.213C121.621 110.866 121.294 110.19 120.382 109.543C119.478 108.906 117.979 108.375 116.279 108.433C114.578 108.491 113.108 109.099 112.252 109.804C111.378 110.499 111.09 111.204 111.32 111.532V111.522Z" fill="#263238"/>
<path d="M171.482 130.347C171.809 130.202 184.809 126.389 184.387 139.711C183.964 153.034 170.732 149.858 170.723 149.481C170.713 149.095 171.482 130.347 171.482 130.347Z" fill="#FFBE9D"/>
<path d="M174.932 144.557C174.99 144.519 175.163 144.731 175.547 144.924C175.922 145.108 176.575 145.252 177.277 145.011C178.699 144.538 179.948 142.347 180.083 139.943C180.16 138.726 179.939 137.568 179.545 136.602C179.17 135.618 178.564 134.913 177.863 134.768C177.171 134.585 176.652 134.99 176.479 135.357C176.287 135.724 176.364 135.994 176.297 136.014C176.258 136.043 176.018 135.782 176.143 135.232C176.21 134.971 176.374 134.662 176.691 134.411C177.017 134.16 177.488 134.044 177.978 134.112C178.997 134.218 179.89 135.193 180.323 136.255C180.813 137.327 181.092 138.63 181.005 139.991C180.832 142.675 179.391 145.146 177.45 145.639C176.508 145.851 175.739 145.542 175.345 145.214C174.942 144.876 174.884 144.567 174.932 144.548V144.557Z" fill="#EB996E"/>
<path d="M178.861 129.893C176.833 129.401 173.336 131.274 172.48 133.176C171.616 135.078 171.423 137.23 170.568 139.142C169.713 141.044 167.762 142.772 165.735 142.289C164.342 141.961 163.342 140.638 162.968 139.248C162.602 137.858 162.747 136.381 162.929 134.952C163.707 128.725 165.014 122.556 165.264 116.291C165.514 110.026 164.62 103.509 161.353 98.1706C158.077 92.8319 152.061 88.9028 145.835 89.4048C141.713 89.7427 137.936 91.8955 133.833 92.4748C128.981 93.1602 123.84 91.4321 120.371 87.9567C119.929 87.5126 117.854 86.1418 117.854 86.1418C117.854 85.8232 118.161 83.0332 119.247 82.0195C127.376 74.4702 142.01 72.3656 152.744 75.0784C163.477 77.7911 173.537 85.4081 178.15 95.5061C182.772 105.614 181.397 119.66 178.851 129.884" fill="#263238"/>
<path d="M105.141 96.4816C106.881 100.527 111.31 102.882 115.682 103.336C120.055 103.79 124.407 102.641 128.626 101.444C132.844 100.247 144.173 98.3545 148.555 98.4896C149.208 98.509 149.996 98.4896 150.352 97.9394C150.813 97.196 150.073 96.3079 149.391 95.7672C143.606 91.2202 129.635 88.4302 122.293 88.1117C114.952 87.7931 107.246 90.9692 103.277 97.1767" fill="#263238"/>
<path d="M107.043 96.9834C107.043 96.9834 157.941 80.5331 179.956 124.767C179.956 124.767 183.242 113.694 183.242 107.757C183.242 103.789 180.878 80.1856 156.702 72.7617C156.702 72.7617 120.284 58.7925 107.033 96.9737L107.043 96.9834Z" fill="#F30990"/>
<g opacity="0.4">
<path d="M107.043 96.9834C107.043 96.9834 112.837 90.0615 123.224 89.5981C138.233 88.932 166.34 97.4082 179.956 124.767C179.956 124.767 183.242 113.694 183.242 107.757C183.242 103.789 180.878 80.1856 156.702 72.7617C156.702 72.7617 120.284 58.7925 107.033 96.9737L107.043 96.9834Z" fill="black"/>
</g>
<path d="M177.833 119.593C170.29 107.989 159.883 98.4028 148.18 91.0562C136.476 83.7095 117.133 76.4498 103.805 72.8971C99.7985 71.8255 95.6282 70.8988 91.5444 71.6035C87.4606 72.3082 83.4729 75.0403 82.4544 79.0756C81.186 84.1246 90.1031 91.9154 94.3022 94.9853C98.4917 98.0456 107.044 102.544 107.044 102.544C107.044 102.544 106.928 93.18 121.851 91.2492C142.145 88.6234 177.833 119.593 177.833 119.593Z" fill="#F30990"/>
<path d="M136.092 81.3827C136.092 81.3827 128.761 77.3088 121.391 76.353C122.899 75.2428 123.706 74.7022 125.388 73.9492C129.155 74.7022 132.979 75.658 136.842 77.8204L136.092 81.3827Z" fill="#FAFAFA"/>
<path d="M200.03 214.211C200.03 214.211 186.116 230.189 187.654 252.422C187.865 255.501 188.019 259.807 188.394 262.877C190.738 281.943 194.37 299.649 194.37 299.649H195.696L244.212 287.61C244.212 287.61 236.9 245.297 235.228 239.678C229.856 221.693 211.417 211.798 211.417 211.798L200.04 214.211H200.03Z" fill="#F30990"/>
<path d="M145.326 426.182C145.326 426.182 145.307 425.941 145.307 425.458C145.307 424.965 145.307 424.261 145.298 423.344C145.298 421.471 145.298 418.719 145.298 415.186C145.307 408.071 145.326 397.77 145.355 384.95C145.442 359.29 145.567 323.561 145.711 283.275L146.018 283.516C140.118 285.051 133.882 286.683 127.559 288.324C121.352 289.946 115.231 291.539 109.437 293.045L109.62 292.803C109.869 312.999 109.802 332.056 109.706 349.279C109.6 366.492 109.514 381.88 109.437 394.739C109.389 407.598 109.389 417.937 109.418 425.052C109.437 428.605 109.447 431.356 109.456 433.239C109.456 434.166 109.456 434.87 109.456 435.363C109.456 435.836 109.437 436.087 109.437 436.087C109.437 436.087 109.418 435.845 109.408 435.363C109.399 434.87 109.379 434.166 109.36 433.239C109.331 431.356 109.293 428.605 109.235 425.052C109.149 417.928 109.091 407.598 109.101 394.739C109.149 381.87 109.197 366.492 109.264 349.279C109.331 332.056 109.379 313.009 109.129 292.813V292.62L109.312 292.571C115.106 291.065 121.227 289.463 127.435 287.851C133.757 286.2 139.993 284.578 145.893 283.043L146.21 282.966V283.294C145.999 323.58 145.816 359.309 145.692 384.969C145.605 397.79 145.538 408.09 145.49 415.205C145.451 418.748 145.432 421.49 145.413 423.363C145.403 424.28 145.384 424.985 145.384 425.477C145.374 425.95 145.355 426.201 145.355 426.201L145.326 426.182Z" fill="#263238"/>
<path d="M122.86 185.481C122.86 185.481 120.919 204.026 127.146 206.913C134.151 210.157 141.136 206.99 145.431 204.229C156.876 196.892 173.884 176.513 173.884 176.513L185.376 191.554C185.376 191.554 156.338 226.607 150.505 226.385C146.7 226.24 140.752 222.494 137.081 219.897C135.054 218.469 133.257 216.77 131.729 214.81L126.704 208.39C120.429 211.499 115.355 215.476 111.848 220.593C111.848 220.593 110.176 207.608 113.184 201.709C116.191 195.811 122.187 185.665 122.187 185.665L122.85 185.462L122.86 185.481Z" fill="#F30990"/>
<path d="M112.819 202.23C112.819 202.23 112.79 202.346 112.703 202.549C112.607 202.78 112.482 203.08 112.329 203.456C112.069 204.277 111.685 205.503 111.474 207.134C110.993 210.388 110.868 215.186 111.483 221.036L111.137 220.968C112.559 218.439 114.702 216.006 117.364 213.844C120.006 211.662 123.1 209.673 126.569 207.984L126.723 207.907L126.838 208.042C128.866 210.407 130.999 212.869 133.267 215.369C135.525 217.86 137.956 220.37 140.848 222.397C142.203 223.343 143.654 224.135 145.162 224.685C145.922 224.956 146.69 225.178 147.469 225.313C148.247 225.429 149.025 225.467 149.804 225.4C152.926 225.11 155.579 223.314 157.76 221.422L157.741 221.442C165.783 212.821 172.692 205.426 177.612 200.145C180.062 197.548 182.013 195.482 183.377 194.034C184.04 193.349 184.55 192.808 184.924 192.422C185.088 192.258 185.222 192.123 185.328 192.016C185.424 191.929 185.472 191.881 185.472 191.891C185.472 191.891 185.434 191.949 185.357 192.045C185.261 192.161 185.136 192.306 184.982 192.48C184.617 192.885 184.127 193.435 183.483 194.15C182.138 195.617 180.226 197.722 177.823 200.357C172.932 205.657 166.072 213.101 158.077 221.77V221.789C156.953 222.764 155.752 223.701 154.377 224.454C153.023 225.207 151.476 225.757 149.852 225.911C149.044 225.979 148.218 225.95 147.401 225.824C146.585 225.68 145.797 225.458 145.009 225.178C143.452 224.608 141.963 223.797 140.579 222.832C137.629 220.775 135.179 218.227 132.921 215.726C130.653 213.216 128.52 210.755 126.502 208.37L126.781 208.428C123.36 210.079 120.275 212.058 117.652 214.191C115.019 216.315 112.896 218.7 111.483 221.162L111.195 221.664L111.137 221.094C110.561 215.195 110.743 210.378 111.291 207.115C111.541 205.474 111.964 204.248 112.252 203.427C112.425 203.031 112.579 202.732 112.675 202.529C112.771 202.327 112.828 202.23 112.838 202.23H112.819Z" fill="#263238"/>
<g opacity="0.3">
<path d="M113.531 217.86C113.089 218.594 113.473 220.303 114.242 220.679C115.01 221.056 115.962 220.776 116.634 220.245C117.307 219.714 117.759 218.971 118.249 218.266C119.402 216.605 120.785 215.109 122.352 213.844C123.899 212.589 126.022 211.527 127.8 212.425C128.982 213.024 129.626 214.308 130.202 215.495C132.604 220.448 135.506 225.497 140.224 228.316C144.961 231.154 151.005 231.27 156.204 229.426C161.402 227.582 165.822 223.933 169.387 219.704C172.952 215.476 175.739 210.659 178.506 205.861C180.678 202.086 182.888 198.195 183.561 193.89C182.955 194.228 181.562 196.4 180.957 196.738C180.957 196.738 158.568 221.519 156.454 222.794C154.34 224.068 148.546 232.641 132.105 214.124L126.666 208.197C126.666 208.197 116.308 213.236 113.531 217.851V217.86Z" fill="black"/>
</g>
<path d="M173.513 271.33L148.885 267.535L147.744 275.007L172.372 278.802L173.513 271.33Z" fill="white"/>
<path d="M240.148 288.546L201.674 297.881L206.113 334.315L132.509 389.854C129.559 390.269 126.551 390.742 124.879 391.167C120.853 392.181 113.743 402.327 111.734 403.331L97.3882 414.452C97.3882 414.452 96.1294 419.511 102.673 418.497C109.217 417.484 116.51 412.435 117.269 412.435C118.028 412.435 120.315 413.979 119.229 417.242C118.268 420.148 114.319 430.101 114.319 430.101L109.457 439.08C109.457 439.08 130.51 439.775 136.41 431.916C140.407 426.587 152.716 411.479 152.716 411.479C152.716 411.479 239.351 368.654 244.549 359.695C251.612 347.522 240.139 288.565 240.139 288.565L240.148 288.546Z" fill="#FFBE9D"/>
<path d="M222.429 350.002C222.324 350.002 222.641 348.458 222.256 346.025C221.901 343.621 220.623 340.281 217.865 337.761C215.088 335.251 211.648 334.315 209.236 334.189C206.786 334.044 205.297 334.517 205.277 334.411C205.277 334.382 205.633 334.247 206.315 334.093C206.997 333.938 208.006 333.803 209.255 333.832C211.735 333.861 215.309 334.769 218.201 337.385C221.074 340.011 222.333 343.505 222.612 345.977C222.766 347.222 222.727 348.245 222.641 348.94C222.554 349.636 222.458 350.012 222.429 350.002Z" fill="#EB996E"/>
<path d="M126.763 425.487C126.83 425.506 126.648 426.433 126.254 427.919C125.86 429.396 125.245 431.462 124.13 433.548C123.016 435.642 121.44 437.226 120.075 437.998C119.393 438.384 118.797 438.606 118.374 438.693C117.952 438.79 117.711 438.79 117.702 438.761C117.673 438.664 118.634 438.519 119.893 437.689C121.151 436.878 122.612 435.334 123.688 433.306C124.784 431.269 125.437 429.261 125.917 427.813C126.388 426.355 126.696 425.458 126.763 425.477V425.487Z" fill="#EB996E"/>
<path d="M136.967 422.117C137.025 422.136 136.775 423.044 136.227 424.473C135.68 425.892 134.825 427.823 133.71 429.86C132.595 431.897 131.433 433.654 130.529 434.88C129.626 436.106 129.002 436.81 128.954 436.772C128.896 436.724 129.424 435.951 130.241 434.677C131.067 433.412 132.173 431.636 133.278 429.618C134.383 427.601 135.286 425.708 135.91 424.338C136.535 422.957 136.91 422.098 136.977 422.127L136.967 422.117Z" fill="#EB996E"/>
<path d="M136.688 359.078C136.688 359.078 136.784 359.513 136.861 360.304C136.947 361.096 137.014 362.254 137.053 363.673C137.139 366.521 137.005 370.479 136.39 374.795C135.765 379.11 134.766 382.943 133.882 385.646C133.44 386.997 133.046 388.088 132.748 388.822C132.45 389.565 132.268 389.961 132.239 389.951C132.21 389.942 132.325 389.517 132.565 388.754C132.815 388.001 133.152 386.901 133.546 385.54C134.343 382.817 135.275 379.004 135.89 374.717C136.505 370.431 136.688 366.512 136.697 363.673C136.697 362.254 136.697 361.105 136.668 360.314C136.649 359.522 136.659 359.078 136.688 359.078Z" fill="#263238"/>
<path d="M115.856 370.672C115.923 370.653 116.365 371.821 117.076 373.713C117.788 375.605 118.777 378.212 119.93 381.06C121.093 383.908 122.208 386.466 123.024 388.31C123.841 390.154 124.341 391.303 124.274 391.332C124.216 391.36 123.601 390.27 122.698 388.464C121.794 386.649 120.632 384.11 119.459 381.253C118.297 378.395 117.355 375.76 116.731 373.829C116.106 371.908 115.789 370.691 115.847 370.672H115.856Z" fill="#263238"/>
<path d="M110.283 395.666C110.283 395.666 110.081 395.743 109.678 395.85C109.226 395.956 108.64 396.101 107.919 396.274C107.15 396.458 106.218 396.67 105.113 396.854C104.008 397.047 102.769 397.307 101.366 397.481C99.9725 397.684 98.4447 397.896 96.792 398.031C95.1488 398.224 93.3808 398.302 91.5262 398.417C87.8076 398.562 83.7046 398.543 79.419 398.224C75.1334 397.877 71.0784 397.278 67.427 396.574C65.6109 396.178 63.8717 395.83 62.2766 395.396C60.6623 395.01 59.1921 394.566 57.8469 394.15C56.492 393.764 55.3005 393.32 54.2435 392.963C53.1865 392.606 52.2833 392.258 51.553 391.959C50.8612 391.679 50.3039 391.447 49.8715 391.274C49.4871 391.109 49.2949 391.023 49.2949 391.003C49.2949 390.984 49.5063 391.052 49.9003 391.177C50.3423 391.332 50.9092 391.525 51.6107 391.776C52.3506 392.046 53.2538 392.364 54.3204 392.693C55.387 393.031 56.5785 393.446 57.943 393.813C59.2882 394.199 60.768 394.623 62.3727 394.99C63.9678 395.415 65.6974 395.743 67.5135 396.12C71.1553 396.805 75.191 397.385 79.4574 397.732C83.7238 398.041 87.798 398.08 91.507 397.964C93.3616 397.867 95.12 397.8 96.7535 397.626C98.3966 397.5 99.9245 397.317 101.308 397.134C102.701 396.979 103.951 396.747 105.056 396.583C106.161 396.419 107.102 396.245 107.871 396.091C108.601 395.956 109.187 395.85 109.649 395.763C110.052 395.695 110.273 395.666 110.273 395.685L110.283 395.666Z" fill="#263238"/>
<path d="M106.622 378.878C106.555 379.004 104.508 378.009 102.058 376.667C99.6079 375.326 97.6669 374.138 97.7341 374.013C97.8014 373.887 99.8385 374.881 102.298 376.223C104.749 377.565 106.69 378.753 106.622 378.878Z" fill="#263238"/>
<path d="M244.212 287.61C244.212 287.61 244.135 287.639 243.972 287.687C243.789 287.736 243.559 287.803 243.261 287.88C242.607 288.045 241.685 288.286 240.503 288.585C238.072 289.193 234.565 290.062 230.164 291.153C221.304 293.316 208.861 296.357 194.418 299.88L194.169 299.938L194.13 299.678C193.112 293.045 191.737 285.882 190.402 278.439C189.527 273.467 188.768 268.592 188.249 263.852C187.74 259.112 187.49 254.516 187.433 250.143C187.375 245.77 187.538 241.59 188.153 237.728C188.759 233.876 189.825 230.353 191.305 227.37C192.814 224.406 194.687 222.002 196.609 220.197C198.531 218.391 200.472 217.165 202.154 216.393C203.845 215.621 205.257 215.312 206.209 215.109C206.689 215.042 207.054 215.003 207.304 214.974C207.554 214.945 207.679 214.935 207.679 214.945C207.679 214.945 207.554 214.984 207.314 215.022C207.045 215.071 206.689 215.128 206.228 215.206C205.296 215.437 203.893 215.766 202.24 216.567C200.587 217.349 198.685 218.594 196.801 220.39C194.928 222.195 193.092 224.58 191.622 227.514C190.181 230.469 189.143 233.954 188.567 237.777C187.98 241.6 187.827 245.76 187.894 250.124C187.971 254.488 188.221 259.063 188.74 263.784C189.258 268.505 190.017 273.371 190.902 278.333C192.237 285.766 193.602 292.939 194.611 299.591L194.322 299.398C208.784 295.941 221.237 292.968 230.116 290.844C234.526 289.811 238.043 288.981 240.484 288.411C241.675 288.141 242.598 287.929 243.261 287.784C243.559 287.716 243.799 287.668 243.981 287.629C244.145 287.6 244.222 287.581 244.231 287.591L244.212 287.61Z" fill="#263238"/>
</g>
<defs>
<clipPath id="clip0_1_38608">
<rect width="446.278" height="439.08" fill="white"/>
</clipPath>
</defs>
</svg>
