<svg width="222" height="221" viewBox="0 0 222 221" fill="none" xmlns="http://www.w3.org/2000/svg">
<g clip-path="url(#clip0_1_40692)">
<path d="M205.201 44.0696C207.591 43.1069 209.292 40.7326 209.302 37.9393C209.318 34.278 206.44 31.3002 202.872 31.2852C199.305 31.2702 196.401 34.2232 196.386 37.8844C196.375 40.7026 198.086 43.1019 200.503 44.0696C190.563 45.5111 191.014 55.9012 191.014 55.9012L214.518 56.0059C214.518 56.0059 215.053 45.5011 205.201 44.0696Z" fill="#F5F5F5"/>
<path d="M66.3142 5.22746L50.9504 0L35.737 5.15763C33.7925 6.02555 32.0918 6.54929 32.0918 8.26019V16.7947C32.0918 22.7205 33.7303 28.5914 37.1007 33.779C39.937 38.1435 44.3341 42.6328 51.0956 45.4909C57.3127 43.5755 61.9535 38.4777 64.795 34.1132C68.1654 28.9306 69.8039 23.0547 69.8039 17.1289V9.45732C69.8039 7.01318 68.435 5.82104 66.3091 5.23245L66.3142 5.22746Z" fill="#F5F5F5"/>
<path d="M56.0526 18.9994C56.0526 16.7398 54.1496 14.9092 51.8007 14.9092C49.4518 14.9092 47.5488 16.7398 47.5488 18.9994C47.5488 20.8699 48.8607 22.4311 50.6392 22.915V29.0303H52.9622V22.915C54.7407 22.4262 56.0526 20.8649 56.0526 18.9994Z" fill="#EBEBEB"/>
<path d="M196.94 84.3232L199.558 85.6849L198.381 87.5804L195.737 86.079L195.784 88.8772H193.523L193.549 86.054L190.904 87.5804L189.748 85.6849L192.367 84.3232L189.748 82.9365L190.904 81.041L193.549 82.5674L193.523 79.7441H195.784L195.737 82.5674L198.381 81.041L199.558 82.9365L196.94 84.3232Z" fill="#E0E0E0"/>
<path d="M207.85 84.3232L210.469 85.6849L209.292 87.5804L206.647 86.079L206.694 88.8772H204.433L204.459 86.054L201.814 87.5804L200.658 85.6849L203.277 84.3232L200.658 82.9365L201.814 81.041L204.459 82.5674L204.433 79.7441H206.694L206.647 82.5674L209.292 81.041L210.469 82.9365L207.85 84.3232Z" fill="#E0E0E0"/>
<path d="M218.759 84.3232L221.378 85.6849L220.201 87.5804L217.556 86.079L217.603 88.8772H215.342L215.368 86.054L212.724 87.5804L211.567 85.6849L214.186 84.3232L211.567 82.9365L212.724 81.041L215.368 82.5674L215.342 79.7441H217.603L217.556 82.5674L220.201 81.041L221.378 82.9365L218.759 84.3232Z" fill="#E0E0E0"/>
<path d="M107.749 203.717V219.21H131.305H157.283V203.717H107.749Z" fill="#F5F5F5"/>
<path d="M105.675 199.387V203.716H159.015V199.387H131.305H105.675Z" fill="#EBEBEB"/>
<path d="M132.343 219.209H157.284V203.716H159.015V199.387H131.306V203.317L132.343 219.209Z" fill="#EBEBEB"/>
<path d="M124.721 206.216H114.677V208.55H124.721V206.216Z" fill="#E0E0E0"/>
<path d="M126.286 211.463H113.385V216.386H126.286V211.463Z" fill="white"/>
<path d="M115.371 183.914V199.407H138.928H164.905V183.914H115.371Z" fill="#F5F5F5"/>
<path d="M113.292 179.579V183.914H166.638V179.579H138.928H113.292Z" fill="#EBEBEB"/>
<path d="M139.965 199.407H164.906V183.914H166.638V179.579H138.928V183.51L139.965 199.407Z" fill="#EBEBEB"/>
<path d="M132.343 186.413H122.299V188.747H132.343V186.413Z" fill="#E0E0E0"/>
<path d="M133.909 191.66H121.008V196.583H133.909V191.66Z" fill="white"/>
<path d="M222 219.329C222 219.399 172.3 219.459 111.005 219.459C49.7107 219.459 0 219.399 0 219.329C0 219.259 49.69 219.199 111.005 219.199C172.32 219.199 222 219.259 222 219.329Z" fill="#263238"/>
<path d="M176.184 9.39746H83.5548C81.6762 9.39746 80.1533 10.8625 80.1533 12.6696V94.648C80.1533 96.4552 81.6762 97.9202 83.5548 97.9202H176.184C178.062 97.9202 179.585 96.4552 179.585 94.648V12.6696C179.585 10.8625 178.062 9.39746 176.184 9.39746Z" fill="white"/>
<path d="M176.183 97.9201C176.183 97.9201 176.266 97.9101 176.427 97.9001C176.588 97.8902 176.832 97.8552 177.137 97.7704C177.443 97.6806 177.817 97.526 178.195 97.2517C178.574 96.9773 178.963 96.5833 179.227 96.0396C179.523 95.5009 179.58 94.8175 179.554 94.0743C179.554 93.3311 179.554 92.513 179.549 91.6302C179.549 89.8644 179.543 87.8243 179.538 85.5298C179.528 76.3468 179.512 63.0687 179.497 46.663C179.497 38.4577 179.486 29.4692 179.481 19.8224C179.481 17.4131 179.471 14.964 179.466 12.47C179.403 11.2629 178.537 10.1256 177.335 9.70663C176.738 9.4672 176.09 9.50711 175.421 9.50711C174.757 9.50711 174.094 9.50711 173.425 9.50711C168.084 9.50711 162.583 9.50711 156.946 9.5121C134.391 9.5121 109.595 9.51709 83.5702 9.52207C82.7872 9.52207 82.0146 9.79642 81.4235 10.2902C80.8324 10.7791 80.4332 11.4774 80.3295 12.2156C80.2776 12.5797 80.2983 12.9738 80.2932 13.3629V14.5251C80.2932 15.2982 80.2932 16.0764 80.2932 16.8495C80.2932 19.9421 80.2932 23.0147 80.2932 26.0624C80.2932 32.1578 80.2932 38.1684 80.2932 44.0742C80.2932 55.8809 80.288 67.2736 80.2828 78.1225C80.2828 83.5495 80.2828 88.8368 80.2776 93.9745C80.2776 94.2938 80.2672 94.623 80.2932 94.9272C80.3295 95.2315 80.3917 95.5408 80.5161 95.8251C80.7546 96.3987 81.1695 96.8925 81.6932 97.2417C82.2169 97.5909 82.8391 97.7854 83.4717 97.8004C84.125 97.8004 84.7732 97.8004 85.4213 97.8054C88.014 97.8054 90.5651 97.8054 93.0695 97.8054C103.098 97.8103 112.442 97.8153 120.971 97.8203C138.025 97.8403 151.828 97.8502 161.374 97.8602C166.14 97.8702 169.842 97.8802 172.357 97.8852C173.612 97.8902 174.566 97.8951 175.214 97.9001C175.857 97.9001 176.189 97.9151 176.189 97.9151C176.189 97.9151 175.857 97.9251 175.214 97.9301C174.566 97.9301 173.612 97.935 172.357 97.945C169.842 97.95 166.14 97.96 161.374 97.9699C151.834 97.9799 138.031 97.9949 120.971 98.0099C112.442 98.0099 103.098 98.0198 93.0695 98.0248C90.5599 98.0248 88.014 98.0248 85.4213 98.0248C84.7732 98.0248 84.1198 98.0248 83.4665 98.0248C82.7924 98.0099 82.1184 97.8004 81.5583 97.4263C80.9983 97.0522 80.5524 96.5234 80.2983 95.9099C80.1635 95.6056 80.0961 95.2764 80.0598 94.9472C80.0339 94.613 80.0494 94.2988 80.0443 93.9745C80.0443 88.8368 80.0443 83.5445 80.0391 78.1225C80.0391 67.2736 80.0391 55.8859 80.0287 44.0742C80.0287 38.1684 80.0287 32.1628 80.0287 26.0624C80.0287 23.0147 80.0287 19.9421 80.0287 16.8495C80.0287 16.0764 80.0287 15.3032 80.0287 14.5251V13.3629C80.0287 12.9738 80.008 12.5897 80.0702 12.1807C80.1843 11.3776 80.6095 10.6194 81.2524 10.0957C81.8902 9.56198 82.7302 9.2627 83.5754 9.2627C109.6 9.2627 134.396 9.26768 156.951 9.27267C162.588 9.27267 168.089 9.27267 173.43 9.27766C174.099 9.27766 174.763 9.27766 175.426 9.27766C176.075 9.27766 176.785 9.23776 177.423 9.49713C178.709 9.94606 179.637 11.1631 179.699 12.455C179.699 14.9491 179.699 17.4032 179.704 19.8174C179.699 29.4642 179.694 38.4527 179.689 46.658C179.673 63.0637 179.658 76.3468 179.647 85.5248C179.647 87.8193 179.637 89.8544 179.637 91.6252C179.637 92.508 179.637 93.3211 179.632 94.0693C179.658 94.8075 179.59 95.5158 179.289 96.0595C179.02 96.6132 178.62 97.0122 178.237 97.2816C177.848 97.5559 177.469 97.7056 177.163 97.7904C176.852 97.8702 176.609 97.9001 176.443 97.9051C176.282 97.9101 176.199 97.9101 176.199 97.9101L176.183 97.9201Z" fill="#263238"/>
<path d="M87.6566 15.533C87.6566 16.4458 86.8891 17.184 85.9351 17.184C84.981 17.184 84.2188 16.4458 84.2188 15.533C84.2188 14.6202 84.9862 13.877 85.9351 13.877C86.884 13.877 87.6566 14.6152 87.6566 15.533Z" fill="#263238"/>
<path d="M90.9595 17.1839C91.9074 17.1839 92.6758 16.4447 92.6758 15.5329C92.6758 14.621 91.9074 13.8818 90.9595 13.8818C90.0116 13.8818 89.2432 14.621 89.2432 15.5329C89.2432 16.4447 90.0116 17.1839 90.9595 17.1839Z" fill="#263238"/>
<path d="M95.978 17.1839C96.9259 17.1839 97.6943 16.4447 97.6943 15.5329C97.6943 14.621 96.9259 13.8818 95.978 13.8818C95.0301 13.8818 94.2617 14.621 94.2617 15.5329C94.2617 16.4447 95.0301 17.1839 95.978 17.1839Z" fill="#263238"/>
<path d="M179.585 20.2264C179.585 20.2962 157.325 20.3561 129.874 20.3561C102.424 20.3561 80.1582 20.2962 80.1582 20.2264C80.1582 20.1565 102.413 20.0967 129.874 20.0967C157.335 20.0967 179.585 20.1565 179.585 20.2264Z" fill="#263238"/>
<path d="M143.916 53.5712C143.916 53.5712 143.958 53.5163 144.036 53.4165C144.056 53.3916 144.077 53.3617 144.103 53.3317C144.124 53.2968 144.144 53.2619 144.17 53.222C144.217 53.1422 144.279 53.0474 144.321 52.9327C144.347 52.8778 144.373 52.818 144.399 52.7531C144.419 52.6883 144.44 52.6184 144.461 52.5436C144.487 52.4688 144.497 52.394 144.513 52.3092C144.523 52.2244 144.549 52.1446 144.549 52.0498C144.59 51.6907 144.564 51.2717 144.492 50.8078C144.342 49.88 143.932 48.7876 143.31 47.6005C142.682 46.4083 141.821 45.1314 140.764 43.7946C139.706 42.4578 138.436 41.0811 136.968 39.6944C135.506 38.3128 133.847 36.9211 131.99 35.6042C131.062 34.9458 130.082 34.3074 129.045 33.7088C128.013 33.1052 126.924 32.5466 125.773 32.0578C124.627 31.5789 123.414 31.1599 122.133 30.9604C121.495 30.8656 120.837 30.8207 120.194 30.9155C119.872 30.9654 119.556 31.0502 119.255 31.1749C118.96 31.3145 118.69 31.4941 118.467 31.7285C118.255 31.968 118.094 32.2473 117.985 32.5416C117.887 32.8409 117.835 33.1551 117.819 33.4694C117.793 34.0979 117.918 34.7214 118.089 35.3199C118.436 36.5171 119.007 37.6294 119.634 38.6719C120.267 39.7144 120.972 40.692 121.708 41.6098C122.444 42.5276 123.217 43.3956 124 44.2086C125.571 45.8347 127.194 47.2613 128.791 48.5033C130.388 49.7453 131.959 50.8028 133.458 51.6607C134.956 52.5187 136.377 53.1971 137.678 53.6609C138.975 54.1248 140.152 54.3892 141.127 54.4291C141.614 54.4491 142.05 54.4241 142.413 54.3443C142.506 54.3293 142.589 54.2994 142.672 54.2795C142.755 54.2595 142.838 54.2346 142.905 54.2046C142.978 54.1747 143.05 54.1498 143.113 54.1248C143.175 54.0949 143.237 54.06 143.294 54.0301C143.408 53.9752 143.496 53.9054 143.579 53.8505C143.616 53.8206 143.657 53.8006 143.688 53.7757C143.719 53.7507 143.745 53.7258 143.766 53.7009C143.859 53.6111 143.911 53.5712 143.911 53.5712C143.911 53.5712 143.864 53.6161 143.771 53.7058C143.745 53.7308 143.719 53.7557 143.693 53.7807C143.662 53.8056 143.626 53.8305 143.584 53.8605C143.507 53.9153 143.419 53.9852 143.304 54.04C143.247 54.07 143.19 54.1049 143.123 54.1348C143.056 54.1598 142.988 54.1897 142.91 54.2196C142.838 54.2495 142.76 54.2745 142.672 54.2944C142.589 54.3144 142.501 54.3493 142.407 54.3593C142.039 54.4391 141.604 54.469 141.111 54.4491C140.131 54.4141 138.949 54.1548 137.647 53.6909C136.341 53.232 134.92 52.5586 133.416 51.7007C131.913 50.8427 130.341 49.7852 128.739 48.5432C127.142 47.3012 125.514 45.8746 123.938 44.2485C123.15 43.4355 122.377 42.5676 121.641 41.6448C120.899 40.727 120.194 39.7443 119.556 38.7018C118.929 37.6543 118.353 36.542 118.001 35.3299C117.829 34.7264 117.705 34.0979 117.731 33.4594C117.741 33.1402 117.798 32.8209 117.897 32.5117C118.011 32.2074 118.172 31.9181 118.395 31.6737C118.623 31.4343 118.903 31.2447 119.204 31.105C119.509 30.9704 119.836 30.8856 120.163 30.8357C120.821 30.7409 121.485 30.7858 122.128 30.8806C123.414 31.0801 124.632 31.5041 125.784 31.9829C126.935 32.4718 128.029 33.0354 129.061 33.639C130.098 34.2425 131.078 34.881 132.011 35.5394C133.873 36.8612 135.532 38.2529 136.994 39.6396C138.456 41.0262 139.727 42.4129 140.784 43.7497C141.842 45.0865 142.703 46.3734 143.325 47.5706C143.947 48.7627 144.357 49.8601 144.502 50.7928C144.575 51.2567 144.596 51.6807 144.554 52.0398C144.554 52.1296 144.528 52.2144 144.513 52.2992C144.497 52.384 144.487 52.4588 144.461 52.5337C144.44 52.6085 144.419 52.6783 144.399 52.7431C144.373 52.808 144.347 52.8679 144.321 52.9277C144.274 53.0424 144.217 53.1372 144.165 53.217C144.139 53.2569 144.119 53.2968 144.098 53.3268C144.072 53.3567 144.051 53.3866 144.03 53.4115C143.947 53.5113 143.906 53.5612 143.906 53.5612L143.916 53.5712Z" fill="#F30990"/>
<path d="M148.619 42.6423C148.619 42.6423 148.614 42.5775 148.603 42.4528C148.603 42.4229 148.598 42.388 148.593 42.348C148.588 42.3081 148.577 42.2682 148.567 42.2233C148.546 42.1336 148.526 42.0238 148.479 41.9091C148.458 41.8492 148.437 41.7894 148.411 41.7245C148.38 41.6647 148.344 41.5998 148.313 41.53C148.282 41.4602 148.235 41.3953 148.188 41.3255C148.142 41.2557 148.1 41.1808 148.038 41.111C147.82 40.8167 147.509 40.5224 147.136 40.2231C146.384 39.6246 145.321 39.0709 144.03 38.5871C142.739 38.0982 141.209 37.6942 139.498 37.375C137.787 37.0557 135.879 36.8413 133.831 36.7465C131.782 36.6517 129.584 36.6766 127.287 36.8861C126.141 36.9909 124.964 37.1455 123.776 37.355C122.589 37.5695 121.386 37.8438 120.193 38.218C119.006 38.597 117.808 39.0609 116.719 39.7293C116.18 40.0685 115.656 40.4526 115.242 40.9364C115.034 41.1808 114.858 41.4452 114.723 41.7295C114.599 42.0188 114.526 42.3281 114.521 42.6473C114.526 42.9616 114.599 43.2758 114.723 43.5651C114.858 43.8544 115.034 44.1188 115.242 44.3632C115.656 44.8471 116.18 45.2361 116.719 45.5703C117.808 46.2437 119.006 46.7026 120.193 47.0817C121.386 47.4558 122.589 47.7351 123.776 47.9446C124.964 48.1591 126.136 48.3088 127.287 48.4135C129.584 48.623 131.782 48.6429 133.836 48.5532C135.884 48.4584 137.787 48.2439 139.503 47.9247C141.214 47.6054 142.744 47.2014 144.035 46.7126C145.326 46.2287 146.384 45.6751 147.141 45.0765C147.514 44.7772 147.826 44.4829 148.043 44.1886C148.106 44.1188 148.147 44.039 148.194 43.9741C148.24 43.9043 148.287 43.8395 148.318 43.7696C148.354 43.6998 148.386 43.635 148.417 43.5751C148.443 43.5103 148.463 43.4504 148.484 43.3905C148.531 43.2758 148.551 43.1661 148.572 43.0763C148.583 43.0314 148.593 42.9865 148.598 42.9516C148.598 42.9117 148.603 42.8768 148.608 42.8469C148.619 42.7221 148.624 42.6573 148.624 42.6573C148.624 42.6573 148.624 42.7221 148.614 42.8469C148.614 42.8768 148.614 42.9167 148.608 42.9516C148.608 42.9915 148.593 43.0314 148.583 43.0813C148.562 43.1711 148.546 43.2808 148.5 43.3955C148.479 43.4554 148.458 43.5152 148.432 43.5801C148.401 43.6449 148.37 43.7098 148.334 43.7746C148.303 43.8445 148.256 43.9143 148.209 43.9841C148.163 44.054 148.121 44.1338 148.059 44.2036C147.841 44.5029 147.535 44.8022 147.157 45.1014C146.405 45.705 145.342 46.2637 144.051 46.7525C142.76 47.2463 141.23 47.6553 139.514 47.9746C137.797 48.2988 135.894 48.5133 133.841 48.613C131.788 48.7078 129.589 48.6878 127.287 48.4833C126.136 48.3786 124.959 48.2289 123.771 48.0145C122.584 47.805 121.376 47.5256 120.178 47.1515C118.985 46.7724 117.788 46.3085 116.683 45.6302C116.139 45.291 115.61 44.9019 115.185 44.4081C114.972 44.1637 114.79 43.8894 114.656 43.5951C114.531 43.2958 114.453 42.9765 114.448 42.6473C114.453 42.3231 114.531 41.9989 114.661 41.6996C114.796 41.4053 114.982 41.131 115.19 40.8866C115.615 40.3927 116.144 40.0037 116.688 39.6645C117.788 38.9911 118.985 38.5222 120.178 38.1481C121.376 37.774 122.579 37.4947 123.771 37.2852C124.959 37.0707 126.136 36.9211 127.287 36.8163C129.589 36.6118 131.788 36.5869 133.841 36.6866C135.894 36.7864 137.797 37.0059 139.514 37.3251C141.23 37.6493 142.76 38.0583 144.051 38.5472C145.342 39.036 146.405 39.5946 147.157 40.1982C147.535 40.4975 147.841 40.7968 148.059 41.096C148.121 41.1659 148.163 41.2457 148.209 41.3155C148.256 41.3854 148.303 41.4552 148.334 41.525C148.37 41.5949 148.401 41.6597 148.432 41.7196C148.458 41.7844 148.479 41.8492 148.5 41.9041C148.546 42.0188 148.567 42.1286 148.583 42.2184C148.593 42.2632 148.603 42.3081 148.608 42.348C148.608 42.388 148.608 42.4229 148.614 42.4528C148.624 42.5775 148.624 42.6423 148.624 42.6423H148.619Z" fill="#F30990"/>
<path d="M142.386 29.0352C142.386 29.0352 142.329 29.0003 142.22 28.9305C142.194 28.9155 142.163 28.8955 142.127 28.8706C142.091 28.8506 142.049 28.8357 142.008 28.8157C141.92 28.7758 141.821 28.7259 141.697 28.691C141.634 28.6711 141.572 28.6511 141.505 28.6312C141.432 28.6162 141.36 28.6012 141.282 28.5863C141.204 28.5663 141.121 28.5613 141.038 28.5563C140.95 28.5514 140.862 28.5364 140.768 28.5364C140.395 28.5214 139.96 28.5763 139.488 28.6761C138.534 28.8806 137.429 29.3494 136.242 30.0328C135.049 30.7162 133.784 31.629 132.472 32.7363C131.16 33.8437 129.817 35.1605 128.485 36.6569C127.152 38.1583 125.825 39.8443 124.585 41.7198C123.968 42.6575 123.372 43.6402 122.822 44.6777C122.268 45.7102 121.765 46.7926 121.339 47.9299C120.919 49.0672 120.572 50.2593 120.453 51.4963C120.401 52.1149 120.396 52.7483 120.541 53.3619C120.614 53.6661 120.722 53.9654 120.878 54.2447C121.039 54.5191 121.251 54.7635 121.505 54.963C121.77 55.1526 122.071 55.2872 122.382 55.372C122.698 55.4469 123.025 55.4768 123.351 55.4668C124.005 55.4469 124.642 55.2872 125.249 55.0827C126.468 54.6637 127.582 54.0402 128.62 53.3668C129.657 52.6885 130.621 51.9453 131.523 51.1721C132.425 50.399 133.271 49.6009 134.059 48.7928C135.635 47.1717 137.004 45.5157 138.181 43.8996C139.358 42.2834 140.348 40.7022 141.137 39.2058C141.925 37.7094 142.526 36.2978 142.92 35.0208C143.309 33.7439 143.506 32.5967 143.48 31.6589C143.465 31.19 143.413 30.776 143.304 30.4269C143.283 30.3371 143.247 30.2573 143.221 30.1824C143.195 30.1026 143.164 30.0278 143.128 29.963C143.091 29.8931 143.06 29.8283 143.029 29.7684C142.993 29.7086 142.957 29.6537 142.92 29.6038C142.858 29.4941 142.78 29.4143 142.718 29.3445C142.687 29.3095 142.661 29.2746 142.63 29.2447C142.599 29.2198 142.573 29.1948 142.547 29.1749C142.449 29.0901 142.402 29.0452 142.402 29.0452C142.402 29.0452 142.454 29.0851 142.552 29.1699C142.578 29.1898 142.604 29.2148 142.635 29.2397C142.666 29.2696 142.692 29.2996 142.723 29.3345C142.786 29.4043 142.863 29.4841 142.931 29.5939C142.967 29.6437 143.003 29.6986 143.04 29.7585C143.071 29.8183 143.107 29.8882 143.138 29.953C143.174 30.0178 143.206 30.0977 143.231 30.1725C143.257 30.2523 143.299 30.3321 143.32 30.4219C143.429 30.771 143.486 31.185 143.506 31.6589C143.543 32.6016 143.351 33.7539 142.962 35.0358C142.573 36.3177 141.971 37.7343 141.188 39.2357C140.4 40.7371 139.415 42.3183 138.238 43.9395C137.061 45.5606 135.692 47.2216 134.116 48.8427C133.328 49.6557 132.483 50.4538 131.575 51.227C130.673 52.0001 129.703 52.7483 128.666 53.4267C127.624 54.1051 126.509 54.7286 125.28 55.1526C124.668 55.3571 124.02 55.5217 123.357 55.5416C123.025 55.5516 122.688 55.5217 122.361 55.4469C122.039 55.3621 121.728 55.2224 121.454 55.0279C121.189 54.8234 120.971 54.569 120.805 54.2896C120.645 54.0053 120.536 53.701 120.463 53.3868C120.318 52.7633 120.323 52.1198 120.375 51.5013C120.494 50.2493 120.847 49.0572 121.267 47.9149C121.692 46.7776 122.2 45.6903 122.755 44.6577C123.31 43.6202 123.906 42.6376 124.523 41.6998C125.762 39.8243 127.095 38.1384 128.433 36.637C129.771 35.1356 131.119 33.8237 132.436 32.7164C133.753 31.609 135.023 30.6962 136.221 30.0178C137.414 29.3345 138.523 28.8706 139.483 28.6661C139.96 28.5663 140.395 28.5115 140.774 28.5314C140.867 28.5314 140.96 28.5464 141.043 28.5514C141.131 28.5563 141.214 28.5663 141.292 28.5863C141.37 28.6012 141.443 28.6162 141.515 28.6312C141.583 28.6511 141.65 28.6761 141.707 28.691C141.831 28.7259 141.93 28.7758 142.018 28.8207C142.06 28.8407 142.101 28.8606 142.137 28.8806C142.174 28.9005 142.2 28.9205 142.231 28.9404C142.34 29.0103 142.397 29.0502 142.397 29.0502L142.386 29.0352Z" fill="#F30990"/>
<path d="M114.293 49.4218C114.542 49.6612 114.542 50.0453 114.293 50.2847C114.044 50.5241 113.645 50.5241 113.396 50.2847C113.147 50.0453 113.147 49.6612 113.396 49.4218C113.645 49.1823 114.044 49.1823 114.293 49.4218Z" fill="#F30990"/>
<path d="M150.066 30.5216C150.066 30.8608 149.781 31.1302 149.433 31.1302C149.086 31.1302 148.801 30.8558 148.801 30.5216C148.801 30.1874 149.086 29.9131 149.433 29.9131C149.781 29.9131 150.066 30.1874 150.066 30.5216Z" fill="#F30990"/>
<path d="M118.296 51.4261C118.296 51.5109 118.223 51.5807 118.135 51.5807C118.047 51.5807 117.975 51.5109 117.975 51.4261C117.975 51.3413 118.047 51.2715 118.135 51.2715C118.223 51.2715 118.296 51.3413 118.296 51.4261Z" fill="#F30990"/>
<path d="M121.734 34.3372C121.734 34.422 121.661 34.4919 121.573 34.4919C121.485 34.4919 121.412 34.422 121.412 34.3372C121.412 34.2524 121.485 34.1826 121.573 34.1826C121.661 34.1826 121.734 34.2524 121.734 34.3372Z" fill="#F30990"/>
<path d="M146.876 42.6429C146.876 42.7277 146.804 42.7975 146.715 42.7975C146.627 42.7975 146.555 42.7277 146.555 42.6429C146.555 42.5581 146.627 42.4883 146.715 42.4883C146.804 42.4883 146.876 42.5581 146.876 42.6429Z" fill="#F30990"/>
<path d="M149.116 35.4154C149.116 35.5002 149.044 35.57 148.956 35.57C148.868 35.57 148.795 35.5002 148.795 35.4154C148.795 35.3306 148.868 35.2607 148.956 35.2607C149.044 35.2607 149.116 35.3306 149.116 35.4154Z" fill="#F30990"/>
<path d="M138.259 46.0498H136.268V35.6148C136.268 33.1607 134.188 31.1605 131.637 31.1605C129.086 31.1605 127.007 33.1607 127.007 35.6148V46.0498H125.016V35.6148C125.016 32.1033 127.987 29.2451 131.637 29.2451C135.288 29.2451 138.259 32.1033 138.259 35.6148V46.0498Z" fill="#F30990"/>
<g opacity="0.3">
<path d="M138.259 46.0498H136.268V35.6148C136.268 33.1607 134.188 31.1605 131.637 31.1605C129.086 31.1605 127.007 33.1607 127.007 35.6148V46.0498H125.016V35.6148C125.016 32.1033 127.987 29.2451 131.637 29.2451C135.288 29.2451 138.259 32.1033 138.259 35.6148V46.0498Z" fill="black"/>
</g>
<path d="M139.395 41.4111H123.881C123.236 41.4111 122.714 41.9136 122.714 42.5334V51.3024C122.714 51.9222 123.236 52.4247 123.881 52.4247H139.395C140.039 52.4247 140.561 51.9222 140.561 51.3024V42.5334C140.561 41.9136 140.039 41.4111 139.395 41.4111Z" fill="#F30990"/>
<g opacity="0.3">
<path d="M133.131 45.4815C133.131 44.6884 132.462 44.0449 131.638 44.0449C130.813 44.0449 130.145 44.6884 130.145 45.4815C130.145 46.1349 130.606 46.6836 131.228 46.8532V48.998H132.042V46.8532C132.665 46.6836 133.126 46.1349 133.126 45.4815H133.131Z" fill="black"/>
</g>
<path d="M123.662 51.3821C123.621 51.3821 123.59 49.5465 123.59 47.2819C123.59 45.0173 123.621 43.1768 123.662 43.1768C123.703 43.1768 123.734 45.0124 123.734 47.2819C123.734 49.5515 123.703 51.3821 123.662 51.3821Z" fill="#FAFAFA"/>
<path d="M130.471 47.3213C130.471 47.3213 130.404 47.3014 130.295 47.2265C130.191 47.1517 130.051 47.032 129.911 46.8474C129.631 46.4983 129.377 45.8598 129.543 45.1715C129.714 44.4831 130.243 44.0242 130.653 43.8297C130.86 43.7299 131.041 43.68 131.171 43.6601C131.301 43.6401 131.373 43.6401 131.373 43.6501C131.379 43.675 131.088 43.705 130.704 43.9195C130.326 44.124 129.849 44.5679 129.688 45.2064C129.533 45.8399 129.756 46.4434 129.999 46.7926C130.243 47.1517 130.492 47.3014 130.471 47.3213Z" fill="#FAFAFA"/>
<path d="M158.134 61.8613H103.186C100.517 61.8613 98.3535 63.9427 98.3535 66.5102V67.0788C98.3535 69.6463 100.517 71.7277 103.186 71.7277H158.134C160.803 71.7277 162.967 69.6463 162.967 67.0788V66.5102C162.967 63.9427 160.803 61.8613 158.134 61.8613Z" fill="#F5F5F5"/>
<path d="M158.606 75.3945H103.658C100.989 75.3945 98.8252 77.4759 98.8252 80.0434V80.612C98.8252 83.1795 100.989 85.2609 103.658 85.2609H158.606C161.275 85.2609 163.438 83.1795 163.438 80.612V80.0434C163.438 77.4759 161.275 75.3945 158.606 75.3945Z" fill="#F5F5F5"/>
<path d="M108.563 66.7197V65.2881H109.175V66.6947C109.175 67.1786 109.392 67.3781 109.766 67.3781C110.139 67.3781 110.357 67.1786 110.357 66.6947V65.2881H110.964V66.7197C110.964 67.4728 110.518 67.8869 109.761 67.8869C109.004 67.8869 108.558 67.4728 108.558 66.7197H108.563Z" fill="#263238"/>
<path d="M111.332 67.6622L111.529 67.2532C111.711 67.3679 111.985 67.4427 112.239 67.4427C112.514 67.4427 112.613 67.3729 112.613 67.2632C112.613 66.9439 111.384 67.2682 111.384 66.485C111.384 66.1109 111.731 65.8516 112.328 65.8516C112.608 65.8516 112.919 65.9114 113.111 66.0212L112.914 66.4252C112.711 66.3154 112.509 66.2805 112.328 66.2805C112.063 66.2805 111.949 66.3603 111.949 66.4651C111.949 66.7993 113.183 66.4751 113.183 67.2482C113.183 67.6123 112.831 67.8717 112.219 67.8717C111.871 67.8717 111.524 67.7819 111.337 67.6622H111.332Z" fill="#263238"/>
<path d="M115.532 67.0235H113.992C114.049 67.268 114.266 67.4176 114.572 67.4176C114.79 67.4176 114.946 67.3577 115.086 67.2281L115.402 67.5573C115.21 67.7668 114.93 67.8765 114.562 67.8765C113.857 67.8765 113.4 67.4475 113.4 66.8689C113.4 66.2903 113.867 65.8613 114.489 65.8613C115.112 65.8613 115.552 66.2454 115.552 66.8789C115.552 66.9238 115.547 66.9836 115.542 67.0335L115.532 67.0235ZM113.981 66.6893H114.987C114.946 66.4399 114.754 66.2803 114.489 66.2803C114.225 66.2803 114.028 66.435 113.986 66.6893H113.981Z" fill="#263238"/>
<path d="M117.201 65.8516V66.3753C117.149 66.3753 117.113 66.3703 117.066 66.3703C116.74 66.3703 116.522 66.5399 116.522 66.919V67.8468H115.931V65.8865H116.496V66.1459C116.641 65.9563 116.885 65.8565 117.196 65.8565L117.201 65.8516Z" fill="#263238"/>
<path d="M119.638 66.7196V67.8419H119.047V66.8044C119.047 66.4851 118.897 66.3405 118.632 66.3405C118.347 66.3405 118.145 66.5101 118.145 66.8692V67.8369H117.554V65.8766H118.119V66.1061C118.28 65.9365 118.518 65.8467 118.793 65.8467C119.275 65.8467 119.638 66.116 119.638 66.7146V66.7196Z" fill="#263238"/>
<path d="M121.977 66.7245V67.8418H121.423V67.5974C121.314 67.7769 121.101 67.8717 120.8 67.8717C120.323 67.8717 120.038 67.6173 120.038 67.2781C120.038 66.939 120.292 66.6895 120.914 66.6895H121.386C121.386 66.4451 121.236 66.3055 120.914 66.3055C120.697 66.3055 120.474 66.3753 120.328 66.49L120.116 66.091C120.339 65.9364 120.671 65.8516 120.997 65.8516C121.62 65.8516 121.977 66.1309 121.977 66.7245ZM121.386 67.2233V67.0237H120.982C120.707 67.0237 120.619 67.1235 120.619 67.2532C120.619 67.3979 120.743 67.4926 120.951 67.4926C121.148 67.4926 121.319 67.4028 121.386 67.2283V67.2233Z" fill="#263238"/>
<path d="M125.954 66.7197V67.842H125.363V66.8045C125.363 66.4853 125.213 66.3406 124.974 66.3406C124.71 66.3406 124.523 66.5052 124.523 66.8544V67.837H123.932V66.7995C123.932 66.4803 123.792 66.3356 123.543 66.3356C123.284 66.3356 123.097 66.5002 123.097 66.8494V67.832H122.506V65.8717H123.071V66.0962C123.221 65.9266 123.45 65.8418 123.714 65.8418C123.999 65.8418 124.243 65.9465 124.383 66.161C124.544 65.9615 124.813 65.8418 125.119 65.8418C125.607 65.8418 125.954 66.1112 125.954 66.7097V66.7197Z" fill="#263238"/>
<path d="M128.494 67.0235H126.954C127.011 67.268 127.229 67.4176 127.535 67.4176C127.753 67.4176 127.908 67.3577 128.048 67.2281L128.365 67.5573C128.173 67.7668 127.893 67.8765 127.525 67.8765C126.82 67.8765 126.363 67.4475 126.363 66.8689C126.363 66.2903 126.83 65.8613 127.452 65.8613C128.074 65.8613 128.515 66.2454 128.515 66.8789C128.515 66.9238 128.51 66.9836 128.505 67.0335L128.494 67.0235ZM126.944 66.6893H127.95C127.908 66.4399 127.717 66.2803 127.452 66.2803C127.188 66.2803 126.991 66.435 126.949 66.6893H126.944Z" fill="#263238"/>
<path d="M132.404 66.8441C132.404 67.4975 132.093 67.8667 131.626 67.8667C131.367 67.8667 131.186 67.7569 131.108 67.5474C130.973 67.7519 130.76 67.8667 130.46 67.8667C129.972 67.8667 129.583 67.4926 129.583 66.9439C129.583 66.3952 129.967 66.0261 130.46 66.0261C130.709 66.0261 130.906 66.1109 131.046 66.2655V66.051H131.559V67.2332C131.559 67.4078 131.637 67.4676 131.74 67.4676C131.917 67.4676 132.02 67.2731 132.02 66.8491C132.02 66.1109 131.45 65.5971 130.61 65.5971C129.77 65.5971 129.2 66.1508 129.2 66.9139C129.2 67.6771 129.754 68.2408 130.594 68.2408C130.833 68.2408 131.103 68.1909 131.341 68.0811L131.46 68.4153C131.227 68.5301 130.89 68.5899 130.594 68.5899C129.5 68.5899 128.774 67.8766 128.774 66.9139C128.774 65.9512 129.506 65.2529 130.61 65.2529C131.714 65.2529 132.404 65.9263 132.404 66.8441ZM131.051 66.9439C131.051 66.6246 130.848 66.4501 130.579 66.4501C130.309 66.4501 130.107 66.6346 130.107 66.9439C130.107 67.2531 130.299 67.4477 130.579 67.4477C130.859 67.4477 131.051 67.2631 131.051 66.9439Z" fill="#263238"/>
<path d="M136.268 66.7197V67.842H135.676V66.8045C135.676 66.4853 135.526 66.3406 135.288 66.3406C135.023 66.3406 134.836 66.5052 134.836 66.8544V67.837H134.245V66.7995C134.245 66.4803 134.105 66.3356 133.856 66.3356C133.597 66.3356 133.41 66.5002 133.41 66.8494V67.832H132.819V65.8717H133.385V66.0962C133.535 65.9266 133.763 65.8418 134.028 65.8418C134.313 65.8418 134.556 65.9465 134.696 66.161C134.857 65.9615 135.127 65.8418 135.433 65.8418C135.92 65.8418 136.268 66.1112 136.268 66.7097V66.7197Z" fill="#263238"/>
<path d="M138.6 66.7245V67.8418H138.046V67.5974C137.937 67.7769 137.724 67.8717 137.423 67.8717C136.946 67.8717 136.661 67.6173 136.661 67.2781C136.661 66.939 136.915 66.6895 137.537 66.6895H138.009C138.009 66.4451 137.859 66.3055 137.537 66.3055C137.32 66.3055 137.097 66.3753 136.952 66.49L136.739 66.091C136.962 65.9364 137.294 65.8516 137.62 65.8516C138.243 65.8516 138.6 66.1309 138.6 66.7245ZM138.009 67.2233V67.0237H137.605C137.33 67.0237 137.242 67.1235 137.242 67.2532C137.242 67.3979 137.366 67.4926 137.574 67.4926C137.771 67.4926 137.942 67.4028 138.009 67.2283V67.2233Z" fill="#263238"/>
<path d="M139.067 65.288C139.067 65.1084 139.218 64.9688 139.436 64.9688C139.653 64.9688 139.804 65.0984 139.804 65.273C139.804 65.4626 139.653 65.6022 139.436 65.6022C139.218 65.6022 139.067 65.4626 139.067 65.283V65.288ZM139.14 65.8766H139.731V67.8369H139.14V65.8766Z" fill="#263238"/>
<path d="M140.275 65.1387H140.867V67.8422H140.275V65.1387Z" fill="#263238"/>
<path d="M141.276 67.5123C141.276 67.3028 141.437 67.1631 141.645 67.1631C141.852 67.1631 142.013 67.3028 142.013 67.5123C142.013 67.7218 141.852 67.8714 141.645 67.8714C141.437 67.8714 141.276 67.7218 141.276 67.5123Z" fill="#263238"/>
<path d="M142.235 66.8591C142.235 66.2706 142.707 65.8516 143.371 65.8516C143.801 65.8516 144.138 66.0311 144.284 66.3504L143.827 66.5898C143.718 66.4052 143.552 66.3204 143.371 66.3204C143.07 66.3204 142.837 66.52 142.837 66.8641C142.837 67.2083 143.07 67.4078 143.371 67.4078C143.558 67.4078 143.718 67.328 143.827 67.1385L144.284 67.3779C144.133 67.6921 143.796 67.8717 143.371 67.8717C142.707 67.8717 142.235 67.4527 142.235 66.8641V66.8591Z" fill="#263238"/>
<path d="M144.444 66.8591C144.444 66.2706 144.916 65.8516 145.564 65.8516C146.212 65.8516 146.684 66.2706 146.684 66.8591C146.684 67.4477 146.212 67.8667 145.564 67.8667C144.916 67.8667 144.444 67.4477 144.444 66.8591ZM146.083 66.8591C146.083 66.52 145.86 66.3154 145.564 66.3154C145.269 66.3154 145.041 66.52 145.041 66.8591C145.041 67.1983 145.269 67.4028 145.564 67.4028C145.86 67.4028 146.083 67.1983 146.083 66.8591Z" fill="#263238"/>
<path d="M150.526 66.7197V67.842H149.935V66.8045C149.935 66.4853 149.785 66.3406 149.546 66.3406C149.282 66.3406 149.095 66.5052 149.095 66.8544V67.837H148.504V66.7995C148.504 66.4803 148.364 66.3356 148.115 66.3356C147.856 66.3356 147.669 66.5002 147.669 66.8494V67.832H147.078V65.8717H147.643V66.0962C147.794 65.9266 148.022 65.8418 148.286 65.8418C148.571 65.8418 148.815 65.9465 148.955 66.161C149.116 65.9615 149.386 65.8418 149.691 65.8418C150.179 65.8418 150.526 66.1112 150.526 66.7097V66.7197Z" fill="#263238"/>
<path d="M116.481 80.3819L117.44 80.8807L117.01 81.5741L116.04 81.0254L116.056 82.0529H115.226L115.237 81.0204L114.267 81.5791L113.842 80.8857L114.801 80.3869L113.842 79.8781L114.267 79.1848L115.237 79.7435L115.226 78.7109H116.056L116.04 79.7435L117.01 79.1848L117.44 79.8781L116.481 80.3869V80.3819Z" fill="#263238"/>
<path d="M120.479 80.3819L121.438 80.8807L121.008 81.5741L120.038 81.0254L120.054 82.0529H119.224L119.235 81.0204L118.265 81.5791L117.84 80.8857L118.799 80.3869L117.84 79.8781L118.265 79.1848L119.235 79.7435L119.224 78.7109H120.054L120.038 79.7435L121.008 79.1848L121.438 79.8781L120.479 80.3869V80.3819Z" fill="#263238"/>
<path d="M124.477 80.3819L125.436 80.8807L125.006 81.5741L124.036 81.0254L124.052 82.0529H123.222L123.233 81.0204L122.263 81.5791L121.838 80.8857L122.797 80.3869L121.838 79.8781L122.263 79.1848L123.233 79.7435L123.222 78.7109H124.052L124.036 79.7435L125.006 79.1848L125.436 79.8781L124.477 80.3869V80.3819Z" fill="#263238"/>
<path d="M128.469 80.3819L129.429 80.8807L128.998 81.5741L128.029 81.0254L128.044 82.0529H127.215L127.225 81.0204L126.255 81.5791L125.83 80.8857L126.789 80.3869L125.83 79.8781L126.255 79.1848L127.225 79.7435L127.215 78.7109H128.044L128.029 79.7435L128.998 79.1848L129.429 79.8781L128.469 80.3869V80.3819Z" fill="#263238"/>
<path d="M132.467 80.3819L133.427 80.8807L132.996 81.5741L132.027 81.0254L132.042 82.0529H131.213L131.223 81.0204L130.253 81.5791L129.828 80.8857L130.787 80.3869L129.828 79.8781L130.253 79.1848L131.223 79.7435L131.213 78.7109H132.042L132.027 79.7435L132.996 79.1848L133.427 79.8781L132.467 80.3869V80.3819Z" fill="#263238"/>
<path d="M136.464 80.3819L137.424 80.8807L136.993 81.5741L136.024 81.0254L136.039 82.0529H135.21L135.22 81.0204L134.25 81.5791L133.825 80.8857L134.784 80.3869L133.825 79.8781L134.25 79.1848L135.22 79.7435L135.21 78.7109H136.039L136.024 79.7435L136.993 79.1848L137.424 79.8781L136.464 80.3869V80.3819Z" fill="#263238"/>
<path d="M140.458 80.3819L141.417 80.8807L140.987 81.5741L140.017 81.0254L140.032 82.0529H139.203L139.213 81.0204L138.244 81.5791L137.818 80.8857L138.778 80.3869L137.818 79.8781L138.244 79.1848L139.213 79.7435L139.203 78.7109H140.032L140.017 79.7435L140.987 79.1848L141.417 79.8781L140.458 80.3869V80.3819Z" fill="#263238"/>
<path d="M144.456 80.3819L145.415 80.8807L144.985 81.5741L144.015 81.0254L144.03 82.0529H143.201L143.211 81.0204L142.242 81.5791L141.816 80.8857L142.776 80.3869L141.816 79.8781L142.242 79.1848L143.211 79.7435L143.201 78.7109H144.03L144.015 79.7435L144.985 79.1848L145.415 79.8781L144.456 80.3869V80.3819Z" fill="#263238"/>
<path d="M188.152 107.882H110.881C109.054 107.882 107.573 109.307 107.573 111.064V149.542C107.573 151.299 109.054 152.724 110.881 152.724H188.152C189.979 152.724 191.46 151.299 191.46 149.542V111.064C191.46 109.307 189.979 107.882 188.152 107.882Z" fill="white"/>
<path d="M188.151 152.724C188.151 152.724 188.374 152.724 188.804 152.649C189.219 152.559 189.862 152.355 190.469 151.776C190.765 151.487 191.039 151.108 191.216 150.639C191.314 150.405 191.361 150.145 191.402 149.876C191.423 149.607 191.418 149.317 191.418 149.018C191.418 147.821 191.413 146.439 191.407 144.888C191.397 138.668 191.382 129.679 191.366 118.571C191.366 117.184 191.366 115.758 191.366 114.306C191.366 113.578 191.366 112.845 191.366 112.102C191.345 111.358 191.449 110.595 191.133 109.917C190.847 109.238 190.298 108.655 189.598 108.316C189.25 108.146 188.872 108.041 188.478 108.001C188.094 107.971 187.674 107.991 187.264 107.986C185.626 107.986 183.956 107.986 182.261 107.986C175.468 107.986 168.214 107.996 160.576 107.996C145.306 107.996 128.516 108.001 110.891 108.006C110.362 108.006 109.839 108.136 109.372 108.375C108.916 108.625 108.511 108.969 108.226 109.398C107.946 109.822 107.76 110.311 107.728 110.815C107.702 111.318 107.723 111.857 107.718 112.376C107.718 114.471 107.718 116.551 107.718 118.616C107.718 122.746 107.718 126.811 107.718 130.812C107.718 134.807 107.718 138.738 107.718 142.583C107.718 144.504 107.718 146.409 107.718 148.29C107.718 148.759 107.708 149.237 107.723 149.691C107.744 150.14 107.874 150.584 108.086 150.978C108.522 151.771 109.331 152.35 110.233 152.535C110.679 152.634 111.151 152.594 111.628 152.604C112.1 152.604 112.577 152.604 113.048 152.604C113.992 152.604 114.925 152.604 115.859 152.604C117.72 152.604 119.556 152.604 121.366 152.604C124.985 152.604 128.495 152.604 131.892 152.609C138.684 152.614 145.01 152.619 150.786 152.624C162.334 152.639 171.678 152.654 178.144 152.664C181.369 152.674 183.879 152.684 185.579 152.689C186.424 152.694 187.073 152.699 187.513 152.704C187.949 152.704 188.172 152.719 188.172 152.719C188.172 152.719 187.949 152.729 187.513 152.734C187.073 152.734 186.424 152.739 185.579 152.749C183.873 152.754 181.369 152.764 178.144 152.774C171.678 152.784 162.334 152.799 150.786 152.814C145.01 152.814 138.684 152.824 131.892 152.829C128.495 152.829 124.985 152.829 121.366 152.834C119.556 152.834 117.72 152.834 115.859 152.834C114.931 152.834 113.992 152.834 113.048 152.834C112.577 152.834 112.105 152.834 111.628 152.834C111.161 152.824 110.674 152.869 110.181 152.764C109.211 152.569 108.34 151.941 107.868 151.088C107.635 150.664 107.495 150.185 107.474 149.701C107.459 149.222 107.474 148.764 107.464 148.29C107.464 146.409 107.464 144.504 107.464 142.583C107.464 138.738 107.464 134.812 107.464 130.812C107.464 126.816 107.464 122.746 107.464 118.616C107.464 116.551 107.464 114.471 107.464 112.376C107.469 111.847 107.448 111.338 107.48 110.795C107.516 110.246 107.718 109.717 108.024 109.258C108.33 108.794 108.771 108.42 109.268 108.151C109.771 107.892 110.342 107.752 110.917 107.752C128.542 107.752 145.332 107.757 160.602 107.762C168.24 107.762 175.494 107.772 182.287 107.772C183.982 107.772 185.652 107.772 187.29 107.772C187.705 107.777 188.099 107.757 188.524 107.787C188.939 107.827 189.349 107.941 189.717 108.126C190.459 108.485 191.045 109.109 191.345 109.832C191.501 110.196 191.579 110.58 191.589 110.969C191.589 111.343 191.589 111.717 191.589 112.092C191.589 112.835 191.589 113.568 191.589 114.296C191.589 115.748 191.589 117.174 191.589 118.561C191.573 129.669 191.558 138.658 191.547 144.878C191.547 146.429 191.537 147.811 191.537 149.008C191.537 149.307 191.537 149.597 191.516 149.876C191.475 150.15 191.423 150.415 191.319 150.654C191.133 151.133 190.853 151.517 190.547 151.806C189.925 152.385 189.271 152.589 188.851 152.669C188.633 152.704 188.473 152.719 188.359 152.719C188.25 152.719 188.193 152.719 188.193 152.719L188.151 152.724Z" fill="#263238"/>
<path d="M136.802 123.729V124.287H134.375V121.27H136.745V121.828H135.096V122.482H136.553V123.025H135.096V123.724H136.802V123.729Z" fill="#263238"/>
<path d="M140.255 121.27V124.287H139.659L138.098 122.457V124.287H137.383V121.27H137.984L139.545 123.1V121.27H140.261H140.255Z" fill="#263238"/>
<path d="M141.644 121.838H140.644V121.27H143.376V121.838H142.375V124.287H141.649V121.838H141.644Z" fill="#263238"/>
<path d="M146.192 123.729V124.287H143.766V121.27H146.135V121.828H144.486V122.482H145.943V123.025H144.486V123.724H146.192V123.729Z" fill="#263238"/>
<path d="M148.769 124.287L148.162 123.449H147.494V124.287H146.768V121.27H148.126C148.961 121.27 149.485 121.689 149.485 122.362C149.485 122.816 149.246 123.145 148.842 123.315L149.547 124.282H148.769V124.287ZM148.09 121.838H147.499V122.891H148.09C148.536 122.891 148.759 122.691 148.759 122.367C148.759 122.043 148.536 121.843 148.09 121.843V121.838Z" fill="#263238"/>
<path d="M151.134 122.781C151.134 121.873 151.86 121.22 152.835 121.22C153.374 121.22 153.83 121.409 154.126 121.753L153.659 122.167C153.446 121.933 153.182 121.813 152.871 121.813C152.285 121.813 151.87 122.207 151.87 122.776C151.87 123.345 152.285 123.739 152.871 123.739C153.182 123.739 153.446 123.619 153.659 123.38L154.126 123.794C153.83 124.143 153.379 124.332 152.829 124.332C151.86 124.332 151.134 123.684 151.134 122.771V122.781Z" fill="#263238"/>
<path d="M154.349 122.781C154.349 121.883 155.075 121.22 156.065 121.22C157.055 121.22 157.781 121.878 157.781 122.781C157.781 123.684 157.05 124.342 156.065 124.342C155.08 124.342 154.349 123.679 154.349 122.781ZM157.045 122.781C157.045 122.207 156.625 121.818 156.065 121.818C155.505 121.818 155.085 122.212 155.085 122.781C155.085 123.35 155.505 123.744 156.065 123.744C156.625 123.744 157.045 123.35 157.045 122.781Z" fill="#263238"/>
<path d="M158.331 121.27H159.757C160.784 121.27 161.484 121.863 161.484 122.776C161.484 123.689 160.778 124.282 159.757 124.282H158.331V121.265V121.27ZM159.721 123.714C160.343 123.714 160.753 123.355 160.753 122.781C160.753 122.207 160.343 121.848 159.721 121.848H159.057V123.719H159.721V123.714Z" fill="#263238"/>
<path d="M164.454 123.729V124.287H162.027V121.27H164.397V121.828H162.748V122.482H164.205V123.025H162.748V123.724H164.454V123.729Z" fill="#263238"/>
<path d="M124.907 129.101H117.29C116.159 129.101 115.242 129.983 115.242 131.071V142.479C115.242 143.567 116.159 144.449 117.29 144.449H124.907C126.039 144.449 126.956 143.567 126.956 142.479V131.071C126.956 129.983 126.039 129.101 124.907 129.101Z" fill="#EBEBEB"/>
<path d="M139.534 129.101H131.917C130.786 129.101 129.869 129.983 129.869 131.071V142.479C129.869 143.567 130.786 144.449 131.917 144.449H139.534C140.666 144.449 141.583 143.567 141.583 142.479V131.071C141.583 129.983 140.666 129.101 139.534 129.101Z" fill="#EBEBEB"/>
<path d="M154.162 129.101H146.545C145.414 129.101 144.497 129.983 144.497 131.071V142.479C144.497 143.567 145.414 144.449 146.545 144.449H154.162C155.293 144.449 156.21 143.567 156.21 142.479V131.071C156.21 129.983 155.293 129.101 154.162 129.101Z" fill="#EBEBEB"/>
<path d="M168.784 129.101H161.167C160.036 129.101 159.119 129.983 159.119 131.071V142.479C159.119 143.567 160.036 144.449 161.167 144.449H168.784C169.916 144.449 170.833 143.567 170.833 142.479V131.071C170.833 129.983 169.916 129.101 168.784 129.101Z" fill="#EBEBEB"/>
<path d="M183.412 129.101H175.795C174.664 129.101 173.747 129.983 173.747 131.071V142.479C173.747 143.567 174.664 144.449 175.795 144.449H183.412C184.543 144.449 185.46 143.567 185.46 142.479V131.071C185.46 129.983 184.543 129.101 183.412 129.101Z" fill="#EBEBEB"/>
<path d="M123.652 137.959C123.652 139.057 122.771 139.765 121.578 139.765C119.94 139.765 119.079 138.633 119.079 136.757C119.079 134.727 120.199 133.685 121.848 133.685C122.382 133.685 122.88 133.769 123.264 133.994L123.077 134.343C122.755 134.148 122.32 134.069 121.848 134.069C120.448 134.069 119.535 134.952 119.535 136.687C119.535 136.867 119.546 137.131 119.587 137.406C119.847 136.618 120.629 136.174 121.573 136.174C122.818 136.174 123.658 136.877 123.658 137.954L123.652 137.959ZM123.196 137.969C123.196 137.111 122.553 136.558 121.506 136.558C120.458 136.558 119.779 137.181 119.779 137.989C119.779 138.693 120.391 139.391 121.558 139.391C122.527 139.391 123.196 138.832 123.196 137.969Z" fill="#F30990"/>
<path d="M138.119 138.064H136.812V139.725H136.366V138.064H132.814V137.745L136.195 133.729H136.703L133.385 137.675H136.377V136.209H136.812V137.675H138.119V138.059V138.064Z" fill="#F30990"/>
<path d="M153.203 140.578C153.203 140.648 151.99 140.708 150.491 140.708C148.993 140.708 147.779 140.648 147.779 140.578C147.779 140.508 148.993 140.448 150.491 140.448C151.99 140.448 153.203 140.508 153.203 140.578Z" fill="#F30990"/>
<path d="M112.898 113.578C113.6 113.578 114.169 113.031 114.169 112.356C114.169 111.681 113.6 111.134 112.898 111.134C112.197 111.134 111.628 111.681 111.628 112.356C111.628 113.031 112.197 113.578 112.898 113.578Z" fill="#263238"/>
<path d="M117.83 112.356C117.83 113.029 117.259 113.578 116.559 113.578C115.859 113.578 115.289 113.029 115.289 112.356C115.289 111.682 115.859 111.134 116.559 111.134C117.259 111.134 117.83 111.682 117.83 112.356Z" fill="#263238"/>
<path d="M120.152 113.578C120.854 113.578 121.423 113.031 121.423 112.356C121.423 111.681 120.854 111.134 120.152 111.134C119.451 111.134 118.882 111.681 118.882 112.356C118.882 113.031 119.451 113.578 120.152 113.578Z" fill="#263238"/>
<path d="M191.584 115.798C191.584 115.867 172.803 115.927 149.641 115.927C126.478 115.927 107.692 115.867 107.692 115.798C107.692 115.728 126.468 115.668 149.641 115.668C172.814 115.668 191.584 115.728 191.584 115.798Z" fill="#263238"/>
<path d="M97.363 52.8281H56.9701C55.8086 52.8281 54.8701 53.731 54.8701 54.8483V72.5508C54.8701 73.6681 55.8086 74.571 56.9701 74.571H73.9154L77.514 79.0103L80.511 74.571H97.3578C98.5193 74.571 99.4578 73.6681 99.4578 72.5508V54.8483C99.4578 53.731 98.5193 52.8281 97.3578 52.8281H97.363Z" fill="white"/>
<path d="M97.363 52.8279C97.363 52.8279 97.4305 52.8279 97.5653 52.8279C97.6949 52.8429 97.8971 52.8579 98.1408 52.9526C98.3845 53.0424 98.6801 53.197 98.9394 53.4714C99.2038 53.7407 99.4319 54.1398 99.4942 54.6286C99.5305 56.559 99.5253 59.3573 99.5408 62.9088C99.5408 64.6845 99.5512 66.6448 99.5564 68.7697C99.5564 69.8321 99.5564 70.9395 99.5616 72.0818C99.5564 72.3661 99.5823 72.6604 99.5201 72.9646C99.4579 73.2639 99.3282 73.5532 99.1364 73.8026C98.7579 74.3064 98.1305 74.6456 97.4616 74.6656C92.3801 74.6705 86.6815 74.6805 80.5163 74.6905L80.62 74.6356C79.6763 76.0323 78.66 77.5387 77.6229 79.075L77.5244 79.2196L77.4155 79.085C76.2799 77.6833 75.0562 76.1769 73.8118 74.6456L73.9155 74.6955C69.2488 74.6955 64.3643 74.6955 59.3554 74.6955H57.608C57.3124 74.6905 57.0376 74.7055 56.7213 74.6805C56.4154 74.6456 56.1146 74.5508 55.8502 74.4012C55.3161 74.1069 54.9272 73.5931 54.7924 73.0145C54.7198 72.7252 54.7405 72.4309 54.7354 72.1616V71.3385C54.7354 69.1488 54.7354 66.989 54.7354 64.8641C54.7354 62.7441 54.7354 60.6592 54.7354 58.6141C54.7354 57.5915 54.7354 56.5839 54.7354 55.5863V54.8381C54.7354 54.5737 54.7872 54.3144 54.8857 54.07C55.0828 53.5811 55.4665 53.1721 55.9435 52.9377C56.182 52.818 56.4413 52.7431 56.7057 52.7132C56.9754 52.6883 57.2191 52.7032 57.4731 52.6982C57.9709 52.6982 58.4687 52.6982 58.9665 52.6982C59.9517 52.6982 60.9265 52.6982 61.891 52.6982C63.8095 52.6982 65.6762 52.6982 67.4806 52.7032C71.0844 52.7082 74.4444 52.7132 77.5088 52.7182C83.6326 52.7332 88.5948 52.7481 92.0326 52.7581C93.7386 52.7681 95.0712 52.7781 95.9786 52.783C96.4245 52.788 96.7667 52.793 97.0053 52.798C97.2386 52.798 97.3527 52.813 97.3527 52.813C97.3527 52.813 97.2334 52.8229 97.0053 52.8279C96.7667 52.8279 96.4245 52.8329 95.9786 52.8429C95.066 52.8479 93.7386 52.8579 92.0326 52.8678C88.5948 52.8778 83.6326 52.8928 77.5088 52.9077C74.4444 52.9077 71.0844 52.9177 67.4806 52.9227C65.6762 52.9227 63.8147 52.9227 61.891 52.9277C60.9317 52.9277 59.9569 52.9277 58.9665 52.9277C58.4739 52.9277 57.9761 52.9277 57.4731 52.9277C57.2243 52.9277 56.965 52.9227 56.7368 52.9427C56.5035 52.9676 56.2702 53.0374 56.0576 53.1422C55.6324 53.3517 55.2902 53.7158 55.1191 54.1498C55.0309 54.3642 54.9894 54.5987 54.9842 54.8331V55.5813C54.9842 56.5789 54.9842 57.5915 54.9842 58.6091C54.9842 60.6492 54.9842 62.7342 54.9842 64.8591C54.9842 66.979 54.9842 69.1388 54.9842 71.3335V72.1566C54.9842 72.4359 54.9687 72.7003 55.0361 72.9497C55.1502 73.4535 55.4976 73.9074 55.9643 74.1668C56.1976 74.2964 56.4568 74.3812 56.7265 74.4112C56.9857 74.4361 57.2969 74.4212 57.582 74.4261C58.1628 74.4261 58.7487 74.4261 59.3295 74.4261C64.3384 74.4261 69.2229 74.4261 73.8896 74.4261H73.9518L73.9933 74.476C75.2325 76.0073 76.4562 77.5137 77.5918 78.9154L77.3844 78.9253C78.4214 77.389 79.4429 75.8826 80.3866 74.486L80.4229 74.4311H80.4903C86.6504 74.4361 92.3489 74.4411 97.4253 74.4461C98.0319 74.4261 98.6023 74.1219 98.9445 73.668C99.1157 73.4435 99.2401 73.1791 99.2971 72.9098C99.3542 72.6404 99.3334 72.3511 99.3386 72.0668C99.3386 70.9245 99.3386 69.8172 99.3438 68.7547C99.349 66.6298 99.3542 64.6695 99.3594 62.8938C99.3697 59.3523 99.3749 56.549 99.3801 54.6186C99.3282 54.1498 99.1157 53.7607 98.8616 53.4963C98.6127 53.222 98.3275 53.0674 98.0942 52.9726C97.6119 52.788 97.3319 52.8329 97.3319 52.813L97.363 52.8279Z" fill="#263238"/>
<path d="M69.6018 57.821V58.4745H69.1559V57.8161L68.4092 56.6289H68.881L69.3944 57.4519L69.9077 56.6289H70.3433L69.5966 57.821H69.6018Z" fill="#263238"/>
<path d="M70.333 57.5515C70.333 57.0028 70.7789 56.5938 71.3856 56.5938C71.9923 56.5938 72.4382 56.9978 72.4382 57.5515C72.4382 58.1051 71.9923 58.5092 71.3856 58.5092C70.7789 58.5092 70.333 58.1001 70.333 57.5515ZM71.9871 57.5515C71.9871 57.2023 71.7278 56.9579 71.3856 56.9579C71.0434 56.9579 70.7841 57.1973 70.7841 57.5515C70.7841 57.9056 71.0434 58.145 71.3856 58.145C71.7278 58.145 71.9871 57.9056 71.9871 57.5515Z" fill="#263238"/>
<path d="M72.7598 57.6664V56.6289H73.2057V57.6465C73.2057 57.9956 73.3664 58.1453 73.6361 58.1453C73.9057 58.1453 74.0664 58.0006 74.0664 57.6465V56.6289H74.5072V57.6664C74.5072 58.2101 74.1857 58.5094 73.6361 58.5094C73.0864 58.5094 72.7649 58.2101 72.7649 57.6664H72.7598Z" fill="#263238"/>
<path d="M76.1661 58.4795L75.7979 57.9657H75.3883V58.4795H74.9424V56.6289H75.772C76.2854 56.6289 76.6068 56.8833 76.6068 57.2973C76.6068 57.5766 76.4617 57.7762 76.2128 57.8809L76.6431 58.4745H76.1661V58.4795ZM75.7513 56.9781H75.3883V57.6215H75.7513C76.0209 57.6215 76.1609 57.5018 76.1609 57.2973C76.1609 57.0928 76.0261 56.9731 75.7513 56.9731V56.9781Z" fill="#263238"/>
<path d="M77.6185 57.5515C77.6185 56.9928 78.0644 56.5938 78.6607 56.5938C78.9926 56.5938 79.2726 56.7085 79.4489 56.923L79.1637 57.1773C79.034 57.0327 78.8733 56.9629 78.6814 56.9629C78.3237 56.9629 78.0644 57.2073 78.0644 57.5564C78.0644 57.9056 78.3185 58.15 78.6814 58.15C78.8733 58.15 79.034 58.0752 79.1637 57.9305L79.4489 58.1849C79.2674 58.3994 78.9926 58.5141 78.6555 58.5141C78.0592 58.5141 77.6133 58.1151 77.6133 57.5564L77.6185 57.5515Z" fill="#263238"/>
<path d="M79.5938 57.5515C79.5938 57.0028 80.0397 56.5938 80.6463 56.5938C81.253 56.5938 81.6989 56.9978 81.6989 57.5515C81.6989 58.1051 81.253 58.5092 80.6463 58.5092C80.0397 58.5092 79.5938 58.1001 79.5938 57.5515ZM81.2478 57.5515C81.2478 57.2023 80.9886 56.9579 80.6463 56.9579C80.3041 56.9579 80.0449 57.1973 80.0449 57.5515C80.0449 57.9056 80.3041 58.145 80.6463 58.145C80.9886 58.145 81.2478 57.9056 81.2478 57.5515Z" fill="#263238"/>
<path d="M82.0303 56.629H82.9014C83.5288 56.629 83.9592 56.9931 83.9592 57.5518C83.9592 58.1105 83.5288 58.4746 82.9014 58.4746H82.0303V56.624V56.629ZM82.8806 58.1254C83.2644 58.1254 83.5132 57.9059 83.5132 57.5518C83.5132 57.1976 83.2644 56.9782 82.8806 56.9782H82.4762V58.1254H82.8806Z" fill="#263238"/>
<path d="M85.7899 58.1353V58.4795H84.3018V56.6289H85.7536V56.9731H84.7425V57.3721H85.6344V57.7063H84.7425V58.1353H85.7899Z" fill="#263238"/>
<path d="M93.4172 60.4199H60.9111C59.8944 60.4199 59.0703 61.2127 59.0703 62.1907V68.7948C59.0703 69.7728 59.8944 70.5656 60.9111 70.5656H93.4172C94.4338 70.5656 95.258 69.7728 95.258 68.7948V62.1907C95.258 61.2127 94.4338 60.4199 93.4172 60.4199Z" fill="#F5F5F5"/>
<path d="M66.4276 66.111C66.4276 67.0088 65.7069 67.5924 64.7269 67.5924C63.3839 67.5924 62.6787 66.6647 62.6787 65.1283C62.6787 63.4673 63.5965 62.6094 64.9447 62.6094C65.3802 62.6094 65.7898 62.6792 66.1061 62.8638L65.9506 63.1531C65.6861 62.9935 65.3284 62.9286 64.9447 62.9286C63.7987 62.9286 63.0469 63.6519 63.0469 65.0735C63.0469 65.2231 63.052 65.4376 63.0883 65.6621C63.3009 65.0186 63.9439 64.6495 64.7165 64.6495C65.738 64.6495 66.4224 65.2231 66.4224 66.111H66.4276ZM66.0543 66.116C66.0543 65.4127 65.5306 64.9587 64.6698 64.9587C63.8091 64.9587 63.2543 65.4725 63.2543 66.1309C63.2543 66.7046 63.7572 67.2832 64.7113 67.2832C65.5047 67.2832 66.0543 66.8293 66.0543 66.121V66.116Z" fill="#F30990"/>
<path d="M73.2046 66.196H72.1312V67.5578H71.7683V66.196H68.8594V65.9366L71.6335 62.6445H72.0483L69.326 65.8818H71.7786V64.6797H72.1364V65.8818H73.2098V66.196H73.2046Z" fill="#F30990"/>
<path d="M78.8772 66.1761C78.8772 66.9891 78.2654 67.5927 77.0883 67.5927C76.3365 67.5927 75.6417 67.3283 75.2891 66.9342L75.4809 66.6599C75.792 67.0041 76.3935 67.2635 77.0935 67.2635C78.0113 67.2635 78.5039 66.8445 78.5039 66.1761C78.5039 65.5077 78.0372 65.0887 77.0157 65.0887H76.6943V64.8293L78.2032 62.9688H75.4809V62.6445H78.6854V62.8989L77.1557 64.7894C78.3172 64.8193 78.8824 65.378 78.8824 66.181L78.8772 66.1761Z" fill="#F30990"/>
<path d="M85.0475 62.6445V62.8989L82.8541 67.5578H82.4445L84.6171 62.9688H81.7497V63.9115H81.3867V62.6495H85.0475V62.6445Z" fill="#F30990"/>
<path d="M87.6562 65.1033C87.6562 63.567 88.4807 62.6143 89.6526 62.6143C90.8244 62.6143 91.6489 63.567 91.6489 65.1033C91.6489 66.6396 90.8244 67.5923 89.6526 67.5923C88.4807 67.5923 87.6562 66.6396 87.6562 65.1033ZM91.2807 65.1033C91.2807 63.7366 90.617 62.9435 89.6526 62.9435C88.6881 62.9435 88.0244 63.7366 88.0244 65.1033C88.0244 66.47 88.6881 67.2631 89.6526 67.2631C90.617 67.2631 91.2807 66.47 91.2807 65.1033Z" fill="#F30990"/>
<path d="M198.837 193.57C205.624 190.797 213.485 185.345 216.99 178.661C209.669 181.489 203.213 186.797 198.837 193.57Z" fill="#263238"/>
<path d="M200.284 183.195C207.072 180.422 214.932 174.97 218.438 168.286C211.116 171.114 204.661 176.422 200.284 183.195Z" fill="#263238"/>
<path d="M202.244 173.105C209.032 170.331 216.892 164.879 220.398 158.195C213.076 161.024 206.62 166.331 202.244 173.105Z" fill="#263238"/>
<path d="M204.707 162.54C211.111 158.883 218.251 152.429 220.911 145.341C213.983 149.127 208.217 155.242 204.707 162.54Z" fill="#263238"/>
<path d="M207.341 154.454C212.008 148.583 216.358 139.844 216.301 132.272C211.193 138.468 208.005 146.359 207.341 154.454Z" fill="#263238"/>
<path d="M206.034 158.295C205.09 150.354 201.88 140.373 196.431 134.417C197.297 142.927 200.714 151.416 206.034 158.295Z" fill="#263238"/>
<path d="M203.84 166.979C202.181 158.794 197.981 148.668 191.79 142.927C193.418 151.711 197.706 160.265 203.84 166.979Z" fill="#263238"/>
<path d="M201.321 177.574C199.662 169.388 195.462 159.263 189.271 153.521C190.899 162.305 195.187 170.86 201.321 177.574Z" fill="#263238"/>
<path d="M199.298 190.573C197.639 182.387 193.439 172.262 187.248 166.521C188.876 175.304 193.164 183.859 199.298 190.573Z" fill="#263238"/>
<path d="M207.657 152.898C207.657 152.898 207.636 152.938 207.605 153.023C207.569 153.118 207.527 153.243 207.475 153.387C207.361 153.731 207.206 154.205 207.004 154.804C206.594 156.036 206.044 157.827 205.396 160.051C204.748 162.276 204.032 164.935 203.291 167.907C202.565 170.88 201.829 174.162 201.149 177.624C200.475 181.091 199.926 184.403 199.48 187.431C199.044 190.453 198.707 193.187 198.474 195.486C198.235 197.786 198.075 199.646 197.986 200.933C197.945 201.562 197.914 202.061 197.888 202.415C197.883 202.574 197.872 202.699 197.867 202.799C197.867 202.884 197.867 202.928 197.867 202.933C197.867 202.933 197.878 202.889 197.893 202.804C197.903 202.704 197.919 202.574 197.94 202.42C197.976 202.061 198.023 201.567 198.085 200.938C198.199 199.651 198.391 197.796 198.655 195.501C198.915 193.207 199.267 190.483 199.718 187.461C200.18 184.443 200.735 181.131 201.409 177.669C202.088 174.212 202.819 170.93 203.529 167.957C204.255 164.989 204.95 162.326 205.578 160.096C206.2 157.867 206.724 156.071 207.102 154.834C207.284 154.225 207.424 153.751 207.527 153.402C207.569 153.248 207.605 153.128 207.631 153.028C207.652 152.943 207.662 152.898 207.657 152.898Z" fill="#263238"/>
<path d="M195.529 197.895C198.407 192.094 200.502 183.944 199.086 177.579C195.892 183.734 194.627 190.957 195.529 197.895Z" fill="#455A64"/>
<path d="M190.743 190.389C193.621 184.587 195.715 176.437 194.3 170.072C191.106 176.228 189.841 183.45 190.743 190.389Z" fill="#455A64"/>
<path d="M186.45 182.752C189.328 176.951 191.423 168.8 190.007 162.436C186.813 168.591 185.548 175.813 186.45 182.752Z" fill="#455A64"/>
<path d="M182.218 174.516C184.36 168.376 185.433 160.011 183.25 153.886C180.839 160.42 180.476 167.752 182.218 174.516Z" fill="#455A64"/>
<path d="M179.465 167.772C179.253 161.243 177.257 153.063 173.041 148.239C173.145 155.237 175.426 162.186 179.465 167.772Z" fill="#455A64"/>
<path d="M180.736 171.01C175.742 166.475 168.151 161.976 161.322 161.388C166.58 166.331 173.482 169.753 180.736 171.01Z" fill="#455A64"/>
<path d="M184.106 177.878C178.512 173.613 170.195 169.608 163.008 169.593C168.914 174.262 176.417 177.209 184.106 177.878Z" fill="#455A64"/>
<path d="M188.312 186.163C182.717 181.898 174.4 177.893 167.213 177.878C173.119 182.547 180.622 185.495 188.312 186.163Z" fill="#455A64"/>
<path d="M194.176 195.7C188.581 191.435 180.264 187.43 173.077 187.415C178.983 192.084 186.486 195.032 194.176 195.7Z" fill="#455A64"/>
<path d="M178.812 166.585C178.812 166.585 178.817 166.625 178.843 166.695C178.874 166.78 178.91 166.879 178.957 167.004C179.071 167.293 179.227 167.682 179.424 168.176C179.833 169.194 180.456 170.66 181.254 172.451C182.851 176.042 185.216 180.941 188.156 186.188C189.628 188.812 191.106 191.271 192.49 193.486C193.885 195.69 195.176 197.661 196.307 199.282C197.427 200.908 198.36 202.21 199.024 203.098C199.345 203.526 199.599 203.866 199.791 204.115C199.874 204.22 199.942 204.305 199.993 204.374C200.04 204.434 200.066 204.459 200.071 204.459C200.071 204.459 200.056 204.424 200.014 204.359C199.962 204.285 199.905 204.195 199.833 204.085C199.656 203.831 199.413 203.482 199.107 203.043C198.469 202.14 197.562 200.823 196.457 199.187C195.353 197.551 194.077 195.581 192.693 193.371C191.324 191.151 189.856 188.692 188.384 186.073C185.449 180.831 183.059 175.953 181.42 172.381C180.601 170.595 179.953 169.144 179.517 168.136C179.299 167.648 179.128 167.263 179.004 166.979C178.947 166.859 178.9 166.76 178.864 166.68C178.833 166.615 178.812 166.58 178.807 166.58L178.812 166.585Z" fill="#263238"/>
<path d="M181.819 198.594H210.421V203.901H207.481L205.008 219.025H187.326L184.78 203.901H181.819V198.594Z" fill="#F30990"/>
<path d="M181.819 203.786C181.819 203.716 188.176 203.656 196.016 203.656C203.857 203.656 210.214 203.711 210.214 203.786C210.214 203.861 203.857 203.916 196.016 203.916C188.176 203.916 181.819 203.861 181.819 203.786Z" fill="#263238"/>
<path d="M17.9814 219.03H13.3406L11.6191 198.928H17.0844L17.9814 219.03Z" fill="#263238"/>
<path d="M58.2139 219.03H62.8598L64.5813 198.928H59.1109L58.2139 219.03Z" fill="#263238"/>
<path d="M67.7703 201.472L8.01585 202.823L6.19584 165.697C6.01954 162.061 9.03215 159.023 12.8174 159.023H63.7259C67.5681 159.023 70.6066 162.156 70.337 165.842L67.7651 201.477L67.7703 201.472Z" fill="#F30990"/>
<path d="M70.8346 165.568C70.8346 165.568 70.7776 165.578 70.6687 165.583C70.5443 165.583 70.3835 165.593 70.1813 165.598C69.7354 165.603 69.1028 165.613 68.2991 165.623C66.645 165.628 64.2857 165.638 61.3716 165.648C55.5227 165.658 47.4441 165.593 38.5255 165.793C29.6018 166.077 21.518 166.027 15.6691 165.942C12.7446 165.897 10.3802 165.842 8.74163 165.797C7.93792 165.773 7.30532 165.753 6.85939 165.738C6.65717 165.728 6.49643 165.723 6.37198 165.713C6.26309 165.708 6.20605 165.703 6.20605 165.698C6.20605 165.693 6.26309 165.688 6.37198 165.688C6.49643 165.688 6.65717 165.688 6.85939 165.688C7.30532 165.688 7.93792 165.698 8.74163 165.703C10.3957 165.718 12.755 165.738 15.6691 165.768C21.518 165.807 29.5966 165.827 38.5203 165.538C47.4441 165.339 55.5279 165.433 61.3768 165.468C64.2857 165.493 66.6502 165.513 68.3042 165.528C69.108 165.538 69.7406 165.543 70.1865 165.548C70.3887 165.548 70.5495 165.558 70.6739 165.558C70.7828 165.558 70.8398 165.568 70.8398 165.573L70.8346 165.568Z" fill="#263238"/>
<path d="M27.9949 159.602C28.0105 159.687 26.1231 159.722 24.1164 160.725C22.0942 161.702 20.9586 163.154 20.8964 163.089C20.8704 163.074 21.1193 162.69 21.6379 162.166C22.1564 161.643 22.9705 160.999 23.9971 160.495C25.0238 159.992 26.0453 159.737 26.7868 159.642C27.5334 159.548 28.0001 159.578 28.0001 159.607L27.9949 159.602Z" fill="#263238"/>
<path d="M52.5727 92.0986L59.8787 104.933L70.581 99.1767L75.7818 100.828C75.7818 100.828 62.6528 114.52 60.5217 115.218C58.3905 115.917 54.3564 116.041 52.0542 113.268C49.9542 110.739 43.8408 97.4658 43.8408 97.4658L52.5727 92.0986Z" fill="#FFBE9D"/>
<path d="M82.6416 83.7192C82.4497 83.4947 82.1542 83.38 81.8534 83.4199L76.7667 84.0933C76.3208 84.1582 75.9267 84.4076 75.6778 84.7717L65.1104 100.394L65.9244 100.833L71.5504 100.664L82.8023 83.9137L82.6416 83.7242V83.7192Z" fill="#263238"/>
<path d="M79.0377 85.7498C79.1465 85.8396 79.3384 85.8047 79.4629 85.665C79.5873 85.5253 79.6029 85.3408 79.494 85.246C79.3851 85.1512 79.1932 85.1911 79.0688 85.3308C78.9443 85.4705 78.9288 85.655 79.0377 85.7498Z" fill="white"/>
<path d="M82.8021 83.9085C82.8021 83.9085 82.4547 83.9933 81.8169 84.098C81.1273 84.2028 80.2198 84.3374 79.1206 84.502C78.545 84.5818 77.9228 84.6716 77.2539 84.7664C76.9324 84.7963 76.6472 84.9559 76.4657 85.2103C76.2687 85.4996 76.0717 85.8039 75.8643 86.1082C75.0294 87.3402 74.122 88.692 73.1679 90.1086C71.2442 92.9418 69.4916 95.5007 68.2109 97.3462C67.5886 98.2341 67.0701 98.9673 66.6812 99.521C66.3131 100.03 66.1005 100.309 66.0849 100.294C66.0694 100.284 66.2457 99.9849 66.5827 99.4562C66.9509 98.8875 67.4435 98.1393 68.0346 97.2315C69.2687 95.361 70.9953 92.7822 72.9191 89.949C73.8835 88.5374 74.8013 87.1906 75.6361 85.9585C75.8487 85.6543 76.0509 85.355 76.2531 85.0607C76.4761 84.7415 76.865 84.5419 77.2228 84.522C77.8917 84.4422 78.5191 84.3624 79.0946 84.2925C80.1991 84.1678 81.1169 84.0631 81.8065 83.9833C82.4495 83.9184 82.8021 83.8885 82.8073 83.9085H82.8021Z" fill="#455A64"/>
<path d="M77.1562 89.4955C77.1562 89.4955 76.6999 89.4157 76.4562 90.6128C76.2073 91.805 75.4088 95.2317 75.4088 95.2317L73.034 94.0196L70.0628 94.3937C70.0628 94.3937 69.4147 94.9724 69.8917 95.2816C70.3688 95.5959 72.2458 95.9151 72.2458 95.9151L73.6303 97.8305L69.6532 95.9849C69.6532 95.9849 68.3258 96.3191 68.7147 97.0973C69.1036 97.8754 71.7843 100.315 71.7843 100.315L69.7932 100.17L67.4236 98.7882C67.4236 98.7882 66.6976 98.8181 66.9673 99.4167C67.2369 100.01 69.7051 102.165 69.7051 102.165L72.6918 103.562C72.6918 103.562 74.3251 103.437 74.4807 102.978C74.6362 102.519 74.6777 101.861 74.6777 101.861C74.6777 101.861 75.5436 101.636 75.7044 101.232C75.8651 100.828 75.7614 100.19 75.7614 100.19C75.7614 100.19 77.1199 100.419 77.291 99.691C77.4622 98.9628 77.317 97.5262 77.1822 96.9676C77.0473 96.4089 77.7629 91.1964 77.7059 91.0368C77.6488 90.8772 78.017 89.1613 77.1666 89.5055L77.1562 89.4955Z" fill="#FFBE9D"/>
<path d="M74.5789 102.973C74.5893 103.008 74.2989 103.128 73.8012 103.208C73.3034 103.287 72.5878 103.292 71.8308 103.123C71.0737 102.948 70.4411 102.634 70.0315 102.345C69.6219 102.06 69.4196 101.826 69.4456 101.801C69.5026 101.726 70.4463 102.514 71.9034 102.838C73.35 103.183 74.5634 102.888 74.5789 102.978V102.973Z" fill="#EB996E"/>
<path d="M73.8688 101.946C73.8221 102.011 73.2932 101.746 72.728 101.297C72.1628 100.853 71.7843 100.404 71.8465 100.35C71.9087 100.29 72.3702 100.634 72.9251 101.073C73.4799 101.512 73.9206 101.881 73.8739 101.946H73.8688Z" fill="#EB996E"/>
<path d="M75.4448 99.4615C75.3981 99.5263 74.8744 99.267 74.3455 98.7931C73.8114 98.3242 73.5003 97.8404 73.5677 97.7905C73.6351 97.7406 74.0396 98.1247 74.5529 98.5786C75.061 99.0325 75.4966 99.3917 75.4448 99.4615Z" fill="#EB996E"/>
<path d="M77.0935 97.4668C77.0106 97.5017 76.7098 96.958 76.238 96.3744C75.7713 95.7809 75.3046 95.3669 75.3565 95.297C75.4032 95.2322 75.9787 95.5664 76.4765 96.1949C76.9795 96.8184 77.1661 97.4419 77.0884 97.4668H77.0935Z" fill="#EB996E"/>
<path d="M79.116 189.975C79.116 189.975 79.1523 189.805 79.1004 189.501C79.0486 189.201 78.919 188.763 78.6027 188.299C78.5197 188.184 78.4419 188.064 78.3071 187.949C78.1827 187.84 77.9597 187.755 77.7523 187.83C77.6486 187.865 77.5449 187.954 77.5086 188.069C77.4671 188.184 77.4878 188.299 77.519 188.388C77.5864 188.578 77.6901 188.713 77.7782 188.872C77.9701 189.186 78.1308 189.496 78.3745 189.845C78.499 190.024 78.779 190.174 79.033 190.129C79.2871 190.099 79.4893 189.98 79.6708 189.86C80.0234 189.61 80.3397 189.331 80.6093 189.027C80.7442 188.877 80.8686 188.723 80.9775 188.563C81.0812 188.408 81.2056 188.249 81.2575 188.034C81.3042 187.825 81.2212 187.55 80.9775 187.456C80.7286 187.371 80.5212 187.491 80.3864 187.585C80.1012 187.81 79.9353 188.044 79.759 188.269C79.4323 188.718 79.2456 189.127 79.1471 189.416C79.0486 189.705 79.0227 189.87 79.0382 189.875C79.0901 189.895 79.256 189.231 79.9249 188.388C80.0908 188.189 80.2982 187.944 80.5264 187.78C80.6456 187.7 80.7908 187.645 80.879 187.69C80.9723 187.72 81.0242 187.86 80.993 187.989C80.9619 188.124 80.8582 188.269 80.7493 188.418C80.6405 188.568 80.5212 188.713 80.3916 188.852C80.1323 189.137 79.8368 189.401 79.4997 189.635C79.339 189.745 79.1627 189.84 79.0019 189.855C78.836 189.875 78.7116 189.81 78.6027 189.675C78.3953 189.391 78.2034 189.037 78.0115 188.743C77.9182 188.588 77.8093 188.438 77.7627 188.314C77.7108 188.179 77.7419 188.089 77.8404 188.054C78.0634 187.964 78.2864 188.209 78.4367 188.418C79.0693 189.281 79.059 190 79.1212 189.98L79.116 189.975Z" fill="#263238"/>
<path d="M66.3755 190.393L60.0495 203.587L49.8398 199.048L56.3836 182.722L66.3755 190.393Z" fill="#FFBE9D"/>
<path d="M61.2423 202.704L57.5452 209.488C57.5452 209.488 67.0082 218.9 66.1215 221.005L43.877 210.745L49.9903 197.143L61.2474 202.709L61.2423 202.704Z" fill="#455A64"/>
<path d="M51.1318 205.387C50.6444 205.303 50.1155 205.632 50.0066 206.096C49.8977 206.56 50.2399 207.083 50.7274 207.173C51.2148 207.268 51.8629 206.889 51.9148 206.42C51.9666 205.946 51.5311 205.357 51.0385 205.377" fill="#E0E0E0"/>
<g opacity="0.6">
<path d="M43.8773 210.74L44.8002 209.034L65.7796 219.509C65.7796 219.509 66.5626 220.382 66.1167 221L43.8721 210.74H43.8773Z" fill="white"/>
</g>
<path d="M57.9605 209.543C57.9034 209.648 57.3382 209.444 56.6382 209.533C55.933 209.603 55.4353 209.932 55.3523 209.843C55.2641 209.778 55.736 209.224 56.5864 209.134C57.4368 209.034 58.0331 209.458 57.9605 209.543Z" fill="#263238"/>
<path d="M59.8322 211.548C59.8063 211.663 59.2463 211.623 58.6604 211.892C58.0641 212.147 57.7322 212.581 57.6233 212.526C57.5145 212.496 57.7426 211.847 58.4841 211.523C59.2204 211.194 59.8789 211.443 59.8322 211.543V211.548Z" fill="#263238"/>
<path d="M59.817 214.845C59.7081 214.82 59.817 214.232 60.3822 213.788C60.9422 213.339 61.5696 213.349 61.5696 213.459C61.5904 213.573 61.1029 213.728 60.6466 214.097C60.18 214.456 59.9311 214.885 59.817 214.845Z" fill="#263238"/>
<path d="M59.0237 206.929C58.9304 207.004 58.5052 206.63 57.8726 206.385C57.2452 206.131 56.6696 206.106 56.6541 205.991C56.6281 205.886 57.2867 205.717 58.0281 206.011C58.7748 206.3 59.117 206.869 59.0237 206.929Z" fill="#263238"/>
<path d="M63.3263 200.943L80.002 160.789C80.002 160.789 79.6286 153.941 78.3168 151.776C77.0049 149.611 37.2757 136.991 37.2757 136.991C37.2757 136.991 27.1542 134.647 20.4082 136.991C13.6623 139.336 8.60148 147.446 9.54001 151.955C10.4785 156.464 14.4297 159.772 14.4297 159.772L43.6484 160.605L59.5722 166.191L48.8492 195.755L63.3263 200.933V200.943Z" fill="#263238"/>
<path d="M78.1618 173.509L78.5351 188.029L67.2936 188.293L65.6758 170.865L78.1618 173.509Z" fill="#FFBE9D"/>
<path d="M79.2086 186.732L79.0012 194.389C79.0012 194.389 91.8087 198.813 91.9798 201.083L67.3137 201.322L66.5566 186.522L79.2086 186.737V186.732Z" fill="#455A64"/>
<path d="M71.3638 193.431C70.8867 193.561 70.5653 194.079 70.6793 194.543C70.7934 195.007 71.343 195.326 71.8201 195.207C72.2971 195.087 72.7067 194.473 72.5408 194.024C72.3697 193.576 71.7112 193.231 71.2756 193.461" fill="#E0E0E0"/>
<g opacity="0.6">
<path d="M67.3086 201.317L67.3553 199.392L90.9895 199.88C90.9895 199.88 92.0939 200.329 91.9747 201.073L67.3086 201.312V201.317Z" fill="white"/>
</g>
<path d="M79.4007 194.264C79.4007 194.378 78.7941 194.438 78.2081 194.817C77.6066 195.181 77.3111 195.685 77.197 195.64C77.0881 195.62 77.2592 194.922 77.98 194.478C78.6955 194.024 79.4266 194.159 79.4007 194.264Z" fill="#263238"/>
<path d="M81.9984 195.266C82.0295 195.376 81.5058 195.58 81.1014 196.074C80.6814 196.558 80.5828 197.087 80.4636 197.082C80.3495 197.102 80.2614 196.423 80.7747 195.82C81.2829 195.211 81.9932 195.156 81.9932 195.266H81.9984Z" fill="#263238"/>
<path d="M83.4969 198.23C83.3881 198.255 83.2118 197.676 83.5177 197.042C83.8132 196.404 84.3784 196.145 84.4355 196.244C84.5029 196.339 84.1399 196.683 83.9014 197.212C83.6473 197.736 83.6214 198.225 83.5021 198.235L83.4969 198.23Z" fill="#263238"/>
<path d="M79.152 191.465C79.1001 191.57 78.5505 191.415 77.8661 191.465C77.1868 191.505 76.6579 191.73 76.5957 191.63C76.5231 191.545 77.0364 191.111 77.8401 191.061C78.6438 191.006 79.209 191.371 79.152 191.46V191.465Z" fill="#263238"/>
<path d="M71.597 133.186C71.597 133.186 78.3326 132.667 79.0845 139.7C79.8363 146.734 80.5726 179.545 80.5726 179.545L64.8303 180.807L62.3933 147.277L37.2812 137.002C37.2812 137.002 67.1014 132.293 71.6022 133.191L71.597 133.186Z" fill="#263238"/>
<path d="M43.8302 123.698C43.8302 123.698 47.9162 134.727 47.1384 135.954C46.3606 137.181 35.845 142.239 35.845 142.239L9.54037 151.956C9.54037 151.956 6.83887 147.82 6.83887 141.471C6.83887 135.121 15.9908 123.693 15.9908 123.693H43.8302V123.698Z" fill="#263238"/>
<path d="M36.0312 136.433C36.0312 136.433 36.0727 136.458 36.1557 136.498C36.2542 136.542 36.3735 136.597 36.529 136.662C36.8764 136.812 37.3639 137.021 37.9861 137.286C39.2772 137.829 41.1335 138.602 43.4565 139.575C48.1491 141.52 54.724 144.244 62.3359 147.391L62.2529 147.277C62.4914 150.589 62.7507 154.165 63.0151 157.866C63.6529 166.516 64.244 174.496 64.7107 180.806L64.7211 180.921L64.8403 180.911C69.6263 180.507 73.5567 180.173 76.31 179.943C77.6634 179.824 78.7264 179.724 79.4678 179.659C79.8152 179.624 80.0901 179.594 80.2923 179.574C80.479 179.554 80.5723 179.539 80.5723 179.534C80.5723 179.529 80.4738 179.534 80.2871 179.539C80.0849 179.549 79.8101 179.569 79.4575 179.589C78.716 179.644 77.6478 179.719 76.2945 179.814C73.5411 180.023 69.6107 180.322 64.8196 180.687L64.944 180.791C64.4929 174.476 63.9225 166.501 63.3055 157.846C63.0359 154.145 62.7714 150.569 62.5329 147.257V147.172L62.4499 147.142C54.8225 144.029 48.2321 141.336 43.5291 139.416C41.1957 138.473 39.329 137.72 38.0276 137.196C37.395 136.946 36.9024 136.752 36.555 136.612C36.3942 136.552 36.2698 136.503 36.1713 136.468C36.0831 136.438 36.0416 136.423 36.0364 136.428L36.0312 136.433Z" fill="#455A64"/>
<path d="M15.1091 137.535C15.1091 137.535 15.3787 137.485 15.8454 137.341C16.3691 137.181 17.0328 136.972 17.8261 136.727C19.4958 136.218 21.8136 135.505 24.4528 135.116C27.0921 134.722 29.5344 134.847 31.2403 135.201C32.9514 135.54 33.9366 136.014 33.9574 135.959C33.9625 135.944 33.724 135.814 33.2729 135.625C32.8218 135.435 32.1425 135.206 31.2818 135.006C29.5655 134.597 27.0766 134.443 24.4062 134.837C21.7358 135.231 19.4128 135.979 17.7535 136.538C16.9239 136.822 16.2602 137.061 15.7987 137.236C15.3424 137.411 15.0935 137.515 15.0987 137.535H15.1091Z" fill="#455A64"/>
<path d="M18.8271 131.724C18.8323 131.769 19.7086 131.604 21.1294 131.709C21.8398 131.759 22.6798 131.859 23.6183 131.963C24.5568 132.073 25.5835 132.193 26.6516 132.387C28.788 132.751 30.6287 133.47 31.8058 134.228C32.9932 134.971 33.5532 135.649 33.5947 135.615C33.605 135.605 33.4858 135.425 33.2109 135.141C32.9361 134.856 32.5161 134.462 31.9198 134.068C30.748 133.25 28.8657 132.487 26.7035 132.118C25.625 131.923 24.5879 131.809 23.6494 131.714C22.7109 131.624 21.8605 131.539 21.1398 131.514C20.419 131.489 19.8331 131.529 19.439 131.589C19.0397 131.649 18.8271 131.714 18.8323 131.729L18.8271 131.724Z" fill="#455A64"/>
<path d="M30.4479 43.1116C27.4197 42.6177 24.7597 43.7401 22.2085 45.3811C19.6574 47.0222 17.7337 49.5012 16.6241 52.2546C15.4574 55.1577 15.1722 58.4198 16.0692 61.4077C16.9663 64.3955 19.0974 67.0691 21.9804 68.4807C25.916 70.4061 30.956 69.7327 34.4768 67.1738C37.9975 64.61 40.0146 60.3752 40.1805 56.1303C40.2946 53.2073 39.5687 50.2145 37.8731 47.7854C36.1723 45.3562 33.4605 43.5405 30.453 43.1165" fill="#263238"/>
<path d="M21.8394 53.0129C22.2801 51.9006 22.109 50.6536 22.2853 49.4764C22.669 46.8777 24.8468 44.7927 27.3668 43.7801C29.7106 42.8373 32.5728 43.0419 35.3936 43.9198C37.3276 44.5233 39.1477 45.5708 40.4388 47.0822C42.1499 49.0874 42.7514 51.9256 41.9995 54.4146L28.1705 52.4792C26.8742 53.5117 25.552 54.5592 23.9809 55.1329C23.5194 55.3025 23.0268 55.4272 22.5394 55.3523C22.052 55.2775 21.5801 54.9583 21.4661 54.4994C21.3416 53.9956 21.6527 53.5018 21.8446 53.0179L21.8394 53.0129Z" fill="#263238"/>
<path d="M35.6891 47.5913L23.6179 50.0504C22.4512 50.1252 21.5334 51.048 21.5127 52.1753L21.6579 77.31C21.6683 79.0259 22.2646 80.6919 23.3586 82.0487L24.5098 83.4753C27.1335 86.7324 32.4535 86.4032 34.455 82.762C34.595 82.5076 34.6935 82.2831 34.735 82.1035C34.7765 81.8791 34.8387 81.7294 34.8491 81.5349L35.0772 79.0858C35.1965 76.8462 35.212 74.5766 35.212 74.5966C35.212 74.5966 40.1536 73.998 41.4188 67.8727C42.0462 64.825 42.0928 59.797 41.9891 55.6819C41.8958 51.9758 39.5313 47.3469 35.6891 47.5913Z" fill="#FFBE9D"/>
<path d="M40.1545 60.3946C40.1545 60.8136 39.7863 61.1578 39.33 61.1628C38.8789 61.1678 38.5107 60.8386 38.5107 60.4196C38.5107 60.0006 38.8789 59.6564 39.3352 59.6514C39.7863 59.6464 40.1545 59.9756 40.1545 60.3946Z" fill="#263238"/>
<path d="M40.7503 58.2499C40.6466 58.3496 40.0399 57.8808 39.1584 57.8508C38.2769 57.806 37.608 58.22 37.5199 58.1152C37.4732 58.0653 37.5873 57.8858 37.8777 57.6962C38.1628 57.5117 38.6451 57.3371 39.1947 57.357C39.7443 57.382 40.2006 57.5915 40.4599 57.801C40.7243 58.0105 40.8073 58.2 40.7555 58.2449L40.7503 58.2499Z" fill="#263238"/>
<path d="M32.2316 60.2052C32.2316 60.6242 31.8635 60.9684 31.4072 60.9733C30.956 60.9783 30.5879 60.6491 30.5879 60.2301C30.5879 59.8111 30.956 59.467 31.4123 59.462C31.8635 59.457 32.2316 59.7862 32.2316 60.2052Z" fill="#263238"/>
<path d="M32.3609 58.0458C32.252 58.1455 31.6506 57.6767 30.7639 57.6467C29.8824 57.6019 29.2135 58.0159 29.1253 57.9111C29.0787 57.8612 29.1928 57.6817 29.4831 57.4921C29.7683 57.3076 30.2505 57.133 30.8002 57.1529C31.3498 57.1779 31.8061 57.3874 32.0654 57.5969C32.3298 57.8064 32.4128 57.9959 32.3609 58.0408V58.0458Z" fill="#263238"/>
<path d="M35.0106 64.5103C35.0106 64.4604 35.5602 64.3906 36.4572 64.3158C36.6854 64.3008 36.898 64.2659 36.9446 64.1213C37.0017 63.9666 36.9187 63.7272 36.8202 63.4728C36.6283 62.9391 36.4313 62.3804 36.2187 61.7968C35.3891 59.4076 34.7928 57.4473 34.8965 57.4173C34.995 57.3874 35.752 59.2978 36.5869 61.6871C36.7839 62.2757 36.9758 62.8393 37.1572 63.3731C37.235 63.6225 37.3698 63.9068 37.2402 64.231C37.1728 64.3906 37.0017 64.5004 36.8565 64.5353C36.7113 64.5702 36.5817 64.5702 36.4728 64.5702C35.5757 64.5851 35.0209 64.5702 35.0157 64.5203L35.0106 64.5103Z" fill="#263238"/>
<path d="M35.2177 74.5961C35.2177 74.5961 30.8984 74.7009 26.7295 72.0771C26.7295 72.0771 28.7154 76.4217 35.1503 76.0875L35.2229 74.6011L35.2177 74.5961Z" fill="#EB996E"/>
<path d="M34.5535 66.5458C34.2528 66.1317 33.7032 65.8873 33.1483 65.9222C32.7646 65.9472 32.3706 66.1118 32.1217 66.4011C31.878 66.6904 31.8106 67.1194 32.0128 67.4137C32.2357 67.7429 32.7335 67.8377 33.1587 67.7379C33.5839 67.6381 33.9572 67.3837 34.315 67.1294C34.4135 67.0595 34.5121 66.9847 34.5795 66.8849C34.6417 66.7852 34.6624 66.6555 34.5898 66.5707" fill="#EB996E"/>
<path d="M32.3862 65.0042C32.5314 65.0042 32.4951 65.927 33.2884 66.6104C34.0817 67.2987 35.1084 67.2339 35.1084 67.3636C35.1188 67.4234 34.8751 67.5332 34.4395 67.5282C34.0143 67.5282 33.4025 67.3735 32.9151 66.9545C32.4277 66.5355 32.2358 65.9919 32.2203 65.6078C32.1995 65.2187 32.3136 64.9942 32.381 65.0042H32.3862Z" fill="#263238"/>
<path d="M32.3086 55.5217C32.2101 55.7512 31.3338 55.6065 30.2916 55.6863C29.2493 55.7462 28.399 56.0106 28.2693 55.7961C28.2123 55.6963 28.3679 55.4818 28.7153 55.2723C29.0575 55.0628 29.6019 54.8683 30.2294 54.8234C30.8568 54.7835 31.422 54.8982 31.7901 55.0578C32.1634 55.2175 32.3501 55.407 32.3086 55.5167V55.5217Z" fill="#263238"/>
<path d="M40.6466 54.5245C40.4859 54.7141 39.8844 54.4896 39.1481 54.4497C38.417 54.3898 37.7896 54.5295 37.6547 54.32C37.5977 54.2202 37.7014 54.0307 37.9814 53.8561C38.2562 53.6815 38.7073 53.5518 39.2103 53.5868C39.7133 53.6217 40.1436 53.8112 40.3874 54.0207C40.6362 54.2302 40.714 54.4297 40.6414 54.5245H40.6466Z" fill="#263238"/>
<path d="M19.6251 51.2218C20.8748 47.6853 26.34 42.8669 30.2082 43.2011L36.3215 46.8872C35.9067 48.9074 34.2423 50.6432 32.1786 51.2019C31.0793 51.5012 29.7571 51.566 29.0882 52.4539C28.4037 53.3667 28.7667 54.7184 28.1289 55.6562C27.2474 56.9581 24.9037 56.8533 24.2348 58.2699C23.9392 58.8884 24.0741 59.6366 23.7681 60.2502C23.3637 61.0682 21.1703 62.0708 20.2785 61.7815C19.3866 61.4922 19.4125 60.0207 19.1377 59.2426C18.6659 57.9158 18.8836 57.2374 19.0651 56.5042C19.4903 54.7683 19.034 52.9028 19.6303 51.2168L19.6251 51.2218Z" fill="#263238"/>
<path d="M22.9129 62.5646C22.9284 62.1057 22.4203 61.0033 21.9536 60.9135C20.704 60.6791 18.4328 60.6891 18.2876 63.7617C18.0906 67.9616 22.5136 67.2882 22.5292 67.1685C22.5395 67.0738 22.8558 64.1508 22.9129 62.5646Z" fill="#FFBE9D"/>
<path d="M21.2695 65.5184C21.2695 65.5184 21.1917 65.5682 21.0621 65.6181C20.9325 65.668 20.7147 65.6979 20.4917 65.6032C20.0406 65.4186 19.6828 64.7003 19.6984 63.9421C19.7036 63.5581 19.8073 63.1989 19.9628 62.9046C20.108 62.6054 20.3258 62.3959 20.5591 62.3659C20.7925 62.326 20.948 62.4657 20.9999 62.5854C21.0517 62.7051 21.0206 62.7899 21.0466 62.7949C21.0569 62.8049 21.1451 62.7301 21.114 62.5555C21.0984 62.4707 21.0517 62.3709 20.9532 62.2861C20.8547 62.2013 20.6991 62.1514 20.5384 62.1614C20.2014 62.1714 19.8851 62.4557 19.714 62.7799C19.5273 63.1042 19.4028 63.5082 19.3977 63.9372C19.3873 64.7851 19.7969 65.5982 20.4191 65.7977C20.7199 65.8875 20.9843 65.8127 21.1191 65.7179C21.2591 65.6181 21.2851 65.5283 21.2695 65.5184Z" fill="#EB996E"/>
<path d="M18.6926 50.1294C18.7081 48.8176 17.0022 47.9546 15.6696 47.6603C14.337 47.361 12.9318 47.7501 11.734 48.3836C11.034 48.7527 10.3288 49.2765 10.1732 50.0346C10.0177 50.7878 10.7695 51.6857 11.5162 51.4163C10.0851 51.8902 9.35398 53.7308 10.1006 54.9977C10.8473 56.2647 12.8644 56.6139 14.0207 55.6761C13.6473 56.8782 12.8333 57.9507 11.7495 58.659C13.9947 58.9682 16.38 58.0454 17.78 56.3245C19.18 54.6087 19.5377 52.1595 18.6874 50.1344L18.6926 50.1294Z" fill="#263238"/>
<path d="M15.664 56.8138C15.6329 56.8138 15.5136 56.3399 15.5033 55.5518C15.4877 54.7637 15.607 53.6663 16.0062 52.5191C16.4107 51.3768 17.0018 50.4291 17.5151 49.8106C18.0233 49.1921 18.4174 48.8778 18.4381 48.9027C18.5211 48.9576 17.0537 50.3543 16.2811 52.6039C15.4773 54.8485 15.7677 56.8088 15.6692 56.8088L15.664 56.8138Z" fill="#F30990"/>
<path d="M35.0521 45.6158C35.4513 47.3266 38.158 49.5164 39.3402 50.8482C41.601 53.3871 42.0469 54.2301 42.0262 59.9115C43.0943 57.9512 43.9136 56.0308 43.8306 53.8161C43.7477 51.6014 42.9025 49.3867 41.3003 47.7955C39.7032 46.2043 37.3284 45.3015 35.0469 45.6158" fill="#263238"/>
<path d="M53.5734 92.3489C53.5734 92.3489 48.8704 84.802 47.5637 83.2757C46.34 81.8441 44.7637 81.0011 43.7111 80.5572C43.1252 80.3128 42.5081 80.1432 41.8807 80.0384L35.114 78.5969C35.114 78.5969 35.1036 83.0412 30.2606 83.3156C25.4228 83.5899 21.3472 77.1055 21.3472 77.1055C21.3472 77.1055 13.5279 78.2677 11.6561 79.1955C9.78419 80.1232 6.84417 81.2954 5.22638 89.0917L4.09082 96.7134L17.5724 97.9106L18.8635 117.179L25.5473 121.659C25.5473 121.659 44.0844 126.293 45.2666 126.602C46.4489 126.906 46.8429 97.9106 46.8429 97.9106C46.8429 97.9106 51.603 94.9477 53.5734 92.3539V92.3489Z" fill="#263238"/>
<path d="M44.6959 89.1065C44.6959 89.1065 44.8048 89.2961 44.9551 89.6602C45.1107 90.0243 45.3077 90.5581 45.5255 91.2265C45.9663 92.5633 46.4485 94.4537 46.7181 96.5836C46.9877 98.7135 46.9929 100.659 46.9048 102.06C46.8581 102.759 46.8063 103.327 46.744 103.712C46.687 104.101 46.6507 104.315 46.63 104.31C46.6092 104.31 46.6144 104.091 46.6403 103.702C46.6663 103.312 46.6922 102.749 46.7129 102.051C46.7544 100.659 46.7129 98.7285 46.4537 96.6135C46.184 94.5036 45.7329 92.6231 45.344 91.2763C45.1522 90.603 44.9811 90.0643 44.8566 89.6901C44.7374 89.316 44.6803 89.1066 44.6959 89.1016V89.1065Z" fill="#455A64"/>
<path d="M44.121 120.675L18.7394 115.358L17.5675 97.9049L6.2793 96.9023C6.2793 96.9023 6.6993 108.834 7.12967 112.38C7.7519 117.483 10.889 124.441 12.7245 125.833C14.5601 127.225 45.2618 126.596 45.2618 126.596L44.121 120.67V120.675Z" fill="#FFBE9D"/>
<path d="M58.5311 123.838C58.3548 124.177 57.9814 124.402 57.5873 124.367C57.5096 124.362 57.4266 124.347 57.3436 124.317C56.7836 124.142 56.8355 123.045 56.8355 123.045L54.1444 122.621C54.1444 122.621 50.6443 124.791 49.3999 126.227C48.1554 127.664 44.9821 126.502 44.9821 126.502L43.8828 120.985L48.8347 116.675C48.8347 116.675 48.5288 116.929 48.871 116.126C49.2132 115.318 50.7688 115.628 50.7688 115.628C51.0125 115.229 52.0288 115.089 52.0288 115.089L56.374 115.573C57.2711 115.672 58.0696 116.156 58.5518 116.89L60.3874 119.688C60.3874 119.688 61.357 121.703 61.2014 122.172C60.9681 122.88 60.1903 122.721 60.1903 122.721C60.1903 122.721 59.9777 124.042 59.6148 124.092C59.2518 124.137 58.5414 123.843 58.5414 123.843L58.5311 123.838Z" fill="#FFBE9D"/>
<path d="M49.2852 119.877C49.2852 119.922 49.8659 119.867 50.7941 119.907C51.7171 119.952 52.9978 120.107 54.3408 120.546C55.0097 120.76 55.6267 121.025 56.166 121.299C56.6897 121.583 57.2393 121.818 57.4052 122.187C57.4882 122.366 57.4519 122.551 57.3586 122.686C57.2652 122.82 57.1408 122.91 57.0319 122.95C56.8038 123.04 56.6586 122.98 56.6534 123.005C56.643 123.01 56.7882 123.12 57.0682 123.05C57.203 123.015 57.3586 122.925 57.4882 122.77C57.6178 122.621 57.6904 122.356 57.5919 122.117C57.4986 121.873 57.2808 121.683 57.0526 121.528C56.8141 121.379 56.5704 121.229 56.2904 121.085C55.746 120.79 55.1134 120.516 54.4289 120.296C53.06 119.847 51.743 119.718 50.7993 119.723C49.8556 119.733 49.28 119.852 49.2852 119.882V119.877Z" fill="#EB996E"/>
<path d="M48.9844 122.541C48.9844 122.621 50.7577 122.551 52.9303 122.671C55.1029 122.786 56.8504 123.05 56.8659 122.97C56.8711 122.935 56.4407 122.826 55.7355 122.706C55.0303 122.586 54.0451 122.467 52.9459 122.407C51.8518 122.347 50.8562 122.362 50.1407 122.407C49.4251 122.447 48.9844 122.511 48.9844 122.546V122.541Z" fill="#EB996E"/>
<path d="M58.5049 123.728C58.5049 123.728 58.5412 123.574 58.562 123.284C58.5775 122.995 58.5983 122.581 58.562 122.062C58.5412 121.803 58.5153 121.518 58.4427 121.214C58.3753 120.91 58.2249 120.586 58.0175 120.301C57.6286 119.733 57.0842 119.139 56.3894 118.7C55.6997 118.261 55.0101 117.892 54.3101 117.693C53.6153 117.493 52.9671 117.443 52.433 117.418C51.8938 117.398 51.4634 117.413 51.1627 117.418C50.8619 117.428 50.7012 117.443 50.7012 117.463C50.7012 117.508 51.3649 117.528 52.4227 117.603C52.9516 117.648 53.579 117.718 54.2323 117.922C54.8856 118.122 55.5597 118.496 56.2286 118.915C56.8975 119.344 57.4057 119.887 57.8049 120.436C58.2249 120.965 58.3027 121.568 58.3701 122.072C58.4738 123.085 58.4479 123.728 58.5101 123.723L58.5049 123.728Z" fill="#EB996E"/>
<path d="M52.2305 116.152C52.2305 116.191 52.8786 116.206 53.9157 116.321C54.9164 116.471 56.5135 116.541 57.4261 117.862C58.4112 119.07 59.2513 120.207 59.6194 121.14C60.0083 122.067 59.972 122.711 60.029 122.706C60.0446 122.706 60.0705 122.546 60.055 122.262C60.0446 121.978 59.9772 121.559 59.8009 121.075C59.469 120.087 58.6342 118.91 57.6438 117.698C57.3898 117.394 57.1149 117.104 56.7986 116.875C56.4823 116.64 56.1142 116.506 55.7772 116.411C55.0927 116.226 54.4601 116.171 53.9364 116.132C52.8838 116.062 52.2305 116.117 52.2305 116.147V116.152Z" fill="#EB996E"/>
<path d="M50.3486 125.339C50.3486 125.339 50.4419 125.279 50.6079 125.149C50.7945 125.005 51.0331 124.82 51.3338 124.586C51.9768 124.107 52.9309 123.428 54.1857 122.695L54.1235 122.705C54.9272 122.835 55.8294 122.984 56.8094 123.144L56.7161 123.034C56.7109 123.244 56.7213 123.453 56.7679 123.668C56.8146 123.877 56.882 124.107 57.0738 124.291C57.1724 124.381 57.3124 124.436 57.4316 124.451C57.5509 124.481 57.6805 124.491 57.8101 124.471C58.0642 124.436 58.3079 124.306 58.479 124.117C58.5205 124.072 58.562 124.017 58.5983 123.962L58.6242 123.922L58.6346 123.902V123.892H58.6398C58.6761 123.877 58.339 123.997 58.4842 123.947H58.4894L58.5724 123.982C58.6865 124.027 58.8005 124.067 58.9198 124.102C59.039 124.137 59.1583 124.167 59.2879 124.192C59.3502 124.201 59.4176 124.211 59.4902 124.211C59.5576 124.211 59.6353 124.211 59.739 124.167C59.8894 124.062 59.9465 123.942 60.0035 123.822C60.0553 123.703 60.102 123.588 60.1383 123.468C60.2109 123.229 60.2679 122.989 60.3094 122.735L60.1539 122.84C60.5013 122.9 60.9161 122.82 61.1546 122.511C61.2635 122.366 61.3517 122.191 61.3413 121.992C61.3309 121.812 61.2894 121.653 61.248 121.493C61.0613 120.86 60.7917 120.251 60.5065 119.632L60.5013 119.617C60.1902 119.144 59.8583 118.635 59.5213 118.126C59.3139 117.807 59.1065 117.493 58.899 117.178C58.6916 116.874 58.5102 116.535 58.2198 116.261C57.9398 115.991 57.6079 115.777 57.245 115.637C56.8872 115.487 56.4879 115.452 56.1353 115.418C54.6938 115.263 53.3249 115.113 52.039 114.974H52.0234H52.0079C51.7538 115.014 51.5205 115.073 51.2923 115.153C51.0694 115.243 50.8308 115.338 50.6701 115.572L50.8205 115.527C50.359 115.348 49.8301 115.343 49.4256 115.602C49.0212 115.857 48.8345 116.271 48.736 116.66L48.7671 116.605C47.3464 117.837 46.1849 118.839 45.3552 119.558C44.9715 119.897 44.6656 120.166 44.4375 120.371C44.2301 120.56 44.1212 120.66 44.1315 120.67C44.1367 120.675 44.256 120.59 44.4789 120.416C44.7175 120.221 45.039 119.962 45.433 119.642C46.2782 118.939 47.4604 117.961 48.9071 116.754L48.9331 116.734L48.9434 116.699C49.0368 116.355 49.2182 115.981 49.5501 115.782C49.8768 115.572 50.3434 115.577 50.7271 115.732L50.8205 115.772L50.8775 115.687C50.9708 115.547 51.1783 115.443 51.3857 115.368C51.5931 115.293 51.8264 115.238 52.0546 115.203H52.0234C53.3042 115.348 54.6783 115.502 56.1146 115.667C56.4827 115.707 56.825 115.737 57.1516 115.876C57.4783 116.001 57.779 116.196 58.0331 116.44C58.2872 116.68 58.4635 116.999 58.6761 117.313C58.8835 117.627 59.0857 117.942 59.2983 118.261C59.6353 118.77 59.9672 119.278 60.2783 119.752L60.2679 119.737C60.5531 120.341 60.8176 120.949 60.9991 121.553C61.0405 121.702 61.082 121.857 61.0872 121.992C61.1028 122.112 61.0405 122.241 60.9576 122.346C60.802 122.56 60.4857 122.625 60.2213 122.585L60.0865 122.565L60.0657 122.69C60.0242 122.925 59.9724 123.164 59.905 123.388C59.8428 123.603 59.7442 123.862 59.625 123.947C59.6198 123.947 59.5731 123.962 59.5161 123.957C59.4642 123.957 59.4072 123.947 59.3502 123.942C59.2361 123.922 59.1272 123.897 59.0131 123.862C58.899 123.827 58.7902 123.792 58.6813 123.753L58.6035 123.723C58.7435 123.673 58.4116 123.792 58.4427 123.778V123.787L58.4324 123.802L58.4116 123.837C58.3857 123.877 58.3546 123.922 58.3183 123.957C58.1835 124.107 57.9968 124.211 57.7998 124.241C57.7013 124.256 57.6027 124.251 57.5042 124.226C57.3953 124.211 57.3279 124.182 57.2605 124.127C57.0064 123.872 56.9701 123.413 56.965 123.044V122.95L56.8716 122.935C55.8916 122.785 54.9842 122.65 54.1805 122.531H54.1442L54.1183 122.54C52.8583 123.304 51.9197 124.007 51.2975 124.506C50.9864 124.76 50.7531 124.965 50.5975 125.104C50.442 125.249 50.3694 125.324 50.3745 125.329L50.3486 125.339Z" fill="#EB996E"/>
<path d="M91.4617 107.792L58.0274 108.051C56.9437 108.051 55.9066 108.55 55.7459 109.583L52.0903 133.021H34.8702C34.3154 133.021 33.8643 133.455 33.8643 133.989C33.8643 134.523 34.3154 134.957 34.8702 134.957H89.8698L93.6291 110.216C93.8313 108.939 92.8046 107.792 91.4617 107.792Z" fill="#E0E0E0"/>
<path d="M91.4616 107.792C91.4616 107.792 91.6431 107.772 91.9905 107.842C92.3275 107.916 92.8512 108.116 93.2661 108.655C93.4735 108.919 93.629 109.273 93.6809 109.682C93.7379 110.096 93.6135 110.535 93.5564 111.004C93.4164 111.952 93.2557 113.044 93.0742 114.266C92.3379 119.179 91.2801 126.262 89.9734 134.971L89.9631 135.056H89.8749C75.6415 135.066 56.9384 135.076 36.5138 135.086H35.0775C34.8546 135.096 34.5486 135.086 34.3153 134.947C34.0768 134.822 33.8953 134.612 33.802 134.368C33.5997 133.879 33.8434 133.276 34.3205 133.031C34.5486 132.896 34.8546 132.886 35.0723 132.896H35.7775C37.6598 132.896 39.5264 132.896 41.3672 132.896C45.0487 132.896 48.6317 132.896 52.0902 132.896L51.9606 133.001C53.2776 124.606 54.5013 116.775 55.6058 109.747C55.6421 109.303 55.8547 108.819 56.2228 108.52C56.5858 108.211 57.0473 108.046 57.5036 107.976C57.9703 107.906 58.411 107.946 58.8517 107.931C59.2925 107.931 59.7281 107.926 60.1636 107.921C61.9007 107.911 63.5807 107.901 65.1985 107.886C68.434 107.866 71.4259 107.847 74.143 107.832C79.5719 107.807 83.8964 107.782 86.8779 107.767C88.3608 107.767 89.5016 107.767 90.2846 107.762C90.6683 107.762 90.9586 107.762 91.166 107.762C91.3631 107.762 91.4668 107.772 91.4668 107.772C91.4668 107.772 91.3683 107.782 91.166 107.787C90.9586 107.787 90.6683 107.797 90.2846 107.807C89.5016 107.817 88.3557 107.832 86.8779 107.852C83.8964 107.881 79.5719 107.931 74.143 107.986C71.4259 108.011 68.434 108.041 65.1985 108.071C63.5807 108.086 61.9007 108.101 60.1636 108.116C59.7281 108.116 59.2925 108.126 58.8517 108.126C58.411 108.141 57.9599 108.106 57.5347 108.171C57.1095 108.236 56.6895 108.39 56.368 108.665C56.0414 108.939 55.8651 109.323 55.8236 109.762C54.7347 116.79 53.5213 124.621 52.2147 133.021L52.1991 133.126H52.085C48.6317 133.126 45.0435 133.126 41.362 133.126C39.5212 133.126 37.6598 133.126 35.7723 133.126H35.0671C34.8183 133.121 34.6316 133.126 34.4449 133.231C34.0768 133.415 33.8953 133.874 34.0508 134.248C34.1234 134.433 34.2634 134.597 34.4449 134.692C34.6316 134.797 34.8183 134.807 35.0723 134.797C35.5494 134.797 36.0264 134.797 36.5086 134.797C56.9332 134.807 75.6363 134.822 89.8697 134.827L89.766 134.912C91.109 126.207 92.1979 119.129 92.9549 114.221C93.1468 112.994 93.3179 111.907 93.4631 110.959C93.5201 110.485 93.6498 110.051 93.5979 109.657C93.5564 109.263 93.4061 108.919 93.209 108.66C92.8149 108.126 92.3016 107.921 91.9749 107.842C91.6379 107.762 91.4564 107.777 91.4564 107.767L91.4616 107.792Z" fill="#263238"/>
<path d="M73.3292 123.095C74.4861 123.095 75.424 122.193 75.424 121.08C75.424 119.967 74.4861 119.064 73.3292 119.064C72.1723 119.064 71.2344 119.967 71.2344 121.08C71.2344 122.193 72.1723 123.095 73.3292 123.095Z" fill="white"/>
<path d="M53.4489 134.742C53.4955 134.752 54.5585 128.781 55.8237 121.414C57.0889 114.041 58.0741 108.061 58.0274 108.056C57.9807 108.046 56.9178 114.016 55.6526 121.389C54.3874 128.756 53.4022 134.737 53.4489 134.747V134.742Z" fill="#263238"/>
</g>
<defs>
<clipPath id="clip0_1_40692">
<rect width="222" height="221" fill="white"/>
</clipPath>
</defs>
</svg>
