<svg width="80" height="80" viewBox="0 0 80 80" fill="none" xmlns="http://www.w3.org/2000/svg">
<rect width="80" height="80" rx="40" fill="#F30990" fill-opacity="0.05"/>
<path d="M53.2927 48.4403C53.2927 48.9203 53.186 49.4137 52.9593 49.8937C52.7327 50.3737 52.4394 50.827 52.0527 51.2537C51.3994 51.9737 50.6793 52.4937 49.866 52.827C49.066 53.1603 48.1994 53.3337 47.266 53.3337C45.906 53.3337 44.4527 53.0137 42.9193 52.3603C41.386 51.707 39.8527 50.827 38.3327 49.7203C36.7993 48.6003 35.346 47.3603 33.9593 45.987C32.586 44.6003 31.346 43.147 30.2393 41.627C29.146 40.107 28.266 38.587 27.626 37.0803C26.986 35.5603 26.666 34.107 26.666 32.7203C26.666 31.8137 26.826 30.947 27.146 30.147C27.466 29.3337 27.9727 28.587 28.6793 27.9203C29.5327 27.0803 30.466 26.667 31.4527 26.667C31.826 26.667 32.1993 26.747 32.5327 26.907C32.8793 27.067 33.186 27.307 33.426 27.6537L36.5194 32.0137C36.7593 32.347 36.9327 32.6537 37.0527 32.947C37.1727 33.227 37.2393 33.507 37.2393 33.7603C37.2393 34.0803 37.146 34.4003 36.9593 34.707C36.786 35.0137 36.5327 35.3337 36.2127 35.6537L35.1993 36.707C35.0527 36.8537 34.986 37.027 34.986 37.2403C34.986 37.347 34.9993 37.4403 35.026 37.547C35.066 37.6537 35.106 37.7337 35.1327 37.8137C35.3727 38.2537 35.786 38.827 36.3727 39.5203C36.9727 40.2137 37.6127 40.9203 38.306 41.627C39.026 42.3337 39.7193 42.987 40.426 43.587C41.1193 44.1737 41.6927 44.5737 42.146 44.8137C42.2127 44.8403 42.2927 44.8803 42.386 44.9203C42.4927 44.9603 42.5993 44.9737 42.7193 44.9737C42.946 44.9737 43.1193 44.8937 43.266 44.747L44.2794 43.747C44.6127 43.4137 44.9327 43.1603 45.2393 43.0003C45.546 42.8137 45.8527 42.7203 46.186 42.7203C46.4393 42.7203 46.706 42.7737 46.9993 42.8937C47.2927 43.0137 47.5993 43.187 47.9327 43.4137L52.346 46.547C52.6927 46.787 52.9327 47.067 53.0793 47.4003C53.2127 47.7337 53.2927 48.067 53.2927 48.4403Z" fill="#F30990"/>
</svg>
