<svg width="19" height="16" viewBox="0 0 19 16" fill="none" xmlns="http://www.w3.org/2000/svg">
<path d="M17.4383 12.1549C17.4383 12.3937 17.3777 12.639 17.2491 12.8777C17.1205 13.1165 16.9541 13.3419 16.7347 13.5541C16.364 13.9122 15.9554 14.1708 15.494 14.3366C15.04 14.5024 14.5483 14.5886 14.0187 14.5886C13.247 14.5886 12.4224 14.4294 11.5524 14.1045C10.6823 13.7796 9.8123 13.3419 8.94984 12.7915C8.07982 12.2345 7.25518 11.6178 6.46838 10.9348C5.68914 10.2451 4.98555 9.52234 4.35762 8.76638C3.73725 8.01043 3.23793 7.25447 2.87479 6.50514C2.51165 5.74919 2.33008 5.02638 2.33008 4.33674C2.33008 3.88582 2.42086 3.45479 2.60243 3.05692C2.784 2.65241 3.07149 2.28107 3.47246 1.94951C3.95665 1.53174 4.48623 1.32617 5.04607 1.32617C5.25791 1.32617 5.46974 1.36596 5.65887 1.44553C5.85558 1.52511 6.02958 1.64447 6.16576 1.81688L7.92094 3.98529C8.05712 4.15107 8.15547 4.30358 8.22356 4.44947C8.29165 4.58873 8.32948 4.72798 8.32948 4.85397C8.32948 5.01312 8.27652 5.17227 8.1706 5.32479C8.07225 5.47731 7.92851 5.63646 7.74694 5.7956L7.17196 6.31947C7.08874 6.39241 7.05092 6.47862 7.05092 6.58472C7.05092 6.63777 7.05848 6.68419 7.07361 6.73724C7.09631 6.79029 7.11901 6.83007 7.13414 6.86986C7.27031 7.08869 7.50484 7.37383 7.83772 7.71865C8.17817 8.06348 8.54131 8.41493 8.93471 8.76638C9.34325 9.11784 9.73665 9.44277 10.1376 9.74117C10.531 10.0329 10.8563 10.2319 11.1136 10.3512C11.1514 10.3645 11.1968 10.3844 11.2497 10.4043C11.3103 10.4242 11.3708 10.4308 11.4389 10.4308C11.5675 10.4308 11.6658 10.391 11.7491 10.3181L12.324 9.82075C12.5132 9.65497 12.6947 9.52897 12.8687 9.4494C13.0427 9.35656 13.2168 9.31014 13.4059 9.31014C13.5496 9.31014 13.7009 9.33667 13.8674 9.39635C14.0338 9.45603 14.2078 9.54224 14.397 9.65497L16.9011 11.2133C17.0978 11.3327 17.234 11.4719 17.3172 11.6377C17.3929 11.8035 17.4383 11.9693 17.4383 12.1549Z" fill="#A19D9D"/>
</svg>
