<svg width="16" height="16" viewBox="0 0 16 16" fill="none" xmlns="http://www.w3.org/2000/svg">
<path d="M1.35332 12.2202C1.35332 12.4602 1.40666 12.7068 1.51999 12.9468C1.63332 13.1868 1.77999 13.4135 1.97332 13.6268C2.29999 13.9868 2.65999 14.2468 3.06666 14.4135C3.46666 14.5802 3.89999 14.6668 4.36665 14.6668C5.04665 14.6668 5.77332 14.5068 6.53999 14.1802C7.30666 13.8535 8.07332 13.4135 8.83332 12.8602C9.59999 12.3002 10.3267 11.6802 11.02 10.9935C11.7067 10.3002 12.3267 9.5735 12.88 8.8135C13.4267 8.0535 13.8667 7.2935 14.1867 6.54016C14.5067 5.78016 14.6667 5.0535 14.6667 4.36016C14.6667 3.90683 14.5867 3.4735 14.4267 3.0735C14.2667 2.66683 14.0133 2.2935 13.66 1.96016C13.2333 1.54016 12.7667 1.3335 12.2733 1.3335C12.0867 1.3335 11.9 1.3735 11.7333 1.4535C11.56 1.5335 11.4067 1.6535 11.2867 1.82683L9.73999 4.00683C9.61999 4.1735 9.53332 4.32683 9.47332 4.4735C9.41332 4.6135 9.37999 4.7535 9.37999 4.88016C9.37999 5.04016 9.42666 5.20016 9.51999 5.3535C9.60666 5.50683 9.73332 5.66683 9.89332 5.82683L10.4 6.3535C10.4733 6.42683 10.5067 6.5135 10.5067 6.62016C10.5067 6.6735 10.5 6.72016 10.4867 6.7735C10.4667 6.82683 10.4467 6.86683 10.4333 6.90683C10.3133 7.12683 10.1067 7.4135 9.81332 7.76016C9.51332 8.10683 9.19332 8.46016 8.84666 8.8135C8.48666 9.16683 8.13999 9.49349 7.78666 9.79349C7.43999 10.0868 7.15332 10.2868 6.92666 10.4068C6.89332 10.4202 6.85332 10.4402 6.80666 10.4602C6.75332 10.4802 6.69999 10.4868 6.63999 10.4868C6.52666 10.4868 6.43999 10.4468 6.36666 10.3735L5.85999 9.8735C5.69332 9.70683 5.53332 9.58016 5.37999 9.50016C5.22666 9.40683 5.07332 9.36016 4.90666 9.36016C4.77999 9.36016 4.64666 9.38683 4.49999 9.44683C4.35332 9.50683 4.19999 9.5935 4.03332 9.70683L1.82665 11.2735C1.65332 11.3935 1.53332 11.5335 1.45999 11.7002C1.39332 11.8668 1.35332 12.0335 1.35332 12.2202Z" stroke="#979797" stroke-miterlimit="10"/>
<path d="M3.66667 6.00033C3.66667 5.60033 3.98 4.98699 4.44667 4.48699C4.87333 4.02699 5.44 3.66699 6 3.66699" stroke="#979797" stroke-linecap="round" stroke-linejoin="round"/>
<path d="M1.33333 6.00016C1.33333 3.42016 3.42 1.3335 6 1.3335" stroke="#979797" stroke-linecap="round" stroke-linejoin="round"/>
</svg>
