<svg width="22" height="20" viewBox="0 0 22 20" fill="none" xmlns="http://www.w3.org/2000/svg">
<path d="M19.3258 5.17987H16.5476L14.9438 3.42707H9.68537V5.17987H14.1726L15.7764 6.93268H19.3258V17.4495H5.30335V9.5619H3.55054V17.4495C3.55054 18.4136 4.3393 19.2023 5.30335 19.2023H19.3258C20.2899 19.2023 21.0786 18.4136 21.0786 17.4495V6.93268C21.0786 5.96864 20.2899 5.17987 19.3258 5.17987ZM7.93256 12.1911C7.93256 14.61 9.89571 16.5731 12.3146 16.5731C14.7335 16.5731 16.6966 14.61 16.6966 12.1911C16.6966 9.77223 14.7335 7.80909 12.3146 7.80909C9.89571 7.80909 7.93256 9.77223 7.93256 12.1911ZM12.3146 9.5619C13.7607 9.5619 14.9438 10.745 14.9438 12.1911C14.9438 13.6372 13.7607 14.8203 12.3146 14.8203C10.8685 14.8203 9.68537 13.6372 9.68537 12.1911C9.68537 10.745 10.8685 9.5619 12.3146 9.5619ZM5.30335 5.17987H7.93256V3.42707H5.30335V0.797852H3.55054V3.42707H0.921326V5.17987H3.55054V7.80909H5.30335V5.17987Z" fill="#109691"/>
</svg>
