<svg xmlns="http://www.w3.org/2000/svg" width="13.171" height="13.965" viewBox="0 0 13.171 13.965">
  <g id="Group_13108" data-name="Group 13108" transform="translate(-331.829 -48)">
    <path id="fi-rr-angle-small-right" d="M15.4,9.879,10.811,5.293A1,1,0,0,0,9.4,6.707l4.586,4.586a1,1,0,0,1,0,1.414L9.4,17.293a1,1,0,1,0,1.415,1.414L15.4,14.121A3,3,0,0,0,15.4,9.879Z" transform="translate(322.722 42.965)" fill="#1e293b"/>
    <path id="fi-rr-angle-small-right-2" data-name="fi-rr-angle-small-right" d="M9.986,9.879l4.589-4.586a1,1,0,0,1,1.411,1.414L11.4,11.293a1,1,0,0,0,0,1.414l4.586,4.586a1,1,0,1,1-1.415,1.414L9.986,14.121A3,3,0,0,1,9.986,9.879Z" transform="translate(328.722 42.965)" fill="#1e293b"/>
  </g>
</svg>
