<svg width="20" height="20" viewBox="0 0 20 20" fill="none" xmlns="http://www.w3.org/2000/svg">
<path fill-rule="evenodd" clip-rule="evenodd" d="M14.6026 6.16366V7.44145C16.0379 7.88946 17.0837 9.18877 17.0837 10.7407V14.8547C17.0837 16.776 15.4909 18.3337 13.5272 18.3337H6.47432C4.50979 18.3337 2.91699 16.776 2.91699 14.8547V10.7407C2.91699 9.18877 3.96362 7.88946 5.39806 7.44145V6.16366C5.40653 3.67931 7.46421 1.66699 9.98762 1.66699C12.5449 1.66699 14.6026 3.67931 14.6026 6.16366ZM10.0046 3.1162C11.7235 3.1162 13.1207 4.48259 13.1207 6.16366V7.26175H6.87993V6.1471C6.8884 4.47431 8.28559 3.1162 10.0046 3.1162ZM10.7413 13.7128C10.7413 14.1185 10.411 14.4415 9.99609 14.4415C9.58964 14.4415 9.25939 14.1185 9.25939 13.7128V11.8744C9.25939 11.4769 9.58964 11.1539 9.99609 11.1539C10.411 11.1539 10.7413 11.4769 10.7413 11.8744V13.7128Z" fill="#686868"/>
</svg>
