<svg width="25" height="20" viewBox="0 0 25 20" fill="none" xmlns="http://www.w3.org/2000/svg">
<path fill-rule="evenodd" clip-rule="evenodd" d="M10.162 12.7108C10.8093 13.0636 11.5982 13.2769 12.4377 13.2769C14.6629 13.2769 16.4734 11.8083 16.4734 10.0034C16.4734 9.32245 16.2104 8.68252 15.7755 8.15745L14.673 9.05171C14.8551 9.33065 14.9562 9.65882 14.9562 10.0034C14.9562 11.1274 13.8234 12.0463 12.4377 12.0463C12.0129 12.0463 11.6084 11.9642 11.2645 11.8165L10.162 12.7108ZM19.1031 5.45825C20.5697 6.54121 21.8137 8.00157 22.7443 9.75728C22.8252 9.91316 22.8252 10.0936 22.7443 10.2413C20.5798 14.327 16.7262 16.7719 12.4377 16.7719H12.4276C10.4755 16.7719 8.60439 16.255 6.95575 15.3115L4.99356 16.9032C4.84185 17.0262 4.64967 17.0837 4.4575 17.0837C4.26533 17.0837 4.06304 17.0262 3.92144 16.9032C3.66858 16.6981 3.62812 16.3699 3.83041 16.132L3.86075 16.0992L18.8199 3.96508C18.8401 3.94868 18.8603 3.93227 18.8705 3.91586C18.8907 3.89945 18.9109 3.88304 18.921 3.86663L19.8718 3.09543C20.1752 2.85751 20.6506 2.85751 20.9439 3.09543C21.2473 3.33336 21.2473 3.72716 20.9439 3.96508L19.1031 5.45825ZM8.39472 10.0066C8.39472 10.2199 8.42506 10.4332 8.46552 10.6301L4.7232 13.6657C3.71177 12.714 2.83182 11.5654 2.13393 10.2445C2.05301 10.0968 2.05301 9.91636 2.13393 9.76047C4.2984 5.67476 8.15197 3.23811 12.4303 3.23811H12.4405C13.8868 3.23811 15.2927 3.51705 16.5873 4.04212L13.2092 6.78234C12.9664 6.74952 12.7034 6.72491 12.4405 6.72491C10.2052 6.72491 8.39472 8.19347 8.39472 10.0066Z" fill="#686868"/>
</svg>
