<svg width="17" height="17" viewBox="0 0 17 17" fill="none" xmlns="http://www.w3.org/2000/svg">
<path d="M16.1089 13.3992C16.1089 13.6754 16.0475 13.9593 15.9171 14.2356C15.7866 14.5118 15.6178 14.7727 15.3953 15.0183C15.0193 15.4327 14.6049 15.7319 14.1368 15.9238C13.6764 16.1156 13.1776 16.2154 12.6405 16.2154C11.8577 16.2154 11.0213 16.0312 10.1389 15.6552C9.2564 15.2792 8.37393 14.7727 7.49914 14.1358C6.61667 13.4913 5.78025 12.7776 4.98219 11.9872C4.19181 11.1892 3.47817 10.3527 2.84126 9.47796C2.21202 8.60316 1.70556 7.72837 1.33723 6.86125C0.968896 5.98646 0.784729 5.15004 0.784729 4.35198C0.784729 3.83018 0.876812 3.33139 1.06098 2.87098C1.24515 2.40289 1.53674 1.97316 1.94344 1.58948C2.43456 1.10605 2.97171 0.868164 3.53956 0.868164C3.75442 0.868164 3.96928 0.914206 4.16112 1.00629C4.36063 1.09837 4.53712 1.2365 4.67525 1.43601L6.45553 3.94528C6.59365 4.13712 6.69341 4.31362 6.76247 4.48243C6.83153 4.64358 6.8699 4.80473 6.8699 4.95053C6.8699 5.13469 6.81619 5.31886 6.70876 5.49535C6.609 5.67184 6.4632 5.85601 6.27903 6.04018L5.69584 6.64639C5.61143 6.7308 5.57306 6.83056 5.57306 6.95334C5.57306 7.01473 5.58074 7.06844 5.59608 7.12983C5.6191 7.19122 5.64213 7.23726 5.65747 7.2833C5.7956 7.53653 6.03348 7.8665 6.37112 8.26553C6.71643 8.66455 7.08476 9.07125 7.48379 9.47796C7.89817 9.88466 8.29719 10.2607 8.7039 10.606C9.10292 10.9436 9.43289 11.1738 9.69379 11.3119C9.73216 11.3273 9.7782 11.3503 9.83192 11.3733C9.8933 11.3964 9.95469 11.404 10.0238 11.404C10.1542 11.404 10.254 11.358 10.3384 11.2736L10.9216 10.6981C11.1134 10.5062 11.2976 10.3604 11.4741 10.2683C11.6506 10.1609 11.8271 10.1072 12.0189 10.1072C12.1647 10.1072 12.3182 10.1379 12.487 10.2069C12.6558 10.276 12.8323 10.3758 13.0241 10.5062L15.5641 12.3095C15.7636 12.4476 15.9017 12.6088 15.9862 12.8006C16.0629 12.9925 16.1089 13.1843 16.1089 13.3992Z" fill="#A19D9D"/>
</svg>
