<svg width="24" height="24" viewBox="0 0 24 24" fill="none" xmlns="http://www.w3.org/2000/svg">
<g clip-path="url(#clip0_27_106039)">
<path d="M23.0279 12.2242C23.0279 11.2409 22.9495 10.5234 22.7799 9.7793H11.7495V14.2173H18.2241C18.0936 15.3202 17.3887 16.9811 15.8222 18.0972L15.8003 18.2458L19.2879 20.996L19.5295 21.0205C21.7486 18.9344 23.0279 15.8649 23.0279 12.2242Z" fill="#4285F4"/>
<path d="M11.7495 23.9178C14.9215 23.9178 17.5844 22.8548 19.5295 21.0211L15.8222 18.0978C14.8302 18.8021 13.4987 19.2937 11.7495 19.2937C8.64276 19.2937 6.00594 17.2076 5.06598 14.3242L4.92821 14.3361L1.30176 17.193L1.25433 17.3272C3.18626 21.2337 7.15458 23.9178 11.7495 23.9178Z" fill="#34A853"/>
<path d="M5.06611 14.3238C4.81809 13.5797 4.67456 12.7824 4.67456 11.9586C4.67456 11.1347 4.8181 10.3375 5.05306 9.59342L5.04649 9.43494L1.3746 6.53223L1.25446 6.59039C0.458226 8.21149 0.00134277 10.0319 0.00134277 11.9586C0.00134277 13.8853 0.458226 15.7056 1.25446 17.3267L5.06611 14.3238Z" fill="#FBBC05"/>
<path d="M11.7495 4.62403C13.9555 4.62403 15.4436 5.59401 16.2921 6.40461L19.6078 3.10928C17.5714 1.1826 14.9215 0 11.7495 0C7.15457 0 3.18625 2.68406 1.25433 6.59056L5.05293 9.59359C6.00593 6.7102 8.64275 4.62403 11.7495 4.62403Z" fill="#351CCD"/>
</g>
<defs>
<clipPath id="clip0_27_106039">
<rect width="23.04" height="24" fill="white"/>
</clipPath>
</defs>
</svg>
