<svg width="20" height="20" viewBox="0 0 20 20" fill="none" xmlns="http://www.w3.org/2000/svg">
<path fill-rule="evenodd" clip-rule="evenodd" d="M8.16874 12.7108C8.68914 13.0636 9.32337 13.2769 9.99825 13.2769C11.7871 13.2769 13.2426 11.8083 13.2426 10.0034C13.2426 9.32245 13.0312 8.68252 12.6815 8.15745L11.7952 9.05171C11.9416 9.33065 12.0229 9.65882 12.0229 10.0034C12.0229 11.1274 11.1122 12.0463 9.99825 12.0463C9.65674 12.0463 9.3315 11.9642 9.05504 11.8165L8.16874 12.7108ZM15.3567 5.45825C16.5357 6.54121 17.5358 8.00157 18.2839 9.75728C18.3489 9.91316 18.3489 10.0936 18.2839 10.2413C16.5438 14.327 13.4459 16.7719 9.99825 16.7719H9.99012C8.42081 16.7719 6.91654 16.255 5.59117 15.3115L4.01372 16.9032C3.89176 17.0262 3.73726 17.0837 3.58277 17.0837C3.42828 17.0837 3.26566 17.0262 3.15182 16.9032C2.94854 16.6981 2.91602 16.3699 3.07864 16.132L3.10303 16.0992L15.129 3.96508C15.1453 3.94868 15.1615 3.93227 15.1697 3.91586L15.1697 3.91585C15.1859 3.89945 15.2022 3.88304 15.2103 3.86663L15.9746 3.09543C16.2186 2.85751 16.6007 2.85751 16.8366 3.09543C17.0805 3.33336 17.0805 3.72716 16.8366 3.96508L15.3567 5.45825ZM6.74799 10.0066C6.74799 10.2199 6.77238 10.4332 6.8049 10.6301L3.79638 13.6657C2.98326 12.714 2.27585 11.5654 1.7148 10.2445C1.64975 10.0968 1.64975 9.91636 1.7148 9.76047C3.45487 5.67476 6.55284 3.23811 9.99232 3.23811H10.0004C11.1632 3.23811 12.2934 3.51705 13.3342 4.04212L10.6184 6.78234C10.4233 6.74952 10.2119 6.72491 10.0004 6.72491C8.20346 6.72491 6.74799 8.19347 6.74799 10.0066Z" fill="#9E9E9E"/>
</svg>
