<svg width="20" height="20" viewBox="0 0 20 20" fill="none" xmlns="http://www.w3.org/2000/svg">
<path fill-rule="evenodd" clip-rule="evenodd" d="M14.6016 6.16366V7.44145C16.0369 7.88946 17.0827 9.18877 17.0827 10.7407V14.8547C17.0827 16.776 15.4899 18.3337 13.5262 18.3337H6.47335C4.50881 18.3337 2.91602 16.776 2.91602 14.8547V10.7407C2.91602 9.18877 3.96264 7.88946 5.39709 7.44145V6.16366C5.40556 3.67931 7.46324 1.66699 9.98665 1.66699C12.5439 1.66699 14.6016 3.67931 14.6016 6.16366ZM10.0036 3.1162C11.7226 3.1162 13.1197 4.48259 13.1197 6.16366V7.26175H6.87896V6.1471C6.88742 4.47431 8.28461 3.1162 10.0036 3.1162ZM10.7403 13.7128C10.7403 14.1185 10.41 14.4415 9.99511 14.4415C9.58866 14.4415 9.25841 14.1185 9.25841 13.7128V11.8744C9.25841 11.4769 9.58866 11.1539 9.99511 11.1539C10.41 11.1539 10.7403 11.4769 10.7403 11.8744V13.7128Z" fill="#9E9E9E"/>
</svg>
