<?xml version="1.0" standalone="no"?>
<!DOCTYPE svg PUBLIC "-//W3C//DTD SVG 20010904//EN"
 "http://www.w3.org/TR/2001/REC-SVG-20010904/DTD/svg10.dtd">
<svg version="1.0" xmlns="http://www.w3.org/2000/svg"
 width="700.000000pt" height="700.000000pt" viewBox="0 0 700.000000 700.000000"
 preserveAspectRatio="xMidYMid meet">
<metadata>
Created by potrace 1.14, written by Peter Selinger 2001-2017
</metadata>
<g transform="translate(0.000000,700.000000) scale(0.100000,-0.100000)"
fill="#000000" stroke="none">
<path d="M3383 5142 l-23 -3 0 -1485 0 -1484 65 0 65 0 0 1484 0 1484 -42 3
c-24 2 -53 3 -65 1z"/>
<path d="M1765 5076 c-317 -52 -589 -241 -754 -524 -188 -321 -201 -794 -32
-1137 120 -243 301 -409 581 -531 43 -19 102 -60 175 -122 321 -274 714 -460
1078 -511 123 -17 157 -15 157 9 0 11 -6 22 -12 24 -7 2 -58 13 -113 25 -188
40 -357 143 -485 295 -63 75 -170 230 -170 245 0 4 25 15 56 25 132 42 286
141 401 257 238 242 344 525 330 878 -13 317 -107 547 -306 755 -156 161 -312
253 -511 301 -90 22 -296 28 -395 11z m323 -132 c264 -69 433 -305 503 -704
28 -157 30 -449 5 -605 -39 -240 -105 -385 -235 -516 -94 -94 -167 -136 -282
-164 -84 -19 -244 -19 -322 1 -278 72 -469 357 -518 774 -17 150 -7 477 20
598 26 123 46 182 92 275 84 170 210 284 372 336 95 31 256 33 365 5z"/>
<path d="M4891 5068 c-20 -52 -727 -1702 -774 -1808 -63 -140 -137 -254 -180
-277 -18 -9 -59 -24 -92 -33 -52 -15 -60 -20 -63 -43 l-3 -27 339 0 c293 0
341 2 346 15 11 30 -5 42 -65 49 -122 12 -185 61 -181 140 2 54 15 91 114 324
l83 192 420 0 420 0 82 -199 c79 -191 113 -291 113 -336 0 -31 -36 -82 -69
-100 -17 -8 -58 -18 -91 -22 -58 -6 -60 -7 -60 -34 l0 -29 425 0 425 0 0 30
c0 26 -4 30 -28 30 -58 0 -130 30 -181 76 -66 60 -122 174 -334 684 -178 427
-358 858 -469 1120 -38 91 -79 189 -90 218 -18 46 -24 52 -50 52 -20 0 -31 -6
-37 -22z m133 -910 c97 -233 176 -426 176 -430 0 -5 -165 -8 -366 -8 -344 0
-366 1 -360 18 24 66 362 842 367 842 4 0 86 -190 183 -422z"/>
</g>
</svg>
