<svg xmlns="http://www.w3.org/2000/svg" width="20" height="20" viewBox="0 0 20 20">
  <g id="Group_2856" data-name="Group 2856" transform="translate(-1666 87)">
    <rect id="Rectangle_2857" data-name="Rectangle 2857" width="20" height="20" transform="translate(1666 -87)" fill="none"/>
    <path id="Path_5025_-_Outline" data-name="Path 5025 - Outline" d="M9.309,20.7h16.85a.61.61,0,0,1,.609.609v1.685a.606.606,0,0,1-.178.431l-6.281,6.281v3.4a.611.611,0,0,1-.255.5l-3.932,2.808a.609.609,0,0,1-.964-.5V29.706l-6.28-6.28a.605.605,0,0,1-.179-.431V21.309A.61.61,0,0,1,9.309,20.7Zm16.24,1.219H9.919v.823l6.28,6.28a.605.605,0,0,1,.179.431v5.275l2.713-1.938V29.453a.605.605,0,0,1,.179-.431l6.28-6.28Z" transform="translate(1658.714 -105.188)" fill="#fff"/>
  </g>
</svg>
