<svg xmlns="http://www.w3.org/2000/svg" width="20" height="20" viewBox="0 0 20 20">
  <g id="Group_2855" data-name="Group 2855" transform="translate(-1690 87)">
    <rect id="Rectangle_2858" data-name="Rectangle 2858" width="20" height="20" transform="translate(1690 -87)" fill="none"/>
    <g id="Group_2854" data-name="Group 2854" transform="translate(-9.926 20.728)">
      <g id="noun_Category_2742789" transform="translate(1701.5 -97.244)">
        <path id="Path_4904" data-name="Path 4904" d="M18.475,14.178h0a3.957,3.957,0,1,1-3.956,3.957,3.961,3.961,0,0,1,3.956-3.957Zm0,6.8a2.846,2.846,0,1,0,0-5.692h0a2.846,2.846,0,0,0,0,5.692Zm-11.892-6.8h5.871a.991.991,0,0,1,1,.982v5.9a.991.991,0,0,1-1,.982l-3.951,0a2.9,2.9,0,0,1-2.077-.825,2.987,2.987,0,0,1-.847-2.14l.006-3.924a.991.991,0,0,1,1-.981Zm5.758,1.11H6.7l-.006,3.8a1.886,1.886,0,0,0,.523,1.354,1.771,1.771,0,0,0,1.287.5l3.841,0Z" transform="translate(-5.58 -14.178)" fill="#fff"/>
        <path id="Path_5026" data-name="Path 5026" d="M18.475,14.178h0a3.957,3.957,0,1,1-3.956,3.957,3.961,3.961,0,0,1,3.956-3.957Zm0,6.8a2.846,2.846,0,1,0,0-5.692h0a2.846,2.846,0,0,0,0,5.692Zm-11.892-6.8h5.871a.991.991,0,0,1,1,.982v5.9a.991.991,0,0,1-1,.982l-3.951,0a2.9,2.9,0,0,1-2.077-.825,2.987,2.987,0,0,1-.847-2.14l.006-3.924a.991.991,0,0,1,1-.981Zm5.758,1.11H6.7l-.006,3.8a1.886,1.886,0,0,0,.523,1.354,1.771,1.771,0,0,0,1.287.5l3.841,0Z" transform="translate(-5.58 -14.178)" fill="#fff"/>
      </g>
      <g id="noun_Category_2742789-2" data-name="noun_Category_2742789" transform="translate(1701.5 -106.125)">
        <path id="Path_4904-2" data-name="Path 4904" d="M12.455,22.051H6.584a.991.991,0,0,1-1-.981L5.58,17.146a2.987,2.987,0,0,1,.847-2.14A2.9,2.9,0,0,1,8.5,14.181l3.955,0a.991.991,0,0,1,1,.982v5.9A.991.991,0,0,1,12.455,22.051ZM6.7,20.941h5.645V15.3l-3.839,0a1.773,1.773,0,0,0-1.29.5,1.886,1.886,0,0,0-.523,1.354Z" transform="translate(-5.58 -14.181)" fill="#fff"/>
        <path id="Path_5026-2" data-name="Path 5026" d="M12.455,22.051H6.584a.991.991,0,0,1-1-.981L5.58,17.146a2.987,2.987,0,0,1,.847-2.14A2.9,2.9,0,0,1,8.5,14.181l3.955,0a.991.991,0,0,1,1,.982v5.9A.991.991,0,0,1,12.455,22.051ZM6.7,20.941h5.645V15.3l-3.839,0a1.773,1.773,0,0,0-1.29.5,1.886,1.886,0,0,0-.523,1.354Z" transform="translate(-5.58 -14.181)" fill="#fff"/>
      </g>
      <g id="noun_Category_2742789-3" data-name="noun_Category_2742789" transform="translate(1710.48 -106.125)">
        <path id="Path_4904-3" data-name="Path 4904" d="M12.448,22.051H6.577a.991.991,0,0,1-1-.982v-5.9a.991.991,0,0,1,1-.982l3.951,0a2.9,2.9,0,0,1,2.077.825,2.987,2.987,0,0,1,.847,2.14l-.006,3.924a.991.991,0,0,1-1,.981ZM6.69,20.941h5.645l.006-3.8a1.886,1.886,0,0,0-.523-1.354,1.771,1.771,0,0,0-1.287-.5l-3.841,0Z" transform="translate(-5.58 -14.181)" fill="#fff"/>
        <path id="Path_5026-3" data-name="Path 5026" d="M12.448,22.051H6.577a.991.991,0,0,1-1-.982v-5.9a.991.991,0,0,1,1-.982l3.951,0a2.9,2.9,0,0,1,2.077.825,2.987,2.987,0,0,1,.847,2.14l-.006,3.924a.991.991,0,0,1-1,.981ZM6.69,20.941h5.645l.006-3.8a1.886,1.886,0,0,0-.523-1.354,1.771,1.771,0,0,0-1.287-.5l-3.841,0Z" transform="translate(-5.58 -14.181)" fill="#fff"/>
      </g>
    </g>
  </g>
</svg>
