<svg width="194" height="234" viewBox="0 0 194 234" fill="none" xmlns="http://www.w3.org/2000/svg">
<path d="M105.41 187.841H22.0393C21.3143 187.841 20.7344 188.423 20.7344 189.151C20.7344 189.879 21.3143 190.462 22.0393 190.462H105.41C106.135 190.462 106.715 189.879 106.715 189.151C106.715 188.423 106.135 187.841 105.41 187.841Z" fill="#6B6969"/>
<path d="M86.1259 37.4225H31.8987C31.1737 37.4225 30.5938 38.0049 30.5938 38.733C30.5938 39.4611 31.1737 40.0435 31.8987 40.0435H86.2709C86.9958 40.0435 87.5758 39.4611 87.5758 38.733C87.4308 38.0049 86.8509 37.4225 86.1259 37.4225Z" fill="#6B6969"/>
<path d="M41.7574 197.014H22.3284C21.6034 197.014 21.0234 197.597 21.0234 198.325C21.0234 199.053 21.6034 199.635 22.3284 199.635H41.7574C42.4823 199.635 43.0623 199.053 43.0623 198.325C43.0623 197.597 42.4823 197.014 41.7574 197.014Z" fill="#6B6969"/>
<path d="M73.6558 197.014H54.2268C53.5018 197.014 52.9219 197.597 52.9219 198.325C52.9219 199.053 53.5018 199.635 54.2268 199.635H73.6558C74.3808 199.635 74.9607 199.053 74.9607 198.325C74.9607 197.597 74.3808 197.014 73.6558 197.014Z" fill="#6B6969"/>
<path d="M105.554 197.014H86.1252C85.4003 197.014 84.8203 197.597 84.8203 198.325C84.8203 199.053 85.4003 199.635 86.1252 199.635H105.554C106.279 199.635 106.859 199.053 106.859 198.325C106.859 197.597 106.279 197.014 105.554 197.014Z" fill="#6B6969"/>
<path d="M173.556 44.5576H154.127C153.402 44.5576 152.822 45.1401 152.822 45.8681C152.822 46.5962 153.402 47.1787 154.127 47.1787H173.556C174.281 47.1787 174.861 46.5962 174.861 45.8681C175.006 45.1401 174.426 44.5576 173.556 44.5576Z" fill="#F30990"/>
<path d="M173.556 51.547H154.127C153.402 51.547 152.822 52.1294 152.822 52.8575C152.822 53.5856 153.402 54.168 154.127 54.168H173.556C174.281 54.168 174.861 53.5856 174.861 52.8575C175.006 52.1294 174.426 51.547 173.556 51.547Z" fill="#F30990"/>
<path d="M173.556 58.682H154.127C153.402 58.682 152.822 59.2645 152.822 59.9925C152.822 60.7206 153.402 61.303 154.127 61.303H173.556C174.281 61.303 174.861 60.7206 174.861 59.9925C175.006 59.2645 174.426 58.682 173.556 58.682Z" fill="#F30990"/>
<path d="M51.1826 134.109C59.4472 139.788 67.5668 139.643 75.6864 133.964C75.6864 134.255 75.6864 134.546 75.6864 134.692C75.6864 137.313 75.6864 139.934 75.6864 142.409C75.6864 142.846 75.8313 142.992 76.2663 143.137C81.776 144.157 100.77 144.011 104.975 152.894C77.4263 152.894 49.8777 152.894 22.3291 152.894C22.4741 151.729 27.1139 142.992 50.4577 143.283C51.0376 143.137 51.0376 142.992 51.0376 142.409C51.0376 139.788 51.0376 137.167 51.0376 134.692C51.1826 134.546 51.1826 134.401 51.1826 134.109Z" stroke="#F30990" stroke-miterlimit="10"/>
<path d="M121.359 7.13501C128.173 7.13501 135.133 7.13501 141.948 7.13501C144.268 7.13501 145.137 8.00869 145.137 10.3385C145.137 19.0753 145.137 27.9577 145.137 36.6944C145.137 38.8786 144.123 39.8979 141.948 39.8979C128.318 39.8979 114.544 39.8979 100.915 39.8979C98.4499 39.8979 97.4349 38.733 97.5799 36.2576C97.7249 29.4138 97.5799 22.57 97.5799 15.8718C97.5799 13.9788 97.5799 11.9402 97.5799 10.0473C97.5799 8.00869 98.5949 7.13501 100.48 7.13501C107.584 7.13501 114.399 7.13501 121.359 7.13501ZM99.8998 8.29991C100.19 8.59114 110.774 18.4928 115.994 23.298C116.574 23.7349 117.444 24.1717 118.169 24.1717C120.489 24.3173 122.664 24.3173 124.984 24.1717C125.708 24.1717 126.578 23.7349 127.158 23.298C132.233 18.6384 142.963 8.44553 142.818 8.29991C128.608 8.29991 114.254 8.29991 99.8998 8.29991ZM142.818 38.733C142.528 38.4418 131.798 29.705 126.578 25.6279C126.288 25.3366 125.853 25.3366 125.418 25.3366C122.954 25.3366 120.344 25.3366 117.879 25.3366C117.299 25.3366 116.719 25.4822 116.284 25.9191C111.064 29.9962 100.045 38.733 100.19 38.8786C114.399 38.733 128.463 38.733 142.818 38.733ZM115.704 24.7542C110.194 19.5121 104.685 14.4157 99.0299 9.3192C98.4499 10.4841 99.0299 34.8015 99.0299 37.8593C104.685 33.491 110.194 29.1226 115.704 24.7542ZM143.978 9.46482C143.833 9.46482 132.813 19.5121 127.303 24.6086C132.813 29.1226 138.323 33.3453 143.978 38.005C143.978 28.3945 143.978 18.9297 143.978 9.46482Z" fill="#F30990" stroke="#F30990" stroke-width="0.25" stroke-miterlimit="10"/>
<path d="M115.849 61.1575C116.284 64.3609 114.834 66.8364 111.789 67.8557C110.629 68.1469 110.484 68.5837 110.919 69.603C112.949 75.4275 116.429 80.3784 121.504 83.8731C122.374 84.4555 122.809 84.6011 123.389 83.4362C124.839 80.6696 128.029 79.5047 130.928 80.6696C134.408 81.9801 137.743 83.2906 141.223 84.7468C144.268 85.9117 145.863 89.2608 144.703 92.4642C144.123 94.3572 143.398 96.1046 142.528 97.9975C141.368 100.764 138.178 102.366 135.423 101.347C128.754 98.8712 122.084 96.3958 115.994 92.6099C108.31 87.659 103.235 80.9608 100.77 72.0784C98.8851 65.3802 98.0151 58.682 97.8701 51.8382C97.8701 49.7996 98.8851 48.3435 100.915 47.7611C103.235 47.1786 105.555 46.5962 107.875 46.1593C110.774 45.5769 113.529 47.6155 114.109 50.6733C114.689 52.4207 115.704 59.4101 115.849 61.1575ZM107.44 47.7611C105.7 48.0523 104.25 48.3435 102.8 48.6348C102.51 48.6348 102.365 48.7804 102.075 48.7804C100.045 49.3628 99.465 50.2365 99.465 52.2751C99.61 59.2645 100.48 66.1083 102.655 72.8065C104.685 79.3591 108.165 84.7468 113.529 88.9695C120.344 94.2116 128.174 97.1239 136.148 100.036C138.033 100.764 139.918 100.036 140.933 98.2888C141.948 96.5414 142.673 94.5028 143.543 92.6099C136.728 90.7169 130.493 88.3871 124.549 84.7468C123.679 85.7661 122.664 86.2029 121.504 85.4748C115.559 81.5433 111.644 76.01 109.47 69.1662C109.325 68.5837 109.325 67.71 109.759 67.4188C110.339 66.6908 110.194 66.1083 110.194 65.3802C109.47 61.3031 108.89 57.2259 108.165 53.1488C107.875 51.547 107.585 49.654 107.44 47.7611ZM143.543 91.2993C144.123 89.4064 143.253 87.2222 141.368 86.3485C137.598 84.7468 133.683 83.2906 129.913 81.8345C128.174 81.2521 126.289 81.9801 125.274 83.5819C130.928 87.2222 137.018 89.6976 143.543 91.2993ZM111.644 66.3995C113.674 65.8171 114.979 64.0697 114.689 62.1768C114.254 58.3908 113.819 54.6049 113.094 50.9646C112.804 48.926 110.919 47.4698 108.745 47.6155C109.325 53.8768 110.049 60.2838 111.644 66.3995Z" fill="#F30990" stroke="#F30990" stroke-width="0.25" stroke-miterlimit="10"/>
<path d="M144.412 75.5731C144.412 76.0099 143.107 76.0099 143.107 75.5731C143.252 71.2047 142.672 67.1275 140.787 63.196C137.163 55.7697 130.928 52.275 122.953 51.4013C122.518 51.4013 122.228 51.4013 121.793 51.2557C121.358 51.1101 121.358 49.9452 121.938 49.9452C122.953 49.9452 124.113 50.0908 125.128 50.2364C145.717 53.4399 144.412 73.2433 144.412 75.5731Z" fill="#F30990" stroke="#F30990" stroke-width="0.25" stroke-miterlimit="10"/>
<path d="M138.613 75.1363C138.613 75.5732 137.308 75.5732 137.308 75.1363C137.308 71.6416 136.873 68.2925 135.133 65.2347C132.378 60.2838 128.028 57.954 122.519 57.2259C122.084 57.2259 121.504 57.2259 121.069 57.0803C120.779 57.0803 120.924 56.061 121.069 55.9154C121.214 55.7698 121.504 55.9154 121.649 55.9154C130.203 56.061 138.903 62.3224 138.613 75.1363Z" fill="#F30990" stroke="#F30990" stroke-width="0.25" stroke-miterlimit="10"/>
<path d="M133.103 74.6995C133.103 75.1363 131.943 75.2819 131.798 74.6995C131.508 73.0977 131.653 71.3504 131.218 69.7486C130.058 65.5258 126.868 63.3416 122.664 62.6136C122.084 62.468 121.504 62.468 120.924 62.3224C120.634 62.1767 120.779 61.0118 121.069 61.0118C126.288 61.4487 133.538 64.0697 133.103 74.6995Z" fill="#F30990" stroke="#F30990" stroke-width="0.25" stroke-miterlimit="10"/>
<path d="M121.794 104.841V208.955C121.794 216.235 115.994 222.06 108.745 222.06H21.7491C14.4995 222.06 8.69976 216.235 8.69976 208.955V30.5787C8.69976 23.2981 14.4995 17.4736 21.7491 17.4736H81.631H84.3859H86.9957C87.7207 17.4736 88.3007 16.8911 88.3007 16.1631C88.3007 15.435 87.7207 14.8525 86.9957 14.8525H84.3859H81.631H20.1542C12.6146 14.8525 6.37988 20.9683 6.37988 28.6858V210.702C6.37988 218.274 12.4696 224.535 20.1542 224.535H110.195C117.734 224.535 123.969 218.419 123.969 210.702V104.841C123.969 104.259 123.389 103.676 122.809 103.676C122.229 103.676 121.794 104.259 121.794 104.841Z" fill="#6B6969"/>
<path d="M163.842 34.0735C151.373 34.0735 141.368 42.519 141.368 53.0032C141.368 60.575 146.588 66.982 154.128 70.0399C151.808 73.0978 147.458 75.8644 147.458 75.8644C147.458 75.8644 153.983 79.5047 162.682 72.3697C162.972 72.0785 163.407 71.9329 163.987 71.9329C176.311 71.9329 186.316 63.3417 186.316 53.0032C186.316 42.6647 176.311 34.0735 163.842 34.0735ZM165.147 70.4767C163.697 70.4767 162.827 70.4767 160.797 71.9329C155.432 76.3012 150.648 75.5732 150.648 75.5732C150.648 75.5732 153.548 73.2434 155.722 70.4767C156.447 69.603 156.012 69.0206 154.997 68.7294C148.183 65.9627 143.398 59.9926 143.398 53.0032C143.398 43.3927 152.678 35.5296 164.132 35.5296C175.586 35.5296 184.866 43.3927 184.866 53.0032C184.576 62.3224 176.021 69.8943 165.147 70.4767Z" fill="#F30990"/>
<path d="M90.1855 105.861C90.1855 105.133 90.0405 104.405 89.7505 103.676C89.3155 102.512 88.3006 101.783 86.9956 101.929C86.2707 101.929 85.4007 101.929 84.5308 101.929C84.5308 101.638 84.5308 101.347 84.5308 101.201C84.5308 96.9783 84.5308 92.9011 84.5308 88.6783C84.5308 88.3871 84.5308 88.2415 84.3858 87.9503C83.9508 86.2029 82.9359 84.6012 81.6309 83.145C79.0211 80.2328 75.6862 78.631 71.9164 77.7574C68.0016 76.7381 64.0868 76.8837 60.172 77.3205C56.5472 77.7573 53.0674 78.7766 49.7326 80.6696C46.5427 82.5626 44.3678 85.1836 43.4979 88.9695C42.7729 92.173 42.6279 95.2309 42.9179 98.4344C43.0629 99.5993 43.2079 100.764 43.3529 101.929C42.4829 101.929 41.613 101.929 40.743 101.929C39.2931 101.929 38.4232 102.512 37.8432 103.822C37.5532 104.55 37.4082 105.278 37.4082 106.006C37.4082 108.336 37.4082 110.52 37.4082 112.85C37.4082 113.578 37.5532 114.452 37.8432 115.18C38.4232 116.345 39.2931 117.073 40.598 116.927C41.613 116.927 42.4829 116.927 43.4979 116.927C43.4979 117.073 43.6429 117.073 43.6429 117.073C43.9329 120.131 44.9478 122.897 46.5427 125.518C49.1526 130.032 53.0674 133.09 57.8522 135.129C59.4471 135.857 61.187 136.148 62.9269 136.148C67.1317 136.439 70.9015 135.274 74.3813 132.799C79.0211 129.596 82.3559 125.227 83.8058 119.694C84.0958 118.82 84.0958 117.801 84.3858 116.782C85.2557 116.782 86.1257 116.782 87.1406 116.782C88.4456 116.782 89.3155 116.199 89.7505 115.18C90.0405 114.452 90.3305 113.578 90.3305 112.85C90.1855 110.666 90.1855 108.19 90.1855 105.861ZM43.0629 112.413C43.0629 113.287 42.338 114.015 41.468 114.015H41.178C40.3081 114.015 39.5831 113.287 39.5831 112.413V106.734C39.5831 105.861 40.3081 105.133 41.178 105.133H41.468C42.338 105.133 43.0629 105.861 43.0629 106.734V112.413ZM79.746 124.936C77.5711 128.576 74.5263 131.197 70.7565 133.09C65.6817 135.566 60.607 135.274 55.6773 132.362C53.0674 130.906 50.8925 129.013 49.1526 126.683C48.1377 125.373 47.4127 123.771 46.5427 122.315C46.5427 122.169 46.3977 122.024 46.3977 121.878C47.1227 122.606 47.5577 123.334 48.2826 123.917C49.5876 125.227 51.0375 126.246 52.7774 126.975C53.0674 127.12 53.2124 127.266 53.3574 127.703C53.6474 129.596 54.6623 130.76 56.5472 131.343C58.4321 131.925 60.317 132.362 62.2019 132.799C64.5218 133.381 66.6967 132.217 67.4217 129.887C68.0016 127.557 66.8417 125.373 64.5218 124.79C62.6369 124.208 60.607 123.771 58.7221 123.189C56.9822 122.752 55.5323 123.189 54.5173 124.645C54.2273 124.936 54.0823 124.936 53.6474 124.79C50.6025 123.334 48.4276 120.859 46.9777 117.947C46.8327 117.801 46.8327 117.51 46.6877 117.364C45.9628 115.762 45.3828 114.015 45.5278 112.122C45.6728 109.501 45.5278 106.734 45.5278 104.113C45.5278 103.822 45.6728 103.385 45.9628 103.094C47.7027 101.201 49.8776 100.036 52.1974 99.0168C55.9672 97.4151 59.882 96.2502 63.9418 95.5221C69.4515 94.5028 74.8163 93.0467 79.891 90.7169V90.8625C78.4411 92.7555 78.4411 94.9397 79.0211 97.1239C79.601 99.8905 80.906 102.22 82.3559 104.55C82.6459 104.987 82.7909 105.424 82.7909 106.006C82.7909 108.919 82.7909 111.976 82.7909 114.889C82.6459 118.383 81.7759 121.732 79.746 124.936ZM87.8656 112.559C87.8656 113.433 87.1406 114.161 86.2707 114.161H85.9807C85.1107 114.161 84.3858 113.433 84.3858 112.559V106.88C84.3858 106.006 85.1107 105.278 85.9807 105.278H86.2707C87.1406 105.278 87.8656 106.006 87.8656 106.88V112.559Z" fill="#F30990"/>
</svg>
