<svg width="53" height="54" viewBox="0 0 53 54" fill="none" xmlns="http://www.w3.org/2000/svg">
<path d="M35.0812 20.883C32.398 20.8888 29.8264 21.9572 27.9291 23.8545C26.0315 25.7521 24.963 28.3241 24.9575 31.0077V31.3806C24.9575 34.1479 26.5131 37.4199 29.7611 41.1476C31.1946 42.7818 32.7515 44.3033 34.4183 45.6986L35.0586 46.1497L35.7282 45.6019C35.7288 45.6013 35.7295 45.6008 35.7301 45.6002C37.4022 44.2017 38.9638 42.6764 40.4012 41.0377C43.6493 37.31 45.2049 34.038 45.2049 31.2706L45.2049 31.0077L45.2049 31.0067M35.0812 20.883L45.7049 31.0067H45.2049M35.0812 20.883C37.7644 20.8888 40.336 21.9572 42.2333 23.8545C44.1306 25.7519 45.1991 28.3235 45.2049 31.0067M35.0812 20.883L45.2049 31.0067M34.7476 43.2346L35.0798 43.532L35.4132 43.236C36.8049 42.0001 38.7169 40.089 40.2855 37.9807C41.7178 36.0557 42.925 33.8865 43.103 31.8806H43.2135V31.3806V31.1166C43.2135 28.9831 42.366 26.937 40.8574 25.4284C39.3488 23.9198 37.3027 23.0723 35.1692 23.0723C33.0357 23.0723 30.9895 23.9198 29.4809 25.4284C27.9723 26.937 27.1248 28.9831 27.1248 31.1166V31.3806V31.4142L27.1293 31.4474C27.5576 34.6226 29.0373 37.5625 31.3318 39.7981C32.4028 41.0088 33.5434 42.1563 34.7476 43.2346ZM10.7266 25.2219V24.1234L9.89817 24.8449L9.21732 25.4379C9.2171 25.4381 9.21688 25.4383 9.21666 25.4384C9.00438 25.622 8.72804 25.7141 8.44804 25.6945C8.168 25.6749 7.90713 25.5452 7.72249 25.3337C7.53893 25.1215 7.44686 24.8451 7.46646 24.5652C7.48607 24.2851 7.61579 24.0242 7.82725 23.8396C7.82742 23.8394 7.82759 23.8393 7.82777 23.8391L25.549 8.4485C25.6946 8.33122 25.876 8.26721 26.0631 8.26721C26.2501 8.26721 26.4315 8.33115 26.577 8.44831L36.1983 16.8256C35.2395 16.7554 34.2744 16.7861 33.319 16.9183L33.319 16.9183L33.3118 16.9194C33.2902 16.9227 33.2683 16.9215 33.2472 16.916C33.2284 16.9111 33.2106 16.9029 33.1948 16.8916L26.8531 11.4935C26.6412 11.3062 26.3681 11.2028 26.0851 11.2028C25.8012 11.2028 25.5273 11.3069 25.3151 11.4953L12.9781 22.2049L12.8059 22.3544V22.5825V42.2022C12.8059 42.7432 13.0208 43.262 13.4033 43.6445C13.7858 44.027 14.3046 44.2419 14.8456 44.2419H27.0651C27.1067 44.244 27.1476 44.2544 27.1852 44.2726C27.2246 44.2915 27.2597 44.3186 27.288 44.3519L27.2972 44.3627L27.307 44.3729L28.6642 45.7958C28.6989 45.836 28.722 45.885 28.7309 45.9375C28.7401 45.9919 28.7338 46.0477 28.7126 46.0986C28.6913 46.1495 28.6562 46.1934 28.611 46.2251C28.5685 46.255 28.5188 46.273 28.4671 46.2772H14.8456C13.7531 46.2772 12.7054 45.8433 11.933 45.0708C11.1605 44.2984 10.7266 43.2507 10.7266 42.1582V25.2219ZM32.7928 27.7578C33.4701 27.3052 34.2665 27.0636 35.0812 27.0636C36.1736 27.0636 37.2213 27.4976 37.9938 28.27C38.7662 29.0425 39.2002 30.0902 39.2002 31.1826C39.2002 31.9973 38.9586 32.7936 38.506 33.471C38.0534 34.1484 37.4101 34.6763 36.6574 34.9881C35.9048 35.2998 35.0766 35.3814 34.2776 35.2225C33.4786 35.0635 32.7447 34.6712 32.1686 34.0952C31.5926 33.5191 31.2003 32.7852 31.0413 31.9862C30.8824 31.1872 30.964 30.359 31.2757 29.6063C31.5875 28.8537 32.1154 28.2104 32.7928 27.7578ZM33.948 32.8785C34.2834 33.1027 34.6778 33.2223 35.0812 33.2223C35.6221 33.2223 36.1409 33.0074 36.5234 32.6249C36.906 32.2424 37.1208 31.7236 37.1208 31.1826C37.1208 30.7792 37.0012 30.3849 36.7771 30.0494C36.553 29.714 36.2344 29.4526 35.8617 29.2982C35.489 29.1438 35.0789 29.1034 34.6833 29.1821C34.2876 29.2608 33.9242 29.4551 33.6389 29.7404C33.3537 30.0256 33.1594 30.389 33.0807 30.7847C33.002 31.1804 33.0424 31.5905 33.1968 31.9632C33.3512 32.3359 33.6126 32.6544 33.948 32.8785Z" fill="#F30990" stroke="#F30990"/>
</svg>
