<svg width="53" height="53" viewBox="0 0 53 53" fill="none" xmlns="http://www.w3.org/2000/svg">
<path d="M26.3952 7.73962C23.992 7.74251 21.613 8.21871 19.3938 9.14105C17.1746 10.0634 15.1589 11.4138 13.4616 13.1151C11.7643 14.8165 10.4188 16.8355 9.50179 19.0569C8.58479 21.2782 8.11431 23.6585 8.1172 26.0617C8.1873 29.1214 8.9387 32.127 10.3167 34.8598C10.5048 35.075 10.7598 35.2209 11.0407 35.2739C11.3217 35.3269 11.6123 35.284 11.8659 35.1522C12.1196 35.0203 12.3215 34.807 12.4395 34.5466C12.5574 34.2861 12.5844 33.9936 12.5162 33.716C11.3752 31.3255 10.7816 28.7106 10.7786 26.0617C10.7786 22.9459 11.7028 19.9002 13.4343 17.3099C15.1657 14.7196 17.6266 12.7011 20.5056 11.5098C23.3845 10.3184 26.5522 10.0079 29.6077 10.6173C32.6632 11.2267 35.4693 12.7288 37.6709 14.9335C39.8725 17.1382 41.3707 19.9464 41.9759 23.0028C42.5811 26.0591 42.266 29.2263 41.0707 32.1036C39.8753 34.9809 37.8534 37.439 35.2607 39.1668C32.6679 40.8947 29.6209 41.8146 26.5052 41.8102C24.0464 41.7909 21.6243 41.2117 19.4228 40.1166C19.2698 40.0513 19.1052 40.0176 18.9389 40.0176C18.7725 40.0176 18.6079 40.0513 18.455 40.1166L10.3387 42.5581C10.0484 42.6549 9.80248 42.8528 9.64593 43.1158C9.48938 43.3788 9.43259 43.6893 9.48593 43.9907C9.53927 44.2921 9.69919 44.5642 9.93649 44.7575C10.1738 44.9508 10.4727 45.0523 10.7786 45.0435C10.9022 45.0663 11.0289 45.0663 11.1525 45.0435L18.6749 42.6461C21.1118 43.7629 23.7587 44.3477 26.4392 44.3617C31.2869 44.3617 35.936 42.436 39.3638 39.0082C42.7916 35.5804 44.7173 30.9313 44.7173 26.0837C44.7173 21.236 42.7916 16.5869 39.3638 13.1591C35.936 9.73133 31.2869 7.80561 26.4392 7.80561L26.3952 7.73962Z" fill="#F30990"/>
<path d="M22.7884 22.898C22.5201 23.1051 22.345 23.4103 22.3017 23.7465C22.2584 24.0827 22.3504 24.4223 22.5575 24.6906C22.7646 24.959 23.0698 25.1341 23.4059 25.1774C23.7421 25.2207 24.0817 25.1287 24.3501 24.9216C24.7615 24.6512 25.0941 24.2768 25.3143 23.8365C25.5344 23.3962 25.6343 22.9055 25.6038 22.4141C25.3028 21.3489 24.7438 20.3743 23.9762 19.5767C23.3629 18.6314 22.5036 17.871 21.4907 17.3772C20.8888 17.147 20.2231 17.147 19.6211 17.3772C19.0319 17.5778 18.492 17.901 18.037 18.3257C17.582 18.7503 17.2223 19.2667 16.9817 19.8407C16.7768 20.4076 16.6906 21.0105 16.7284 21.6121C16.7662 22.2137 16.9273 22.8012 17.2016 23.3379C18.4661 26.0558 20.2608 28.4937 22.4805 30.5084V30.5084C24.7373 32.4714 27.3615 33.9667 30.2008 34.9074C30.7227 35.0992 31.2726 35.2032 31.8285 35.2153C32.4804 35.2194 33.123 35.0607 33.6981 34.7534C34.2456 34.448 34.7238 34.0323 35.1024 33.5325C35.481 33.0328 35.7518 32.4599 35.8976 31.8501C36.0827 31.2334 36.0438 30.5712 35.7876 29.9805C35.1951 29.0577 34.3776 28.3009 33.4121 27.781C32.5291 27.1266 31.5043 26.6895 30.4208 26.5052C29.9256 26.5239 29.4449 26.6771 29.0303 26.9483C28.6156 27.2196 28.2827 27.5987 28.0673 28.0449C27.9806 28.1893 27.9233 28.3494 27.8985 28.516C27.8737 28.6826 27.882 28.8524 27.9228 29.0158C27.9636 29.1792 28.0363 29.333 28.1366 29.4683C28.2368 29.6036 28.3628 29.7179 28.5072 29.8045C28.6516 29.8912 28.8117 29.9485 28.9783 29.9733C29.1449 29.9981 29.3147 29.9898 29.4781 29.949C29.6415 29.9081 29.7952 29.8355 29.9306 29.7352C30.0659 29.635 30.1801 29.509 30.2668 29.3646L30.4868 29.0567C31.6044 29.5353 32.6256 30.2136 33.5001 31.0582C33.5001 31.0582 33.5001 31.0582 33.5001 31.2122C33.3756 31.7496 33.0538 32.2207 32.5983 32.5319C32.3665 32.6357 32.1154 32.6893 31.8615 32.6893C31.6075 32.6893 31.3564 32.6357 31.1246 32.5319C28.5994 31.686 26.2669 30.3478 24.2621 28.5948V28.5948C22.3082 26.8636 20.716 24.7631 19.5771 22.4141C19.4477 22.1978 19.3669 21.9559 19.3403 21.7052C19.3137 21.4546 19.342 21.2011 19.4232 20.9624C19.5421 20.7132 19.7108 20.491 19.9188 20.3094C20.1269 20.1279 20.3699 19.9908 20.6329 19.9067H20.7869C21.7206 20.6891 22.5034 21.6358 23.0964 22.7001L22.8104 22.92L22.7884 22.898Z" fill="#F30990"/>
</svg>
