<svg xmlns="http://www.w3.org/2000/svg" width="24" height="17" viewBox="0 0 24 17">
  <g id="fi-sr-align-justify" transform="translate(0 -4)">
    <path id="Path_24269" data-name="Path 24269" d="M1,6H23a1,1,0,0,0,0-2H1A1,1,0,0,0,1,6Z" fill="#4d4d4d"/>
    <path id="Path_24270" data-name="Path 24270" d="M23,9H1a1,1,0,0,0,0,2H23a1,1,0,0,0,0-2Z" fill="#4d4d4d"/>
    <path id="Path_24271" data-name="Path 24271" d="M23,19H1a1,1,0,0,0,0,2H23a1,1,0,0,0,0-2Z" fill="#4d4d4d"/>
    <path id="Path_24272" data-name="Path 24272" d="M23,14H1a1,1,0,0,0,0,2H23a1,1,0,0,0,0-2Z" fill="#4d4d4d"/>
  </g>
</svg>
