<svg xmlns="http://www.w3.org/2000/svg" width="474.256" height="488.267" viewBox="0 0 474.256 488.267">
  <path id="noun-home-5446817" d="M175,318.06V439.68a85.341,85.341,0,0,0,85.312,85.312h179.38A85.341,85.341,0,0,0,525,439.68V318.06h9.625A52.488,52.488,0,0,0,570.89,227.6c-58.855-56.227-143.55-137.11-184.62-176.35a52.517,52.517,0,0,0-72.523,0c-41.07,39.234-125.77,120.12-184.62,176.35a52.488,52.488,0,0,0,36.261,90.457Zm35-17.5a17.506,17.506,0,0,0-17.5-17.5H165.375a17.494,17.494,0,0,1-12.094-30.152L337.9,76.578a17.523,17.523,0,0,1,24.188,0c41.07,39.238,125.77,120.12,184.62,176.33a17.494,17.494,0,0,1-12.094,30.152H507.49a17.506,17.506,0,0,0-17.5,17.5V439.68a50.329,50.329,0,0,1-50.312,50.312H260.3a50.329,50.329,0,0,1-50.312-50.312V300.56ZM297.5,455h105a17.5,17.5,0,0,0,0-35h-105a17.5,17.5,0,0,0,0,35Z" transform="translate(-112.881 -36.725)" fill-rule="evenodd"/>
</svg>
