<svg width="42" height="42" viewBox="0 0 42 42" fill="none" xmlns="http://www.w3.org/2000/svg">
<path d="M3.5 3.5H6.54501C8.43501 3.5 9.9225 5.1275 9.765 7L8.3125 24.43C8.0675 27.2825 10.325 29.7325 13.195 29.7325H31.8325C34.3525 29.7325 36.5575 27.6675 36.75 25.165L37.695 12.04C37.905 9.13501 35.7 6.77249 32.7775 6.77249H10.185" stroke="#686868" stroke-width="2" stroke-miterlimit="10" stroke-linecap="round" stroke-linejoin="round"/>
<path d="M28.4375 38.5C29.6456 38.5 30.625 37.5206 30.625 36.3125C30.625 35.1044 29.6456 34.125 28.4375 34.125C27.2294 34.125 26.25 35.1044 26.25 36.3125C26.25 37.5206 27.2294 38.5 28.4375 38.5Z" stroke="#686868" stroke-width="2" stroke-miterlimit="10" stroke-linecap="round" stroke-linejoin="round"/>
<path d="M14.4375 38.5C15.6456 38.5 16.625 37.5206 16.625 36.3125C16.625 35.1044 15.6456 34.125 14.4375 34.125C13.2294 34.125 12.25 35.1044 12.25 36.3125C12.25 37.5206 13.2294 38.5 14.4375 38.5Z" stroke="#686868" stroke-width="2" stroke-miterlimit="10" stroke-linecap="round" stroke-linejoin="round"/>
<path d="M15.75 14H36.75" stroke="#686868" stroke-width="2" stroke-miterlimit="10" stroke-linecap="round" stroke-linejoin="round"/>
</svg>
