<svg width="29" height="29" viewBox="0 0 29 29" fill="none" xmlns="http://www.w3.org/2000/svg">
<path d="M9.64868 2.41211V6.03035" stroke="#999999" stroke-width="0.75" stroke-miterlimit="10" stroke-linecap="round" stroke-linejoin="round"/>
<path d="M19.2974 2.41211V6.03035" stroke="#999999" stroke-width="0.75" stroke-miterlimit="10" stroke-linecap="round" stroke-linejoin="round"/>
<path d="M4.22119 10.9634H24.7246" stroke="#999999" stroke-width="0.75" stroke-miterlimit="10" stroke-linecap="round" stroke-linejoin="round"/>
<path d="M26.5339 22.9156C26.5339 23.8202 26.2806 24.6765 25.8344 25.4002C25.0022 26.7992 23.4705 27.74 21.7096 27.74C20.4914 27.74 19.3818 27.2937 18.5376 26.5339C18.1637 26.2203 17.8381 25.8343 17.5848 25.4002C17.1385 24.6765 16.8853 23.8202 16.8853 22.9156C16.8853 20.2502 19.0441 18.0913 21.7096 18.0913C23.1569 18.0913 24.4474 18.7305 25.3278 19.7316C26.0756 20.5879 26.5339 21.6975 26.5339 22.9156Z" stroke="#999999" stroke-width="0.75" stroke-miterlimit="10" stroke-linecap="round" stroke-linejoin="round"/>
<path d="M19.8281 22.9159L21.0221 24.1099L23.5911 21.7339" stroke="#999999" stroke-width="0.75" stroke-linecap="round" stroke-linejoin="round"/>
<path d="M25.3276 10.2516V19.7314C24.4472 18.7303 23.1567 18.0911 21.7094 18.0911C19.0439 18.0911 16.8851 20.25 16.8851 22.9154C16.8851 23.82 17.1383 24.6763 17.5846 25.4C17.8379 25.8342 18.1635 26.2201 18.5374 26.5337H9.64857C5.42729 26.5337 3.61816 24.1215 3.61816 20.5033V10.2516C3.61816 6.63335 5.42729 4.22119 9.64857 4.22119H19.2972C23.5185 4.22119 25.3276 6.63335 25.3276 10.2516Z" stroke="#999999" stroke-width="0.75" stroke-miterlimit="10" stroke-linecap="round" stroke-linejoin="round"/>
<path d="M14.4675 16.5235H14.4783" stroke="#999999" stroke-width="0.75" stroke-linecap="round" stroke-linejoin="round"/>
<path d="M10.0036 16.5235H10.0145" stroke="#999999" stroke-width="0.75" stroke-linecap="round" stroke-linejoin="round"/>
<path d="M10.0036 20.1416H10.0145" stroke="#999999" stroke-width="0.75" stroke-linecap="round" stroke-linejoin="round"/>
</svg>
