<svg width="20" height="29" viewBox="0 0 20 29" fill="none" xmlns="http://www.w3.org/2000/svg">
<path d="M19.2613 25.2597V28.0691C19.265 28.1338 19.2554 28.1986 19.2331 28.2594C19.2109 28.3203 19.1764 28.376 19.1319 28.4231C19.0874 28.4701 19.0337 28.5076 18.9742 28.5333C18.9147 28.5589 18.8506 28.5721 18.7858 28.5721C18.721 28.5721 18.6569 28.5589 18.5974 28.5333C18.5379 28.5076 18.4842 28.4701 18.4397 28.4231C18.3952 28.376 18.3608 28.3203 18.3385 28.2594C18.3163 28.1986 18.3067 28.1338 18.3103 28.0691V25.2597C18.3107 24.7397 18.2086 24.2247 18.0098 23.7443C17.811 23.2638 17.5194 22.8272 17.1517 22.4595C16.784 22.0918 16.3474 21.8002 15.867 21.6014C15.3865 21.4026 14.8715 21.3005 14.3515 21.3009C13.8463 21.3032 13.3492 21.1745 12.9086 20.9272C12.4681 20.6799 12.0992 20.3226 11.838 19.8902C11.78 19.7827 11.7654 19.6571 11.7973 19.5392C11.8292 19.4213 11.9052 19.3202 12.0095 19.2567C12.1139 19.1933 12.2386 19.1723 12.358 19.1982C12.4773 19.2241 12.5822 19.2949 12.6508 19.3959C12.8276 19.6884 13.0772 19.9301 13.3753 20.0973C13.6734 20.2645 14.0097 20.3516 14.3515 20.3499C14.9964 20.3495 15.635 20.4762 16.2309 20.7228C16.8268 20.9694 17.3682 21.3311 17.8242 21.7871C18.2802 22.243 18.6418 22.7845 18.8884 23.3803C19.135 23.9762 19.2617 24.6148 19.2613 25.2597ZM10.9606 20.4911C10.9875 20.6144 10.9642 20.7433 10.896 20.8495C10.8279 20.9557 10.7203 21.0305 10.5971 21.0575C9.99101 21.1893 9.36442 21.1958 8.75574 21.0767C8.14707 20.9576 7.56915 20.7154 7.05745 20.3649C6.78443 20.6629 6.45183 20.9003 6.08121 21.0615C5.71058 21.2228 5.3102 21.3043 4.90604 21.3009C4.38643 21.3011 3.87195 21.4037 3.39199 21.6027C2.91203 21.8018 2.476 22.0935 2.10879 22.4611C1.74158 22.8287 1.4504 23.2651 1.25187 23.7453C1.05334 24.2255 0.951366 24.7401 0.951761 25.2597V28.0691C0.955398 28.1338 0.945797 28.1986 0.923545 28.2594C0.901292 28.3203 0.866856 28.376 0.822344 28.4231C0.777832 28.4701 0.724181 28.5076 0.664673 28.5333C0.605164 28.5589 0.541051 28.5721 0.476256 28.5721C0.411462 28.5721 0.347348 28.5589 0.28784 28.5333C0.228332 28.5076 0.17468 28.4701 0.130168 28.4231C0.0856556 28.376 0.0512197 28.3203 0.0289671 28.2594C0.00671449 28.1986 -0.00288656 28.1338 0.00075123 28.0691V25.2597C0.000356207 24.6148 0.127082 23.9762 0.373682 23.3803C0.620283 22.7845 0.98192 22.243 1.43792 21.7871C1.89391 21.3311 2.43532 20.9694 3.03118 20.7228C3.62704 20.4762 4.26567 20.3495 4.91054 20.3499C5.17135 20.3505 5.42972 20.2996 5.67085 20.2002C5.91197 20.1008 6.13113 19.9548 6.31576 19.7706C6.50039 19.5864 6.64687 19.3676 6.74681 19.1267C6.84676 18.8858 6.8982 18.6276 6.8982 18.3667V18.242C5.84867 17.7419 4.95594 16.9642 4.31668 15.9931C3.67741 15.022 3.31595 13.8946 3.27144 12.7328C2.84808 12.6321 2.47084 12.392 2.20029 12.0512C1.92974 11.7104 1.78157 11.2885 1.77957 10.8533V8.3864C1.72824 7.2236 1.91038 6.06231 2.31525 4.97106C2.72011 3.87982 3.33949 2.88074 4.13682 2.03281C6.85914 -0.591855 11.2236 -0.42509 14.4342 1.11936C14.5055 1.1539 14.5671 1.2057 14.6134 1.27007C14.6596 1.33443 14.6891 1.40933 14.6991 1.48796C14.7091 1.56659 14.6993 1.64647 14.6706 1.72037C14.6419 1.79426 14.5953 1.85982 14.5348 1.91112C16.1629 2.30452 17.5728 3.31866 18.4636 4.7371C18.5467 4.84314 18.586 4.97705 18.5732 5.1112C18.5646 5.22435 18.5161 5.33079 18.4365 5.41167C17.8577 5.9948 17.5336 6.78354 17.5351 7.60516V10.8503C17.5283 10.9718 17.4752 11.0861 17.3868 11.1697C17.2983 11.2532 17.1813 11.2998 17.0596 11.2998C16.9379 11.2998 16.8208 11.2532 16.7324 11.1697C16.644 11.0861 16.5909 10.9718 16.5841 10.8503V7.60816C16.5821 6.66509 16.9089 5.75082 17.508 5.02256C17.0566 4.37642 16.4715 3.83497 15.7923 3.43498C15.1131 3.03499 14.3558 2.78581 13.5718 2.70438L12.735 2.61423C12.6298 2.60278 12.5315 2.55667 12.4555 2.48316C12.3795 2.40965 12.3301 2.31293 12.3151 2.20824C12.3001 2.10355 12.3204 1.99686 12.3727 1.90498C12.4251 1.8131 12.5066 1.74126 12.6043 1.70078L12.9844 1.55055C8.02649 -0.175695 2.73659 1.74285 2.73659 8.38489V10.8533C2.73772 11.032 2.78755 11.207 2.88073 11.3595C2.97392 11.512 3.10692 11.6362 3.26543 11.7187V8.6403C3.26623 7.75716 3.61741 6.91043 4.24188 6.28596C4.86635 5.66148 5.71309 5.31031 6.59622 5.30951H12.6613C13.544 5.3107 14.3901 5.66185 15.0142 6.28595C15.6383 6.91006 15.9894 7.75618 15.9906 8.6388V12.5345C15.9832 13.5196 15.7473 14.4896 15.3017 15.3682C14.8561 16.2468 14.2128 17.0102 13.4224 17.5982C12.632 18.1862 11.716 18.583 10.7464 18.7573C9.77673 18.9315 8.7799 18.8786 7.83419 18.6026C7.808 18.9386 7.72361 19.2675 7.58479 19.5747C7.9902 19.8538 8.44849 20.047 8.93141 20.1424C9.41432 20.2377 9.91165 20.2332 10.3927 20.129C10.5161 20.1022 10.645 20.1255 10.7512 20.1936C10.8574 20.2618 10.9322 20.3693 10.9591 20.4926L10.9606 20.4911ZM9.62954 17.9085C11.0632 17.9061 12.4376 17.3355 13.4513 16.3217C14.4651 15.308 15.0357 13.9336 15.0381 12.4999V8.6388C15.0373 8.00828 14.7865 7.40382 14.3407 6.95798C13.8948 6.51214 13.2904 6.26132 12.6598 6.26052H6.59622C5.96545 6.26132 5.36076 6.51235 4.91487 6.95851C4.46899 7.40468 4.21834 8.00953 4.21795 8.6403V12.4984C4.22033 13.9321 4.79093 15.3064 5.80472 16.3202C6.81851 17.334 8.19282 17.9046 9.62653 17.907L9.62954 17.9085ZM14.4462 26.107H13.0189C12.9542 26.1034 12.8895 26.113 12.8286 26.1352C12.7678 26.1575 12.7121 26.1919 12.665 26.2364C12.6179 26.281 12.5804 26.3346 12.5548 26.3941C12.5291 26.4536 12.5159 26.5177 12.5159 26.5825C12.5159 26.6473 12.5291 26.7114 12.5548 26.7709C12.5804 26.8305 12.6179 26.8841 12.665 26.9286C12.7121 26.9731 12.7678 27.0076 12.8286 27.0298C12.8895 27.0521 12.9542 27.0617 13.0189 27.058H14.4462C14.5109 27.0617 14.5756 27.0521 14.6365 27.0298C14.6973 27.0076 14.753 26.9731 14.8001 26.9286C14.8472 26.8841 14.8847 26.8305 14.9103 26.7709C14.936 26.7114 14.9492 26.6473 14.9492 26.5825C14.9492 26.5177 14.936 26.4536 14.9103 26.3941C14.8847 26.3346 14.8472 26.281 14.8001 26.2364C14.753 26.1919 14.6973 26.1575 14.6365 26.1352C14.5756 26.113 14.5109 26.1034 14.4462 26.107Z" fill="#999999"/>
</svg>
