<svg width="26" height="26" viewBox="0 0 26 26" fill="none" xmlns="http://www.w3.org/2000/svg">
<g clip-path="url(#clip0_1_21635)">
<path d="M12.7701 0C10.2689 0.00300404 7.87092 0.997947 6.10228 2.76659C4.33364 4.53523 3.3387 6.93316 3.33569 9.43439C3.39209 10.6821 3.66279 11.9109 4.13596 13.0668C4.44743 13.7732 4.8122 14.4548 5.22711 15.1058L11.696 24.9077C11.8026 25.0992 11.9585 25.2588 12.1474 25.3698C12.3364 25.4809 12.5516 25.5395 12.7708 25.5395C12.99 25.5395 13.2052 25.4809 13.3942 25.3698C13.5831 25.2588 13.739 25.0992 13.8456 24.9077L20.3145 15.1058C20.7296 14.4549 21.0944 13.7733 21.4056 13.0668C21.8789 11.9109 22.1496 10.6822 22.2059 9.43439C22.2029 6.93291 21.2078 4.53477 19.4388 2.76609C17.6699 0.997405 15.2716 0.00262857 12.7701 0V0ZM20.3812 12.6369C20.0975 13.2807 19.7654 13.902 19.3879 14.4957L12.912 24.2976C12.7843 24.492 12.7431 24.492 12.6168 24.2976L6.15367 14.4957C5.77612 13.9016 5.44409 13.2797 5.16042 12.6355C4.74732 11.6154 4.50754 10.5335 4.45096 9.43439C4.45096 7.22652 5.32804 5.10907 6.88924 3.54787C8.45044 1.98667 10.5679 1.10959 12.7758 1.10959C14.9836 1.10959 17.1011 1.98667 18.6623 3.54787C20.2235 5.10907 21.1006 7.22652 21.1006 9.43439C21.0408 10.5345 20.7977 11.6169 20.3812 12.6369Z" fill="#999999"/>
<path d="M12.77 4.43994C11.7821 4.43994 10.8165 4.73287 9.99514 5.28168C9.17378 5.8305 8.53361 6.61054 8.15558 7.52319C7.77755 8.43583 7.67865 9.44008 7.87136 10.4089C8.06408 11.3778 8.53977 12.2677 9.23828 12.9662C9.93678 13.6648 10.8267 14.1404 11.7956 14.3332C12.7644 14.5259 13.7687 14.427 14.6813 14.0489C15.594 13.6709 16.374 13.0307 16.9228 12.2094C17.4717 11.388 17.7646 10.4224 17.7646 9.43454C17.7631 8.11035 17.2364 6.84083 16.3 5.90448C15.3637 4.96814 14.0942 4.44144 12.77 4.43994ZM12.77 13.321C12.0016 13.321 11.2505 13.0931 10.6116 12.6662C9.97271 12.2393 9.47476 11.6326 9.18072 10.9227C8.88667 10.2128 8.80973 9.43165 8.95964 8.67803C9.10954 7.92441 9.47955 7.23217 10.0229 6.68885C10.5662 6.14552 11.2584 5.77551 12.0121 5.6256C12.7657 5.4757 13.5468 5.55264 14.2567 5.84668C14.9666 6.14073 15.5734 6.63868 16.0002 7.27756C16.4271 7.91645 16.655 8.66757 16.655 9.43596C16.6539 10.466 16.2442 11.4535 15.5159 12.1818C14.7875 12.9102 13.8 13.3198 12.77 13.321Z" fill="#999999"/>
</g>
<defs>
<clipPath id="clip0_1_21635">
<rect width="25.5405" height="25.5405" fill="white"/>
</clipPath>
</defs>
</svg>
