<svg width="26" height="28" viewBox="0 0 26 28" fill="none" xmlns="http://www.w3.org/2000/svg">
<path d="M11.9058 18.9598C11.8537 19.0153 11.8183 19.0861 11.804 19.1632C11.7897 19.2402 11.7971 19.32 11.8253 19.3926C11.8535 19.4651 11.9012 19.5271 11.9624 19.5707C12.0236 19.6143 12.0956 19.6376 12.1692 19.6376C12.2429 19.6376 12.3148 19.6143 12.376 19.5707C12.4373 19.5271 12.485 19.4651 12.5132 19.3926C12.5414 19.32 12.5488 19.2402 12.5345 19.1632C12.5201 19.0861 12.4847 19.0153 12.4327 18.9598C12.3981 18.9228 12.357 18.8935 12.3118 18.8735C12.2666 18.8536 12.2182 18.8433 12.1692 18.8433C12.1203 18.8433 12.0718 18.8536 12.0266 18.8735C11.9814 18.8935 11.9403 18.9228 11.9058 18.9598Z" fill="#999999"/>
<path d="M21.4526 18.266L18.6297 15.7023C18.6165 15.6903 18.6026 15.6793 18.588 15.6693C18.2315 15.4247 17.807 15.3181 17.3856 15.3675C16.9642 15.4168 16.5715 15.619 16.2732 15.9403L14.7274 17.5849C14.6756 17.6401 14.6097 17.6777 14.5379 17.693C14.4662 17.7083 14.3918 17.7006 14.3241 17.6709C12.6441 16.9509 11.1765 15.7623 10.0749 14.2297C9.5821 13.567 9.19099 12.8251 8.91621 12.0316C8.91189 12.0056 8.90513 11.9801 8.89604 11.9556C8.86822 11.8834 8.86103 11.8041 8.87538 11.7275C8.88973 11.651 8.92498 11.5807 8.9767 11.5254L10.5091 9.87938C10.8103 9.56119 10.9999 9.1423 11.0462 8.69283C11.0924 8.24336 10.9925 7.79058 10.7632 7.41028L10.7511 7.39164L8.71457 4.36477C8.5639 4.11585 8.36292 3.90605 8.12636 3.75074C7.8898 3.59543 7.62366 3.49855 7.34744 3.4672C7.07122 3.43585 6.79193 3.47083 6.53003 3.56957C6.26813 3.66832 6.03027 3.82832 5.83387 4.03785L5.52469 4.36764L4.42242 5.5434C3.11582 6.94428 2.89536 9.04774 3.80138 11.6287C4.80566 14.199 6.29715 16.5203 8.18225 18.4467C10.0328 20.5075 12.2699 22.1291 14.7475 23.2056C16.8633 24.0301 19.1136 24.1319 20.7065 22.4328L21.7456 21.3244C21.9409 21.1158 22.0902 20.8635 22.1827 20.5857C22.2752 20.308 22.3086 20.0117 22.2804 19.7185C22.2522 19.4252 22.1632 19.1424 22.0198 18.8904C21.8764 18.6384 21.6821 18.4236 21.4512 18.2617L21.4526 18.266ZM18.1646 16.326L20.9875 18.8869C21.0006 18.8989 21.0145 18.9099 21.0291 18.9198C21.1703 19.0157 21.2895 19.1441 21.3778 19.2957C21.4662 19.4472 21.5215 19.618 21.5397 19.7954C21.5579 19.9729 21.5385 20.1524 21.483 20.3207C21.4274 20.4891 21.3371 20.642 21.2187 20.7681L21.1421 20.8498L16.3257 17.0028L16.7961 16.5024C16.9722 16.3128 17.2032 16.1923 17.4516 16.1602C17.7 16.1282 17.9512 16.1866 18.1646 16.326ZM8.0895 4.8021L8.1016 4.82074L10.1448 7.84474C10.2796 8.07267 10.3374 8.34278 10.3088 8.61051C10.2802 8.87823 10.1669 9.12755 9.98757 9.31731L9.53187 9.80338L6.27343 4.69169L6.36081 4.60279C6.47885 4.47717 6.62176 4.38133 6.77906 4.3223C6.93635 4.26328 7.10404 4.24256 7.26982 4.26167C7.4356 4.28079 7.59526 4.33925 7.7371 4.43276C7.87894 4.52628 7.99935 4.65247 8.0895 4.8021ZM15.0029 22.4643C12.6271 21.4274 10.4827 19.8684 8.70919 17.8889C6.89922 16.0431 5.46593 13.8187 4.49904 11.3548C3.94252 9.76467 3.57017 7.57517 4.94936 6.10404L5.73708 5.2638L8.99686 10.3755L8.44707 10.9619C8.29441 11.1238 8.18903 11.3294 8.14369 11.5539C8.09836 11.7784 8.11503 12.012 8.19166 12.2266C8.47868 13.0777 8.88672 13.8766 9.40148 14.5953C10.5946 16.2924 12.1996 17.6097 14.0431 18.4051C14.247 18.4957 14.4716 18.5195 14.6882 18.4735C14.9049 18.4276 15.1038 18.3139 15.2597 18.147L15.7974 17.5734L20.6138 21.4205L20.1836 21.8793C18.705 23.4566 16.5542 23.0708 15.007 22.4686L15.0029 22.4643Z" fill="#999999"/>
<path d="M11.2068 18.0077C10.813 17.6392 10.1314 17.004 9.7752 16.614C8.92418 15.6864 8.13921 14.6923 7.42681 13.6402C7.40011 13.5946 7.36502 13.5553 7.32367 13.5247C7.28232 13.494 7.23557 13.4726 7.18625 13.4618C7.13693 13.4509 7.08606 13.4509 7.03671 13.4616C6.98737 13.4724 6.94058 13.4937 6.89918 13.5242C6.85777 13.5548 6.82261 13.594 6.79582 13.6395C6.76904 13.685 6.75117 13.7358 6.74332 13.7889C6.73547 13.8419 6.73779 13.8961 6.75014 13.9482C6.76249 14.0003 6.78462 14.0491 6.81518 14.0918C7.54881 15.1794 8.3576 16.207 9.23481 17.166C9.61254 17.5804 10.2995 18.2199 10.7135 18.5999C10.7498 18.6371 10.7927 18.666 10.8398 18.685C10.8869 18.704 10.9371 18.7126 10.9873 18.7104C11.0376 18.7081 11.0869 18.695 11.1323 18.6718C11.1777 18.6486 11.2182 18.6158 11.2514 18.5755C11.2846 18.5351 11.3098 18.488 11.3254 18.437C11.3411 18.386 11.3469 18.3321 11.3424 18.2787C11.338 18.2252 11.3235 18.1732 11.2997 18.1259C11.2759 18.0786 11.2434 18.0369 11.2041 18.0034L11.2068 18.0077Z" fill="#999999"/>
</svg>
