<svg width="26" height="26" viewBox="0 0 26 26" fill="none" xmlns="http://www.w3.org/2000/svg">
<path d="M0.869862 13.2568L5.4104 17.8357C5.51954 17.9456 5.66785 18.0076 5.82272 18.0081C5.97759 18.0087 6.12633 17.9476 6.23621 17.8385C6.3461 17.7294 6.40813 17.5811 6.40866 17.4262C6.4092 17.2713 6.34818 17.1226 6.23905 17.0127L2.61229 13.3547H22.9497L19.2605 17.0113C19.1506 17.1204 19.0886 17.2687 19.088 17.4236C19.0875 17.5785 19.1485 17.7272 19.2576 17.8371C19.3668 17.947 19.5151 18.009 19.6699 18.0095C19.8248 18.0101 19.9736 17.9491 20.0834 17.8399L24.7545 13.2029C24.8639 13.0933 24.9253 12.9448 24.9253 12.79C24.9253 12.6352 24.8639 12.4867 24.7545 12.3771L20.1246 7.70175C20.0155 7.59186 19.8671 7.52983 19.7123 7.5293C19.5574 7.52877 19.4087 7.58978 19.2988 7.69891C19.1889 7.80805 19.1269 7.95636 19.1263 8.11123C19.1258 8.2661 19.1868 8.41484 19.2959 8.52472L22.9284 12.1841H2.59243L6.28162 8.52756C6.3915 8.41843 6.45354 8.27011 6.45407 8.11524C6.4546 7.96037 6.39359 7.81164 6.28446 7.70175C6.17532 7.59186 6.02701 7.52983 5.87214 7.5293C5.71727 7.52877 5.56853 7.58978 5.45865 7.69891L0.781889 12.3388C0.758844 12.3668 0.738866 12.3973 0.722294 12.4296L0.699591 12.4636C0.649766 12.5449 0.62009 12.6368 0.613037 12.7318C0.613037 12.7403 0.613037 12.7488 0.613037 12.7574C0.613037 12.7659 0.613037 12.7659 0.613037 12.7701C0.612949 12.8665 0.63675 12.9614 0.682311 13.0463C0.727872 13.1313 0.793772 13.2036 0.874118 13.2568H0.869862Z" fill="#999999"/>
</svg>
