<svg width="145" height="78" viewBox="0 0 145 78" fill="none" xmlns="http://www.w3.org/2000/svg">
<path d="M4.65663 43.6016C6.05585 42.4235 7.88045 42.6859 9.28527 41.5133C9.73302 40.9382 10.2144 40.4245 10.7964 40.0615C11.608 39.5478 12.2404 38.6824 13.1863 38.2357C12.5539 38.2692 11.9886 38.3641 11.4737 38.0514C10.8692 37.6941 10.3935 37.1524 10.511 36.2926C10.6733 35.1311 11.4793 35.0977 12.218 35.1814C14.093 35.3936 15.9232 36.2926 17.8373 35.4606C17.9996 35.321 18.0892 35.1368 18.0388 34.919C17.815 33.9251 16.0687 34.1764 16.5948 32.7916C16.9866 31.753 18.2011 32.2053 19.0183 31.8647C19.203 31.6972 19.3821 31.5185 19.5276 31.3007C19.5948 31.0941 19.6339 30.8876 19.6731 30.6754C20.5686 25.315 19.7067 26.3592 16.3038 26.6496C15.4363 26.845 14.5464 26.8003 13.69 27.0851C13.1919 27.2135 12.6938 27.314 12.2013 27.4368C11.1155 27.8668 10.2367 29.0338 8.97184 28.816C8.28902 28.6429 7.66216 28.1683 7.9532 27.314C8.5017 25.7003 8.18827 24.5668 7.33754 23.2714C6.62114 22.1714 7.2424 21.2278 8.33939 20.9486C9.39161 20.6806 10.4382 20.4014 11.5576 19.938C11.0539 19.7705 10.6397 19.7816 10.2591 19.6141C7.70134 19.4354 5.7928 16.9563 3.15106 16.9786C2.52421 16.9842 2.07085 16.1969 2.09324 15.3314C2.11003 14.5553 2.61935 14.2258 3.15665 13.9969C3.82828 13.7177 4.53909 13.5502 5.19393 13.0533C4.71259 12.3441 3.9906 12.4279 3.50926 11.9868C3.29098 11.8305 3.09509 11.6406 2.92159 11.4228C2.36749 10.0269 0.856328 9.71425 0.386188 8.22341C0.162312 7.6427 0 7.04523 0 6.39194C0.061566 6.05692 0.201489 5.77773 0.419768 5.54321C4.04097 3.41583 7.88044 2.52802 11.8375 2.33259C14.7422 1.10977 17.7142 0.925533 20.7197 1.10421C21.9175 1.19355 23.1152 1.37219 24.3074 0.931084C24.6208 0.852912 24.9342 0.819427 25.2476 0.808259C29.1039 0.758006 32.9154 1.74631 36.7941 1.14886C38.8929 0.858504 40.9637 1.29964 43.0514 1.3108C43.7062 1.36106 44.3275 1.08185 44.9711 1.00367C51.3684 1.34428 57.788 0.769167 64.1909 1.11535C64.6946 0.98693 65.1983 0.970179 65.7077 0.975763C69.9669 1.18236 74.2094 1.55088 78.463 1.81332C80.1029 2.16509 81.9051 1.60115 83.3771 2.91332C83.1868 5.05745 81.7652 4.1082 80.9369 4.18079C78.8828 4.36505 76.8455 3.70062 74.7691 4.06914C74.1478 4.38183 73.4986 4.38741 72.8493 4.34274C71.5956 4.26457 70.3419 4.16963 69.0882 4.08588C67.1908 3.95745 65.2935 3.69503 64.1237 3.95746C68.7356 4.08589 74.0862 4.30364 79.4481 4.15847C82.9126 4.57724 86.2315 2.91888 89.6568 2.85187C92.528 2.63969 95.3657 3.14225 98.2201 3.226C98.8414 3.27626 99.4626 3.15899 100.078 3.04732C100.867 3.04732 101.662 2.99708 102.39 3.43819C105.53 4.43767 108.804 4.0412 112 4.46556C114.132 4.66658 116.242 5.19703 118.414 4.91784C121.324 5.11885 118.806 5.93966 121.716 6.14626C122.304 6.19093 122.902 6.22444 123.485 6.33053C123.899 6.41428 124.246 6.66556 124.604 6.89449C125.091 7.07875 125.628 7.10106 126.081 7.4305C126.501 7.75994 127.027 7.83252 127.436 8.19546C128.007 8.26805 126.809 9.61373 128.029 9.32896C129.165 9.06095 130.324 9.60815 131.483 9.25637C131.885 9.16704 132.277 9.19496 132.635 9.43506C132.871 9.89292 132.859 10.3619 132.658 10.8421C132.468 11.0822 132.238 11.2553 131.975 11.3614C131.247 11.501 130.52 11.3223 130.385 11.3391C132.272 10.764 133.52 12.3665 133.973 14.9406C134.236 16.4202 134.757 16.7329 135.938 16.7385C137.309 16.7385 138.675 16.5487 140.04 16.5989C141.064 16.638 142.279 16.8167 142.357 18.2796C142.43 19.7146 141.227 20.2116 140.258 20.4852C138.652 20.943 136.995 21.01 135.641 21.0268C137.997 21.3004 140.824 20.2953 143.577 22.4562C140.533 24.1704 137.678 23.4445 134.88 23.5283L133.828 23.5785C133.038 24.0252 132.182 23.478 131.393 23.8689C130.531 24.2151 129.496 24.7511 128.863 23.8242C127.576 21.9536 126.02 22.5902 123.809 22.7354C125.298 23.3719 127.072 22.4339 126.636 24.9019C126.451 25.142 126.227 25.3262 125.975 25.4491C124.514 25.9125 123.042 25.3597 121.587 25.6333C121.346 25.7171 121.095 25.7729 120.848 25.812C120.675 25.8455 120.49 25.8343 120.311 25.8622C119.998 25.9181 119.986 25.9795 120.25 26.0856C121.083 26.4206 122.08 26.3983 122.555 27.5318C122.494 27.9952 122.236 28.2409 121.895 28.3972C121.498 28.548 121.078 28.5927 120.703 28.8607C120.552 29.0505 120.417 29.246 120.311 29.4693C120.087 30.1561 119.975 30.8541 119.936 31.5632C119.964 32.3784 120.417 32.8084 120.999 32.7134C123.641 32.2779 126.277 33.0205 128.914 32.4007C131.348 31.8759 130.486 32.9033 132.887 32.4007C134.852 31.9931 135.54 34.489 137.231 34.3662C139.413 34.9134 141.591 35.4773 143.846 35.4271C144.915 35.7621 144.77 36.2367 143.868 36.6387C143.628 36.7448 143.146 36.9961 142.967 36.3875C142.945 36.8732 143.264 36.7002 143.454 36.7281C143.913 36.7951 144.434 36.8732 144.339 37.5768C144.266 38.1184 143.779 38.3809 143.37 38.6321C142.145 39.3692 140.633 38.5874 139.508 39.8103C139.307 40.0001 139.094 40.1621 138.876 40.3128C138.434 40.6032 137.969 40.8265 137.494 41.0164C136.895 41.2285 136.29 41.4184 135.68 41.6194C135.423 41.6752 135.165 41.6976 134.908 41.6976C134.645 41.692 134.382 41.6752 134.119 41.6585C132.736 41.4575 134.622 40.9829 133.329 40.2402C134.885 41.1392 133.307 41.4184 134.953 41.7534C135.232 41.7869 135.501 41.8595 135.764 41.9711C136.598 42.63 137.494 43.0767 138.518 43.1382C139.133 43.328 139.945 43.4843 139.951 44.3219C139.951 45.2097 139.105 45.3381 138.495 45.528C136.24 46.2259 137.303 45.26 135.065 45.0254C131.488 44.6513 128.119 46.5442 124.593 46.4437C121.274 46.5665 123.406 45.1762 119.483 46.2539C124.721 45.1315 123.899 46.9072 128.55 46.3655C129.781 45.8407 130.884 44.7965 132.322 45.165C133.212 45.394 134.124 45.4219 134.046 46.9295C132.82 50.5868 132.826 50.57 135.781 51.9771C136.676 52.4071 137.712 52.6137 138.367 53.8197C137.091 55.3218 135.423 54.9197 134.001 55.4613C133.246 55.6903 132.473 55.8522 131.684 56.0867C133.359 56.5446 133.949 57.3188 133.453 58.4095C126.149 58.6775 124.324 57.4938 117.059 56.9745C113.791 56.7456 110.539 56.1928 107.237 56.6619C110.349 56.2152 113.416 56.7958 116.505 56.9187C119.751 57.1588 117.563 57.9684 120.798 58.2364C121.083 58.2643 121.363 58.3425 121.632 58.4598C122.124 60.3973 121.134 63.5242 119.83 64.6521C119.102 65.2775 117.216 65.0597 118.403 67.4774C118.856 68.3988 117.345 68.5607 116.612 68.5774C114.63 68.6277 118.084 67.5612 116.097 68.2089C112.649 68.5774 109.252 67.4551 105.798 68.0637C103.918 68.3206 102.06 67.9632 100.19 67.9185C99.2835 67.7734 98.3712 68.1028 97.4645 68.047C96.8377 68.0079 95.931 67.9241 96.0149 66.9972C96.2444 64.4846 94.8843 64.9369 93.7594 65.2272C91.6661 65.7688 89.5841 64.9704 87.127 65.512C88.8061 66.2044 90.1717 65.7967 91.5262 65.7409C92.903 65.6906 95.1698 65.0429 95.1586 67.0084C95.153 68.7784 92.8303 68.5774 91.4255 68.5272C86.9535 68.3764 82.4424 69.0632 77.9985 68.0916C79.1738 68.5327 81.2615 67.3546 81.3398 69.3926C81.4126 71.252 79.4145 70.8444 78.2 71.0231C77.7354 71.0901 77.3268 71.3413 76.8903 71.5423C72.7094 72.9885 68.4501 72.4134 64.2245 72.6089C63.0547 72.6647 61.8906 72.3185 60.7208 72.6814C60.2787 72.7987 59.8309 72.8434 59.3776 72.8545C58.2414 72.8713 57.0996 72.6256 55.9691 73.0835C53.7751 74.0159 51.5027 73.7367 49.2584 73.8931C48.4524 74.2225 47.2659 73.5971 47.0308 75.3392C46.958 75.8697 46.4375 75.6296 46.1129 75.6519C44.2883 75.7915 42.4637 76.0428 40.6503 76.1824C38.8873 76.322 37.7791 75.6966 36.0441 75.2387C34.4489 74.82 32.7643 75.0657 31.1188 75.222C28.8017 75.4398 26.4734 75.4733 24.1506 75.3225C23.9044 75.3058 23.6525 75.2834 23.4454 75.1494C23.2439 75.0154 23.1264 74.7195 23.2551 74.5185C24.2626 74.2002 25.27 74.0941 26.2831 73.8037C26.6693 73.6976 27.0554 73.6362 27.4472 73.6083C29.0815 73.6809 30.5479 72.7205 31.6337 72.5921C29.6188 73.2733 27.089 72.1063 24.5872 72.7931C23.6749 72.9829 22.7458 72.9606 21.8503 73.2621C19.2645 73.9545 16.5948 73.8875 14.149 74.4347C14.2385 74.2616 14.6135 74.2839 14.9661 74.2225C16.1751 74.4235 17.6135 73.6251 18.4866 75.2722C18.5425 75.9479 18.1004 76.0596 17.7198 76.2382C17.0818 76.3276 16.4269 76.2773 15.8169 76.6179C15.5818 76.7073 15.3355 76.7687 15.0893 76.8022C13.6229 77.0255 12.4979 77.3773 11.1267 76.3722C10.7796 76.121 10.3767 75.7915 9.97928 75.9479C9.81138 76.0149 9.69384 76.1545 9.55392 76.2662C9.05579 76.6794 8.27782 76.7128 7.74052 76.3499C7.6062 76.2606 7.48866 76.1433 7.43829 75.987C7.39911 75.8586 7.4215 75.7245 7.43829 75.5961C7.595 74.5296 8.06514 73.117 7.7797 72.084C7.47747 70.9896 6.46443 69.7444 5.7872 68.8454C5.69765 68.7282 5.6025 68.6053 5.6025 68.4546C5.6025 68.3094 5.68645 68.181 5.77041 68.0581C6.53159 66.9805 7.29837 65.9028 8.05954 64.8252C8.23865 64.5739 8.42334 64.3171 8.6752 64.1328C9.52034 63.5242 10.9196 63.848 11.8878 63.8034C12.7162 63.7643 13.5445 63.7308 14.3729 63.6917C15.4251 63.647 16.4885 63.5968 17.5015 63.312C18.2011 63.1166 18.8616 62.8095 19.5444 62.5582C20.2216 62.3125 21.397 62.1953 21.9399 61.7262C22.1414 61.5531 22.1973 61.2851 22.4212 61.0953C22.7346 60.8272 23.1936 60.6932 23.5686 60.5425C23.7589 60.4476 23.9548 60.3582 24.1339 60.2577C23.5182 59.2862 22.785 60.0344 22.1078 60.0902C20.8317 60.3861 19.6563 61.1399 18.3634 61.38C17.3448 61.4303 16.1807 62.2511 15.4587 60.71C15.4978 60.3862 15.6266 60.1126 15.8392 59.8948C16.9194 59.0684 18.0556 58.3704 19.2645 57.8176C18.1172 57.41 16.9754 57.1923 15.7889 57.6055C15.274 57.7339 14.759 57.7841 14.2385 57.8232C13.5893 57.8232 12.9121 58.0354 12.3468 57.4938C11.7927 56.2989 10.7852 56.204 9.80578 56.0755C6.76106 55.6791 4.27044 54.4395 3.58202 50.4025C2.79286 49.4031 0.845135 49.5147 1.4496 47.1863C2.13242 45.5001 3.55963 44.7742 4.63983 43.6016H4.65663Z" fill="#E1F8D4"/>
<path d="M110.416 43.4456C110.332 42.3936 110.214 41.3528 109.955 40.3345C109.803 39.7438 109.466 39.2937 108.841 39.1925C108.087 39.0687 107.603 39.5357 107.317 40.1432C107.08 40.6496 106.911 41.2065 106.816 41.7578C106.602 43.0293 106.45 44.3176 106.276 45.5946C105.938 48.1038 104.519 49.3227 102.017 49.2514C100.234 49.2008 100.245 49.2008 100.262 47.3218C100.29 44.7339 100.318 42.146 100.307 39.5638C100.307 38.9281 100.183 38.2811 100.031 37.6566C99.9355 37.2572 99.6035 36.9478 99.1591 36.9253C98.7147 36.9084 98.3827 37.1841 98.2421 37.5779C98.0227 38.1798 97.8258 38.7987 97.7133 39.4288C96.5656 45.7972 96.1324 52.2556 95.311 58.6634C95.2379 59.2147 95.2717 59.7998 95.3673 60.3511C95.5023 61.1106 95.9243 61.7182 96.74 61.8645C97.6739 62.0276 98.3265 61.5382 98.6696 60.7393C98.9509 60.0811 99.0803 59.3554 99.2435 58.6465C99.5866 57.1669 99.086 55.2204 100.16 54.2865C101.235 53.3526 103.114 54.1346 104.627 53.8927C104.689 53.8815 104.768 53.9433 105.038 54.039C105.224 55.8449 104.757 57.5101 104.689 59.1922C104.644 60.323 104.554 61.4707 105.111 62.5171C105.966 64.1317 107.834 64.216 108.802 62.6746C109.19 62.0501 109.353 61.3356 109.415 60.5986C109.516 59.4735 109.651 58.3483 109.769 57.2232C110.259 52.6438 110.776 48.0644 110.405 43.44L110.416 43.4456Z" fill="#6AB04C"/>
<path d="M55.1952 53.679C54.5595 53.0545 54.4526 52.6045 55.0433 51.8618C56.7423 49.7184 56.8267 47.2487 56.1966 44.7227C55.3977 41.5329 52.8324 40.5933 50.0813 42.4217C48.5961 43.4063 47.7635 44.8465 47.2178 46.5004C45.9745 50.2922 45.4851 54.2022 45.3838 58.174C45.4007 59.7886 45.3613 61.4088 45.7382 62.9953C45.952 63.8954 45.8113 65.2625 47.0772 65.2344C48.3148 65.2006 48.2136 63.8729 48.3036 62.9447C48.5061 60.8575 48.6186 58.7591 48.838 56.6719C49.0124 55.0123 49.6425 54.7254 51.049 55.648C52.4386 56.565 53.3612 57.8983 54.0532 59.3723C54.7001 60.7619 55.2064 62.2133 55.8253 63.6142C56.6748 65.5269 57.8337 66.2414 59.0826 65.6957C60.1684 65.2175 60.5397 63.8842 59.8815 62.0671C58.7788 59.0291 57.5749 56.0137 55.2064 53.679H55.1952ZM49.9463 51.1023C50.1939 47.5862 50.8183 46.2642 52.7311 45.0321C54.1319 47.89 53.2655 49.8984 49.9463 51.1023Z" fill="#6AB04C"/>
<path opacity="0.8" d="M60.9227 30.9627L61.0491 30.9944C61.5571 31.1631 61.8696 31.5089 61.9784 31.8947C62.096 32.3116 61.9852 32.8085 61.5659 33.2329L61.565 33.2338C61.358 33.4461 61.0989 33.6347 60.8505 33.7111C60.3678 33.8584 59.8869 34.0089 59.4069 34.1591C56.9606 34.9247 54.5362 35.6834 51.9972 35.9821L51.9968 35.9821C51.4546 36.0469 50.9704 35.9967 50.582 35.8022C50.1998 35.6108 49.8896 35.2694 49.7073 34.707L49.7072 34.7067C49.5616 34.26 49.6321 33.8502 49.8932 33.468C50.1601 33.0772 50.6313 32.7096 51.2933 32.3826C51.4806 32.2902 51.6985 32.2374 51.9399 32.1976C52.0514 32.1791 52.1645 32.1639 52.2807 32.1483L52.3086 32.1446C52.4333 32.1278 52.5614 32.1103 52.687 32.088C53.1865 31.9994 53.7076 31.826 53.9696 31.2387C54.219 30.6848 54.256 30.091 54.2294 29.5093C54.2162 29.219 54.1867 28.9264 54.158 28.6412L54.1577 28.6385C54.1287 28.3504 54.1005 28.0697 54.0881 27.7949L54.0881 27.7943C53.9256 24.4273 53.7486 21.0639 53.5717 17.7017C53.5281 16.8729 53.4845 16.0443 53.4411 15.2156C53.4326 14.9942 53.3911 14.7684 53.347 14.5283C53.3285 14.428 53.3096 14.3253 53.2925 14.2194L53.2533 13.9771L53.0239 14.0644C52.5873 14.2306 52.3487 14.5371 52.1615 14.8175C52.1288 14.8665 52.0981 14.9137 52.0686 14.959C51.9215 15.1852 51.805 15.3642 51.6227 15.4858L51.6222 15.4861C51.1676 15.7909 50.7483 15.8231 50.4467 15.6843C50.1475 15.5466 49.9067 15.2138 49.8628 14.6639C49.831 14.2174 49.8897 13.7375 50.0278 13.3123C50.6345 11.4808 51.2751 9.65475 51.9437 7.83982C52.0997 7.41924 52.2763 7.03303 52.5312 6.74752C52.7788 6.47018 53.1042 6.2833 53.5803 6.26567C54.1179 6.24792 54.4837 6.42473 54.7591 6.70744C55.0431 6.99907 55.241 7.41401 55.4102 7.88824L55.4102 7.88841C56.61 11.2421 56.9575 14.7506 57.2784 18.2918C57.2874 18.392 57.2965 18.4922 57.3055 18.5923C57.6232 22.1112 57.9404 25.6241 57.9077 29.1461C57.8992 29.7696 57.9774 30.3013 58.2882 30.6321C58.6136 30.9784 59.1268 31.0417 59.8126 30.9028L59.8132 30.9027C60.1557 30.8322 60.5563 30.8711 60.9227 30.9627Z" fill="white" stroke="#6AB04C" stroke-width="0.4"/>
<path d="M40.3934 36.7341C39.994 36.7566 39.5945 36.8522 39.2063 36.9479C37.6367 37.3304 36.0559 37.6792 34.5032 38.1237C31.4765 38.99 30.7958 39.9858 30.9139 43.952C31.8478 50.326 32.8098 57.4539 34.3175 64.4918C34.4188 64.9587 34.6213 65.4257 34.8745 65.8251C35.4089 66.6577 36.2022 67.0065 37.1754 66.7309C38.0474 66.4833 38.5481 65.842 38.5762 64.9531C38.5987 64.1543 38.52 63.3385 38.3793 62.5453C37.8674 59.5973 37.3048 56.6607 36.7704 53.7184C36.4253 51.8056 37.1454 50.536 38.9307 49.9097C40.7928 49.2571 41.5017 48.5426 41.2316 47.6144C40.956 46.6805 39.8477 46.3036 38.0812 46.5398C36.3109 46.7799 35.2101 46.0467 34.7788 44.3402C34.7563 44.2614 34.7451 44.1826 34.7282 44.1039C33.9687 41.0547 33.5412 41.3697 36.8941 40.464C38.295 40.0871 39.6902 39.6651 41.0572 39.1813C41.7154 38.9506 42.1205 38.3993 41.9067 37.6454C41.6986 36.9085 41.091 36.6834 40.3878 36.7228L40.3934 36.7341Z" fill="#6AB04C"/>
<path opacity="0.8" d="M84.0867 37.0008C84.1585 36.7666 84.2291 36.5261 84.3008 36.2815C84.4401 35.8068 84.5838 35.3171 84.7499 34.8295L84.75 34.8293C86.6671 29.1855 88.8715 23.6573 91.0779 18.1243C91.9837 15.8528 92.8898 13.5805 93.7764 11.2991L93.7766 11.2986C94.1627 10.2982 94.637 9.33764 95.1158 8.36797C95.281 8.03334 95.4468 7.69761 95.6097 7.35878C95.8186 6.93005 96.0612 6.52182 96.3273 6.1226C96.3838 6.03845 96.4374 5.95579 96.4905 5.87396C96.571 5.74985 96.6503 5.62769 96.7363 5.50527C96.8757 5.30687 97.0171 5.13204 97.1713 4.99917C97.3239 4.86767 97.484 4.78175 97.6626 4.75237C97.8405 4.72311 98.0556 4.74684 98.324 4.86633C98.5478 4.96711 98.6927 5.09374 98.787 5.23256C98.882 5.3723 98.9335 5.53603 98.9521 5.72197C98.9902 6.10313 98.8884 6.5444 98.7745 6.99164L98.7743 6.99227C98.4988 8.08891 98.2181 9.18337 97.9096 10.266C96.2348 16.098 94.0284 21.7315 91.8179 27.3756C90.8762 29.78 89.9338 32.1863 89.0314 34.6106C88.7261 35.4267 88.3421 36.2285 87.9283 37.0057L87.9276 37.007C87.6778 37.485 87.3514 37.9366 86.976 38.3284L86.9758 38.3285C86.6897 38.6278 86.3781 38.8183 86.0526 38.8927C85.7292 38.9667 85.3759 38.93 84.9959 38.7477L84.9956 38.7476C84.6718 38.593 84.4868 38.3582 84.3595 38.057C84.2425 37.7803 84.1783 37.4592 84.1052 37.0931C84.0991 37.0626 84.0929 37.0319 84.0867 37.0008Z" fill="white" stroke="#6AB04C" stroke-width="0.4"/>
<path d="M86.0811 48.9305C85.451 48.5817 84.8266 48.1879 84.2752 47.7266C83.662 47.2147 83.4764 46.4833 83.8308 45.752C84.1965 44.9925 84.9222 44.8406 85.6929 44.9868C86.0024 45.0431 86.3062 45.1838 86.5931 45.33C87.2175 45.6395 87.887 45.8139 88.3483 45.1838C88.8715 44.4637 88.7421 43.6479 88.2527 42.9166C87.4819 41.7633 85.6592 41.2457 84.1008 41.7183C81.3442 42.5621 79.9996 45.7689 81.1642 48.6661C81.6986 49.9938 82.6775 50.9333 83.752 51.8053C85.0966 52.8911 85.8167 54.2638 85.7042 56.0191C85.7379 57.0936 85.5523 58.1118 84.9335 59.0176C83.9771 60.4128 83.0826 60.4185 82.1712 59.0064C81.8224 58.4663 81.5917 57.8475 81.2317 57.313C80.7647 56.621 80.1909 56.0134 79.2345 56.3566C78.4188 56.6491 78.25 57.3805 78.25 58.1343C78.2613 60.7616 79.3302 62.8488 81.6424 64.1483C83.257 65.0597 84.9166 64.9641 86.4299 63.8389C91.2062 60.2947 91.3806 51.8391 86.0699 48.9305H86.0811Z" fill="#6AB04C"/>
<path d="M69.7094 44.8972C70.4239 44.9703 71.1552 44.824 71.8359 44.5202C72.6573 44.1489 73.158 43.5751 73.0511 42.6412C72.9442 41.7186 72.331 41.2179 71.4646 41.0435C70.4239 40.8353 69.3606 40.9366 68.3254 41.0941C65.7207 41.4935 65.0287 42.2249 64.8374 44.8915C64.4549 50.2079 64.1173 55.5299 64.3649 60.8688C64.4043 61.6733 64.4211 62.4947 64.5843 63.2767C64.8881 64.7619 65.6025 65.3244 67.1271 65.3132C68.5955 65.3019 70.0075 64.9475 71.3746 64.4299C72.2522 64.098 73.0174 63.5242 72.8261 62.4722C72.6179 61.3301 71.6784 61.0376 70.632 60.9645C69.8669 60.9138 69.0793 61.3526 68.2129 60.9645C68.2129 59.9181 68.2073 58.956 68.2129 57.9996C68.2242 57.1164 68.0048 56.1206 68.3367 55.378C68.7249 54.5117 69.9175 54.8492 70.7277 54.5736C71.0314 54.4723 71.3465 54.3767 71.6278 54.2248C72.4548 53.7691 73.113 53.1333 72.8767 52.1094C72.646 51.1249 71.8697 50.6861 70.8852 50.6524C70.0863 50.6242 69.2818 50.6467 68.1454 50.6467C68.1454 49.1953 68.196 47.907 68.1285 46.6299C68.0723 45.471 68.3311 44.7678 69.6981 44.9028L69.7094 44.8972Z" fill="#6AB04C"/>
<path opacity="0.8" d="M70.7631 16.6216C70.4469 16.5623 70.1591 16.6174 69.9205 16.7667C69.6845 16.9143 69.51 17.1452 69.3991 17.4174C68.3528 19.9587 68.4008 22.4395 69.8232 25.1638L69.9636 25.4327L70.1554 25.1976C72.0984 22.8165 72.283 20.3413 72.1128 17.8285L72.1128 17.8284C72.0859 17.4345 71.8981 17.1534 71.636 16.9619C71.3819 16.7761 71.0628 16.6774 70.7631 16.6216ZM70.7631 16.6216L70.7262 16.8181M70.7631 16.6216C70.763 16.6216 70.7629 16.6215 70.7628 16.6215L70.7262 16.8181M70.7262 16.8181C71.3 16.925 71.8683 17.1838 71.9133 17.842C72.0779 20.2731 71.9053 22.6292 70.137 24.8999C70.1505 24.9261 70.1641 24.9524 70.1778 24.9786L70.0005 25.0712L69.8455 24.9447C69.8641 24.9219 69.8826 24.8991 69.9009 24.8763C68.6037 22.281 68.5852 19.9192 69.5842 17.4932C69.7811 17.0094 70.1861 16.7169 70.7262 16.8181ZM72.923 15.4328L72.9231 15.4329C74.0572 16.5997 74.646 18.0483 74.7007 19.6547L74.7007 19.6549C74.7893 22.1737 74.131 24.5415 72.78 26.6511L72.78 26.6511C72.0532 27.7861 71.1457 28.3386 70.2403 28.3734C69.3336 28.4082 68.3725 27.9259 67.5355 26.8709C66.2055 25.1919 65.8971 23.1892 65.9417 20.9627L65.9419 20.9549L65.9414 20.947C65.8483 19.3643 66.2642 17.7687 67.0442 16.275C67.6941 15.032 68.6856 14.3334 69.7397 14.1828C70.7941 14.0322 71.945 14.425 72.923 15.4328Z" fill="white" stroke="#6AB04C" stroke-width="0.4"/>
<path opacity="0.8" d="M81.2552 16.2407L81.3611 16.2677C81.8252 16.386 82.1349 16.6214 82.3195 16.9509C82.4988 17.2711 82.547 17.6574 82.5411 18.0565L82.5411 18.0572C82.5251 18.9438 82.5234 19.8295 82.5217 20.7192C82.521 21.0754 82.5203 21.4323 82.5187 21.79L82.5185 21.8338L82.5 21.8735C82.4194 22.0469 82.3393 22.2214 82.2591 22.3964C82.0059 22.9484 81.7505 23.5054 81.4663 24.0478L81.4663 24.048C81.2873 24.3891 80.9668 24.8747 80.3669 24.8238M81.2552 16.2407L80.3834 24.6245M81.2552 16.2407L81.1753 16.3151C78.8807 18.4525 78.8663 21.1098 79.4565 23.8229M81.2552 16.2407L79.652 23.7806M80.3669 24.8238C80.3667 24.8238 80.3666 24.8238 80.3664 24.8238L80.3834 24.6245M80.3669 24.8238C80.3669 24.8238 80.3669 24.8238 80.367 24.8238L80.3834 24.6245M80.3669 24.8238C80.0592 24.7985 79.8459 24.6405 79.7045 24.4403C79.5683 24.2474 79.498 24.0154 79.4565 23.8229M80.3834 24.6245C79.9052 24.5851 79.7308 24.1463 79.652 23.7806M79.4565 23.8229C79.4566 23.823 79.4566 23.8231 79.4566 23.8232L79.652 23.7806M79.4565 23.8229C79.4565 23.8229 79.4565 23.8228 79.4565 23.8228L79.652 23.7806M82.9919 26.667L82.9919 26.667C82.1156 27.5569 81.1683 27.9555 80.2637 27.9086C79.359 27.8616 78.4572 27.367 77.6761 26.3899L77.6757 26.3895C77.2228 25.8261 76.8542 25.2119 76.7497 24.5538L76.7496 24.5531C76.1837 21.0625 76.1433 17.7507 78.9581 15.1309C79.8777 14.4611 80.5134 14.151 81.0702 14.1517C81.6153 14.1523 82.1394 14.4529 82.8329 15.1714C82.9929 15.3374 83.1758 15.4796 83.3544 15.6111C83.4026 15.6466 83.4502 15.6812 83.4971 15.7152C83.628 15.8102 83.7536 15.9013 83.8739 16C84.1942 16.2629 84.4363 16.5485 84.5066 16.9776L84.5141 17.023L84.5406 17.0606C85.4777 18.3886 85.5585 20.3162 85.1562 22.1758C84.7544 24.0326 83.8833 25.7621 82.9919 26.667Z" fill="white" stroke="#6AB04C" stroke-width="0.4"/>
<path opacity="0.8" d="M87.7083 13.1142L87.7084 13.1138H87.696C86.5796 13.0387 85.5807 11.8882 85.6221 10.6655C85.6695 9.37394 86.7234 8.33291 87.8541 8.38843L87.8542 8.38844C89.0089 8.44415 89.9174 9.50362 89.8805 10.8442L89.8805 10.8442C89.8435 12.1958 88.8431 13.1895 87.7083 13.1142Z" fill="white" stroke="#6AB04C" stroke-width="0.4"/>
<path opacity="0.8" d="M91.5599 27.2977L91.5607 27.2977C92.022 27.3124 92.4901 27.5665 92.8453 27.9609C93.1655 28.3165 93.378 28.769 93.4106 29.2219L93.4092 29.3687C93.3992 30.4 92.5172 31.2223 91.402 31.2016C90.3087 31.1813 89.5332 30.3401 89.5896 29.2232L89.5896 29.2227C89.6411 28.1515 90.5712 27.2626 91.5599 27.2977Z" fill="white" stroke="#6AB04C" stroke-width="0.4"/>
</svg>
