<svg width="18" height="18" viewBox="0 0 18 18" fill="none" xmlns="http://www.w3.org/2000/svg">
<path d="M8.43271 13.75H9.56731V9.56728H13.75V8.43267H9.56731V4.25H8.43271V8.43267H4.25003V9.56728H8.43271V13.75ZM1.94236 17.5C1.55021 17.5 1.21178 17.3576 0.92708 17.0729C0.64238 16.7882 0.500031 16.4498 0.500031 16.0576V1.94232C0.500031 1.55017 0.64238 1.21175 0.92708 0.92705C1.21178 0.64235 1.55021 0.5 1.94236 0.5H16.0577C16.4498 0.5 16.7882 0.64235 17.0729 0.92705C17.3576 1.21175 17.5 1.55017 17.5 1.94232V16.0576C17.5 16.4498 17.3576 16.7882 17.0729 17.0729C16.7882 17.3576 16.4498 17.5 16.0577 17.5H1.94236ZM1.94236 16.3654H16.0577C16.1346 16.3654 16.2051 16.3333 16.2692 16.2692C16.3333 16.2051 16.3654 16.1346 16.3654 16.0576V1.94232C16.3654 1.86539 16.3333 1.79487 16.2692 1.73075C16.2051 1.66665 16.1346 1.6346 16.0577 1.6346H1.94236C1.86542 1.6346 1.7949 1.66665 1.73078 1.73075C1.66668 1.79487 1.63463 1.86539 1.63463 1.94232V16.0576C1.63463 16.1346 1.66668 16.2051 1.73078 16.2692C1.7949 16.3333 1.86542 16.3654 1.94236 16.3654Z" fill="#1873E8"/>
</svg>
