<svg width="334" height="216" viewBox="0 0 334 216" fill="none" xmlns="http://www.w3.org/2000/svg">
<path d="M317.707 0H16.2927C7.29448 0 0 7.2986 0 16.3019V199.698C0 208.701 7.29448 216 16.2927 216H317.707C326.706 216 334 208.701 334 199.698V16.3019C334 7.2986 326.706 0 317.707 0Z" fill="#633FC4"/>
<path d="M283.086 330.113C387.69 330.113 472.488 245.267 472.488 140.604C472.488 35.9406 387.69 -48.9056 283.086 -48.9056C178.481 -48.9056 93.6831 35.9406 93.6831 140.604C93.6831 245.267 178.481 330.113 283.086 330.113Z" fill="white" fill-opacity="0.1"/>
<path d="M419.536 387.17C524.141 387.17 608.939 302.324 608.939 197.66C608.939 92.9973 524.141 8.151 419.536 8.151C314.932 8.151 230.134 92.9973 230.134 197.66C230.134 302.324 314.932 387.17 419.536 387.17Z" fill="white" fill-opacity="0.2"/>
</svg>
