<svg width="80" height="80" viewBox="0 0 80 80" fill="none" xmlns="http://www.w3.org/2000/svg">
<rect width="80" height="80" rx="40" fill="#F7D4D4"/>
<path d="M21.5996 30.8C21.5996 28.2594 23.6591 26.2 26.1996 26.2H53.7996C56.3401 26.2 58.3996 28.2594 58.3996 30.8V35.4C55.8591 35.4 53.7996 37.4594 53.7996 40C53.7996 42.5405 55.8591 44.6 58.3996 44.6V49.2C58.3996 51.7405 56.3401 53.7999 53.7996 53.7999H26.1996C23.6591 53.7999 21.5996 51.7405 21.5996 49.2V44.6C24.1401 44.6 26.1996 42.5405 26.1996 40C26.1996 37.4594 24.1401 35.4 21.5996 35.4V30.8Z" fill="#D62827"/>
</svg>
