<svg width="328" height="185" viewBox="0 0 328 185" fill="none" xmlns="http://www.w3.org/2000/svg">
<path d="M0 14C0 6.26801 6.26801 0 14 0H314C321.732 0 328 6.26801 328 14V171C328 178.732 321.732 185 314 185H14C6.26802 185 0 178.732 0 171V14Z" fill="#EFEFEF"/>
<path d="M158.25 94.9167C158.25 96.4417 158.856 97.9042 159.934 98.9826C161.012 100.061 162.475 100.667 164 100.667C165.525 100.667 166.988 100.061 168.066 98.9826C169.144 97.9042 169.75 96.4417 169.75 94.9167C169.75 93.3917 169.144 91.9292 168.066 90.8508C166.988 89.7725 165.525 89.1667 164 89.1667C162.475 89.1667 161.012 89.7725 159.934 90.8508C158.856 91.9292 158.25 93.3917 158.25 94.9167Z" stroke="#6E6E6E" stroke-linecap="round" stroke-linejoin="round"/>
<path d="M164 77.6667H160.167C159.658 77.6667 159.171 77.8686 158.811 78.228C158.452 78.5875 158.25 79.075 158.25 79.5833C158.25 80.6 157.846 81.575 157.127 82.2939C156.408 83.0128 155.433 83.4167 154.417 83.4167H150.583C149.567 83.4167 148.592 83.8205 147.873 84.5394C147.154 85.2583 146.75 86.2333 146.75 87.25V104.5C146.75 105.517 147.154 106.492 147.873 107.211C148.592 107.929 149.567 108.333 150.583 108.333H177.417C178.433 108.333 179.408 107.929 180.127 107.211C180.846 106.492 181.25 105.517 181.25 104.5V91.0833M169.75 81.5H181.25M175.5 75.75V87.25" stroke="#6E6E6E" stroke-linecap="round" stroke-linejoin="round"/>
</svg>
