<svg width="14" height="18" viewBox="0 0 14 18" fill="none" xmlns="http://www.w3.org/2000/svg">
<path d="M0.5 17.2499V1.84619C0.5 1.45901 0.64235 1.12183 0.92705 0.834645C1.21175 0.547461 1.55017 0.40387 1.94232 0.40387H12.0576C12.4498 0.40387 12.7882 0.547461 13.0729 0.834645C13.3576 1.12183 13.5 1.45901 13.5 1.84619V17.2499L6.99997 14.4615L0.5 17.2499ZM1.6346 15.5134L6.99997 13.2365L12.3653 15.5134V1.84619C12.3653 1.76926 12.3333 1.69874 12.2692 1.63462C12.2051 1.57052 12.1346 1.53847 12.0576 1.53847H1.94232C1.86539 1.53847 1.79487 1.57052 1.73075 1.63462C1.66665 1.69874 1.6346 1.76926 1.6346 1.84619V15.5134Z" fill="black"/>
</svg>
