<svg width="80" height="80" viewBox="0 0 80 80" fill="none" xmlns="http://www.w3.org/2000/svg">
<rect width="80" height="80" rx="40" fill="#D7F7F7"/>
<path d="M37.8535 57.8733C38.2601 58.6863 39.0911 59.1999 40.0002 59.1999C40.9092 59.1999 41.7403 58.6863 42.1468 57.8733L58.9468 24.2733C59.3724 23.422 59.2548 22.3996 58.647 21.6672C58.0392 20.9348 57.056 20.6308 56.1408 20.8923L44.1409 24.3209C43.1105 24.6152 42.4002 25.557 42.4002 26.6285L42.4002 37.6C42.4002 38.9254 41.3257 40 40.0002 40C38.6747 40 37.6002 38.9254 37.6002 37.6L37.6002 26.6285C37.6002 25.557 36.8898 24.6152 35.8595 24.3209L23.8595 20.8923C22.9444 20.6308 21.9612 20.9348 21.3533 21.6672C20.7455 22.3996 20.6279 23.422 21.0535 24.2733L37.8535 57.8733Z" fill="#49C7C7"/>
</svg>
