<svg width="24" height="23" viewBox="0 0 24 23" fill="none" xmlns="http://www.w3.org/2000/svg">
<path d="M23.52 12.8569C23.52 11.5336 22.4433 10.4569 21.12 10.4569H20.16V9.01693C20.16 4.51741 16.4995 0.856934 12 0.856934C7.50046 0.856934 3.83998 4.51741 3.83998 9.01693V10.4569H2.87998C1.55662 10.4569 0.47998 11.5336 0.47998 12.8569V15.7369C0.47998 17.0603 1.55662 18.1369 2.87998 18.1369H5.75998V10.4569H4.79998V9.01693C4.79998 5.04685 8.0299 1.81693 12 1.81693C15.9701 1.81693 19.2 5.04685 19.2 9.01693V10.4569H18.24V18.1369H19.2V20.5369C19.2 21.3309 18.5539 21.9769 17.76 21.9769H12.96V22.9369H17.76C19.0833 22.9369 20.16 21.8603 20.16 20.5369V18.1369H21.12C22.4433 18.1369 23.52 17.0603 23.52 15.7369V12.8569ZM4.79998 17.1769H2.87998C2.08606 17.1769 1.43998 16.5309 1.43998 15.7369V12.8569C1.43998 12.063 2.08606 11.4169 2.87998 11.4169H4.79998V17.1769ZM22.56 15.7369C22.56 16.5309 21.9139 17.1769 21.12 17.1769H19.2V11.4169H21.12C21.9139 11.4169 22.56 12.063 22.56 12.8569V15.7369Z" fill="#BF0102"/>
</svg>
