<svg width="24" height="25" viewBox="0 0 24 25" fill="none" xmlns="http://www.w3.org/2000/svg">
<path d="M15.75 10.7747V6.15697C15.75 5.13638 15.3549 4.1576 14.6516 3.43593C13.9484 2.71427 12.9945 2.30884 12 2.30884C11.0054 2.30884 10.0516 2.71427 9.34833 3.43593C8.64507 4.1576 8.24998 5.13638 8.24998 6.15697V10.7747M19.606 8.72958L20.869 21.0436C20.939 21.726 20.419 22.3191 19.75 22.3191H4.24998C4.09219 22.3193 3.93613 22.2854 3.79193 22.2197C3.64774 22.1539 3.51863 22.0578 3.41301 21.9375C3.30738 21.8172 3.2276 21.6754 3.17884 21.5214C3.13008 21.3674 3.11343 21.2046 3.12999 21.0436L4.39399 8.72958C4.42314 8.44591 4.55361 8.18335 4.76024 7.99254C4.96686 7.80173 5.23501 7.69618 5.51298 7.69623H18.487C19.063 7.69623 19.546 8.14261 19.606 8.72958ZM8.62498 10.7747C8.62498 10.8768 8.58548 10.9747 8.51515 11.0468C8.44482 11.119 8.34944 11.1596 8.24998 11.1596C8.15053 11.1596 8.05515 11.119 7.98482 11.0468C7.91449 10.9747 7.87498 10.8768 7.87498 10.7747C7.87498 10.6727 7.91449 10.5748 7.98482 10.5026C8.05515 10.4305 8.15053 10.3899 8.24998 10.3899C8.34944 10.3899 8.44482 10.4305 8.51515 10.5026C8.58548 10.5748 8.62498 10.6727 8.62498 10.7747ZM16.125 10.7747C16.125 10.8768 16.0855 10.9747 16.0152 11.0468C15.9448 11.119 15.8494 11.1596 15.75 11.1596C15.6505 11.1596 15.5551 11.119 15.4848 11.0468C15.4145 10.9747 15.375 10.8768 15.375 10.7747C15.375 10.6727 15.4145 10.5748 15.4848 10.5026C15.5551 10.4305 15.6505 10.3899 15.75 10.3899C15.8494 10.3899 15.9448 10.4305 16.0152 10.5026C16.0855 10.5748 16.125 10.6727 16.125 10.7747Z" stroke="#6E6E6E" stroke-width="0.8" stroke-linecap="round" stroke-linejoin="round"/>
</svg>
