<svg width="80" height="80" viewBox="0 0 80 80" fill="none" xmlns="http://www.w3.org/2000/svg">
<rect width="80" height="80" rx="40" fill="#E9F7F2"/>
<path fill-rule="evenodd" clip-rule="evenodd" d="M27.7998 24.8C27.7998 22.37 29.7698 20.4 32.1998 20.4H42.2885C43.4555 20.4 44.5746 20.8636 45.3998 21.6888L52.9111 29.2C53.7362 30.0252 54.1998 31.1443 54.1998 32.3113V51.2C54.1998 53.6301 52.2299 55.6 49.7998 55.6H32.1998C29.7698 55.6 27.7998 53.6301 27.7998 51.2V24.8ZM32.1998 38C32.1998 36.785 33.1848 35.8 34.3998 35.8H47.5998C48.8148 35.8 49.7998 36.785 49.7998 38C49.7998 39.215 48.8148 40.2 47.5998 40.2H34.3998C33.1848 40.2 32.1998 39.215 32.1998 38ZM34.3998 44.6C33.1848 44.6 32.1998 45.585 32.1998 46.8C32.1998 48.015 33.1848 49 34.3998 49H47.5998C48.8148 49 49.7998 48.015 49.7998 46.8C49.7998 45.585 48.8148 44.6 47.5998 44.6H34.3998Z" fill="#22B07D"/>
</svg>
