<svg width="16" height="20" viewBox="0 0 16 20" fill="none" xmlns="http://www.w3.org/2000/svg">
<path d="M0.25 16.7322V15.5855H2.32115V7.7757C2.32115 6.39169 2.73685 5.16617 3.56825 4.09913C4.39967 3.03212 5.48397 2.36838 6.82115 2.10791V1.38487C6.82115 1.04872 6.93461 0.775498 7.16153 0.565201C7.38844 0.354904 7.66792 0.249756 7.99997 0.249756C8.33202 0.249756 8.61151 0.354904 8.83843 0.565201C9.06534 0.775498 9.1788 1.04872 9.1788 1.38487V2.10791C10.516 2.36838 11.6028 3.03212 12.4394 4.09913C13.2759 5.16617 13.6942 6.39169 13.6942 7.7757V15.5855H15.75V16.7322H0.25ZM7.99997 19.7061C7.51792 19.7061 7.09613 19.5292 6.7346 19.1754C6.37307 18.8217 6.1923 18.3895 6.1923 17.879H9.80765C9.80765 18.3895 9.63265 18.8217 9.28265 19.1754C8.93265 19.5292 8.50509 19.7061 7.99997 19.7061ZM3.45573 15.5855H12.5596V7.7757C12.5596 6.49027 12.1202 5.39824 11.2413 4.4996C10.3625 3.60097 9.28715 3.15166 8.01535 3.15166C6.74355 3.15166 5.66567 3.60097 4.7817 4.4996C3.89772 5.39824 3.45573 6.49027 3.45573 7.7757V15.5855Z" fill="black"/>
</svg>
