<svg width="20" height="22" viewBox="0 0 20 22" fill="none" xmlns="http://www.w3.org/2000/svg">
<path d="M13.75 9.77474V5.15697C13.75 4.13638 13.3549 3.1576 12.6516 2.43593C11.9484 1.71427 10.9945 1.30884 9.99998 1.30884C9.00542 1.30884 8.0516 1.71427 7.34833 2.43593C6.64507 3.1576 6.24998 4.13638 6.24998 5.15697V9.77474M17.606 7.72958L18.869 20.0436C18.939 20.726 18.419 21.3191 17.75 21.3191H2.24998C2.09219 21.3193 1.93613 21.2854 1.79193 21.2197C1.64774 21.1539 1.51863 21.0578 1.41301 20.9375C1.30738 20.8172 1.2276 20.6754 1.17884 20.5214C1.13008 20.3674 1.11343 20.2046 1.12999 20.0436L2.39399 7.72958C2.42314 7.44591 2.55361 7.18335 2.76024 6.99254C2.96686 6.80173 3.23501 6.69618 3.51298 6.69623H16.487C17.063 6.69623 17.546 7.14261 17.606 7.72958ZM6.62498 9.77474C6.62498 9.8768 6.58548 9.97468 6.51515 10.0468C6.44482 10.119 6.34944 10.1596 6.24998 10.1596C6.15053 10.1596 6.05515 10.119 5.98482 10.0468C5.91449 9.97468 5.87498 9.8768 5.87498 9.77474C5.87498 9.67268 5.91449 9.5748 5.98482 9.50263C6.05515 9.43047 6.15053 9.38992 6.24998 9.38992C6.34944 9.38992 6.44482 9.43047 6.51515 9.50263C6.58548 9.5748 6.62498 9.67268 6.62498 9.77474ZM14.125 9.77474C14.125 9.8768 14.0855 9.97468 14.0152 10.0468C13.9448 10.119 13.8494 10.1596 13.75 10.1596C13.6505 10.1596 13.5551 10.119 13.4848 10.0468C13.4145 9.97468 13.375 9.8768 13.375 9.77474C13.375 9.67268 13.4145 9.5748 13.4848 9.50263C13.5551 9.43047 13.6505 9.38992 13.75 9.38992C13.8494 9.38992 13.9448 9.43047 14.0152 9.50263C14.0855 9.5748 14.125 9.67268 14.125 9.77474Z" stroke="#6E6E6E" stroke-width="0.8" stroke-linecap="round" stroke-linejoin="round"/>
</svg>
