<svg width="97" height="97" viewBox="0 0 97 97" fill="none" xmlns="http://www.w3.org/2000/svg">
<path d="M46.318 55.492C52.5904 55.492 57.6751 50.4072 57.6751 44.1349C57.6751 37.8626 52.5904 32.7778 46.318 32.7778C40.0457 32.7778 34.9609 37.8626 34.9609 44.1349C34.9609 50.4072 40.0457 55.492 46.318 55.492Z" stroke="#3B3B3B" stroke-width="2" stroke-linecap="round" stroke-linejoin="round"/>
<path d="M67.2943 81.6417C67.2943 72.2246 57.9176 64.5453 46.318 64.5453C34.7185 64.5453 25.3418 72.1842 25.3418 81.6417" stroke="#3B3B3B" stroke-width="2" stroke-linecap="round" stroke-linejoin="round"/>
<path d="M84.8756 50.5208C84.8756 71.7396 67.6986 88.9167 46.4798 88.9167C25.2611 88.9167 8.08398 71.7396 8.08398 50.5208C8.08398 29.3021 25.2611 12.125 46.4798 12.125C51.7744 12.125 56.8265 13.1758 61.434 15.1158C60.9086 16.7325 60.6256 18.43 60.6256 20.2083C60.6256 23.2396 61.4744 26.1092 62.9698 28.5342C63.7782 29.9083 64.829 31.1611 66.0415 32.212C68.8706 34.7986 72.6294 36.375 76.7923 36.375C78.5706 36.375 80.2681 36.092 81.8444 35.5262C83.7844 40.1337 84.8756 45.2262 84.8756 50.5208Z" stroke="#3B3B3B" stroke-width="2" stroke-linecap="round" stroke-linejoin="round"/>
<path d="M92.9583 20.2083C92.9583 21.5016 92.7967 22.7545 92.4733 23.967C92.1096 25.5837 91.4629 27.1599 90.6142 28.5341C88.6742 31.8079 85.5621 34.354 81.8438 35.5261C80.2675 36.092 78.57 36.375 76.7917 36.375C72.6288 36.375 68.87 34.7986 66.0408 32.2119C64.8283 31.1611 63.7775 29.9083 62.9692 28.5341C61.4738 26.1091 60.625 23.2395 60.625 20.2083C60.625 18.43 60.9079 16.7324 61.4333 15.1158C62.2013 12.7716 63.4946 10.67 65.1921 8.93213C68.1425 5.90088 72.265 4.04163 76.7917 4.04163C81.5608 4.04163 85.8854 6.10294 88.7954 9.41711C91.3821 12.2867 92.9583 16.0858 92.9583 20.2083Z" stroke="#3B3B3B" stroke-width="2" stroke-miterlimit="10" stroke-linecap="round" stroke-linejoin="round"/>
<path d="M82.8137 20.1274H70.7695" stroke="#3B3B3B" stroke-width="2" stroke-miterlimit="10" stroke-linecap="round" stroke-linejoin="round"/>
<path d="M76.791 14.2268V26.3114" stroke="#3B3B3B" stroke-width="2" stroke-miterlimit="10" stroke-linecap="round" stroke-linejoin="round"/>
</svg>
