<svg width="24" height="24" viewBox="0 0 24 24" fill="none" xmlns="http://www.w3.org/2000/svg">
<path d="M5.94236 22.4999C5.55021 22.4999 5.21178 22.3576 4.92708 22.0729C4.64238 21.7882 4.50003 21.4498 4.50003 21.0576V9.40962C4.50003 9.01748 4.64238 8.67907 4.92708 8.39437C5.21178 8.10967 5.55021 7.96732 5.94236 7.96732H9.39806V9.10192H5.94236C5.86542 9.10192 5.7949 9.13397 5.73078 9.19807C5.66668 9.26218 5.63463 9.3327 5.63463 9.40962V21.0576C5.63463 21.1346 5.66668 21.2051 5.73078 21.2692C5.7949 21.3333 5.86542 21.3653 5.94236 21.3653H18.0577C18.1346 21.3653 18.2051 21.3333 18.2692 21.2692C18.3333 21.2051 18.3654 21.1346 18.3654 21.0576V9.40962C18.3654 9.3327 18.3333 9.26218 18.2692 9.19807C18.2051 9.13397 18.1346 9.10192 18.0577 9.10192H14.5712V7.96732H18.0577C18.4498 7.96732 18.7882 8.10967 19.0729 8.39437C19.3576 8.67907 19.5 9.01748 19.5 9.40962V21.0576C19.5 21.4498 19.3576 21.7882 19.0729 22.0729C18.7882 22.3576 18.4498 22.4999 18.0577 22.4999H5.94236ZM11.4173 15.2576V4.04422L9.13078 6.33074L8.3058 5.51539L11.9846 1.84619L15.6538 5.51539L14.8385 6.33074L12.5519 4.04422V15.2576H11.4173Z" fill="#1873E8"/>
</svg>
