<svg width="80" height="80" viewBox="0 0 80 80" fill="none" xmlns="http://www.w3.org/2000/svg">
<rect width="80" height="80" rx="40" fill="#EFD6ED"/>
<path d="M42.5125 23.7438C42.1314 22.9815 41.3523 22.5 40.5 22.5C39.6478 22.5 38.8687 22.9815 38.4876 23.7438L22.7376 55.2438C22.3385 56.0418 22.4488 57.0003 23.0186 57.6869C23.5885 58.3735 24.5102 58.6586 25.3681 58.4134L36.6181 55.1992C37.5841 54.9232 38.25 54.0403 38.25 53.0357L38.25 42.75C38.25 41.5074 39.2574 40.5 40.5 40.5C41.7426 40.5 42.75 41.5074 42.75 42.75V53.0357C42.75 54.0403 43.4159 54.9232 44.3819 55.1991L55.6319 58.4134C56.4898 58.6586 57.4116 58.3735 57.9814 57.6869C58.5513 57.0003 58.6615 56.0418 58.2625 55.2438L42.5125 23.7438Z" fill="#B548C6"/>
</svg>
