<svg width="29" height="22" viewBox="0 0 29 22" fill="none" xmlns="http://www.w3.org/2000/svg">
<path d="M0 2C0 0.895431 0.895431 0 2 0H27C28.1046 0 29 0.895431 29 2V5.25C29 6.35457 28.1046 7.25 27 7.25H2C0.89543 7.25 0 6.35457 0 5.25V2Z" fill="#00732F"/>
<path d="M0 9.25C0 8.14543 0.895431 7.25 2 7.25H27C28.1046 7.25 29 8.14543 29 9.25V12.5C29 13.6046 28.1046 14.5 27 14.5H2C0.89543 14.5 0 13.6046 0 12.5V9.25Z" fill="white"/>
<path d="M0 16.5C0 15.3954 0.895431 14.5 2 14.5H27C28.1046 14.5 29 15.3954 29 16.5V19.75C29 20.8546 28.1046 21.75 27 21.75H2C0.89543 21.75 0 20.8546 0 19.75V16.5Z" fill="black"/>
<path d="M0 2C0 0.895431 0.895431 0 2 0H7.96875C9.07332 0 9.96875 0.89543 9.96875 2V19.75C9.96875 20.8546 9.07332 21.75 7.96875 21.75H2C0.895431 21.75 0 20.8546 0 19.75V2Z" fill="#FF0000"/>
</svg>
