<svg width="270" height="264" viewBox="0 0 270 264" fill="none" xmlns="http://www.w3.org/2000/svg">
<g clip-path="url(#clip0_27_134798)">
<path d="M139.79 51.0041C139.773 50.9576 140.494 50.8415 141.651 50.1624C142.761 49.4833 144.365 48.0496 144.947 45.5537C145.086 44.9384 145.133 44.2709 145.11 43.5743C145.057 42.8778 144.894 42.1696 144.679 41.4151C144.278 39.9117 143.842 38.2806 143.371 36.5277C142.435 33.0159 141.372 29.0225 140.197 24.6052C139.023 20.188 137.738 15.3471 136.36 10.152C136.017 8.85184 135.668 7.53422 135.314 6.18758C135.012 4.85255 134.39 3.60458 133.407 2.61201C132.436 1.63105 131.157 0.911294 129.756 0.644288C128.338 0.319236 126.925 0.597852 125.46 1.03319C113.752 4.10957 100.887 7.48779 87.3762 11.0343C85.7484 11.4639 84.3066 12.4855 83.3707 13.8553C82.4173 15.2136 81.9987 16.9143 82.1789 18.5337C82.2545 19.3348 82.5161 20.1416 82.7254 20.9658C82.9405 21.7785 83.1498 22.5911 83.3649 23.4037C83.7892 25.0232 84.2078 26.6252 84.6264 28.2156C86.2949 34.5774 87.8994 40.7127 89.4341 46.5636C90.1957 49.4891 90.9456 52.3391 91.6665 55.1079C91.9862 56.5125 92.4571 57.7895 93.3698 58.8111C94.236 59.8385 95.3987 60.5815 96.6428 60.9646C99.1891 61.8643 101.718 60.6453 104.131 60.1229C106.549 59.4961 108.868 58.8924 111.083 58.3177C119.931 56.0366 127.094 54.1907 132.076 52.908C134.541 52.2869 136.459 51.7993 137.79 51.4626C138.424 51.3059 138.924 51.1898 139.279 51.1028C139.616 51.0215 139.79 50.9983 139.79 50.9983C139.79 50.9983 139.622 51.0621 139.29 51.1608C138.936 51.2595 138.447 51.3988 137.814 51.5787C136.488 51.9386 134.576 52.461 132.128 53.1227C127.158 54.4461 120.007 56.35 111.182 58.7066C108.967 59.2929 106.654 59.9082 104.235 60.5467C103.026 60.8659 101.794 61.191 100.538 61.5218C99.2414 61.8411 97.8287 61.8353 96.4975 61.4173C95.172 61.0168 93.9279 60.2274 92.9978 59.1362C92.0211 58.0798 91.4921 56.6228 91.1781 55.2472C90.4457 52.4784 89.6957 49.6284 88.9225 46.7088C87.382 40.8636 85.76 34.7283 84.0857 28.3724C83.6672 26.7819 83.2428 25.1799 82.8184 23.5604C82.6033 22.7536 82.394 21.941 82.1789 21.1225C81.9755 20.3099 81.708 19.4973 81.615 18.6092C81.4232 16.8562 81.8708 15.022 82.8998 13.5535C83.9113 12.0733 85.4693 10.9705 87.225 10.5119C100.735 6.97699 113.606 3.61038 125.321 0.551416C126.733 0.133492 128.361 -0.19156 129.849 0.168319C131.349 0.458544 132.715 1.23054 133.75 2.28696C134.796 3.33757 135.465 4.71324 135.773 6.0831C136.122 7.42394 136.471 8.74736 136.808 10.0476C138.162 15.2484 139.424 20.0893 140.575 24.5182C141.72 28.9412 142.761 32.9405 143.674 36.458C144.127 38.2168 144.551 39.8478 144.935 41.357C145.139 42.1 145.307 42.8488 145.348 43.5685C145.365 44.2883 145.307 44.979 145.156 45.6059C144.528 48.1657 142.854 49.6052 141.709 50.2611C141.116 50.5978 140.633 50.7835 140.302 50.8764C139.97 50.9751 139.796 51.0099 139.796 51.0099L139.79 51.0041Z" fill="#E0E0E0"/>
<path d="M124.472 36.1446C124.472 36.1446 124.356 36.191 124.117 36.2607C123.861 36.3362 123.518 36.429 123.088 36.5567C122.17 36.8121 120.873 37.1662 119.275 37.6073C116.019 38.478 111.519 39.6853 106.456 41.0436L106.351 41.0726L106.311 40.9739C106.037 40.3238 105.747 39.6331 105.45 38.9308C102.95 32.9463 100.718 27.6004 99.2589 24.1061L99.3519 24.1525C97.9043 24.5182 96.7475 24.8142 95.9278 25.0232C95.5441 25.1161 95.2418 25.1915 95.0151 25.2438C94.8058 25.2902 94.6953 25.3134 94.6953 25.3076C94.6953 25.3018 94.8 25.267 95.0034 25.2031C95.2301 25.1393 95.5266 25.0522 95.9045 24.9419C96.7184 24.7156 97.8695 24.4021 99.3112 24.0016L99.3751 23.9842L99.4042 24.048C100.881 27.5307 103.142 32.8651 105.677 38.8379C105.973 39.5402 106.264 40.231 106.537 40.8811L106.392 40.8114C111.461 39.488 115.967 38.3097 119.228 37.4564C120.833 37.0501 122.135 36.7192 123.059 36.4813C123.495 36.3768 123.838 36.2897 124.1 36.2317C124.338 36.1794 124.46 36.1504 124.466 36.162L124.472 36.1446Z" fill="#E0E0E0"/>
<path d="M104.921 37.3287C104.921 37.3287 104.95 37.3113 105.008 37.2939C105.078 37.2707 105.165 37.2474 105.27 37.2126C105.52 37.143 105.863 37.0443 106.299 36.9224C107.217 36.6728 108.52 36.3129 110.153 35.866C113.461 34.9779 118.094 33.7357 123.454 32.302L123.367 32.4297C123.17 30.0905 122.954 27.5539 122.728 24.9361C122.611 23.5895 122.501 22.266 122.396 21.0007L122.553 21.111C116.321 22.742 110.816 24.1873 106.851 25.2263C104.886 25.7313 103.305 26.1376 102.195 26.4221C101.66 26.5556 101.241 26.66 100.939 26.7297C100.805 26.7587 100.701 26.7819 100.613 26.8052C100.538 26.8226 100.503 26.8284 100.503 26.8226C100.503 26.8226 100.538 26.8052 100.608 26.7819C100.695 26.7587 100.799 26.7239 100.927 26.6833C101.23 26.5962 101.642 26.4801 102.171 26.3292C103.276 26.0274 104.851 25.5978 106.805 25.0638C110.764 24.0074 116.257 22.5331 122.484 20.873L122.629 20.8323L122.641 20.9774C122.745 22.2428 122.861 23.5663 122.972 24.9129C123.193 27.5365 123.402 30.0673 123.6 32.4065V32.5052L123.513 32.5284C118.141 33.9331 113.508 35.1404 110.188 36.0111C108.549 36.429 107.241 36.7657 106.316 36.9979C105.88 37.1081 105.532 37.1894 105.282 37.2533C105.171 37.2765 105.084 37.2997 105.014 37.3113C104.956 37.3229 104.921 37.3287 104.921 37.3229V37.3287Z" fill="#E0E0E0"/>
<path d="M112.246 44.6134C112.246 44.6134 112.182 44.4566 112.031 44.2128C111.886 43.9691 111.595 43.6382 111.118 43.4525C110.653 43.2609 109.985 43.2725 109.444 43.6556C108.903 44.0213 108.555 44.7933 108.758 45.5363C108.95 46.2792 109.63 46.7784 110.287 46.8307C110.95 46.9003 111.537 46.5753 111.845 46.1806C112.165 45.7859 112.252 45.3563 112.258 45.0719C112.264 44.7817 112.223 44.6192 112.246 44.6192C112.258 44.6192 112.333 44.7701 112.357 45.0719C112.38 45.3679 112.322 45.8439 111.985 46.2909C111.665 46.7378 111.02 47.1267 110.27 47.0629C109.525 47.0222 108.735 46.4534 108.52 45.6001C108.287 44.7527 108.694 43.8704 109.316 43.4699C109.938 43.0403 110.694 43.0636 111.188 43.2899C111.7 43.5163 111.985 43.8994 112.118 44.1664C112.252 44.4392 112.258 44.6134 112.246 44.6134Z" fill="#E0E0E0"/>
<path d="M123.856 41.5428C123.856 41.5428 123.792 41.3861 123.64 41.1423C123.495 40.8985 123.204 40.5676 122.728 40.3819C122.263 40.1904 121.594 40.202 121.053 40.5851C120.513 40.9507 120.164 41.7227 120.368 42.4657C120.559 43.2087 121.24 43.7079 121.896 43.7601C122.559 43.8298 123.146 43.5047 123.454 43.11C123.774 42.7153 123.861 42.2858 123.867 42.0014C123.873 41.7111 123.832 41.5486 123.856 41.5486C123.867 41.5486 123.943 41.6995 123.966 42.0014C123.989 42.2974 123.931 42.7734 123.594 43.2203C123.274 43.6672 122.629 44.0561 121.879 43.9923C121.135 43.9517 120.344 43.3828 120.129 42.5296C119.897 41.6821 120.304 40.7998 120.926 40.3993C121.548 39.9698 122.303 39.993 122.798 40.2194C123.309 40.4458 123.594 40.8288 123.728 41.0959C123.861 41.3687 123.867 41.5428 123.856 41.5428Z" fill="#E0E0E0"/>
<path d="M229.463 259.287C216.412 252.879 211.389 238.031 209.744 224.245C209.47 221.946 208.842 219.567 209.627 217.396C210.412 215.219 212.743 213.454 214.941 214.105C216.766 214.644 217.813 216.508 219.016 217.994C220.621 219.973 222.783 221.488 225.184 222.295C226.76 222.829 228.637 223.014 229.957 221.999C231.765 220.606 231.579 217.843 231.213 215.567C230.532 211.33 229.852 207.087 229.172 202.85C228.806 200.574 228.44 198.252 228.817 195.983C229.195 193.713 230.451 191.467 232.526 190.527C234.602 189.586 237.48 190.422 238.276 192.581C238.607 193.481 238.567 194.474 238.776 195.408C238.985 196.343 239.59 197.324 240.526 197.446C241.479 197.573 242.287 196.79 242.869 196.018C244.868 193.359 246.008 190.149 247.048 186.974C248.089 183.799 249.072 180.56 250.821 177.728C252.571 174.895 255.216 172.451 258.454 171.767C261.693 171.082 265.483 172.556 266.803 175.632C268.122 178.715 266.75 182.261 265.111 185.169C262.675 189.488 259.617 193.446 256.065 196.883C255.426 197.504 254.728 198.171 254.589 199.059C254.327 200.656 256.001 201.938 257.577 202.205C259.361 202.507 261.181 202.049 262.989 201.985C264.797 201.921 266.843 202.408 267.779 203.982C269.07 206.164 267.5 208.904 265.826 210.796C262.477 214.586 258.484 217.785 254.065 220.217C252.484 221.087 250.798 221.894 249.63 223.281C248.461 224.669 247.955 226.84 249.019 228.314C250.083 229.794 252.263 229.986 253.966 229.388C255.676 228.796 257.1 227.6 258.675 226.712C261.629 225.052 265.71 224.646 268.134 227.037C269.727 228.61 270.227 231.071 269.884 233.288C269.541 235.512 268.471 237.543 267.291 239.447C263.175 246.099 257.472 251.828 250.595 255.462C243.712 259.095 237.084 260.807 229.451 259.281" fill="#F5F5F5"/>
<path d="M231.684 250.145C232.637 242.912 234.346 235.07 236.41 226.932C236.933 224.901 237.45 222.892 237.962 220.913C238.474 218.94 238.985 216.978 239.601 215.097C240.816 211.324 242.276 207.783 243.77 204.469C245.258 201.155 246.793 198.061 248.246 195.176C249.711 192.297 251.124 189.639 252.513 187.27C255.28 182.522 257.966 178.964 259.908 176.596C260.879 175.406 261.658 174.512 262.198 173.908C262.46 173.624 262.663 173.398 262.815 173.229C262.954 173.078 263.03 173.003 263.035 173.009C263.041 173.009 262.977 173.096 262.849 173.258C262.704 173.432 262.512 173.67 262.268 173.966C261.751 174.587 260.989 175.499 260.042 176.7C258.141 179.098 255.507 182.673 252.781 187.427C251.409 189.795 250.013 192.46 248.566 195.339C247.124 198.223 245.607 201.317 244.13 204.632C242.654 207.94 241.206 211.469 240.003 215.225C239.392 217.1 238.886 219.044 238.375 221.023C237.863 223.003 237.352 225.011 236.823 227.043C234.759 235.175 233.044 242.993 232.073 250.203" fill="#E0E0E0"/>
<path d="M239.723 215.062C239.723 215.062 239.567 214.737 239.351 214.128C239.136 213.518 238.851 212.624 238.514 211.516C237.84 209.298 237.02 206.205 236.125 202.792C235.23 199.373 234.363 196.302 233.66 194.102C233.311 192.999 233.021 192.111 232.811 191.502C232.608 190.887 232.503 190.544 232.532 190.532C232.561 190.521 232.712 190.846 232.968 191.444C233.224 192.042 233.561 192.918 233.945 194.009C234.724 196.192 235.637 199.268 236.532 202.687C237.404 206.059 238.195 209.107 238.799 211.44C239.078 212.491 239.317 213.379 239.503 214.087C239.665 214.714 239.747 215.062 239.718 215.074L239.723 215.062Z" fill="#E0E0E0"/>
<path d="M268.198 205.09C268.198 205.09 267.791 205.229 267.053 205.409C266.308 205.589 265.233 205.851 263.919 206.21C261.28 206.913 257.664 208.01 253.728 209.391C249.798 210.784 246.293 212.195 243.787 213.286C242.531 213.826 241.526 214.284 240.828 214.604C240.13 214.923 239.741 215.086 239.729 215.062C239.718 215.033 240.084 214.824 240.758 214.459C241.433 214.099 242.421 213.594 243.671 213.013C246.153 211.847 249.653 210.384 253.594 208.991C257.542 207.604 261.181 206.547 263.849 205.92C265.181 205.595 266.268 205.38 267.024 205.247C267.779 205.119 268.198 205.061 268.204 205.09H268.198Z" fill="#E0E0E0"/>
<path d="M231.963 249.553C231.963 249.553 231.864 249.448 231.707 249.228C231.527 248.961 231.306 248.635 231.044 248.247C230.469 247.393 229.672 246.134 228.707 244.561C226.777 241.426 224.242 237.009 221.516 232.098C218.789 227.188 216.301 222.753 214.441 219.578C213.528 218.034 212.778 216.769 212.226 215.828C211.988 215.416 211.79 215.08 211.627 214.807C211.493 214.569 211.429 214.441 211.441 214.435C211.453 214.43 211.54 214.54 211.697 214.76C211.877 215.027 212.098 215.347 212.36 215.741C212.935 216.595 213.732 217.854 214.697 219.427C216.627 222.562 219.156 226.979 221.888 231.89C224.614 236.8 227.103 241.235 228.963 244.404C229.876 245.942 230.626 247.213 231.178 248.154C231.416 248.566 231.614 248.902 231.777 249.175C231.91 249.413 231.974 249.541 231.963 249.547V249.553Z" fill="#E0E0E0"/>
<path d="M268.988 231.03C268.988 231.03 268.872 231.117 268.628 231.251C268.337 231.402 267.983 231.582 267.553 231.802C266.558 232.302 265.221 232.975 263.588 233.793C260.239 235.477 255.647 237.851 250.571 240.48C245.496 243.115 240.875 245.449 237.491 247.062C235.799 247.869 234.428 248.508 233.468 248.931C233.026 249.123 232.66 249.28 232.364 249.413C232.108 249.518 231.968 249.57 231.963 249.553C231.957 249.541 232.079 249.465 232.323 249.332C232.614 249.187 232.968 249.001 233.399 248.781C234.393 248.281 235.73 247.608 237.363 246.79C240.712 245.106 245.304 242.732 250.38 240.097C255.455 237.468 260.076 235.128 263.46 233.515C265.152 232.708 266.524 232.069 267.483 231.646C267.925 231.454 268.291 231.292 268.587 231.164C268.843 231.059 268.977 231.013 268.988 231.025V231.03Z" fill="#E0E0E0"/>
<path d="M6.10992 49.1873C6.10992 49.1873 -0.377888 50.7603 4.76702 64.7723C9.91192 78.7844 13.7895 85.8833 13.7895 85.8833C13.7895 85.8833 14.615 89.0932 11.9757 89.2557C9.33639 89.4182 3.75548 87.8278 2.22072 90.8461C0.627839 93.9747 2.63929 97.353 7.13891 100.644C11.6385 103.935 21.2307 111.51 22.0969 112.201C22.9457 112.874 23.6956 114.412 21.9109 114.813C20.132 115.213 7.17379 114.999 7.44121 121.146C7.70862 127.287 21.7539 134.403 23.2712 135.21C24.7944 136.017 25.0908 136.736 24.8525 137.596C24.6141 138.455 20.2715 137.973 16.58 138.06C12.8942 138.153 8.63296 138.902 9.08641 142.431C9.53986 145.96 17.3648 154.214 38.2467 158.834L48.0656 160.343L54.4371 152.681C67.0698 135.448 67.5 124.088 65.5001 121.14C63.5061 118.191 59.8088 120.432 56.9776 122.794C54.1465 125.156 51.1991 128.384 50.4549 127.896C49.7108 127.409 49.4608 126.666 50.0654 125.058C50.6758 123.45 56.5242 108.852 52.664 104.057C48.8039 99.2684 39.2117 107.964 37.6072 108.834C36.0027 109.705 35.5492 108.062 35.7411 106.994C35.9387 105.909 38.1362 93.8935 39.3396 88.4547C40.543 83.0159 39.8221 79.1559 36.555 77.8557C33.4099 76.6019 30.2706 81.4719 28.1778 83.0913C26.0849 84.7108 24.5851 81.7563 24.5851 81.7563C24.5851 81.7563 22.8062 73.868 17.4113 59.9488C12.0106 46.0296 5.96459 49.2279 5.96459 49.2279" fill="#EBEBEB"/>
<path d="M48.2982 162.717C44.3741 152.478 37.706 134.171 31.8984 118.481C26.0908 102.798 20.8238 88.5998 16.952 78.3432C15.0161 73.2237 13.4465 69.0793 12.3536 66.2002C11.8129 64.7781 11.3944 63.6637 11.1037 62.8975C10.97 62.526 10.8595 62.2416 10.7839 62.0384C10.7142 61.841 10.6851 61.7424 10.6851 61.7424C10.6851 61.7424 10.7316 61.8352 10.813 62.0268C10.8944 62.2299 11.0107 62.5144 11.156 62.8801C11.4583 63.6404 11.8943 64.7433 12.4582 66.1596C13.586 69.0096 15.1905 73.1482 17.1497 78.2678C21.0738 88.5069 26.3756 102.687 32.1833 118.377C37.9909 134.066 44.6241 152.391 48.4958 162.642" fill="#E0E0E0"/>
<path d="M9.93519 93.3885C9.93519 93.3885 10.1794 93.4698 10.5979 93.6613C11.0165 93.8528 11.6153 94.1489 12.3536 94.5262C13.8244 95.275 15.8242 96.3604 18.0159 97.6025C20.1727 98.8331 22.1202 99.9418 23.6084 100.795C24.2828 101.172 24.8525 101.492 25.306 101.753C25.7071 101.979 25.928 102.113 25.9164 102.13C25.9047 102.147 25.6722 102.055 25.2478 101.863C24.8293 101.672 24.2305 101.37 23.498 100.992C22.033 100.226 20.0448 99.1175 17.8589 97.8754C15.6963 96.6622 13.743 95.5652 12.2431 94.7235C11.5688 94.3462 10.999 94.0328 10.5398 93.7774C10.1387 93.551 9.92356 93.4175 9.92938 93.3943L9.93519 93.3885Z" fill="#E0E0E0"/>
<path d="M26.6721 101.573C26.5965 101.532 28.6603 97.3123 31.2764 92.1405C33.8982 86.9687 36.0783 82.8069 36.1539 82.8475C36.2294 82.8882 34.1715 87.108 31.5496 92.2798C28.9335 97.4516 26.7477 101.613 26.6721 101.573Z" fill="#E0E0E0"/>
<path d="M34.497 126.068C34.497 126.068 34.654 125.853 34.9737 125.511C35.34 125.122 35.7934 124.634 36.3341 124.059C37.4793 122.829 39.0606 121.128 40.729 119.184C42.4033 117.245 43.8625 115.434 44.9031 114.116C45.3972 113.495 45.81 112.973 46.1414 112.555C46.4378 112.189 46.6064 111.992 46.6239 112.003C46.6413 112.015 46.5018 112.236 46.2402 112.625C45.9728 113.013 45.5833 113.571 45.0775 114.244C44.0776 115.596 42.6417 117.436 40.9616 119.381C39.2873 121.331 37.677 123.015 36.491 124.21C35.8922 124.802 35.4039 125.278 35.0609 125.598C34.7179 125.917 34.5144 126.085 34.5028 126.074L34.497 126.068Z" fill="#E0E0E0"/>
<path d="M17.731 121.987C17.731 121.987 17.9752 121.999 18.4054 122.08C18.8937 122.179 19.4983 122.301 20.2133 122.446C21.7365 122.765 23.8351 123.229 26.1489 123.763C28.4626 124.297 30.5555 124.791 32.0612 125.168C32.7646 125.348 33.3576 125.505 33.8459 125.627C34.2645 125.743 34.497 125.818 34.4912 125.836C34.4912 125.859 34.247 125.824 33.8168 125.743C33.3285 125.644 32.7239 125.522 32.0088 125.377C30.4857 125.058 28.3871 124.593 26.0733 124.059C23.7596 123.525 21.6725 123.032 20.161 122.655C19.4576 122.475 18.8646 122.318 18.3763 122.196C17.9577 122.08 17.7252 122.005 17.731 121.987Z" fill="#E0E0E0"/>
<path d="M21.8876 144.485C21.8876 144.485 22.1957 144.509 22.748 144.613C23.3526 144.735 24.1316 144.886 25.0618 145.072C27.0151 145.472 29.7067 146.047 32.6774 146.697C35.6481 147.353 38.3339 147.957 40.2756 148.415C41.1999 148.641 41.9731 148.827 42.5719 148.972C43.1125 149.112 43.409 149.199 43.4032 149.216C43.4032 149.239 43.0951 149.193 42.5428 149.088C41.9382 148.966 41.1592 148.816 40.2291 148.63C38.2757 148.229 35.5841 147.655 32.6076 146.999C29.6369 146.349 26.9511 145.739 25.0094 145.281C24.0851 145.054 23.3119 144.869 22.7131 144.723C22.1725 144.584 21.876 144.497 21.8818 144.48L21.8876 144.485Z" fill="#E0E0E0"/>
<path d="M42.9265 148.961C42.9265 148.961 43.1184 148.688 43.5079 148.235C43.9381 147.742 44.4961 147.103 45.1647 146.331C46.5657 144.723 48.4842 142.489 50.5421 139.964C52.6001 137.445 54.4023 135.111 55.6929 133.416C56.3149 132.604 56.8323 131.925 57.2276 131.408C57.5939 130.938 57.8031 130.682 57.8206 130.694C57.838 130.706 57.6636 130.984 57.3264 131.478C56.9951 131.971 56.4951 132.679 55.8731 133.544C54.6232 135.274 52.8443 137.63 50.7863 140.155C48.7283 142.68 46.775 144.898 45.3333 146.471C44.6124 147.254 44.0194 147.887 43.6009 148.311C43.1823 148.74 42.944 148.967 42.9323 148.955L42.9265 148.961Z" fill="#E0E0E0"/>
<path d="M257.635 260.349C257.635 260.43 201.634 260.5 132.57 260.5C63.5061 260.5 7.49353 260.43 7.49353 260.349C7.49353 260.268 63.4829 260.198 132.57 260.198C201.657 260.198 257.635 260.268 257.635 260.349Z" fill="#263238"/>
<path d="M230.579 21.2618L213.714 21.2502C211.453 21.2502 209.616 23.1599 209.616 25.5223V28.5755C209.616 30.9379 207.779 32.8476 205.517 32.8476L172.642 32.8302C170.381 32.8302 168.549 30.9147 168.549 28.5523V25.4991C168.549 23.1367 166.718 21.2212 164.457 21.2212H158.527L143.767 21.2096C136.436 21.2096 130.489 27.136 130.489 34.4555L130.448 246.999C130.448 254.318 136.384 260.25 143.709 260.25L230.527 260.303C237.857 260.303 243.805 254.376 243.805 247.057L243.845 34.5135C243.845 27.1998 237.91 21.2676 230.585 21.2618H230.579Z" fill="white"/>
<path d="M230.579 21.2618C230.579 21.2618 230.73 21.2618 231.032 21.2734C231.335 21.3025 231.788 21.2676 232.375 21.3779C233.55 21.5172 235.34 21.9003 237.352 23.0961C238.369 23.6707 239.404 24.4891 240.38 25.5456C241.357 26.602 242.258 27.9196 242.909 29.5042C243.566 31.0772 243.921 32.9231 243.903 34.885C243.903 36.8411 243.903 38.9249 243.909 41.1306C243.921 58.7879 243.933 84.3335 243.956 115.893C243.956 147.457 243.967 185.041 243.973 226.776C243.973 231.994 243.973 237.276 243.973 242.616C243.973 243.951 243.973 245.292 243.973 246.633C243.956 247.98 243.869 249.367 243.467 250.673C243.084 251.985 242.543 253.262 241.77 254.405C241.003 255.549 240.072 256.582 239.003 257.47C236.846 259.2 234.143 260.303 231.341 260.442C228.556 260.523 225.795 260.465 222.998 260.477C217.417 260.477 211.784 260.477 206.099 260.471C194.727 260.471 183.153 260.459 171.41 260.453C165.538 260.453 159.62 260.448 153.667 260.442C150.691 260.442 147.702 260.442 144.708 260.442C141.703 260.593 138.581 259.803 136.064 258.056C133.535 256.326 131.675 253.709 130.803 250.801C130.338 249.355 130.25 247.805 130.25 246.319C130.25 244.828 130.25 243.336 130.25 241.85C130.25 235.9 130.25 229.997 130.25 224.129C130.25 212.398 130.256 200.841 130.262 189.488C130.268 166.775 130.279 144.869 130.285 123.996C130.297 103.128 130.303 83.2945 130.314 64.7317C130.314 55.4503 130.326 46.4882 130.332 37.8743C130.332 36.7947 130.332 35.7266 130.332 34.6586C130.338 34.1246 130.378 33.5848 130.407 33.0508C130.5 32.5226 130.541 31.9885 130.681 31.4719C131.169 29.3997 132.128 27.4552 133.471 25.859C134.826 24.2686 136.523 23.009 138.395 22.1848C140.261 21.3431 142.313 21.0471 144.296 21.0703C148.249 21.0703 152.103 21.0819 155.864 21.0819C157.742 21.0819 159.597 21.0819 161.428 21.0877C162.341 21.0877 163.253 21.0877 164.154 21.0877C165.067 21.0413 166.015 21.2909 166.765 21.8191C167.515 22.3415 168.09 23.0961 168.387 23.9493C168.73 24.8026 168.648 25.7197 168.654 26.5671C168.654 26.9967 168.654 27.4262 168.654 27.8557C168.654 28.2853 168.642 28.709 168.695 29.1211C168.799 29.9396 169.148 30.729 169.683 31.3384C170.212 31.9595 170.933 32.4065 171.712 32.598C172.101 32.6967 172.497 32.7257 172.91 32.7141C173.316 32.7141 173.723 32.7141 174.13 32.7141C175.752 32.7141 177.351 32.7141 178.921 32.7199C185.199 32.7315 191.042 32.7373 196.419 32.7431C199.111 32.7431 201.68 32.7489 204.134 32.7547C204.744 32.7431 205.36 32.7838 205.942 32.7315C206.523 32.6677 207.081 32.4645 207.564 32.1627C208.54 31.559 209.197 30.5548 209.424 29.4926C209.546 28.9644 209.523 28.4246 209.528 27.8848C209.528 27.3508 209.528 26.8225 209.528 26.3001C209.534 25.7835 209.505 25.2611 209.598 24.7561C209.685 24.2512 209.86 23.7694 210.098 23.334C210.575 22.4634 211.354 21.8017 212.214 21.465C213.086 21.0877 214.011 21.2038 214.848 21.1864C218.249 21.198 221.126 21.2038 223.458 21.2096C225.783 21.2212 227.556 21.227 228.754 21.2328C229.945 21.2386 230.556 21.2502 230.556 21.2502C230.556 21.2502 229.945 21.2618 228.754 21.2676C227.556 21.2676 225.783 21.2734 223.458 21.2851C221.132 21.2851 218.249 21.2909 214.848 21.2967C213.999 21.3141 213.098 21.2096 212.255 21.5753C211.418 21.9061 210.668 22.5504 210.203 23.3979C209.97 23.8216 209.802 24.286 209.72 24.7794C209.627 25.2669 209.662 25.7835 209.656 26.3001C209.656 26.8225 209.656 27.3508 209.656 27.8848C209.656 28.4188 209.68 28.976 209.552 29.5216C209.325 30.6187 208.639 31.6577 207.633 32.2904C207.133 32.6038 206.552 32.8186 205.947 32.8882C205.331 32.9405 204.738 32.9056 204.122 32.9173C201.669 32.9173 199.093 32.9173 196.408 32.9173C191.03 32.9173 185.188 32.9173 178.909 32.9173C177.339 32.9173 175.741 32.9173 174.119 32.9173C173.712 32.9173 173.305 32.9173 172.898 32.9173C172.491 32.9289 172.055 32.8998 171.648 32.7954C170.823 32.5922 170.061 32.122 169.503 31.4719C168.933 30.8276 168.567 29.9976 168.456 29.1385C168.398 28.7032 168.416 28.2737 168.41 27.8441C168.41 27.4146 168.41 26.9851 168.41 26.5555C168.398 25.6907 168.474 24.82 168.148 24.019C167.869 23.2121 167.317 22.4982 166.608 22.0048C165.893 21.5114 165.026 21.2792 164.131 21.3199H161.405C159.573 21.3199 157.719 21.3199 155.841 21.3199C152.08 21.3199 148.226 21.3199 144.272 21.3199C142.308 21.2967 140.314 21.5927 138.482 22.4169C136.651 23.2238 134.988 24.4601 133.663 26.0215C132.349 27.5887 131.407 29.4926 130.936 31.5184C130.803 32.0234 130.762 32.5458 130.669 33.0624C130.64 33.5848 130.605 34.1072 130.599 34.6412C130.599 35.7092 130.599 36.7772 130.599 37.8569C130.599 46.4708 130.599 55.4329 130.599 64.7143C130.599 83.277 130.599 103.105 130.599 123.978C130.599 144.851 130.599 166.757 130.599 189.47C130.599 200.824 130.599 212.386 130.599 224.111C130.599 229.974 130.599 235.883 130.599 241.833C130.599 243.319 130.599 244.81 130.599 246.302C130.599 247.788 130.681 249.262 131.14 250.679C131.983 253.5 133.797 256.048 136.256 257.731C138.715 259.426 141.703 260.198 144.685 260.047C147.679 260.047 150.667 260.047 153.644 260.047C159.597 260.047 165.515 260.053 171.386 260.059C183.13 260.065 194.704 260.076 206.075 260.082C211.761 260.082 217.394 260.088 222.975 260.094C225.76 260.076 228.556 260.14 231.294 260.059C234.021 259.925 236.654 258.851 238.753 257.168C239.793 256.309 240.7 255.299 241.444 254.185C242.194 253.07 242.723 251.828 243.095 250.551C243.491 249.268 243.578 247.939 243.59 246.604C243.59 245.263 243.59 243.922 243.59 242.587C243.59 237.247 243.589 231.965 243.595 226.747C243.619 185.012 243.642 147.428 243.659 115.863C243.688 84.2986 243.717 58.7589 243.735 41.1016C243.735 38.8959 243.741 36.8121 243.746 34.856C243.77 32.9056 243.427 31.083 242.776 29.5158C242.136 27.9486 241.247 26.631 240.282 25.5804C239.317 24.5298 238.293 23.7055 237.282 23.1309C235.288 21.9294 233.509 21.5346 232.335 21.3895C231.747 21.2734 231.294 21.3025 230.992 21.2676C230.689 21.2502 230.538 21.2328 230.538 21.2328L230.579 21.2618Z" fill="#263238"/>
<path d="M151.975 42.7268C151.975 42.7849 149.784 42.8487 147.075 42.8719C144.366 42.8952 142.174 42.8719 142.174 42.8081C142.174 42.7442 144.366 42.6862 147.075 42.663C149.778 42.6398 151.975 42.663 151.975 42.7268Z" fill="#263238"/>
<path d="M151.999 45.2285C151.999 45.2866 149.807 45.3504 147.098 45.3736C144.389 45.3969 142.197 45.3736 142.197 45.3098C142.197 45.2518 144.389 45.1879 147.098 45.1647C149.801 45.1415 151.999 45.1647 151.999 45.2285Z" fill="#263238"/>
<path d="M152.016 47.7303C152.016 47.7883 149.824 47.8522 147.115 47.8754C144.406 47.8986 142.215 47.8754 142.215 47.8116C142.215 47.7535 144.406 47.6897 147.115 47.6665C149.819 47.6432 152.016 47.6665 152.016 47.7303Z" fill="#263238"/>
<path d="M184.159 206.611H140.529V250.174H184.159V206.611Z" fill="#F5F5F5"/>
<path d="M179.002 231.535C175.45 226.584 167.91 223.194 161.783 224.106C156.812 224.843 152.423 227.147 150.016 232.069C149.336 233.457 150.208 235.111 151.749 235.291C160.01 236.278 168.393 236.249 176.648 235.21C177.921 235.047 179.438 234.699 179.525 233.12C179.554 232.551 179.333 232 179.002 231.53V231.535Z" fill="#F30990"/>
<g opacity="0.5">
<path d="M179.002 231.535C175.45 226.584 167.91 223.194 161.783 224.106C156.812 224.843 152.423 227.147 150.016 232.069" fill="white"/>
</g>
<path d="M159.387 231.286C159.358 231.309 159.103 231.059 158.765 230.589C158.434 230.125 158.021 229.411 157.824 228.534C157.632 227.664 157.643 226.863 157.638 226.294C157.643 225.725 157.673 225.371 157.713 225.371C157.754 225.371 157.806 225.719 157.853 226.288C157.905 226.851 157.934 227.641 158.12 228.471C158.306 229.301 158.667 229.986 158.946 230.473C159.231 230.961 159.428 231.257 159.387 231.286Z" fill="#F5F5F5"/>
<path d="M164.654 231.042C164.561 231.03 164.695 229.637 164.509 227.931C164.335 226.224 163.916 224.883 164.003 224.854C164.073 224.825 164.631 226.149 164.811 227.896C165.003 229.643 164.73 231.054 164.654 231.042Z" fill="#F5F5F5"/>
<path d="M170.09 230.247C170.009 230.212 170.416 229.272 170.514 228.041C170.631 226.811 170.387 225.818 170.48 225.795C170.549 225.766 170.939 226.77 170.817 228.064C170.712 229.359 170.154 230.287 170.09 230.241V230.247Z" fill="#F5F5F5"/>
<g opacity="0.3">
<path d="M163.684 224.338C163.684 224.338 163.713 224.396 163.73 224.425L163.678 224.344L163.684 224.338Z" fill="black"/>
</g>
<path d="M184.664 65.7881H140.529V131.849H184.664V65.7881Z" fill="#F5F5F5"/>
<path d="M184.664 136.829H140.529V202.89H184.664V136.829Z" fill="#F5F5F5"/>
<path d="M233.003 124.355H188.867V186.034H233.003V124.355Z" fill="#F5F5F5"/>
<path d="M232.643 190.376H188.507V250.174H232.643V190.376Z" fill="#F5F5F5"/>
<path d="M233.003 65.7881H188.867V120.35H233.003V65.7881Z" fill="#F5F5F5"/>
<path d="M169.526 85.5408C169.526 85.5408 169.526 85.564 169.526 85.5698V103.854C169.526 104.655 168.881 105.485 167.689 106.112C166.503 106.739 164.771 107.168 162.602 107.174H162.573C158.242 107.168 155.649 105.468 155.649 103.86V85.5756C155.649 85.5756 155.649 85.564 155.649 85.5466C155.649 85.535 155.649 85.5234 155.649 85.5118C155.661 83.724 156.975 81.8607 158.3 80.0149C159.19 78.7844 159.405 77.0082 159.446 75.9692C159.446 75.8473 159.457 75.737 159.457 75.6325H159.335C158.765 75.6325 158.3 75.2378 158.3 74.7502V73.9782C158.3 73.4849 158.76 73.0901 159.335 73.0901H165.84C166.271 73.0901 166.637 73.3107 166.794 73.63C166.846 73.7403 166.875 73.8563 166.875 73.9782V74.7502C166.875 75.2378 166.416 75.6325 165.84 75.6325H165.718C165.718 75.7312 165.718 75.8473 165.73 75.9692C165.771 77.0082 165.986 78.7844 166.875 80.0149C168.201 81.8607 169.514 83.724 169.526 85.5118C169.526 85.5234 169.526 85.5408 169.526 85.5466V85.5408Z" fill="#FAFAFA"/>
<path d="M169.526 85.5408C169.526 85.5408 169.526 85.4769 169.509 85.355C169.503 85.2331 169.48 85.0474 169.433 84.8094C169.34 84.3334 169.113 83.6485 168.666 82.8359C168.224 82.0175 167.567 81.0887 166.782 80.0091C165.997 78.8888 165.66 77.3216 165.625 75.6267V75.5164L165.724 75.528C166.189 75.5687 166.695 75.3017 166.765 74.8315C166.776 74.5993 166.765 74.3149 166.765 74.0537C166.782 73.7983 166.689 73.5777 166.497 73.4152C166.311 73.2585 166.055 73.1772 165.794 73.1888C165.515 73.1888 165.23 73.1888 164.939 73.1888C164.364 73.1888 163.777 73.1888 163.172 73.1888C161.969 73.1888 160.719 73.1888 159.422 73.2004C159.114 73.183 158.824 73.2759 158.62 73.4848C158.521 73.5893 158.451 73.7112 158.434 73.8505C158.417 73.9724 158.428 74.1698 158.422 74.3265C158.422 74.489 158.422 74.6806 158.428 74.8141C158.446 74.9534 158.51 75.0869 158.608 75.1914C158.812 75.4119 159.108 75.5048 159.44 75.4874H159.579V75.6209C159.568 76.3581 159.498 77.1068 159.335 77.8498C159.167 78.5928 158.911 79.3416 158.457 80.0091C157.574 81.2745 156.597 82.5573 156.056 84.0664C155.928 84.4437 155.835 84.8326 155.801 85.2273C155.777 85.6162 155.789 86.0458 155.789 86.4579C155.789 87.2879 155.789 88.1296 155.789 88.977C155.789 90.6719 155.789 92.4017 155.789 94.1547C155.789 97.231 155.789 100.238 155.789 103.14C155.795 103.5 155.766 103.877 155.835 104.185C155.905 104.51 156.097 104.8 156.318 105.05C156.771 105.555 157.376 105.926 158.004 106.193C159.271 106.727 160.632 106.948 161.951 107.006C163.271 107.064 164.573 106.954 165.788 106.658C166.986 106.35 168.16 105.857 168.916 104.986C169.102 104.771 169.241 104.521 169.323 104.266C169.404 104.011 169.387 103.738 169.392 103.442C169.392 102.867 169.392 102.31 169.392 101.759C169.392 100.656 169.398 99.5993 169.404 98.5893C169.421 94.5668 169.439 91.3046 169.451 89.0351C169.462 87.9206 169.474 87.0499 169.48 86.4347C169.485 85.8426 169.503 85.5292 169.503 85.5292C169.526 85.5292 169.526 85.8426 169.538 86.4347C169.544 87.0441 169.555 87.9148 169.567 89.0351C169.578 91.3104 169.596 94.5668 169.613 98.5893C169.613 99.5993 169.619 100.656 169.625 101.759C169.625 102.31 169.625 102.873 169.625 103.442C169.625 103.72 169.648 104.028 169.549 104.336C169.456 104.632 169.299 104.91 169.102 105.143C168.288 106.089 167.073 106.588 165.846 106.913C164.602 107.221 163.277 107.337 161.934 107.279C160.591 107.226 159.201 107.006 157.882 106.454C157.231 106.17 156.591 105.793 156.091 105.235C155.847 104.957 155.626 104.632 155.539 104.249C155.452 103.848 155.492 103.5 155.481 103.134C155.481 100.232 155.481 97.2252 155.481 94.1488C155.481 92.3959 155.481 90.6719 155.481 88.9712C155.481 88.1238 155.481 87.2821 155.481 86.4521C155.481 86.0284 155.475 85.6336 155.498 85.1983C155.533 84.7746 155.632 84.3567 155.771 83.9678C156.335 82.3947 157.335 81.1003 158.219 79.8466C159.056 78.587 159.265 77.0372 159.3 75.6209L159.434 75.7544C159.079 75.7776 158.661 75.6615 158.399 75.3713C158.265 75.2262 158.178 75.0405 158.155 74.8431C158.143 74.6399 158.155 74.5006 158.149 74.3265C158.155 74.1524 158.138 74.0131 158.167 73.8041C158.196 73.6125 158.3 73.4384 158.428 73.3049C158.69 73.0321 159.085 72.9276 159.417 72.945C160.713 72.945 161.963 72.9508 163.166 72.9566C163.765 72.9566 164.358 72.9566 164.933 72.9566C165.218 72.9566 165.503 72.9566 165.788 72.9566C166.085 72.9508 166.404 73.0437 166.631 73.2411C166.869 73.4268 166.997 73.7693 166.968 74.0479C166.968 74.3207 166.974 74.5645 166.957 74.8547C166.864 75.4758 166.201 75.766 165.707 75.7196L165.805 75.6209C165.829 77.2868 166.148 78.8308 166.893 79.9162C167.666 81.0017 168.311 81.9536 168.741 82.7836C169.177 83.6137 169.392 84.316 169.468 84.7978C169.503 85.0416 169.52 85.2273 169.514 85.3492C169.514 85.4769 169.514 85.535 169.503 85.535L169.526 85.5408Z" fill="#263238"/>
<path d="M165.364 75.5861C165.364 75.6674 164.067 75.737 162.469 75.737C160.87 75.737 159.573 75.6674 159.573 75.5861C159.573 75.5048 160.87 75.4352 162.469 75.4352C164.067 75.4352 165.364 75.5048 165.364 75.5861Z" fill="#263238"/>
<path d="M168.945 87.9845C168.358 87.6072 167.59 87.7697 166.962 88.0657C166.335 88.3618 165.742 88.7797 165.061 88.89C164.259 89.0177 163.451 88.6984 162.736 88.2979C162.021 87.8916 161.347 87.3982 160.579 87.1254C159.108 86.603 157.364 87.0093 156.248 88.1412V103.842C156.248 103.842 157.114 106.518 163.195 106.1C169.276 105.677 168.799 103.001 168.799 103.001L168.956 87.9845H168.945Z" fill="#F30990"/>
<path d="M215.941 212.619C215.941 212.619 215.941 212.642 215.941 212.648V230.81C215.941 231.605 215.301 232.429 214.115 233.05C212.935 233.672 211.214 234.101 209.063 234.101H209.034C204.732 234.095 202.157 232.4 202.157 230.804V212.642C202.157 212.642 202.157 212.63 202.157 212.613C202.157 212.601 202.157 212.59 202.157 212.578C202.169 210.802 203.471 208.95 204.791 207.116C205.674 205.891 205.883 204.132 205.93 203.099C205.93 202.977 205.942 202.867 205.942 202.763H205.825C205.256 202.763 204.796 202.368 204.796 201.886V201.12C204.796 200.632 205.256 200.238 205.825 200.238H212.29C212.714 200.238 213.081 200.458 213.237 200.772C213.29 200.882 213.313 200.998 213.313 201.12V201.886C213.313 202.374 212.854 202.763 212.284 202.763H212.168C212.168 202.861 212.168 202.972 212.179 203.099C212.22 204.132 212.429 205.897 213.319 207.116C214.633 208.944 215.941 210.802 215.952 212.578C215.952 212.59 215.952 212.607 215.952 212.613L215.941 212.619Z" fill="#FAFAFA"/>
<path d="M215.941 212.619C215.941 212.619 215.941 212.555 215.923 212.433C215.918 212.311 215.894 212.125 215.848 211.893C215.755 211.423 215.528 210.738 215.086 209.931C214.644 209.119 213.999 208.196 213.22 207.122C212.441 206.007 212.104 204.452 212.069 202.768V202.658L212.168 202.67C212.627 202.71 213.133 202.443 213.203 201.979C213.214 201.753 213.203 201.468 213.203 201.207C213.22 200.952 213.127 200.731 212.941 200.574C212.755 200.418 212.505 200.336 212.243 200.348C211.964 200.348 211.679 200.348 211.395 200.348C210.825 200.348 210.238 200.348 209.639 200.348C208.447 200.348 207.203 200.348 205.918 200.36C205.61 200.342 205.325 200.435 205.122 200.638C205.029 200.743 204.953 200.865 204.936 201.004C204.918 201.126 204.93 201.317 204.924 201.474C204.924 201.631 204.924 201.822 204.924 201.956C204.942 202.095 205.006 202.223 205.104 202.327C205.308 202.542 205.604 202.641 205.93 202.618H206.07V202.751C206.058 203.482 205.988 204.225 205.825 204.968C205.663 205.705 205.407 206.454 204.953 207.11C204.075 208.37 203.105 209.641 202.57 211.138C202.442 211.51 202.349 211.899 202.32 212.294C202.297 212.677 202.308 213.106 202.308 213.513C202.308 214.337 202.308 215.173 202.308 216.02C202.308 217.703 202.308 219.422 202.308 221.163C202.308 224.222 202.308 227.205 202.308 230.09C202.314 230.45 202.285 230.827 202.355 231.129C202.424 231.448 202.616 231.739 202.837 231.988C203.291 232.493 203.889 232.859 204.512 233.126C205.767 233.654 207.122 233.875 208.43 233.933C209.744 233.991 211.034 233.886 212.243 233.59C213.435 233.288 214.604 232.795 215.348 231.93C215.528 231.715 215.668 231.472 215.755 231.216C215.836 230.961 215.819 230.688 215.819 230.398C215.819 229.829 215.819 229.272 215.819 228.726C215.819 227.635 215.824 226.584 215.83 225.58C215.848 221.587 215.865 218.342 215.877 216.084C215.888 214.975 215.9 214.11 215.906 213.501C215.912 212.909 215.929 212.601 215.929 212.601C215.952 212.601 215.952 212.909 215.964 213.501C215.97 214.11 215.981 214.975 215.993 216.084C216.005 218.342 216.022 221.581 216.04 225.58C216.04 226.584 216.045 227.635 216.051 228.726C216.051 229.272 216.051 229.829 216.051 230.398C216.051 230.671 216.074 230.984 215.976 231.286C215.883 231.582 215.726 231.855 215.528 232.087C214.72 233.027 213.511 233.526 212.296 233.846C211.057 234.153 209.744 234.264 208.407 234.211C207.069 234.159 205.692 233.939 204.384 233.393C203.738 233.114 203.105 232.737 202.605 232.186C202.361 231.907 202.145 231.588 202.058 231.205C201.971 230.81 202.012 230.456 202 230.096C202 227.211 202 224.228 202 221.169C202 219.427 202 217.715 202 216.026C202 215.184 202 214.348 202 213.518C202 213.1 201.994 212.706 202.018 212.276C202.052 211.852 202.151 211.44 202.285 211.051C202.849 209.484 203.837 208.207 204.715 206.953C205.546 205.705 205.756 204.161 205.79 202.757L205.924 202.89C205.575 202.914 205.157 202.797 204.895 202.507C204.761 202.368 204.674 202.182 204.651 201.985C204.639 201.787 204.651 201.642 204.645 201.468C204.651 201.294 204.634 201.155 204.663 200.952C204.692 200.76 204.791 200.586 204.918 200.452C205.174 200.18 205.57 200.075 205.901 200.093C207.186 200.093 208.43 200.098 209.622 200.104C210.22 200.104 210.802 200.104 211.377 200.104C211.662 200.104 211.947 200.104 212.226 200.104C212.522 200.098 212.836 200.191 213.063 200.389C213.301 200.574 213.429 200.911 213.4 201.19C213.4 201.462 213.406 201.706 213.389 201.991C213.296 202.606 212.639 202.902 212.15 202.85L212.249 202.751C212.272 204.405 212.592 205.938 213.331 207.017C214.098 208.097 214.737 209.037 215.168 209.867C215.604 210.692 215.813 211.388 215.888 211.87C215.923 212.114 215.941 212.294 215.935 212.421C215.935 212.543 215.935 212.607 215.923 212.607L215.941 212.619Z" fill="#263238"/>
<path d="M211.802 202.722C211.802 202.803 210.511 202.873 208.924 202.873C207.337 202.873 206.046 202.803 206.046 202.722C206.046 202.641 207.337 202.571 208.924 202.571C210.511 202.571 211.802 202.641 211.802 202.722Z" fill="#263238"/>
<path d="M215.365 215.045C214.784 214.668 214.016 214.836 213.394 215.126C212.772 215.422 212.179 215.834 211.505 215.945C210.709 216.072 209.901 215.753 209.191 215.353C208.482 214.952 207.814 214.459 207.046 214.186C205.581 213.663 203.849 214.07 202.744 215.196V230.792C202.744 230.792 203.605 233.451 209.645 233.033C215.685 232.615 215.208 229.957 215.208 229.957L215.365 215.039V215.045Z" fill="#F30990"/>
<g opacity="0.5">
<path d="M215.365 215.045C214.784 214.668 214.016 214.836 213.394 215.126C212.772 215.422 212.179 215.834 211.505 215.945C210.709 216.072 209.901 215.753 209.191 215.353C208.482 214.952 207.814 214.459 207.046 214.186C205.581 213.663 203.849 214.07 202.744 215.196V230.792C202.744 230.792 203.605 233.451 209.645 233.033C215.685 232.615 215.208 229.957 215.208 229.957L215.365 215.039V215.045Z" fill="white"/>
</g>
<path d="M225.405 146.616C225.062 146.436 224.614 146.505 224.184 146.761C224.097 146.813 224.004 146.889 223.917 146.958C221.33 148.967 217.702 150.226 213.708 150.226C206.564 150.226 200.651 146.227 199.587 141.003V140.016C199.587 139.621 199.268 139.308 198.878 139.308C198.489 139.308 198.169 139.627 198.169 140.016V142.785C198.169 142.854 198.192 142.912 198.21 142.97C197.733 144.056 197.454 145.211 197.454 146.424C197.454 152.455 203.855 157.354 211.761 157.354C218.394 157.354 223.981 153.912 225.597 149.228C225.614 149.21 225.632 149.176 225.632 149.158C225.829 148.746 225.94 148.316 225.94 147.957C225.975 147.347 225.795 146.842 225.417 146.627L225.405 146.616Z" fill="#F30990"/>
<g opacity="0.3">
<path d="M199.053 143.69C199.053 143.69 205.785 159.159 224.033 148.316C224.033 148.316 219.33 153.192 213.197 154.376C207.657 155.45 199.43 152.322 199.058 143.684L199.053 143.69Z" fill="black"/>
</g>
<path d="M225.905 147.393C225.795 147.66 225.353 147.736 224.928 147.556C224.504 147.376 224.254 147.01 224.364 146.743C224.481 146.476 224.917 146.401 225.341 146.581C225.765 146.761 226.015 147.121 225.905 147.393Z" fill="#263238"/>
<path d="M232.707 47.62C232.707 47.62 232.66 47.6258 232.561 47.6316C232.457 47.6316 232.323 47.6374 232.149 47.6432C231.782 47.6432 231.259 47.6548 230.62 47.6664C229.317 47.6781 227.515 47.6955 225.486 47.7129H225.446L225.44 47.6723C225.399 47.3994 225.359 47.115 225.318 46.8248C224.963 44.3405 224.643 42.1232 224.44 40.672L224.469 40.7011C223.888 40.7011 223.428 40.7011 223.103 40.6953C222.952 40.6953 222.83 40.6952 222.737 40.6894C222.655 40.6894 222.609 40.6894 222.609 40.6836C222.609 40.6778 222.649 40.6778 222.737 40.672C222.83 40.672 222.946 40.6662 223.103 40.6604C223.428 40.6604 223.894 40.6488 224.469 40.6372H224.498V40.6662C224.713 42.1115 225.045 44.3289 225.411 46.8132C225.452 47.1034 225.492 47.3936 225.533 47.6606L225.486 47.62C227.515 47.62 229.317 47.6084 230.62 47.6084C231.259 47.6084 231.782 47.6084 232.149 47.6142C232.323 47.6142 232.457 47.6142 232.561 47.62C232.654 47.62 232.707 47.62 232.707 47.6258V47.62Z" fill="#263238"/>
<path d="M225.271 46.1747C225.271 46.1747 225.283 46.1747 225.306 46.1747C225.335 46.1747 225.37 46.1747 225.411 46.1747C225.51 46.1747 225.649 46.1689 225.824 46.1631C226.19 46.1631 226.713 46.1515 227.37 46.1399C228.695 46.1283 230.55 46.1109 232.695 46.0935L232.649 46.1341C232.8 45.2402 232.968 44.2709 233.137 43.2667C233.224 42.7501 233.311 42.2451 233.393 41.7633L233.439 41.8214C230.945 41.8272 228.748 41.8388 227.161 41.8446C226.376 41.8446 225.742 41.8446 225.3 41.8446C225.085 41.8446 224.923 41.8446 224.8 41.8446C224.748 41.8446 224.707 41.8446 224.673 41.8446C224.643 41.8446 224.626 41.8446 224.626 41.8446C224.626 41.8446 224.643 41.8446 224.673 41.8446C224.707 41.8446 224.748 41.8446 224.8 41.8446C224.923 41.8446 225.091 41.8388 225.3 41.833C225.742 41.8272 226.376 41.8156 227.161 41.8097C228.748 41.7981 230.945 41.7749 233.439 41.7575H233.497L233.486 41.8156C233.404 42.2973 233.317 42.8081 233.23 43.3189C233.056 44.3231 232.893 45.2924 232.736 46.1863V46.227H232.689C230.544 46.227 228.69 46.2386 227.364 46.2386C226.707 46.2386 226.184 46.2386 225.818 46.2386C225.643 46.2386 225.504 46.2386 225.405 46.2386C225.364 46.2386 225.329 46.2386 225.3 46.2386C225.277 46.2386 225.266 46.2386 225.266 46.2386L225.271 46.1747Z" fill="#263238"/>
<path d="M227.306 49.611C227.306 49.611 227.294 49.5471 227.265 49.4426C227.236 49.3382 227.161 49.1873 226.998 49.0712C226.841 48.9551 226.591 48.8912 226.353 48.9841C226.114 49.0712 225.911 49.3266 225.911 49.6226C225.911 49.9186 226.12 50.174 226.358 50.2553C226.603 50.3423 226.853 50.2785 227.004 50.1624C227.161 50.0463 227.236 49.8896 227.265 49.7851C227.294 49.6748 227.294 49.611 227.306 49.611C227.306 49.611 227.323 49.6748 227.306 49.7909C227.283 49.907 227.219 50.0753 227.05 50.2146C226.887 50.354 226.608 50.4352 226.329 50.3365C226.056 50.2495 225.812 49.9592 225.818 49.6226C225.818 49.2801 226.05 48.9899 226.324 48.9028C226.597 48.8042 226.876 48.8854 227.044 49.0189C227.213 49.1524 227.283 49.3208 227.306 49.4368C227.329 49.5529 227.318 49.6168 227.306 49.6168V49.611Z" fill="#263238"/>
<path d="M231.951 49.5819C231.951 49.5819 231.939 49.5181 231.91 49.4136C231.881 49.3091 231.806 49.1582 231.643 49.0421C231.486 48.926 231.236 48.8622 230.998 48.955C230.759 49.0421 230.556 49.2975 230.556 49.5935C230.556 49.8896 230.765 50.145 231.003 50.2262C231.248 50.3133 231.498 50.2494 231.649 50.1334C231.806 50.0173 231.881 49.8605 231.91 49.7561C231.939 49.6458 231.939 49.5819 231.951 49.5819C231.951 49.5819 231.968 49.6458 231.951 49.7619C231.928 49.878 231.864 50.0463 231.695 50.1856C231.532 50.3249 231.253 50.4062 230.974 50.3075C230.701 50.2204 230.457 49.9302 230.463 49.5935C230.463 49.2511 230.695 48.9608 230.969 48.8738C231.242 48.7751 231.521 48.8564 231.689 48.9899C231.858 49.1234 231.928 49.2917 231.951 49.4078C231.974 49.5239 231.963 49.5877 231.951 49.5877V49.5819Z" fill="#263238"/>
<path d="M235.108 41.0145C235.113 42.1522 234.195 43.0751 233.061 43.0809C231.922 43.0867 230.998 42.1696 230.992 41.0377C230.986 39.9059 231.904 38.9771 233.038 38.9713C234.177 38.9655 235.102 39.8826 235.108 41.0145Z" fill="#F30990"/>
<path d="M233.3 40.2367L233.288 41.7981H232.928L232.939 40.5211H232.625V40.2309H233.3V40.2367Z" fill="white"/>
<path d="M217.162 230.229H157.068C152.611 230.229 148.999 233.836 148.999 238.286V242.152C148.999 246.601 152.611 250.208 157.068 250.208H217.162C221.618 250.208 225.231 246.601 225.231 242.152V238.286C225.231 233.836 221.618 230.229 217.162 230.229Z" fill="#F30990"/>
<g opacity="0.3">
<path d="M217.162 230.229H157.068C152.611 230.229 148.999 233.836 148.999 238.286V242.152C148.999 246.601 152.611 250.208 157.068 250.208H217.162C221.618 250.208 225.231 246.601 225.231 242.152V238.286C225.231 233.836 221.618 230.229 217.162 230.229Z" fill="black"/>
</g>
<path d="M214.203 230.229H154.109C149.652 230.229 146.04 233.836 146.04 238.286V242.152C146.04 246.601 149.652 250.208 154.109 250.208H214.203C218.659 250.208 222.272 246.601 222.272 242.152V238.286C222.272 233.836 218.659 230.229 214.203 230.229Z" fill="#F30990"/>
<path d="M181.868 239.122C181.868 240.15 181.124 240.771 179.892 240.771H178.723V242.199H178.049V237.474H179.892C181.124 237.474 181.868 238.095 181.868 239.122ZM181.194 239.122C181.194 238.449 180.74 238.06 179.874 238.06H178.723V240.179H179.874C180.74 240.179 181.194 239.796 181.194 239.116V239.122Z" fill="white"/>
<path d="M185.635 241.014H183.124L182.601 242.193H181.903L184.048 237.468H184.717L186.868 242.193H186.158L185.635 241.014ZM185.397 240.474L184.374 238.158L183.351 240.474H185.391H185.397Z" fill="white"/>
<path d="M189.094 240.561V242.193H188.426V240.544L186.548 237.468H187.269L188.78 239.958L190.303 237.468H190.972L189.094 240.556V240.561Z" fill="white"/>
<path d="M164.067 159.31C164.41 157.093 163.829 154.742 162.498 152.937C161.161 151.132 159.085 149.884 156.864 149.559C156.655 149.53 156.428 149.512 156.254 149.628C156.01 149.797 155.998 150.151 156.027 150.452C156.231 152.606 157.132 154.684 158.562 156.309C159.992 157.934 161.951 159.084 164.061 159.554" fill="#455A64"/>
<path d="M152.08 175.069C154.237 179.51 157.335 182.499 161.178 182.644C161.945 182.673 162.527 182.168 163.259 182.122C163.637 182.145 164.073 182.412 164.486 182.586C164.707 182.673 164.928 182.737 165.125 182.731C169.096 182.517 172.474 179.73 174.752 175.069C177.927 168.539 176.944 161.527 172.567 159.397C171.945 159.09 171.357 158.863 170.776 158.701C170.067 158.515 169.369 158.422 168.596 158.445C167.247 158.469 165.701 158.84 163.62 159.571C163.55 159.595 163.474 159.624 163.405 159.647C159.847 158.08 157.004 158.068 154.248 159.397C149.871 161.527 148.894 168.539 152.074 175.069H152.08Z" fill="#F30990"/>
<path d="M152.161 168.458C152.161 168.458 151.911 167.988 151.795 167.146C151.679 166.31 151.737 165.103 152.19 163.884C152.644 162.659 153.382 161.707 154.016 161.15C154.649 160.581 155.132 160.367 155.149 160.39C155.179 160.436 154.743 160.715 154.167 161.307C153.591 161.887 152.911 162.822 152.475 163.994C152.045 165.167 151.952 166.316 152.01 167.135C152.063 167.953 152.214 168.452 152.161 168.47V168.458Z" fill="#FAFAFA"/>
<path d="M152.964 171.558C152.882 171.575 152.743 171.267 152.65 170.867C152.557 170.466 152.551 170.13 152.632 170.112C152.714 170.095 152.853 170.403 152.946 170.803C153.039 171.204 153.045 171.54 152.964 171.558Z" fill="#FAFAFA"/>
<path d="M173.113 148.636C173.136 148.688 172.293 149.007 171.061 149.744C170.439 150.11 169.741 150.603 169.009 151.201C168.288 151.817 167.544 152.548 166.84 153.39C166.154 154.237 165.585 155.113 165.125 155.944C164.678 156.779 164.335 157.563 164.096 158.242C163.62 159.595 163.474 160.483 163.416 160.471C163.393 160.471 163.416 160.245 163.486 159.844C163.515 159.641 163.556 159.397 163.631 159.119C163.701 158.84 163.771 158.515 163.893 158.172C164.102 157.476 164.439 156.669 164.875 155.816C165.329 154.968 165.904 154.069 166.602 153.204C167.311 152.345 168.079 151.608 168.823 150.992C169.578 150.394 170.299 149.907 170.945 149.564C171.259 149.379 171.561 149.245 171.822 149.123C172.084 148.996 172.311 148.903 172.503 148.833C172.886 148.694 173.096 148.624 173.107 148.641L173.113 148.636Z" fill="#263238"/>
<path d="M226.957 87.88C223.405 82.9288 215.865 79.5389 209.738 80.4502C204.767 81.1874 200.378 83.4918 197.971 88.414C197.291 89.8013 198.163 91.4556 199.704 91.6355C207.965 92.6223 216.348 92.5932 224.603 91.5542C225.876 91.3917 227.393 91.0435 227.48 89.4646C227.509 88.8958 227.289 88.3444 226.957 87.8742V87.88Z" fill="#F30990"/>
<path d="M207.337 87.6362C207.308 87.6594 207.052 87.4098 206.715 86.9397C206.383 86.4753 205.971 85.7614 205.773 84.8849C205.581 84.0142 205.593 83.2132 205.587 82.6444C205.593 82.0755 205.622 81.7214 205.662 81.7214C205.703 81.7214 205.756 82.0697 205.802 82.6385C205.854 83.2016 205.883 83.991 206.069 84.821C206.255 85.6511 206.616 86.336 206.895 86.8236C207.18 87.3112 207.377 87.6072 207.337 87.6362Z" fill="#263238"/>
<path d="M212.604 87.3924C212.511 87.3808 212.644 85.9877 212.458 84.2812C212.284 82.5747 211.865 81.2338 211.953 81.2048C212.022 81.1758 212.581 82.4992 212.761 84.2464C212.947 85.9935 212.679 87.404 212.604 87.3924Z" fill="#263238"/>
<path d="M218.039 86.5914C217.958 86.5566 218.365 85.6162 218.464 84.3857C218.58 83.1551 218.336 82.1626 218.429 82.1393C218.499 82.1103 218.888 83.1145 218.766 84.4089C218.661 85.7033 218.103 86.632 218.039 86.5856V86.5914Z" fill="#263238"/>
<g opacity="0.3">
<path d="M211.639 80.6882C211.639 80.6882 211.668 80.7463 211.685 80.7753L211.633 80.694L211.639 80.6882Z" fill="black"/>
</g>
<g opacity="0.3">
<path d="M211.685 80.7753C210.65 82.5457 210.778 85.1287 212.557 86.9977C213.063 84.9662 212.767 82.5747 211.685 80.7753Z" fill="black"/>
</g>
<g opacity="0.3">
<path d="M206.628 86.7656C206.064 85.7498 205.726 84.6121 205.639 83.457C205.604 82.9462 205.604 82.4122 205.413 81.9362C204.808 82.6908 204.5 83.6718 204.57 84.6295C204.645 85.6395 205.139 86.6088 205.907 87.2705C206.029 87.375 206.157 87.4679 206.314 87.5027C206.471 87.5376 206.651 87.4853 206.726 87.3518C206.831 87.1719 206.726 86.9513 206.622 86.7656H206.628Z" fill="black"/>
</g>
<g opacity="0.3">
<path d="M218.516 82.6037C218.481 82.4064 218.452 82.2032 218.342 82.0349C218.237 81.8666 218.039 81.7331 217.842 81.7679C217.568 81.8143 217.435 82.122 217.353 82.389C216.987 83.5615 216.656 84.8095 216.952 85.9994C217.022 86.278 217.196 86.5972 217.481 86.5798C217.696 86.5624 217.842 86.3534 217.941 86.1561C218.551 84.9662 218.656 83.9272 218.516 82.6037Z" fill="black"/>
</g>
<path d="M150.865 119.77V120.316H150.464V119.776C149.987 119.747 149.522 119.59 149.272 119.369L149.493 118.876C149.731 119.073 150.098 119.213 150.47 119.247V118.272C149.929 118.139 149.348 117.965 149.348 117.291C149.348 116.798 149.708 116.363 150.47 116.287V115.736H150.871V116.276C151.231 116.293 151.597 116.403 151.859 116.572L151.661 117.065C151.406 116.914 151.132 116.833 150.871 116.804V117.785C151.411 117.918 151.999 118.087 151.999 118.76C151.999 119.253 151.632 119.683 150.871 119.764L150.865 119.77ZM150.464 117.686V116.821C150.121 116.873 149.97 117.048 149.97 117.262C149.97 117.495 150.179 117.605 150.464 117.686ZM151.371 118.812C151.371 118.574 151.156 118.464 150.865 118.377V119.236C151.22 119.184 151.371 119.015 151.371 118.806V118.812Z" fill="#263238"/>
<path d="M154.905 116.328V119.729H154.272V116.856H153.551V116.328H154.905Z" fill="#263238"/>
<path d="M156.364 119.358C156.364 119.462 156.341 119.555 156.254 119.776L156.004 120.461H155.609L155.801 119.718C155.667 119.66 155.574 119.532 155.574 119.358C155.574 119.114 155.742 118.951 155.969 118.951C156.196 118.951 156.364 119.114 156.364 119.358Z" fill="#263238"/>
<path d="M159.254 118.684C159.254 119.282 158.818 119.781 157.905 119.781C157.422 119.781 156.934 119.636 156.626 119.387L156.893 118.893C157.143 119.097 157.51 119.23 157.899 119.23C158.353 119.23 158.62 119.033 158.62 118.708C158.62 118.383 158.411 118.179 157.702 118.179H156.882L157.056 116.328H159.056V116.856H157.591L157.515 117.645H157.841C158.847 117.645 159.254 118.081 159.254 118.684Z" fill="#263238"/>
<path d="M159.62 118.029C159.62 116.908 160.236 116.276 161.044 116.276C161.852 116.276 162.474 116.908 162.474 118.029C162.474 119.149 161.858 119.781 161.044 119.781C160.23 119.781 159.62 119.149 159.62 118.029ZM161.829 118.029C161.829 117.204 161.509 116.827 161.038 116.827C160.568 116.827 160.254 117.204 160.254 118.029C160.254 118.853 160.573 119.23 161.038 119.23C161.504 119.23 161.829 118.853 161.829 118.029Z" fill="#263238"/>
<path d="M176.56 124.065C176.56 124.146 170.311 124.216 162.596 124.216C154.882 124.216 148.633 124.146 148.633 124.065C148.633 123.984 154.882 123.914 162.596 123.914C170.311 123.914 176.56 123.984 176.56 124.065Z" fill="#263238"/>
<path d="M161.643 126.335C161.643 126.416 158.742 126.486 155.161 126.486C151.58 126.486 148.679 126.416 148.679 126.335C148.679 126.253 151.58 126.184 155.161 126.184C158.742 126.184 161.643 126.253 161.643 126.335Z" fill="#263238"/>
<path d="M199.797 105.851V106.396H199.396V105.857C198.919 105.827 198.454 105.671 198.204 105.45L198.425 104.957C198.663 105.148 199.029 105.293 199.401 105.328V104.353C198.861 104.22 198.279 104.046 198.279 103.372C198.279 102.879 198.64 102.443 199.401 102.368V101.817H199.803V102.356C200.163 102.374 200.529 102.484 200.791 102.652L200.593 103.146C200.337 102.995 200.064 102.914 199.803 102.885V103.866C200.343 103.999 200.93 104.167 200.93 104.841C200.93 105.334 200.564 105.764 199.803 105.845L199.797 105.851ZM199.396 103.767V102.902C199.053 102.954 198.901 103.128 198.901 103.343C198.901 103.575 199.111 103.686 199.396 103.767ZM200.303 104.893C200.303 104.655 200.087 104.545 199.797 104.458V105.317C200.151 105.264 200.303 105.096 200.303 104.887V104.893Z" fill="#263238"/>
<path d="M205.128 105.282V105.816H202.616V105.392L203.971 104.109C204.302 103.796 204.36 103.593 204.36 103.407C204.36 103.094 204.145 102.914 203.727 102.914C203.395 102.914 203.116 103.024 202.93 103.268L202.488 102.925C202.75 102.571 203.221 102.362 203.785 102.362C204.523 102.362 205 102.739 205 103.337C205 103.668 204.907 103.97 204.436 104.411L203.523 105.276H205.128V105.282Z" fill="#263238"/>
<path d="M206.325 105.444C206.325 105.549 206.302 105.636 206.215 105.862L205.965 106.547H205.569L205.761 105.804C205.628 105.746 205.535 105.619 205.535 105.444C205.535 105.201 205.703 105.038 205.93 105.038C206.157 105.038 206.325 105.201 206.325 105.444Z" fill="#263238"/>
<path d="M209.249 105.282V105.816H206.738V105.392L208.093 104.109C208.424 103.796 208.482 103.593 208.482 103.407C208.482 103.094 208.267 102.914 207.848 102.914C207.517 102.914 207.238 103.024 207.052 103.268L206.61 102.925C206.872 102.571 207.343 102.362 207.907 102.362C208.645 102.362 209.122 102.739 209.122 103.337C209.122 103.668 209.029 103.97 208.558 104.411L207.645 105.276H209.249V105.282Z" fill="#263238"/>
<path d="M212.098 104.771C212.098 105.369 211.662 105.868 210.749 105.868C210.267 105.868 209.778 105.723 209.47 105.473L209.738 104.98C209.988 105.183 210.354 105.317 210.743 105.317C211.197 105.317 211.464 105.119 211.464 104.794C211.464 104.469 211.255 104.266 210.546 104.266H209.726L209.901 102.414H211.9V102.943H210.435L210.36 103.732H210.685C211.691 103.732 212.098 104.167 212.098 104.771Z" fill="#263238"/>
<path d="M225.492 110.152C225.492 110.233 219.243 110.303 211.528 110.303C203.814 110.303 197.564 110.233 197.564 110.152C197.564 110.071 203.814 110.001 211.528 110.001C219.243 110.001 225.492 110.071 225.492 110.152Z" fill="#263238"/>
<path d="M210.575 112.421C210.575 112.503 207.674 112.572 204.093 112.572C200.512 112.572 197.611 112.503 197.611 112.421C197.611 112.34 200.512 112.271 204.093 112.271C207.674 112.271 210.575 112.34 210.575 112.421Z" fill="#263238"/>
<path d="M149.755 190.411V190.956H149.353V190.416C148.877 190.387 148.412 190.231 148.162 190.01L148.383 189.517C148.621 189.714 148.987 189.853 149.359 189.888V188.913C148.819 188.78 148.237 188.605 148.237 187.932C148.237 187.439 148.598 187.003 149.359 186.928V186.376H149.76V186.916C150.121 186.934 150.487 187.044 150.749 187.212L150.551 187.706C150.295 187.555 150.022 187.474 149.76 187.444V188.425C150.301 188.559 150.888 188.727 150.888 189.401C150.888 189.894 150.522 190.324 149.76 190.405L149.755 190.411ZM149.353 188.327V187.462C149.01 187.514 148.859 187.688 148.859 187.903C148.859 188.135 149.069 188.246 149.353 188.327ZM150.26 189.453C150.26 189.215 150.045 189.105 149.755 189.018V189.877C150.109 189.824 150.26 189.656 150.26 189.447V189.453Z" fill="#263238"/>
<path d="M152.615 188.669C152.615 187.549 153.231 186.916 154.039 186.916C154.847 186.916 155.463 187.549 155.463 188.669C155.463 189.79 154.847 190.422 154.039 190.422C153.231 190.422 152.615 189.79 152.615 188.669ZM154.824 188.669C154.824 187.845 154.504 187.468 154.033 187.468C153.562 187.468 153.248 187.845 153.248 188.669C153.248 189.494 153.568 189.871 154.033 189.871C154.498 189.871 154.824 189.494 154.824 188.669Z" fill="#263238"/>
<path d="M156.614 190.004C156.614 190.109 156.591 190.196 156.504 190.422L156.254 191.107H155.859L156.051 190.364C155.917 190.306 155.824 190.178 155.824 190.004C155.824 189.76 155.992 189.598 156.219 189.598C156.446 189.598 156.614 189.766 156.614 190.004Z" fill="#263238"/>
<path d="M159.504 189.325C159.504 189.923 159.068 190.416 158.155 190.416C157.672 190.416 157.184 190.271 156.876 190.022L157.143 189.528C157.393 189.731 157.76 189.865 158.149 189.865C158.603 189.865 158.87 189.668 158.87 189.343C158.87 189.018 158.661 188.814 157.952 188.814H157.132L157.306 186.963H159.306V187.491H157.841L157.765 188.28H158.091C159.097 188.28 159.504 188.716 159.504 189.319V189.325Z" fill="#263238"/>
<path d="M159.87 188.669C159.87 187.549 160.486 186.916 161.294 186.916C162.102 186.916 162.724 187.549 162.724 188.669C162.724 189.79 162.108 190.422 161.294 190.422C160.48 190.422 159.87 189.79 159.87 188.669ZM162.079 188.669C162.079 187.845 161.759 187.468 161.288 187.468C160.818 187.468 160.504 187.845 160.504 188.669C160.504 189.494 160.823 189.871 161.288 189.871C161.754 189.871 162.079 189.494 162.079 188.669Z" fill="#263238"/>
<path d="M175.444 194.712C175.444 194.793 169.195 194.863 161.48 194.863C153.766 194.863 147.516 194.793 147.516 194.712C147.516 194.63 153.766 194.561 161.48 194.561C169.195 194.561 175.444 194.63 175.444 194.712Z" fill="#263238"/>
<path d="M160.527 196.981C160.527 197.063 157.626 197.132 154.045 197.132C150.464 197.132 147.563 197.063 147.563 196.981C147.563 196.9 150.464 196.83 154.045 196.83C157.626 196.83 160.527 196.9 160.527 196.981Z" fill="#263238"/>
<path d="M197.535 171.993V172.539H197.134V171.999C196.658 171.97 196.192 171.813 195.942 171.592L196.163 171.099C196.402 171.291 196.768 171.436 197.14 171.471V170.495C196.599 170.362 196.018 170.188 196.018 169.514C196.018 169.021 196.378 168.586 197.14 168.51V167.959H197.541V168.499C197.902 168.516 198.268 168.626 198.529 168.795L198.332 169.288C198.076 169.137 197.803 169.056 197.541 169.027V170.008C198.082 170.141 198.669 170.31 198.669 170.983C198.669 171.476 198.303 171.906 197.541 171.987L197.535 171.993ZM197.134 169.909V169.044C196.791 169.096 196.64 169.271 196.64 169.485C196.64 169.718 196.849 169.828 197.134 169.909ZM198.041 171.035C198.041 170.797 197.826 170.687 197.535 170.6V171.459C197.89 171.407 198.041 171.238 198.041 171.029V171.035Z" fill="#263238"/>
<path d="M201.576 168.551V171.952H200.942V169.079H200.221V168.551H201.576Z" fill="#263238"/>
<path d="M203.029 171.587C203.029 171.691 203.006 171.778 202.919 172.005L202.669 172.689H202.273L202.465 171.946C202.331 171.888 202.238 171.761 202.238 171.587C202.238 171.343 202.407 171.18 202.634 171.18C202.86 171.18 203.029 171.349 203.029 171.587Z" fill="#263238"/>
<path d="M203.384 170.252C203.384 169.131 204 168.499 204.808 168.499C205.616 168.499 206.238 169.131 206.238 170.252C206.238 171.372 205.622 172.005 204.808 172.005C203.994 172.005 203.384 171.372 203.384 170.252ZM205.593 170.252C205.593 169.427 205.273 169.05 204.802 169.05C204.331 169.05 204.017 169.427 204.017 170.252C204.017 171.076 204.337 171.453 204.802 171.453C205.267 171.453 205.593 171.076 205.593 170.252Z" fill="#263238"/>
<path d="M206.662 170.252C206.662 169.131 207.279 168.499 208.087 168.499C208.895 168.499 209.511 169.131 209.511 170.252C209.511 171.372 208.895 172.005 208.087 172.005C207.279 172.005 206.662 171.372 206.662 170.252ZM208.872 170.252C208.872 169.427 208.552 169.05 208.081 169.05C207.61 169.05 207.296 169.427 207.296 170.252C207.296 171.076 207.616 171.453 208.081 171.453C208.546 171.453 208.872 171.076 208.872 170.252Z" fill="#263238"/>
<path d="M223.225 176.294C223.225 176.375 216.975 176.445 209.261 176.445C201.547 176.445 195.297 176.375 195.297 176.294C195.297 176.213 201.547 176.143 209.261 176.143C216.975 176.143 223.225 176.213 223.225 176.294Z" fill="#263238"/>
<path d="M208.313 178.564C208.313 178.645 205.413 178.715 201.831 178.715C198.25 178.715 195.349 178.645 195.349 178.564C195.349 178.482 198.25 178.413 201.831 178.413C205.413 178.413 208.313 178.482 208.313 178.564Z" fill="#263238"/>
<path d="M202.192 46.1921C202.192 46.2734 195.454 46.343 187.141 46.343C178.828 46.343 172.09 46.2734 172.09 46.1921C172.09 46.1109 178.828 46.0412 187.141 46.0412C195.454 46.0412 202.192 46.1109 202.192 46.1921Z" fill="#F30990"/>
<path d="M6.17968 226.433C6.17968 226.433 3.17994 226.433 2.40094 229.649C1.62193 232.865 1.51148 233.973 1.51148 233.973C1.51148 233.973 -1.90102 237.032 1.51148 237.857C4.92397 238.675 6.17387 234.084 6.17387 234.084L6.69708 226.433H6.17387H6.17968Z" fill="#FFBE9D"/>
<path d="M40.3512 167.773C40.3512 167.773 51.013 132.023 52.1002 130.485C53.8907 127.937 71.1508 120.281 71.1508 120.281L75.7784 110.848L104.468 106.269L111.572 115.405L131.553 130.021L130.157 180.589L129.413 215.898L133.192 259.972L42.444 259.832L46.5483 250.551L50.8561 170.385L40.3395 167.773H40.3512Z" fill="#F30990"/>
<path d="M52.6466 162.955C52.6466 162.955 52.6234 162.857 52.6117 162.665C52.6001 162.439 52.5827 162.166 52.5652 161.835C52.5304 161.115 52.5013 160.076 52.478 158.788C52.4315 156.211 52.4257 152.652 52.542 148.723C52.6583 144.793 52.8617 141.241 53.0594 138.669C53.1582 137.387 53.2454 136.348 53.321 135.628C53.3559 135.297 53.3849 135.024 53.414 134.804C53.4373 134.618 53.4547 134.519 53.4663 134.519C53.478 134.519 53.478 134.618 53.4721 134.809C53.4605 135.036 53.4489 135.309 53.4373 135.639C53.3966 136.406 53.3384 137.433 53.2687 138.681C53.1291 141.252 52.9547 144.805 52.8443 148.729C52.7338 152.652 52.6989 156.211 52.6931 158.782C52.6931 160.036 52.6873 161.063 52.6815 161.829C52.6815 162.16 52.6699 162.433 52.6699 162.659C52.6641 162.851 52.6583 162.95 52.6466 162.95V162.955Z" fill="#263238"/>
<g opacity="0.3">
<path d="M73.203 152.676C73.1855 152.258 73.3134 151.875 73.5401 151.555C74.2203 150.598 75.7841 150.174 76.9294 150.714C78.4525 151.439 79.2083 153.181 79.5106 154.835C79.8419 156.646 79.7954 158.515 80.1384 160.326C80.4814 162.137 81.3127 163.983 82.8998 164.923C84.8706 166.084 87.4576 165.556 89.5271 166.531C92.6083 167.982 93.3233 171.981 93.4803 175.377C93.771 181.814 93.4919 188.257 93.2129 194.694C92.6199 208.399 92.0269 222.097 91.434 235.802L89.8178 256.425L81.4697 259.966L70.4241 187.514L73.2146 152.67L73.203 152.676Z" fill="black"/>
</g>
<path d="M75.5807 146.813C75.5807 146.813 75.5168 146.865 75.3656 146.929C75.2145 146.987 74.9703 147.039 74.6622 146.999C74.0576 146.935 73.1391 146.43 72.767 145.345C72.5868 144.816 72.5403 144.195 72.5984 143.557C72.6507 142.912 72.7961 142.245 72.9356 141.548C73.2146 140.15 73.5227 138.617 73.8425 137.004C74.4936 133.782 75.104 130.868 75.5575 128.761C75.7842 127.751 75.9702 126.909 76.1097 126.271C76.2492 125.685 76.3306 125.36 76.3539 125.365C76.3771 125.365 76.3306 125.702 76.226 126.294C76.1097 126.939 75.9528 127.786 75.7667 128.802C75.3656 130.92 74.7901 133.84 74.139 137.062C73.8076 138.669 73.4937 140.196 73.2088 141.601C72.9065 142.982 72.6391 144.265 72.9705 145.275C73.2844 146.279 74.1273 146.784 74.6796 146.877C75.2668 146.981 75.5749 146.767 75.5807 146.807V146.813Z" fill="#263238"/>
<path d="M78.5339 133.364C78.5339 133.393 78.2956 133.393 77.9003 133.515C77.5108 133.637 76.9527 133.921 76.4992 134.502C76.0458 135.059 75.7318 135.97 76.069 136.882C76.3713 137.77 77.2492 138.617 78.3421 138.71C79.4408 138.785 80.4407 138.089 80.8767 137.265C81.3534 136.423 81.1849 135.471 80.8244 134.85C80.4698 134.212 79.964 133.834 79.5978 133.654C79.2257 133.469 78.9932 133.434 78.999 133.405C78.999 133.393 79.0571 133.399 79.1734 133.411C79.2839 133.422 79.4524 133.463 79.6501 133.544C80.0454 133.701 80.6035 134.066 81.0105 134.74C81.2081 135.076 81.3709 135.483 81.4174 135.953C81.4581 136.417 81.3709 136.934 81.1209 137.398C80.6442 138.321 79.5629 139.099 78.313 139.018C77.0689 138.902 76.1213 137.961 75.7958 136.974C75.6214 136.475 75.6214 135.953 75.7318 135.506C75.8481 135.053 76.0748 134.676 76.3248 134.374C76.8364 133.77 77.441 133.503 77.8596 133.411C78.0688 133.358 78.2374 133.347 78.3537 133.352C78.4642 133.352 78.5281 133.364 78.5281 133.37L78.5339 133.364Z" fill="#263238"/>
<path d="M88.2947 170.321L35.8806 160.854L11.4176 166.212L66.1687 176.05L88.2947 170.321Z" fill="#F30990"/>
<g opacity="0.6">
<path d="M88.2947 170.321L35.8806 160.854L11.4176 166.212L66.1687 176.05L88.2947 170.321Z" fill="black"/>
</g>
<path d="M54.7802 193.145C55.4894 183.498 58.1403 159.003 60.1285 149.535C60.7215 146.703 61.4075 143.806 63.0585 141.427C64.7095 139.047 67.5581 137.276 70.4242 137.717C72.9821 138.112 75.0342 140.184 76.0748 142.547C77.1154 144.915 77.4991 147.556 77.3945 150.139C76.9003 161.841 75.8888 174.947 75.9004 185.796" fill="#455A64"/>
<path d="M72.5344 170.17C72.5461 170.217 71.7903 170.408 70.5927 170.786C69.3952 171.157 67.7558 171.738 66.0117 172.521C64.2677 173.311 62.7562 174.164 61.6807 174.82C60.611 175.476 59.9657 175.911 59.9367 175.876C59.9251 175.859 60.0704 175.731 60.3494 175.511C60.6285 175.29 61.0412 174.988 61.5645 174.64C62.6109 173.932 64.1224 173.044 65.8838 172.248C67.6453 171.453 69.308 170.902 70.5288 170.583C71.1392 170.42 71.6392 170.304 71.988 170.246C72.3368 170.182 72.5286 170.153 72.5344 170.176V170.17Z" fill="#263238"/>
<path d="M73.4064 159.037C73.4181 159.09 72.6158 159.258 71.3601 159.647C70.1044 160.03 68.4011 160.668 66.628 161.597C64.8549 162.532 63.3666 163.571 62.3376 164.383C61.3087 165.196 60.7099 165.753 60.675 165.718C60.6575 165.701 60.7971 165.55 61.0529 165.283C61.3086 165.016 61.6981 164.65 62.2039 164.215C63.2096 163.35 64.6979 162.27 66.4942 161.324C68.2906 160.384 70.0288 159.775 71.3078 159.438C71.9473 159.27 72.4705 159.153 72.8367 159.095C73.203 159.037 73.4064 159.008 73.4123 159.032L73.4064 159.037Z" fill="#263238"/>
<path d="M72.2263 150.075C72.2263 150.127 71.6043 150.157 70.6218 150.336C69.6393 150.516 68.3023 150.888 66.9419 151.561C65.5816 152.24 64.477 153.082 63.7445 153.755C63.0062 154.429 62.6109 154.91 62.5702 154.876C62.5527 154.864 62.64 154.73 62.8085 154.504C62.9713 154.272 63.2445 153.964 63.5992 153.599C64.3084 152.873 65.4188 151.985 66.8082 151.288C68.2034 150.598 69.5812 150.249 70.5869 150.122C71.0927 150.058 71.4997 150.029 71.7845 150.04C72.0694 150.04 72.2263 150.052 72.2263 150.075Z" fill="#263238"/>
<path d="M65.7152 177.983C65.7152 177.983 65.7268 178.024 65.7268 178.036V211.527C65.7268 212.996 64.5409 214.517 62.3608 215.66C60.1866 216.804 57.0125 217.593 53.0477 217.599H52.9954C45.06 217.582 40.3162 214.47 40.3162 211.522V178.03C40.3162 178.03 40.322 178.006 40.322 177.977C40.322 177.96 40.3162 177.937 40.3162 177.908C40.3337 174.634 42.7404 171.215 45.1705 167.837C46.804 165.585 47.1877 162.334 47.2633 160.425C47.2691 160.198 47.2807 159.995 47.2807 159.809H47.0598C46.0134 159.809 45.1646 159.084 45.1646 158.19V156.774C45.1646 155.868 46.0076 155.143 47.0598 155.143H58.9774C59.7622 155.143 60.4424 155.549 60.7273 156.129C60.8203 156.333 60.8726 156.541 60.8726 156.768V158.184C60.8726 159.078 60.0296 159.804 58.9774 159.804H58.7565C58.7565 159.989 58.7623 160.192 58.7739 160.419C58.8495 162.329 59.239 165.573 60.8726 167.831C63.2968 171.209 65.7094 174.622 65.7268 177.902C65.7268 177.925 65.7152 177.954 65.7152 177.972V177.983Z" fill="#FAFAFA"/>
<path d="M65.7152 177.983C65.7152 177.983 65.7152 177.867 65.6978 177.641C65.692 177.414 65.6513 177.078 65.5757 176.637C65.4071 175.766 65.006 174.501 64.1863 173.003C63.384 171.5 62.1865 169.782 60.7563 167.808C60.0355 166.804 59.5413 165.556 59.1983 164.203C58.8612 162.845 58.6868 161.371 58.6577 159.815V159.711H58.7565C59.2042 159.728 59.6402 159.658 60.0238 159.42C60.3959 159.194 60.6924 158.811 60.7505 158.37C60.7796 157.923 60.7563 157.418 60.7622 156.936C60.8028 156.454 60.6168 156.002 60.2448 155.7C59.8843 155.392 59.396 155.241 58.9019 155.259C58.3845 155.259 57.8671 155.259 57.338 155.259C56.2858 155.259 55.2045 155.259 54.1058 155.259C51.9025 155.259 49.612 155.259 47.2401 155.27C46.6645 155.241 46.089 155.415 45.6937 155.822C45.5018 156.025 45.3623 156.274 45.3158 156.547C45.2751 156.808 45.3042 157.139 45.2926 157.435C45.2926 157.731 45.2809 158.068 45.3042 158.341C45.3391 158.619 45.467 158.881 45.6646 159.095C46.0599 159.525 46.6587 159.711 47.2749 159.676H47.4145V159.809C47.397 161.15 47.2633 162.514 46.9668 163.867C46.6645 165.219 46.1936 166.577 45.374 167.773C44.5543 168.94 43.7113 170.095 42.9381 171.325C42.1649 172.55 41.4382 173.839 40.9615 175.232C40.7232 175.928 40.5488 176.654 40.4907 177.391C40.45 178.123 40.4674 178.895 40.4674 179.655C40.4674 181.182 40.4674 182.72 40.4674 184.275C40.4674 187.387 40.4674 190.55 40.4674 193.754C40.4674 199.396 40.4674 204.899 40.4674 210.221C40.479 210.883 40.4209 211.568 40.5546 212.166C40.6883 212.781 41.0546 213.327 41.4731 213.803C42.3277 214.749 43.4439 215.428 44.6066 215.933C45.7693 216.438 46.9901 216.769 48.2109 217.007C49.4317 217.256 50.6642 217.367 51.8792 217.425C54.3092 217.529 56.7044 217.332 58.9367 216.78C60.0529 216.496 61.1284 216.13 62.1225 215.625C63.1108 215.126 64.0293 214.494 64.7153 213.681C65.0583 213.275 65.3199 212.816 65.4769 212.323C65.6338 211.835 65.5989 211.313 65.6048 210.784C65.6048 209.734 65.6048 208.706 65.6048 207.696C65.6048 205.682 65.6106 203.744 65.6164 201.898C65.6338 194.514 65.6513 188.536 65.6629 184.391C65.6745 180.259 65.7152 177.972 65.7152 177.972C65.7268 177.972 65.7385 178.111 65.7385 178.395C65.7385 178.686 65.7443 179.098 65.7559 179.632C65.7617 180.729 65.7734 182.331 65.785 184.391C65.7966 188.536 65.814 194.509 65.8315 201.898C65.8315 203.744 65.8373 205.682 65.8431 207.696C65.8431 208.706 65.8431 209.734 65.8431 210.784C65.8431 211.046 65.8431 211.313 65.8431 211.58C65.8431 211.858 65.785 212.131 65.7152 212.398C65.5466 212.926 65.2676 213.42 64.9072 213.843C64.1921 214.702 63.2445 215.347 62.2388 215.858C61.2272 216.374 60.1285 216.751 59.0007 217.036C56.7334 217.599 54.3209 217.802 51.8676 217.698C50.6409 217.645 49.3969 217.529 48.1586 217.28C46.9203 217.042 45.6821 216.705 44.4903 216.194C43.3044 215.683 42.1533 214.993 41.2522 213.994C40.8162 213.495 40.4209 212.915 40.2697 212.236C40.1186 211.545 40.1883 210.889 40.1709 210.221C40.1709 204.904 40.1709 199.396 40.1709 193.754C40.1709 190.544 40.1709 187.381 40.1709 184.275C40.1709 182.72 40.1709 181.182 40.1709 179.655C40.1709 178.889 40.1593 178.146 40.2 177.368C40.2639 176.602 40.4441 175.853 40.6883 175.139C41.1766 173.705 41.9208 172.405 42.6998 171.169C43.4788 169.932 44.3333 168.766 45.1472 167.611C45.9379 166.461 46.4029 165.132 46.6994 163.803C46.9959 162.474 47.1238 161.121 47.1471 159.804L47.2808 159.937C46.6413 159.978 45.9204 159.775 45.4728 159.27C45.2461 159.026 45.0891 158.707 45.0484 158.37C45.0251 158.027 45.0426 157.743 45.0368 157.43C45.0484 157.116 45.0135 156.837 45.0658 156.495C45.1182 156.164 45.2926 155.868 45.5135 155.63C45.9669 155.16 46.6413 154.968 47.2459 155.003C49.6178 155.003 51.9083 155.009 54.1116 155.015C55.2103 155.015 56.2916 155.015 57.3438 155.015C57.8729 155.015 58.3903 155.015 58.9077 155.015C59.4367 154.997 59.989 155.166 60.3959 155.514C60.8145 155.845 61.0354 156.42 60.9831 156.919C60.9773 157.412 60.9947 157.876 60.9656 158.381C60.8959 158.892 60.5529 159.328 60.1343 159.577C59.7215 159.838 59.21 159.914 58.7623 159.891L58.8612 159.792C58.9077 162.857 59.5006 165.689 60.8842 167.692C62.3027 169.677 63.4887 171.413 64.2851 172.928C65.0874 174.437 65.4827 175.719 65.6338 176.602C65.6978 177.043 65.7327 177.385 65.7327 177.612C65.7443 177.838 65.7327 177.954 65.721 177.954L65.7152 177.983Z" fill="#263238"/>
<path d="M58.088 159.746C58.088 159.827 55.7103 159.896 52.7803 159.896C49.8503 159.896 47.4726 159.827 47.4726 159.746C47.4726 159.664 49.8503 159.595 52.7803 159.595C55.7103 159.595 58.088 159.664 58.088 159.746Z" fill="#263238"/>
<path d="M64.6572 182.459C63.5817 181.762 62.1748 182.07 61.0238 182.609C59.8727 183.149 58.7856 183.915 57.5357 184.119C56.0649 184.357 54.5824 183.77 53.2744 183.027C51.9664 182.29 50.7281 181.379 49.3213 180.874C46.6238 179.91 43.4264 180.665 41.3917 182.737V211.493C41.3917 211.493 42.973 216.397 54.1116 215.625C65.2501 214.853 64.3723 209.949 64.3723 209.949L64.6572 182.447V182.459Z" fill="#F30990"/>
<path d="M35.1481 162.886C35.4736 160.767 34.9214 158.527 33.6482 156.803C32.3751 155.079 30.3927 153.889 28.2708 153.581C28.0731 153.552 27.8522 153.535 27.6894 153.651C27.4569 153.813 27.4453 154.15 27.4685 154.434C27.6604 156.489 28.5208 158.474 29.8869 160.024C31.2531 161.574 33.1192 162.671 35.1365 163.124" fill="#455A64"/>
<path d="M23.7072 177.925C25.7652 182.162 28.7242 185.018 32.3925 185.158C33.125 185.181 33.6773 184.705 34.3807 184.658C34.7412 184.682 35.1539 184.937 35.555 185.1C35.7701 185.181 35.9794 185.245 36.1654 185.239C39.9558 185.036 43.1823 182.377 45.3565 177.925C48.3853 171.697 47.4494 164.999 43.2695 162.967C42.6765 162.677 42.1126 162.456 41.5603 162.3C40.886 162.12 40.2174 162.033 39.4791 162.056C38.1943 162.079 36.7177 162.427 34.7295 163.13C34.6656 163.153 34.59 163.182 34.5261 163.205C31.131 161.707 28.4161 161.702 25.7884 162.967C21.6086 164.999 20.6784 171.697 23.713 177.925H23.7072Z" fill="#F30990"/>
<path d="M23.7828 171.616C23.7828 171.616 23.5386 171.169 23.4282 170.362C23.3177 169.561 23.37 168.412 23.8002 167.245C24.2362 166.078 24.9397 165.167 25.5501 164.633C26.1547 164.093 26.6197 163.884 26.6314 163.907C26.6604 163.954 26.2477 164.221 25.6954 164.784C25.1489 165.341 24.4978 166.229 24.0851 167.349C23.6723 168.47 23.5851 169.567 23.6432 170.345C23.6956 171.128 23.8351 171.604 23.7828 171.616Z" fill="#FAFAFA"/>
<path d="M24.5502 174.576C24.4688 174.593 24.3293 174.303 24.2421 173.92C24.1549 173.537 24.149 173.218 24.2304 173.195C24.3118 173.177 24.4513 173.467 24.5385 173.85C24.6257 174.234 24.6316 174.553 24.5502 174.576Z" fill="#FAFAFA"/>
<path d="M43.7869 152.693C43.8101 152.745 43.0079 153.047 41.8278 153.755C41.2348 154.104 40.572 154.574 39.8744 155.148C39.1884 155.735 38.4734 156.431 37.8107 157.232C37.1537 158.045 36.6131 158.881 36.1713 159.67C35.7469 160.465 35.4155 161.214 35.1888 161.858C34.7295 163.147 34.5958 163.994 34.5377 163.983C34.5144 163.983 34.5377 163.768 34.6016 163.385C34.6307 163.193 34.6714 162.961 34.7412 162.694C34.8109 162.427 34.8749 162.12 34.9911 161.789C35.1946 161.121 35.5085 160.355 35.9271 159.537C36.3631 158.724 36.9096 157.871 37.5781 157.041C38.2583 156.222 38.9908 155.52 39.7 154.934C40.4209 154.359 41.1127 153.9 41.7289 153.57C42.0254 153.39 42.3161 153.268 42.5661 153.146C42.816 153.024 43.0369 152.937 43.2172 152.873C43.5834 152.739 43.7869 152.676 43.7927 152.693H43.7869Z" fill="#263238"/>
<path d="M11.4176 166.212L4.83093 249.175L66.221 263.994C66.221 263.994 87.6319 256.744 87.9226 256.251C88.2133 255.758 88.2947 170.327 88.2947 170.327L66.1687 176.062L11.4176 166.218V166.212Z" fill="#F30990"/>
<g opacity="0.4">
<path d="M11.4176 166.212L4.83093 249.175L66.221 263.994C66.221 263.994 87.6319 256.744 87.9226 256.251C88.2133 255.758 88.2947 170.327 88.2947 170.327L66.1687 176.062L11.4176 166.218V166.212Z" fill="black"/>
</g>
<path d="M107.706 69.5785L104.282 117.994C103.724 125.9 97.137 132.029 89.2016 132.029C80.464 132.029 73.5402 124.652 74.1157 115.945C74.418 111.336 74.6912 107.563 74.6912 107.563C74.6912 107.563 62.9539 105.741 62.8085 94.0213C62.7271 87.2532 63.8956 71.8945 64.8956 60.123C65.5757 52.165 72.2438 46.0587 80.2373 46.0587H87.3297C99.5437 46.7727 108.758 57.4065 107.706 69.5727V69.5785Z" fill="#FFBE9D"/>
<path d="M74.6912 107.557C74.6912 107.557 82.0917 107.993 89.9748 103.047C89.9748 103.047 86.196 111.574 74.4819 110.518L74.6912 107.557Z" fill="#EB996E"/>
<path d="M67.0988 72.2138C67.3081 72.4344 68.5754 71.494 70.3776 71.4998C72.1798 71.4766 73.5053 72.4053 73.6971 72.1848C73.7959 72.0861 73.5808 71.6914 73.0053 71.2735C72.4356 70.8555 71.4705 70.4492 70.3486 70.455C69.2266 70.4608 68.279 70.8729 67.7383 71.2967C67.186 71.7204 66.9942 72.1151 67.0988 72.2138Z" fill="#263238"/>
<path d="M86.6204 74.2802C86.5913 75.1625 87.3122 75.917 88.2366 75.9693C89.1609 76.0215 89.9341 75.3424 89.9632 74.4601C89.9922 73.5778 89.2714 72.8174 88.347 72.771C87.4227 72.7188 86.6495 73.3979 86.6204 74.2802Z" fill="#263238"/>
<path d="M68.7266 74.2802C68.6976 75.1625 69.4184 75.917 70.3428 75.9693C71.2671 76.0215 72.0403 75.3424 72.0694 74.4601C72.0984 73.5778 71.3776 72.8174 70.4532 72.771C69.5289 72.7188 68.7557 73.3979 68.7266 74.2802Z" fill="#263238"/>
<path d="M84.6497 72.2138C84.8589 72.4344 86.1321 71.494 87.9343 71.4998C89.7364 71.4766 91.0619 72.4053 91.2537 72.1848C91.3468 72.0861 91.1375 71.6914 90.5619 71.2735C89.9922 70.8555 89.0272 70.4492 87.9052 70.455C86.7832 70.4608 85.8356 70.8729 85.295 71.2967C84.7427 71.7204 84.5508 72.1151 84.6555 72.2138H84.6497Z" fill="#263238"/>
<path d="M78.1037 85.5699C78.1095 85.4655 76.9933 85.2739 75.1737 85.0417C74.7144 84.9953 74.2784 84.9024 74.197 84.589C74.0866 84.2581 74.2784 83.7589 74.5051 83.2249C74.9412 82.1105 75.3888 80.9438 75.8655 79.7248C77.7549 74.7388 79.1268 70.6408 78.9234 70.5653C78.7199 70.4899 77.0224 74.4717 75.133 79.4578C74.6795 80.6884 74.2435 81.8609 73.8308 82.9811C73.6564 83.5035 73.3541 84.0956 73.5924 84.7863C73.7145 85.1288 74.0517 85.3784 74.3482 85.4597C74.6447 85.5467 74.9005 85.5525 75.133 85.5699C76.9642 85.6686 78.0979 85.6744 78.1037 85.5699Z" fill="#263238"/>
<path d="M83.4114 86.8121C83.1207 86.7947 83.1149 88.7508 81.4406 90.138C79.7664 91.5311 77.6793 91.3105 77.6677 91.5834C77.6387 91.7053 78.1328 91.9607 79.0106 91.9897C79.8768 92.0187 81.1383 91.7401 82.1615 90.8926C83.1847 90.0394 83.6207 88.9075 83.6905 88.1065C83.766 87.288 83.5451 86.8063 83.4114 86.8179V86.8121Z" fill="#263238"/>
<path d="M84.1787 66.357C84.359 66.8446 86.1553 66.6124 88.2714 66.8678C90.3933 67.0826 92.0967 67.6979 92.3815 67.2567C92.5094 67.0478 92.2071 66.5834 91.5211 66.1133C90.8351 65.6373 89.748 65.1903 88.4749 65.051C87.2017 64.9117 86.039 65.1149 85.2717 65.4283C84.4927 65.7418 84.1032 66.1249 84.1787 66.357Z" fill="#263238"/>
<path d="M67.3488 67.0536C67.6685 67.4599 68.9068 67.0362 70.4009 67.0188C71.8949 66.9491 73.1623 67.2916 73.4529 66.8678C73.5808 66.6589 73.3832 66.2526 72.8309 65.8637C72.2844 65.4806 71.3775 65.1613 70.3485 65.1961C69.3196 65.231 68.4301 65.5967 67.9127 66.0204C67.3837 66.4383 67.2093 66.862 67.3488 67.0594V67.0536Z" fill="#263238"/>
<path d="M103.747 78.3724C103.945 78.2853 111.81 75.9925 111.554 84.0027C111.299 92.0129 103.293 90.1032 103.288 89.8769C103.282 89.6447 103.747 78.3724 103.747 78.3724Z" fill="#FFBE9D"/>
<path d="M105.834 86.9166C105.869 86.8934 105.973 87.0211 106.206 87.1371C106.433 87.2474 106.828 87.3345 107.252 87.1894C108.113 86.905 108.869 85.5873 108.95 84.142C108.996 83.4107 108.863 82.7141 108.624 82.1337C108.398 81.5416 108.031 81.1179 107.607 81.0308C107.188 80.9205 106.875 81.1643 106.77 81.3849C106.654 81.6055 106.7 81.768 106.659 81.7796C106.636 81.797 106.491 81.6403 106.566 81.3094C106.607 81.1527 106.706 80.967 106.898 80.816C107.095 80.6651 107.38 80.5955 107.677 80.6361C108.293 80.7 108.834 81.2862 109.095 81.9247C109.392 82.569 109.56 83.3526 109.508 84.171C109.403 85.7847 108.531 87.2706 107.357 87.5667C106.787 87.6944 106.322 87.5086 106.084 87.3113C105.84 87.1081 105.805 86.9224 105.834 86.9108V86.9166Z" fill="#EB996E"/>
<path d="M108.212 78.0995C106.985 77.8035 104.869 78.9296 104.351 80.0731C103.828 81.2165 103.712 82.5109 103.195 83.6602C102.677 84.8037 101.497 85.8427 100.27 85.5525C99.4275 85.3551 98.8229 84.5599 98.5962 83.7241C98.3753 82.8882 98.4625 82.0001 98.5729 81.1411C99.0438 77.3972 99.8344 73.6881 99.9856 69.921C100.137 66.1539 99.5961 62.2358 97.6195 59.026C95.6371 55.8161 91.9979 53.4536 88.2308 53.7555C85.7368 53.9586 83.4521 55.253 80.9698 55.6013C78.034 56.0134 74.9238 54.9744 72.8251 52.8848C72.5577 52.6178 71.302 51.7936 71.302 51.7936C71.302 51.602 71.488 49.9245 72.145 49.315C77.0631 44.7759 85.917 43.5105 92.4107 45.1416C98.9043 46.7727 104.991 51.3524 107.781 57.4239C110.578 63.5012 109.746 71.9468 108.206 78.0937" fill="#263238"/>
<path d="M63.6108 58.0102C64.663 60.4422 67.343 61.8585 69.9881 62.1314C72.6333 62.4042 75.2668 61.7134 77.8189 60.9937C80.371 60.2739 87.225 59.1362 89.876 59.2175C90.2713 59.2291 90.748 59.2175 90.9631 58.8866C91.2421 58.4397 90.7945 57.9057 90.3817 57.5806C86.882 54.8467 78.4293 53.1692 73.9878 52.9777C69.5463 52.7861 64.8839 54.6958 62.483 58.4281" fill="#263238"/>
<path d="M64.7619 58.312C64.7619 58.312 95.5557 48.4211 108.874 75.0173C108.874 75.0173 110.863 68.3596 110.863 64.7898C110.863 62.4041 109.432 48.2122 94.8058 43.7485C94.8058 43.7485 72.7728 35.3494 64.756 58.3062L64.7619 58.312Z" fill="#F30990"/>
<g opacity="0.4">
<path d="M64.7619 58.312C64.7619 58.312 68.2674 54.1502 74.5517 53.8715C83.6323 53.471 100.637 58.5674 108.874 75.0173C108.874 75.0173 110.863 68.3596 110.863 64.7898C110.863 62.4041 109.432 48.2122 94.8058 43.7485C94.8058 43.7485 72.7728 35.3494 64.756 58.3062L64.7619 58.312Z" fill="black"/>
</g>
<path d="M107.59 71.9061C103.026 64.9291 96.73 59.1652 89.6493 54.748C82.5685 50.3308 70.866 45.9658 62.8027 43.8297C60.3785 43.1854 57.8555 42.6282 55.3848 43.0519C52.914 43.4757 50.5015 45.1183 49.8852 47.5446C49.1179 50.5804 54.5127 55.2646 57.0532 57.1104C59.5879 58.9505 64.7619 61.6553 64.7619 61.6553C64.7619 61.6553 64.6921 56.025 73.7204 54.8641C85.9984 53.2853 107.59 71.9061 107.59 71.9061Z" fill="#F30990"/>
<path d="M82.3359 48.9319C82.3359 48.9319 77.9003 46.4824 73.4413 45.9078C74.3541 45.2403 74.8424 44.9152 75.8597 44.4625C78.1386 44.9152 80.4524 45.4899 82.7894 46.7901L82.3359 48.9319Z" fill="#FAFAFA"/>
<path d="M121.019 128.796C121.019 128.796 112.601 138.402 113.531 151.77C113.659 153.622 113.752 156.211 113.979 158.056C115.397 169.52 117.594 180.166 117.594 180.166H118.397L147.749 172.928C147.749 172.928 143.325 147.486 142.313 144.108C139.064 133.294 127.908 127.345 127.908 127.345L121.024 128.796H121.019Z" fill="#F30990"/>
<path d="M87.9227 256.245C87.9227 256.245 87.911 256.1 87.911 255.81C87.911 255.514 87.911 255.09 87.9052 254.539C87.9052 253.413 87.9052 251.758 87.9052 249.634C87.911 245.356 87.9227 239.163 87.9401 231.454C87.9924 216.026 88.068 194.543 88.1552 170.321L88.3412 170.466C84.7718 171.389 80.9988 172.37 77.1736 173.357C73.4181 174.332 69.7149 175.29 66.2094 176.195L66.3199 176.05C66.471 188.193 66.4303 199.651 66.3722 210.007C66.3082 220.356 66.2559 229.608 66.2094 237.34C66.1803 245.072 66.1803 251.288 66.1978 255.566C66.2094 257.702 66.2152 259.356 66.221 260.488C66.221 261.046 66.221 261.469 66.221 261.765C66.221 262.05 66.2094 262.201 66.2094 262.201C66.2094 262.201 66.1978 262.056 66.192 261.765C66.1862 261.469 66.1745 261.046 66.1629 260.488C66.1455 259.356 66.1222 257.702 66.0873 255.566C66.035 251.282 66.0001 245.072 66.0059 237.34C66.035 229.603 66.0641 220.356 66.1048 210.007C66.1455 199.651 66.1745 188.199 66.0234 176.056V175.94L66.1338 175.911C69.6394 175.006 73.3425 174.042 77.098 173.073C80.9233 172.08 84.6962 171.105 88.2657 170.182L88.4575 170.136V170.333C88.3296 194.555 88.2191 216.038 88.1436 231.466C88.0912 239.174 88.0506 245.368 88.0215 249.646C87.9982 251.776 87.9866 253.424 87.975 254.55C87.9692 255.102 87.9575 255.525 87.9575 255.822C87.9517 256.106 87.9401 256.257 87.9401 256.257L87.9227 256.245Z" fill="#263238"/>
<path d="M74.3308 111.522C74.3308 111.522 73.1565 122.672 76.9236 124.408C81.1616 126.358 85.388 124.454 87.9866 122.794C94.9104 118.383 105.2 106.129 105.2 106.129L112.153 115.173C112.153 115.173 94.5848 136.249 91.0561 136.115C88.754 136.028 85.1554 133.776 82.9347 132.215C81.708 131.356 80.6209 130.334 79.6966 129.156L76.6562 125.296C72.86 127.165 69.7905 129.556 67.6686 132.633C67.6686 132.633 66.657 124.826 68.4766 121.279C70.2962 117.733 73.9238 111.632 73.9238 111.632L74.325 111.51L74.3308 111.522Z" fill="#F30990"/>
<path d="M68.2557 121.593C68.2557 121.593 68.2383 121.662 68.1859 121.784C68.1278 121.923 68.0522 122.103 67.9592 122.33C67.8022 122.823 67.5697 123.56 67.4418 124.541C67.1511 126.497 67.0756 129.382 67.4476 132.9L67.2383 132.859C68.0987 131.338 69.3951 129.876 71.0055 128.575C72.6042 127.264 74.4761 126.068 76.5747 125.052L76.6678 125.006L76.7375 125.087C77.9642 126.509 79.2547 127.989 80.6267 129.493C81.9929 130.99 83.4637 132.499 85.2135 133.718C86.0332 134.287 86.9111 134.763 87.8238 135.094C88.283 135.256 88.7481 135.39 89.219 135.471C89.6899 135.541 90.1608 135.564 90.6317 135.523C92.521 135.349 94.1255 134.27 95.4452 133.132L95.4336 133.144C100.299 127.96 104.479 123.514 107.456 120.339C108.938 118.777 110.118 117.535 110.944 116.665C111.345 116.252 111.653 115.927 111.88 115.695C111.979 115.597 112.06 115.515 112.124 115.451C112.182 115.399 112.211 115.37 112.211 115.376C112.211 115.376 112.188 115.411 112.141 115.469C112.083 115.538 112.008 115.626 111.915 115.73C111.694 115.974 111.397 116.305 111.008 116.734C110.194 117.617 109.037 118.882 107.584 120.467C104.625 123.653 100.474 128.128 95.637 133.341V133.352C94.9569 133.939 94.2302 134.502 93.3989 134.955C92.5792 135.407 91.6432 135.738 90.6607 135.831C90.1724 135.872 89.6724 135.854 89.1783 135.779C88.6842 135.692 88.2075 135.558 87.7308 135.39C86.789 135.047 85.8879 134.56 85.0508 133.979C83.266 132.743 81.7836 131.211 80.4174 129.707C79.0455 128.198 77.7549 126.718 76.534 125.284L76.7026 125.319C74.633 126.312 72.7669 127.502 71.1799 128.784C69.587 130.061 68.3022 131.495 67.4476 132.975L67.2732 133.277L67.2383 132.935C66.8895 129.388 67 126.492 67.3314 124.53C67.4825 123.543 67.7383 122.806 67.9127 122.312C68.0173 122.074 68.1104 121.894 68.1685 121.773C68.2266 121.651 68.2615 121.593 68.2673 121.593H68.2557Z" fill="#263238"/>
<g opacity="0.3">
<path d="M68.6859 130.99C68.4185 131.431 68.651 132.459 69.1161 132.685C69.5812 132.911 70.1567 132.743 70.5637 132.424C70.9706 132.105 71.2438 131.658 71.5403 131.234C72.2379 130.235 73.0751 129.336 74.0227 128.575C74.9586 127.821 76.2434 127.182 77.3189 127.722C78.0339 128.082 78.4234 128.854 78.7723 129.568C80.2256 132.546 81.9813 135.581 84.8357 137.276C87.7017 138.983 91.3584 139.053 94.5035 137.944C97.6485 136.835 100.323 134.641 102.48 132.099C104.636 129.556 106.322 126.66 107.996 123.775C109.31 121.506 110.647 119.166 111.054 116.578C110.688 116.781 109.845 118.087 109.479 118.29C109.479 118.29 95.9336 133.19 94.6546 133.956C93.3757 134.722 89.8701 139.877 79.9233 128.744L76.6329 125.18C76.6329 125.18 70.366 128.21 68.6859 130.984V130.99Z" fill="black"/>
</g>
<path d="M104.976 163.139L90.0756 160.857L89.3855 165.35L104.285 167.631L104.976 163.139Z" fill="white"/>
<path d="M145.29 173.491L122.013 179.104L124.699 201.01L80.1675 234.403C78.3828 234.653 76.5632 234.937 75.5516 235.192C73.1158 235.802 68.8138 241.902 67.5988 242.506L58.9193 249.193C58.9193 249.193 58.1578 252.234 62.1167 251.625C66.0757 251.015 70.4881 247.98 70.9474 247.98C71.4066 247.98 72.7902 248.908 72.1333 250.87C71.552 252.617 69.1626 258.602 69.1626 258.602L66.221 264C66.221 264 78.9583 264.418 82.5278 259.693C84.9462 256.489 92.3932 247.405 92.3932 247.405C92.3932 247.405 144.807 221.656 147.952 216.27C152.225 208.95 145.284 173.502 145.284 173.502L145.29 173.491Z" fill="#FFBE9D"/>
<path d="M134.57 210.442C134.506 210.442 134.698 209.513 134.465 208.051C134.25 206.605 133.477 204.597 131.808 203.082C130.128 201.573 128.047 201.01 126.588 200.934C125.105 200.847 124.204 201.132 124.193 201.068C124.193 201.05 124.408 200.969 124.821 200.876C125.233 200.783 125.844 200.702 126.6 200.719C128.099 200.737 130.262 201.283 132.012 202.856C133.75 204.434 134.512 206.536 134.68 208.022C134.773 208.77 134.75 209.386 134.698 209.804C134.645 210.221 134.587 210.448 134.57 210.442Z" fill="#EB996E"/>
<path d="M76.691 255.827C76.7317 255.839 76.6213 256.396 76.3829 257.29C76.1446 258.178 75.7725 259.42 75.0981 260.674C74.4238 261.934 73.4704 262.886 72.6449 263.35C72.2321 263.582 71.8717 263.716 71.6159 263.768C71.3601 263.826 71.2148 263.826 71.2089 263.809C71.1915 263.75 71.7728 263.663 72.5344 263.164C73.296 262.677 74.1796 261.748 74.8307 260.529C75.4935 259.304 75.8888 258.097 76.1794 257.226C76.4643 256.35 76.6503 255.81 76.691 255.822V255.827Z" fill="#EB996E"/>
<path d="M82.8649 253.802C82.8998 253.813 82.7487 254.359 82.4173 255.218C82.0859 256.071 81.5685 257.232 80.8942 258.457C80.2198 259.682 79.5164 260.738 78.9699 261.475C78.4235 262.212 78.0456 262.636 78.0165 262.613C77.9816 262.584 78.3014 262.119 78.7955 261.353C79.2955 260.593 79.964 259.525 80.6326 258.312C81.3011 257.099 81.8476 255.961 82.2255 255.137C82.6033 254.307 82.8301 253.79 82.8707 253.807L82.8649 253.802Z" fill="#EB996E"/>
<path d="M82.6963 215.898C82.6963 215.898 82.7545 216.159 82.801 216.635C82.8533 217.111 82.894 217.808 82.9172 218.661C82.9696 220.373 82.8882 222.753 82.5161 225.348C82.1382 227.943 81.5336 230.247 80.9988 231.872C80.7314 232.685 80.493 233.341 80.3128 233.782C80.1326 234.229 80.0221 234.467 80.0047 234.461C79.9873 234.455 80.057 234.2 80.2024 233.741C80.3535 233.288 80.557 232.627 80.7953 231.808C81.2778 230.171 81.8418 227.879 82.2138 225.301C82.5859 222.724 82.6963 220.368 82.7021 218.661C82.7021 217.808 82.7021 217.117 82.6847 216.641C82.6731 216.165 82.6789 215.898 82.6963 215.898Z" fill="#263238"/>
<path d="M70.0927 222.869C70.1334 222.858 70.4009 223.56 70.8311 224.698C71.2612 225.835 71.86 227.403 72.5576 229.115C73.2611 230.827 73.9354 232.366 74.4296 233.474C74.9237 234.583 75.226 235.274 75.1853 235.291C75.1504 235.308 74.7784 234.653 74.2319 233.567C73.6855 232.476 72.982 230.949 72.2728 229.231C71.5694 227.513 70.9996 225.928 70.6218 224.767C70.2439 223.612 70.052 222.881 70.0869 222.869H70.0927Z" fill="#263238"/>
<path d="M66.721 237.897C66.721 237.897 66.5989 237.944 66.3547 238.008C66.0815 238.071 65.7269 238.158 65.2909 238.263C64.8258 238.373 64.2619 238.501 63.5933 238.611C62.9248 238.727 62.1749 238.884 61.3261 238.988C60.4831 239.11 59.5588 239.238 58.5589 239.319C57.5648 239.435 56.4951 239.482 55.3731 239.551C53.1233 239.639 50.641 239.627 48.0482 239.435C45.4554 239.226 43.0021 238.867 40.793 238.443C39.6942 238.205 38.642 237.996 37.677 237.735C36.7003 237.503 35.8109 237.235 34.997 236.986C34.1773 236.754 33.4564 236.487 32.8169 236.272C32.1774 236.057 31.631 235.848 31.1892 235.668C30.7706 235.5 30.4334 235.361 30.1718 235.256C29.9393 235.157 29.823 235.105 29.823 235.094C29.823 235.082 29.9509 235.123 30.1892 235.198C30.4567 235.291 30.7997 235.407 31.224 235.558C31.6717 235.721 32.2181 235.912 32.8634 236.109C33.5087 236.313 34.2296 236.562 35.0551 236.783C35.869 237.015 36.7643 237.27 37.7351 237.491C38.7001 237.746 39.7466 237.944 40.8453 238.17C43.0486 238.582 45.4903 238.93 48.0714 239.139C50.6526 239.325 53.1175 239.348 55.3615 239.279C56.4835 239.221 57.5474 239.18 58.5356 239.076C59.5297 239 60.4541 238.89 61.2912 238.779C62.1342 238.687 62.8899 238.547 63.5585 238.449C64.227 238.35 64.7967 238.245 65.2618 238.153C65.7036 238.071 66.0583 238.008 66.3373 237.955C66.5815 237.915 66.7152 237.897 66.7152 237.909L66.721 237.897Z" fill="#263238"/>
<path d="M64.506 227.803C64.4653 227.879 63.2271 227.281 61.7446 226.474C60.2622 225.667 59.0879 224.953 59.1286 224.878C59.1693 224.802 60.4017 225.4 61.89 226.207C63.3724 227.014 64.5467 227.728 64.506 227.803Z" fill="#263238"/>
<path d="M147.749 172.928C147.749 172.928 147.702 172.945 147.604 172.974C147.493 173.003 147.354 173.044 147.173 173.09C146.778 173.189 146.22 173.334 145.505 173.514C144.034 173.879 141.912 174.402 139.25 175.058C133.89 176.358 126.361 178.186 117.624 180.305L117.472 180.34L117.449 180.183C116.833 176.195 116.002 171.889 115.194 167.413C114.664 164.424 114.205 161.493 113.891 158.643C113.583 155.793 113.432 153.03 113.397 150.4C113.362 147.771 113.461 145.258 113.833 142.936C114.199 140.62 114.845 138.501 115.74 136.707C116.653 134.926 117.786 133.48 118.949 132.395C120.112 131.309 121.286 130.572 122.303 130.108C123.327 129.643 124.181 129.458 124.757 129.336C125.047 129.295 125.268 129.272 125.419 129.255C125.571 129.237 125.646 129.231 125.646 129.237C125.646 129.237 125.571 129.26 125.425 129.284C125.262 129.313 125.047 129.347 124.768 129.394C124.204 129.533 123.356 129.73 122.356 130.212C121.356 130.682 120.205 131.431 119.065 132.511C117.932 133.596 116.821 135.03 115.932 136.795C115.06 138.571 114.432 140.666 114.083 142.965C113.729 145.263 113.636 147.765 113.676 150.389C113.723 153.012 113.874 155.764 114.188 158.602C114.502 161.44 114.961 164.366 115.496 167.349C116.304 171.819 117.129 176.132 117.74 180.131L117.565 180.015C126.315 177.937 133.849 176.149 139.221 174.872C141.889 174.251 144.017 173.752 145.493 173.409C146.214 173.247 146.772 173.119 147.173 173.032C147.354 172.991 147.499 172.962 147.609 172.939C147.708 172.922 147.755 172.91 147.76 172.916L147.749 172.928Z" fill="#263238"/>
</g>
<defs>
<clipPath id="clip0_27_134798">
<rect width="270" height="264" fill="white"/>
</clipPath>
</defs>
</svg>
