<svg width="113" height="26" viewBox="0 0 113 26" fill="none" xmlns="http://www.w3.org/2000/svg">
<path d="M0.92 25V2.6H8.344C9.89067 2.6 11.336 2.89333 12.68 3.48C14.0347 4.056 15.224 4.86133 16.248 5.896C17.2827 6.92 18.088 8.10933 18.664 9.464C19.2507 10.808 19.544 12.2533 19.544 13.8C19.544 15.3467 19.2507 16.7973 18.664 18.152C18.088 19.496 17.2827 20.6853 16.248 21.72C15.224 22.744 14.0347 23.5493 12.68 24.136C11.336 24.712 9.89067 25 8.344 25H0.92ZM5.336 20.584H8.344C9.26133 20.584 10.1253 20.408 10.936 20.056C11.7573 19.704 12.4827 19.2187 13.112 18.6C13.7413 17.9813 14.232 17.2613 14.584 16.44C14.9467 15.6187 15.128 14.7387 15.128 13.8C15.128 12.8613 14.9467 11.9867 14.584 11.176C14.232 10.3547 13.7413 9.63467 13.112 9.016C12.4933 8.38667 11.7733 7.896 10.952 7.544C10.1413 7.192 9.272 7.016 8.344 7.016H5.336V20.584ZM28.8663 25.416C27.3943 25.416 26.0503 25.0373 24.8343 24.28C23.6289 23.5227 22.6636 22.504 21.9383 21.224C21.2236 19.944 20.8663 18.5307 20.8663 16.984C20.8663 15.8213 21.0743 14.7333 21.4903 13.72C21.9063 12.696 22.4769 11.8 23.2023 11.032C23.9383 10.2533 24.7916 9.64533 25.7623 9.208C26.7329 8.77067 27.7676 8.552 28.8663 8.552C30.1356 8.552 31.2929 8.824 32.3383 9.368C33.3943 9.912 34.2849 10.6533 35.0103 11.592C35.7463 12.5307 36.2689 13.592 36.5783 14.776C36.8983 15.96 36.9516 17.192 36.7383 18.472H25.6343C25.7729 18.9413 25.9863 19.368 26.2743 19.752C26.5729 20.1253 26.9356 20.424 27.3623 20.648C27.7996 20.872 28.3009 20.9893 28.8663 21C29.4209 21.0107 29.9329 20.8827 30.4023 20.616C30.8716 20.3493 31.2716 19.992 31.6023 19.544L36.1143 20.584C35.4636 22.0027 34.4929 23.1653 33.2023 24.072C31.9116 24.968 30.4663 25.416 28.8663 25.416ZM25.4743 15.208H32.2743C32.1356 14.6747 31.9009 14.1947 31.5703 13.768C31.2396 13.3413 30.8396 13.0053 30.3703 12.76C29.9116 12.5147 29.4103 12.392 28.8663 12.392C28.3329 12.392 27.8316 12.5147 27.3623 12.76C26.9036 13.0053 26.5089 13.3413 26.1783 13.768C25.8583 14.184 25.6236 14.664 25.4743 15.208ZM39.0138 25V0.999998H43.4298V25H39.0138ZM47.2638 9H51.6798V25H47.2638V9ZM49.5038 7.16C48.8638 7.16 48.3251 6.94667 47.8878 6.52C47.4504 6.09333 47.2318 5.56533 47.2318 4.936C47.2318 4.30667 47.4504 3.77867 47.8878 3.352C48.3251 2.92533 48.8584 2.712 49.4878 2.712C50.1171 2.712 50.6451 2.92533 51.0718 3.352C51.5091 3.77867 51.7278 4.30667 51.7278 4.936C51.7278 5.56533 51.5144 6.09333 51.0878 6.52C50.6718 6.94667 50.1438 7.16 49.5038 7.16ZM62.1163 25.416C60.6443 25.416 59.3003 25.0373 58.0843 24.28C56.8789 23.5227 55.9136 22.504 55.1883 21.224C54.4736 19.944 54.1163 18.5307 54.1163 16.984C54.1163 15.8213 54.3243 14.7333 54.7403 13.72C55.1563 12.696 55.7269 11.8 56.4523 11.032C57.1883 10.2533 58.0416 9.64533 59.0123 9.208C59.9829 8.77067 61.0176 8.552 62.1163 8.552C63.3856 8.552 64.5429 8.824 65.5883 9.368C66.6443 9.912 67.5349 10.6533 68.2603 11.592C68.9963 12.5307 69.5189 13.592 69.8283 14.776C70.1483 15.96 70.2016 17.192 69.9883 18.472H58.8843C59.0229 18.9413 59.2363 19.368 59.5243 19.752C59.8229 20.1253 60.1856 20.424 60.6123 20.648C61.0496 20.872 61.5509 20.9893 62.1163 21C62.6709 21.0107 63.1829 20.8827 63.6523 20.616C64.1216 20.3493 64.5216 19.992 64.8523 19.544L69.3643 20.584C68.7136 22.0027 67.7429 23.1653 66.4523 24.072C65.1616 24.968 63.7163 25.416 62.1163 25.416ZM58.7243 15.208H65.5243C65.3856 14.6747 65.1509 14.1947 64.8203 13.768C64.4896 13.3413 64.0896 13.0053 63.6203 12.76C63.1616 12.5147 62.6603 12.392 62.1163 12.392C61.5829 12.392 61.0816 12.5147 60.6123 12.76C60.1536 13.0053 59.7589 13.3413 59.4283 13.768C59.1083 14.184 58.8736 14.664 58.7243 15.208ZM77.8785 5.896V9H82.1185V13.416H77.8785V25H73.4625V13.416H71.8625V9H73.4625V5.896C73.4625 4.92533 73.7025 4.04533 74.1825 3.256C74.6625 2.456 75.3025 1.816 76.1025 1.336C76.9132 0.855999 77.8038 0.615999 78.7745 0.615999C79.4892 0.615999 80.1932 0.765333 80.8865 1.064C81.5798 1.352 82.1985 1.80533 82.7425 2.424L79.5745 5.544C79.4998 5.37333 79.3878 5.24533 79.2385 5.16C79.0892 5.07467 78.9345 5.032 78.7745 5.032C78.5292 5.032 78.3158 5.11733 78.1345 5.288C77.9638 5.448 77.8785 5.65067 77.8785 5.896ZM91.5225 25.416C90.0505 25.416 88.7065 25.0373 87.4905 24.28C86.2852 23.5227 85.3198 22.504 84.5945 21.224C83.8798 19.944 83.5225 18.5307 83.5225 16.984C83.5225 15.8213 83.7305 14.7333 84.1465 13.72C84.5625 12.696 85.1332 11.8 85.8585 11.032C86.5945 10.2533 87.4478 9.64533 88.4185 9.208C89.3892 8.77067 90.4238 8.552 91.5225 8.552C92.7918 8.552 93.9492 8.824 94.9945 9.368C96.0505 9.912 96.9412 10.6533 97.6665 11.592C98.4025 12.5307 98.9252 13.592 99.2345 14.776C99.5545 15.96 99.6078 17.192 99.3945 18.472H88.2905C88.4292 18.9413 88.6425 19.368 88.9305 19.752C89.2292 20.1253 89.5918 20.424 90.0185 20.648C90.4558 20.872 90.9572 20.9893 91.5225 21C92.0772 21.0107 92.5892 20.8827 93.0585 20.616C93.5278 20.3493 93.9278 19.992 94.2585 19.544L98.7705 20.584C98.1198 22.0027 97.1492 23.1653 95.8585 24.072C94.5678 24.968 93.1225 25.416 91.5225 25.416ZM88.1305 15.208H94.9305C94.7918 14.6747 94.5572 14.1947 94.2265 13.768C93.8958 13.3413 93.4958 13.0053 93.0265 12.76C92.5678 12.5147 92.0665 12.392 91.5225 12.392C90.9892 12.392 90.4878 12.5147 90.0185 12.76C89.5598 13.0053 89.1652 13.3413 88.8345 13.768C88.5145 14.184 88.2798 14.664 88.1305 15.208ZM101.967 25L101.951 9H106.367L106.383 10.184C106.917 9.672 107.541 9.272 108.255 8.984C108.981 8.696 109.743 8.552 110.543 8.552C111.13 8.552 111.717 8.63733 112.303 8.808L110.559 13.272C110.175 13.112 109.786 13.032 109.391 13.032C108.837 13.032 108.33 13.1653 107.871 13.432C107.413 13.6987 107.05 14.0613 106.783 14.52C106.517 14.968 106.383 15.4747 106.383 16.04V25H101.967Z" fill="black"/>
</svg>
