<svg width="131" height="37" viewBox="0 0 131 37" fill="none" xmlns="http://www.w3.org/2000/svg">
<path d="M0.76 36V3.8H11.409C13.6323 3.8 15.7177 4.22166 17.665 5.065C19.6123 5.893 21.322 7.05067 22.794 8.538C24.266 10.01 25.416 11.7197 26.244 13.667C27.0873 15.599 27.509 17.6767 27.509 19.9C27.509 22.1233 27.0873 24.2087 26.244 26.156C25.416 28.088 24.266 29.7977 22.794 31.285C21.322 32.757 19.6123 33.9147 17.665 34.758C15.7177 35.586 13.6323 36 11.409 36H0.76ZM3.98 32.78H11.409C13.1877 32.78 14.8513 32.4503 16.4 31.791C17.964 31.1163 19.3363 30.1887 20.517 29.008C21.6977 27.8273 22.6177 26.4627 23.277 24.914C23.9517 23.35 24.289 21.6787 24.289 19.9C24.289 18.1213 23.9517 16.4577 23.277 14.909C22.6177 13.345 21.69 11.9727 20.494 10.792C19.3133 9.61133 17.9487 8.69133 16.4 8.032C14.8513 7.35733 13.1877 7.02 11.409 7.02H3.98V32.78ZM41.9718 36.598C39.8558 36.598 37.9238 36.0537 36.1758 34.965C34.4431 33.8763 33.0555 32.4197 32.0128 30.595C30.9855 28.755 30.4718 26.7233 30.4718 24.5C30.4718 22.8133 30.7708 21.2417 31.3688 19.785C31.9668 18.313 32.7871 17.025 33.8298 15.921C34.8878 14.8017 36.1145 13.9277 37.5098 13.299C38.9051 12.6703 40.3925 12.356 41.9718 12.356C43.6738 12.356 45.2378 12.6933 46.6638 13.368C48.1051 14.0427 49.3395 14.9857 50.3668 16.197C51.4095 17.4083 52.1915 18.8267 52.7128 20.452C53.2495 22.0773 53.4718 23.833 53.3798 25.719H33.8758C34.0598 27.1757 34.5198 28.479 35.2558 29.629C36.0071 30.779 36.9578 31.6913 38.1078 32.366C39.2731 33.0253 40.5611 33.3627 41.9718 33.378C43.5051 33.378 44.8851 32.9793 46.1118 32.182C47.3538 31.3847 48.3505 30.2883 49.1018 28.893L52.3678 29.652C51.4478 31.6913 50.0601 33.3627 48.2048 34.666C46.3495 35.954 44.2718 36.598 41.9718 36.598ZM33.7838 23.12H50.1368C50.0295 21.694 49.5925 20.3907 48.8258 19.21C48.0745 18.014 47.1008 17.0633 45.9048 16.358C44.7088 15.6373 43.3978 15.277 41.9718 15.277C40.5458 15.277 39.2425 15.6297 38.0618 16.335C36.8811 17.025 35.9151 17.968 35.1638 19.164C34.4125 20.3447 33.9525 21.6633 33.7838 23.12ZM57.6428 36V1.5H60.8628V36H57.6428ZM66.9026 13H70.1226V36H66.9026V13ZM68.5356 8.975C68.0142 8.975 67.5696 8.80633 67.2016 8.469C66.8489 8.11633 66.6726 7.67933 66.6726 7.158C66.6726 6.63666 66.8489 6.20733 67.2016 5.87C67.5696 5.51733 68.0142 5.341 68.5356 5.341C69.0416 5.341 69.4709 5.51733 69.8236 5.87C70.1916 6.20733 70.3756 6.63666 70.3756 7.158C70.3756 7.67933 70.1992 8.11633 69.8466 8.469C69.4939 8.80633 69.0569 8.975 68.5356 8.975ZM80.9233 6.997V13H87.8233V16.22H80.9233V36H77.7033V16.22H74.5523V13H77.7033V6.997C77.7033 5.87766 77.9717 4.86566 78.5083 3.961C79.0603 3.041 79.7963 2.31267 80.7163 1.776C81.6363 1.224 82.656 0.947999 83.7753 0.947999C84.588 0.947999 85.37 1.109 86.1213 1.431C86.888 1.753 87.5703 2.22833 88.1683 2.857L85.8683 5.134C85.623 4.82733 85.3087 4.58966 84.9253 4.421C84.5573 4.25233 84.174 4.168 83.7753 4.168C82.9933 4.168 82.3187 4.444 81.7513 4.996C81.1993 5.548 80.9233 6.215 80.9233 6.997ZM101.607 36.598C99.4906 36.598 97.5586 36.0537 95.8106 34.965C94.0779 33.8763 92.6902 32.4197 91.6476 30.595C90.6202 28.755 90.1066 26.7233 90.1066 24.5C90.1066 22.8133 90.4056 21.2417 91.0036 19.785C91.6016 18.313 92.4219 17.025 93.4646 15.921C94.5226 14.8017 95.7492 13.9277 97.1446 13.299C98.5399 12.6703 100.027 12.356 101.607 12.356C103.309 12.356 104.873 12.6933 106.299 13.368C107.74 14.0427 108.974 14.9857 110.002 16.197C111.044 17.4083 111.826 18.8267 112.348 20.452C112.884 22.0773 113.107 23.833 113.015 25.719H93.5106C93.6946 27.1757 94.1546 28.479 94.8906 29.629C95.6419 30.779 96.5926 31.6913 97.7426 32.366C98.9079 33.0253 100.196 33.3627 101.607 33.378C103.14 33.378 104.52 32.9793 105.747 32.182C106.989 31.3847 107.985 30.2883 108.737 28.893L112.003 29.652C111.083 31.6913 109.695 33.3627 107.84 34.666C105.984 35.954 103.907 36.598 101.607 36.598ZM93.4186 23.12H109.772C109.664 21.694 109.227 20.3907 108.461 19.21C107.709 18.014 106.736 17.0633 105.54 16.358C104.344 15.6373 103.033 15.277 101.607 15.277C100.181 15.277 98.8772 15.6297 97.6966 16.335C96.5159 17.025 95.5499 17.968 94.7986 19.164C94.0472 20.3447 93.5872 21.6633 93.4186 23.12ZM117.457 36V13H120.677V16.174C121.49 15.0087 122.548 14.081 123.851 13.391C125.155 12.701 126.573 12.356 128.106 12.356C128.996 12.356 129.854 12.471 130.682 12.701L129.371 15.898C128.727 15.6987 128.099 15.599 127.485 15.599C126.243 15.599 125.101 15.9057 124.058 16.519C123.031 17.1323 122.211 17.9527 121.597 18.98C120.984 20.0073 120.677 21.1497 120.677 22.407V36H117.457Z" fill="white"/>
</svg>
