<svg width="32" height="32" viewBox="0 0 32 32" fill="none" xmlns="http://www.w3.org/2000/svg">
<path d="M28.6991 23.9436C28.6991 24.4139 28.5946 24.8972 28.3725 25.3674C28.1505 25.8377 27.8631 26.2818 27.4843 26.6998C26.8442 27.4052 26.1388 27.9146 25.342 28.2412C24.5583 28.5677 23.7092 28.7375 22.7948 28.7375C21.4625 28.7375 20.0387 28.424 18.5365 27.784C17.0343 27.1439 15.5321 26.2818 14.043 25.1976C12.5408 24.1004 11.117 22.8855 9.75847 21.5401C8.41303 20.1816 7.19822 18.7578 6.11403 17.2687C5.04291 15.7795 4.18078 14.2904 3.55378 12.8144C2.92678 11.3252 2.61328 9.90142 2.61328 8.54292C2.61328 7.65467 2.77003 6.80561 3.08353 6.02186C3.39703 5.22505 3.89341 4.49355 4.58572 3.84042C5.42172 3.01749 6.33609 2.61255 7.30272 2.61255C7.66847 2.61255 8.03422 2.69092 8.36078 2.84767C8.70041 3.00442 9.00084 3.23955 9.23597 3.57917L12.2665 7.85061C12.5016 8.17717 12.6714 8.47761 12.789 8.76499C12.9065 9.0393 12.9718 9.31361 12.9718 9.5618C12.9718 9.8753 12.8804 10.1888 12.6975 10.4892C12.5277 10.7897 12.2795 11.1032 11.966 11.4167L10.9733 12.4486C10.8296 12.5923 10.7643 12.7621 10.7643 12.9711C10.7643 13.0756 10.7773 13.167 10.8035 13.2715C10.8427 13.376 10.8818 13.4544 10.908 13.5328C11.1431 13.9639 11.548 14.5255 12.1228 15.2048C12.7106 15.884 13.3376 16.5764 14.0168 17.2687C14.7222 17.961 15.4015 18.601 16.0938 19.1889C16.773 19.7636 17.3347 20.1555 17.7788 20.3906C17.8442 20.4167 17.9225 20.4559 18.014 20.4951C18.1185 20.5343 18.223 20.5474 18.3405 20.5474C18.5626 20.5474 18.7324 20.469 18.8761 20.3253L19.8688 19.3456C20.1954 19.019 20.5089 18.7709 20.8093 18.6141C21.1098 18.4312 21.4102 18.3398 21.7368 18.3398C21.985 18.3398 22.2462 18.392 22.5336 18.5096C22.821 18.6272 23.1214 18.797 23.448 19.019L27.7717 22.0887C28.1113 22.3239 28.3464 22.5982 28.4901 22.9247C28.6207 23.2513 28.6991 23.5779 28.6991 23.9436Z" stroke="#F30990" stroke-width="1.5" stroke-miterlimit="10"/>
</svg>
