<svg width="40" height="40" viewBox="0 0 40 40" fill="none" xmlns="http://www.w3.org/2000/svg">
<path fill-rule="evenodd" clip-rule="evenodd" d="M19.6916 36.013C13.5539 36.013 8.3125 35.0579 8.3125 31.2328C8.3125 27.4078 13.5207 23.8767 19.6916 23.8767C25.8292 23.8767 31.0706 27.3735 31.0706 31.1986C31.0706 35.0221 25.8625 36.013 19.6916 36.013Z" stroke="#F30990" stroke-width="1.5" stroke-linecap="round" stroke-linejoin="round"/>
<path fill-rule="evenodd" clip-rule="evenodd" d="M19.6786 18.5762C23.7064 18.5762 26.971 15.3116 26.971 11.2838C26.971 7.25605 23.7064 3.98999 19.6786 3.98999C15.6509 3.98999 12.3848 7.25605 12.3848 11.2838C12.3712 15.298 15.6131 18.5626 19.6273 18.5762C19.6454 18.5762 19.662 18.5762 19.6786 18.5762Z" stroke="#F30990" stroke-width="1.5" stroke-linecap="round" stroke-linejoin="round"/>
</svg>
