<svg width="35" height="36" viewBox="0 0 35 36" fill="none" xmlns="http://www.w3.org/2000/svg">
<path d="M12.8246 32.25H21.3746C28.4996 32.25 31.3496 29.4 31.3496 22.275V13.725C31.3496 6.6 28.4996 3.75 21.3746 3.75H12.8246C5.69961 3.75 2.84961 6.6 2.84961 13.725V22.275C2.84961 29.4 5.69961 32.25 12.8246 32.25Z" stroke="#F30990" stroke-linecap="round" stroke-linejoin="round"/>
<path d="M12.6827 24.4557C13.3667 23.7147 14.4212 23.7717 15.0197 24.584L15.8747 25.724C16.5445 26.6217 17.6559 26.6217 18.3257 25.724L19.1665 24.5982C19.765 23.8002 20.8194 23.7432 21.5034 24.47C22.9997 26.066 24.2109 25.5387 24.2109 23.3015V13.8537C24.2109 10.4765 23.4129 9.63574 20.2494 9.63574H13.9224C10.7589 9.63574 9.96094 10.4765 9.96094 13.8537V23.3015C9.97519 25.5102 11.2007 26.0375 12.6827 24.4557Z" stroke="#F30990" stroke-linecap="round" stroke-linejoin="round"/>
</svg>
