<svg width="35" height="35" viewBox="0 0 35 35" fill="none" xmlns="http://www.w3.org/2000/svg">
<path d="M6.27717 22.1251L12.7324 28.5803C15.3829 31.2308 19.6864 31.2308 22.3512 28.5803L28.6069 22.3246C31.2574 19.6741 31.2574 15.3706 28.6069 12.7058L22.1374 6.26485C20.7837 4.9111 18.9169 4.18435 17.0074 4.2841L9.88242 4.6261C7.03242 4.75435 4.76667 7.0201 4.62417 9.85585L4.28217 16.9808C4.19667 18.9046 4.92342 20.7713 6.27717 22.1251Z" stroke="#F30990" stroke-width="1.5" stroke-linecap="round" stroke-linejoin="round"/>
<path d="M13.8711 17.4226C15.8386 17.4226 17.4336 15.8276 17.4336 13.8601C17.4336 11.8926 15.8386 10.2976 13.8711 10.2976C11.9036 10.2976 10.3086 11.8926 10.3086 13.8601C10.3086 15.8276 11.9036 17.4226 13.8711 17.4226Z" stroke="#F30990" stroke-width="1.5" stroke-linecap="round"/>
<path d="M18.8594 24.5475L24.5594 18.8475" stroke="#F30990" stroke-width="1.5" stroke-miterlimit="10" stroke-linecap="round" stroke-linejoin="round"/>
</svg>
