<svg width="35" height="35" viewBox="0 0 35 35" fill="none" xmlns="http://www.w3.org/2000/svg">
<path d="M27.1595 26.6047L24.11 20.52L21.0605 26.6047" stroke="#F30990" stroke-width="1.5" stroke-linecap="round" stroke-linejoin="round"/>
<path d="M21.6172 25.5217H26.6332" stroke="#F30990" stroke-width="1.5" stroke-linecap="round" stroke-linejoin="round"/>
<path d="M24.1101 31.35C20.1201 31.35 16.8711 28.1153 16.8711 24.111C16.8711 20.121 20.1058 16.8721 24.1101 16.8721C28.1001 16.8721 31.3491 20.1068 31.3491 24.111C31.3491 28.1153 28.1143 31.35 24.1101 31.35Z" stroke="#F30990" stroke-width="1.5" stroke-linecap="round" stroke-linejoin="round"/>
<path d="M7.15311 2.84998H12.7391C15.6889 2.84998 17.1139 4.275 17.0426 7.1535V12.7395C17.1139 15.6892 15.6889 17.1143 12.7391 17.043H7.15311C4.27462 17.1 2.84961 15.675 2.84961 12.7252V7.13924C2.84961 4.27499 4.27462 2.84998 7.15311 2.84998Z" stroke="#F30990" stroke-width="1.5" stroke-linecap="round" stroke-linejoin="round"/>
<path d="M12.8382 8.33618H7.05273" stroke="#F30990" stroke-width="1.5" stroke-linecap="round" stroke-linejoin="round"/>
<path d="M9.93164 7.36719V8.33618" stroke="#F30990" stroke-width="1.5" stroke-linecap="round" stroke-linejoin="round"/>
<path d="M11.3853 8.32202C11.3853 10.8158 9.43306 12.8392 7.03906 12.8392" stroke="#F30990" stroke-width="1.5" stroke-linecap="round" stroke-linejoin="round"/>
<path d="M12.8394 12.8392C11.7991 12.8392 10.8586 12.2834 10.2031 11.3999" stroke="#F30990" stroke-width="1.5" stroke-linecap="round" stroke-linejoin="round"/>
<path d="M2.84961 21.375C2.84961 26.8897 7.30986 31.35 12.8246 31.35L11.3284 28.8562" stroke="#F30990" stroke-width="1.5" stroke-linecap="round" stroke-linejoin="round"/>
<path d="M31.35 12.825C31.35 7.31023 26.8897 2.84998 21.375 2.84998L22.8713 5.34373" stroke="#F30990" stroke-width="1.5" stroke-linecap="round" stroke-linejoin="round"/>
</svg>
