<svg width="27" height="27" viewBox="0 0 27 27" fill="none" xmlns="http://www.w3.org/2000/svg">
<path d="M23.625 6.72754C19.8788 6.35629 16.11 6.16504 12.3525 6.16504C10.125 6.16504 7.8975 6.27754 5.67 6.50254L3.375 6.72754" stroke="#F30990" stroke-linecap="round" stroke-linejoin="round"/>
<path d="M9.5625 5.59125L9.81 4.1175C9.99 3.04875 10.125 2.25 12.0262 2.25H14.9738C16.875 2.25 17.0212 3.09375 17.19 4.12875L17.4375 5.59125" stroke="#F30990" stroke-linecap="round" stroke-linejoin="round"/>
<path d="M21.2063 10.2825L20.475 21.6112C20.3513 23.3775 20.25 24.75 17.1113 24.75H9.88876C6.75001 24.75 6.64876 23.3775 6.52501 21.6112L5.79376 10.2825" stroke="#F30990" stroke-linecap="round" stroke-linejoin="round"/>
<path d="M11.6213 18.5625H15.3675" stroke="#F30990" stroke-linecap="round" stroke-linejoin="round"/>
<path d="M10.6875 14.0625H16.3125" stroke="#F30990" stroke-linecap="round" stroke-linejoin="round"/>
</svg>
