<svg width="38" height="38" viewBox="0 0 38 38" fill="none" xmlns="http://www.w3.org/2000/svg">
<path d="M19 38C29.4934 38 38 29.4934 38 19C38 8.50659 29.4934 0 19 0C8.50659 0 0 8.50659 0 19C0 29.4934 8.50659 38 19 38Z" fill="url(#paint0_radial_114_2722)"/>
<path d="M19.1881 35.3957C28.3333 35.3957 35.7469 27.9821 35.7469 18.8369C35.7469 9.69172 28.3333 2.27808 19.1881 2.27808C10.0429 2.27808 2.62927 9.69172 2.62927 18.8369C2.62927 27.9821 10.0429 35.3957 19.1881 35.3957Z" fill="url(#paint1_radial_114_2722)"/>
<g clip-path="url(#clip0_114_2722)">
<path fill-rule="evenodd" clip-rule="evenodd" d="M16.5407 13.739C16.3683 13.7454 16.239 13.7837 16.1499 13.8491C16.0993 13.8858 16.0622 13.9321 16.0384 13.988C16.0117 14.0502 15.9998 14.1252 16.0013 14.2114C16.0087 14.4652 16.132 14.7956 16.3698 15.1771L16.3727 15.1818L17.1484 16.5066C17.459 17.0381 17.7844 17.5792 18.1901 17.9766C18.5794 18.3597 19.0519 18.6183 19.676 18.6199C20.3521 18.6214 20.847 18.3533 21.2497 17.9495C21.6672 17.5297 21.9971 16.9535 22.321 16.3789L23.1948 14.8339C23.3582 14.4349 23.4162 14.1683 23.379 14.0119C23.3567 13.9193 23.2616 13.873 23.0982 13.8635C23.064 13.8619 23.0283 13.8619 22.9912 13.8619C22.9526 13.8635 22.9109 13.8651 22.8693 13.8699C22.8456 13.8714 22.8233 13.8699 22.8025 13.8651C22.7252 13.8699 22.645 13.8635 22.5632 13.8507L22.8619 12.4286C20.6434 12.8037 18.9836 11.0336 16.6372 12.0742L16.8066 13.7501C16.713 13.7549 16.6239 13.7517 16.5407 13.739ZM21.8173 19.4099C21.6806 19.212 21.5454 18.9981 21.422 18.8034C21.3656 18.714 21.3106 18.6294 21.2601 18.5512C20.8366 18.8848 20.3284 19.0923 19.6775 19.0907C18.9776 19.0891 18.4382 18.821 17.9924 18.4156C17.9895 18.4203 17.9865 18.4251 17.9835 18.4299C17.9107 18.5385 17.829 18.6661 17.7413 18.8034C17.5868 19.0476 17.4129 19.3221 17.2405 19.5568L17.0028 19.2727C17.1544 19.0588 17.3119 18.813 17.4516 18.5911C17.5422 18.4475 17.6269 18.3134 17.6982 18.2081C17.7101 18.1905 17.725 18.1745 17.7413 18.1634C17.3654 17.75 17.0637 17.2488 16.7769 16.7556L16.0013 15.4324C15.7174 14.9791 15.5703 14.5626 15.5614 14.2226C15.557 14.063 15.5822 13.9161 15.6372 13.79C15.6952 13.656 15.7843 13.5442 15.9032 13.4581C15.9597 13.4182 16.0221 13.383 16.0904 13.3559C16.0399 12.6377 16.0221 11.7327 16.0533 10.9761C16.0696 10.7958 16.1023 10.617 16.1484 10.4366C16.346 9.67689 16.8438 9.06399 17.4575 8.64421C17.6744 8.49577 17.9122 8.37287 18.1618 8.27551C18.6076 8.10154 18.3907 7.36893 18.8855 7.35775C20.0431 7.32902 21.9406 8.38086 22.6806 9.24115C23.1116 9.74073 23.3805 10.4047 23.4399 11.2826L23.3909 13.4437C23.6064 13.5139 23.7431 13.6608 23.7996 13.897C23.862 14.1587 23.7936 14.529 23.5871 15.035C23.5826 15.0446 23.5796 15.0526 23.5737 15.0621L22.691 16.6247C22.3507 17.2265 22.0045 17.8314 21.5439 18.2942L21.5246 18.3134C21.5795 18.398 21.6405 18.4938 21.7044 18.5943C21.8039 18.7523 21.9124 18.9231 22.0223 19.0843L21.8173 19.4099ZM17.7473 20.1633C18.5066 20.6038 19.9509 20.9182 21.2868 20.2351L19.7756 22.591L17.7473 20.1633ZM22.535 19.4817C23.6599 20.0755 25.7268 20.2734 26.5694 20.7778C26.8784 20.9629 27.1578 21.1992 27.3837 21.5184C27.9439 22.3132 27.9929 25.0505 28.195 26.0258C28.146 26.594 27.8458 26.9212 27.2559 26.9691H20.8633L21.8321 26.3099C22.1754 26.0768 22.1843 25.8869 21.9689 25.5358L20.4235 23.0043C20.4398 22.982 20.4562 22.9597 20.4725 22.9357L22.535 19.4817ZM19.6716 26.9675H11.9714C11.3814 26.9196 11.0813 26.5924 11.0322 26.0242C11.2358 25.049 11.2834 22.3116 11.8436 21.5168C12.0679 21.1976 12.3473 20.9613 12.6579 20.7762C13.4187 20.3197 15.1766 20.1154 16.3401 19.643L19.0787 22.9357C19.0995 22.9708 19.1218 23.0027 19.1426 23.0347L18.1559 23.7098C17.9895 23.8375 17.9404 24.0243 18.04 24.2812L19.6716 26.9675ZM19.413 23.3379C19.6493 23.5247 19.887 23.5071 20.1233 23.3236C20.156 23.314 20.1887 23.3028 20.2229 23.29C20.2273 23.3188 20.2303 23.3491 20.2303 23.381C20.2303 23.6587 20.0208 23.8822 19.7637 23.8822C19.5066 23.8822 19.2971 23.6572 19.2971 23.381C19.2971 23.3507 19.3001 23.3204 19.3045 23.29C19.3387 23.3092 19.3759 23.3252 19.413 23.3379Z" fill="#FEFEFE"/>
</g>
<defs>
<radialGradient id="paint0_radial_114_2722" cx="0" cy="0" r="1" gradientUnits="userSpaceOnUse" gradientTransform="translate(21.4784 14.8007) scale(23.0794)">
<stop offset="0.63" stop-color="white"/>
<stop offset="0.7" stop-color="#F9F9F9"/>
<stop offset="0.8" stop-color="#E8E8E8"/>
<stop offset="0.91" stop-color="#CECECE"/>
<stop offset="1" stop-color="#B2B2B2"/>
</radialGradient>
<radialGradient id="paint1_radial_114_2722" cx="0" cy="0" r="1" gradientUnits="userSpaceOnUse" gradientTransform="translate(7.39046 1.1763) scale(31.4249 31.4249)">
<stop stop-color="#199893"/>
<stop offset="1" stop-color="#18CAC3"/>
</radialGradient>
<clipPath id="clip0_114_2722">
<rect width="17.1613" height="19.6129" fill="white" transform="translate(11.0322 7.35474)"/>
</clipPath>
</defs>
</svg>
