<svg width="38" height="38" viewBox="0 0 38 38" fill="none" xmlns="http://www.w3.org/2000/svg">
<path d="M19 38C29.4934 38 38 29.4934 38 19C38 8.50659 29.4934 0 19 0C8.50659 0 0 8.50659 0 19C0 29.4934 8.50659 38 19 38Z" fill="url(#paint0_radial_114_2713)"/>
<path d="M19.1881 35.3957C28.3333 35.3957 35.7469 27.9821 35.7469 18.8369C35.7469 9.69172 28.3333 2.27808 19.1881 2.27808C10.0429 2.27808 2.62927 9.69172 2.62927 18.8369C2.62927 27.9821 10.0429 35.3957 19.1881 35.3957Z" fill="url(#paint1_radial_114_2713)"/>
<path d="M15.9354 11.3386V13.637" stroke="#FEFEFE" stroke-miterlimit="10" stroke-linecap="round" stroke-linejoin="round"/>
<path d="M22.0645 11.3386V13.637" stroke="#FEFEFE" stroke-miterlimit="10" stroke-linecap="round" stroke-linejoin="round"/>
<path d="M12.4878 16.7705H25.512" stroke="#FEFEFE" stroke-miterlimit="10" stroke-linecap="round" stroke-linejoin="round"/>
<path d="M26.6613 24.3629C26.6613 24.9375 26.5004 25.4814 26.2169 25.9411C25.6883 26.8298 24.7153 27.4274 23.5967 27.4274C22.823 27.4274 22.1181 27.1439 21.5818 26.6612C21.3443 26.462 21.1375 26.2169 20.9766 25.9411C20.6931 25.4814 20.5322 24.9375 20.5322 24.3629C20.5322 22.6697 21.9036 21.2983 23.5967 21.2983C24.5161 21.2983 25.3359 21.7044 25.8951 22.3403C26.3701 22.8842 26.6613 23.5891 26.6613 24.3629Z" stroke="#FEFEFE" stroke-miterlimit="10" stroke-linecap="round" stroke-linejoin="round"/>
<path d="M23.7882 23.7883V24.5008C23.7882 24.769 23.6503 25.0218 23.4128 25.1597L22.8306 25.5121" stroke="#FEFEFE" stroke-miterlimit="10" stroke-linecap="round" stroke-linejoin="round"/>
<path d="M25.8951 16.3184V22.3402C25.3358 21.7043 24.516 21.2983 23.5967 21.2983C21.9035 21.2983 20.5322 22.6696 20.5322 24.3628C20.5322 24.9374 20.693 25.4813 20.9765 25.941C21.1374 26.2168 21.3443 26.462 21.5818 26.6612H15.9354C13.2539 26.6612 12.1047 25.1289 12.1047 22.8305V16.3184C12.1047 14.0201 13.2539 12.4878 15.9354 12.4878H22.0644C24.7459 12.4878 25.8951 14.0201 25.8951 16.3184Z" stroke="#FEFEFE" stroke-miterlimit="10" stroke-linecap="round" stroke-linejoin="round"/>
<path d="M18.9965 20.3023H19.0034" stroke="#FEFEFE" stroke-linecap="round" stroke-linejoin="round"/>
<path d="M16.161 20.3023H16.1678" stroke="#FEFEFE" stroke-linecap="round" stroke-linejoin="round"/>
<path d="M16.161 22.6008H16.1678" stroke="#FEFEFE" stroke-linecap="round" stroke-linejoin="round"/>
<defs>
<radialGradient id="paint0_radial_114_2713" cx="0" cy="0" r="1" gradientUnits="userSpaceOnUse" gradientTransform="translate(21.4784 14.8007) scale(23.0794)">
<stop offset="0.63" stop-color="white"/>
<stop offset="0.7" stop-color="#F9F9F9"/>
<stop offset="0.8" stop-color="#E8E8E8"/>
<stop offset="0.91" stop-color="#CECECE"/>
<stop offset="1" stop-color="#B2B2B2"/>
</radialGradient>
<radialGradient id="paint1_radial_114_2713" cx="0" cy="0" r="1" gradientUnits="userSpaceOnUse" gradientTransform="translate(7.39046 1.1763) scale(31.4249 31.4249)">
<stop stop-color="#199893"/>
<stop offset="1" stop-color="#18CAC3"/>
</radialGradient>
</defs>
</svg>
