<svg width="38" height="38" viewBox="0 0 38 38" fill="none" xmlns="http://www.w3.org/2000/svg">
<path d="M19 38C29.4934 38 38 29.4934 38 19C38 8.50659 29.4934 0 19 0C8.50659 0 0 8.50659 0 19C0 29.4934 8.50659 38 19 38Z" fill="url(#paint0_radial_114_2706)"/>
<path d="M19.1881 35.3957C28.3333 35.3957 35.7469 27.9821 35.7469 18.8369C35.7469 9.69172 28.3333 2.27808 19.1881 2.27808C10.0429 2.27808 2.62927 9.69172 2.62927 18.8369C2.62927 27.9821 10.0429 35.3957 19.1881 35.3957Z" fill="url(#paint1_radial_114_2706)"/>
<path d="M19.4797 10.4033C19.0112 10.4033 18.6302 10.7843 18.6302 11.2528V18.2046L10.8084 21.131C10.5938 21.2049 10.4208 21.3579 10.3213 21.5618C10.2219 21.7657 10.2079 21.9962 10.2817 22.2108C10.4028 22.5625 10.7329 22.7838 11.0857 22.7838C11.1773 22.7838 11.2703 22.7688 11.3617 22.7374L20.3293 19.4079V11.2526C20.3293 10.7841 19.948 10.4031 19.4797 10.4031V10.4033Z" fill="#F0F9FF"/>
<defs>
<radialGradient id="paint0_radial_114_2706" cx="0" cy="0" r="1" gradientUnits="userSpaceOnUse" gradientTransform="translate(21.4784 14.8007) scale(23.0794)">
<stop offset="0.63" stop-color="white"/>
<stop offset="0.7" stop-color="#F9F9F9"/>
<stop offset="0.8" stop-color="#E8E8E8"/>
<stop offset="0.91" stop-color="#CECECE"/>
<stop offset="1" stop-color="#B2B2B2"/>
</radialGradient>
<radialGradient id="paint1_radial_114_2706" cx="0" cy="0" r="1" gradientUnits="userSpaceOnUse" gradientTransform="translate(7.39046 1.1763) scale(31.4249 31.4249)">
<stop stop-color="#199893"/>
<stop offset="1" stop-color="#18CAC3"/>
</radialGradient>
</defs>
</svg>
