<svg width="44" height="44" viewBox="0 0 44 44" fill="none" xmlns="http://www.w3.org/2000/svg">
<path d="M34.9617 34.9617C42.13 27.7934 42.13 16.1883 34.9617 9.03833" stroke="#109691" stroke-width="3" stroke-linecap="round" stroke-linejoin="round"/>
<path d="M9.03836 9.03833C1.87003 16.2067 1.87003 27.8117 9.03836 34.9617" stroke="#109691" stroke-width="3" stroke-linecap="round" stroke-linejoin="round"/>
<path d="M15.95 39.2517C17.9117 39.93 19.9467 40.2601 22 40.2601C24.0533 40.2418 26.0883 39.93 28.05 39.2517" stroke="#109691" stroke-width="3" stroke-linecap="round" stroke-linejoin="round"/>
<path d="M15.95 4.74841C17.9117 4.07008 19.9467 3.73999 22 3.73999C24.0533 3.73999 26.0883 4.07008 28.05 4.74841" stroke="#109691" stroke-width="3" stroke-linecap="round" stroke-linejoin="round"/>
<path d="M16.0233 21.9999V18.9383C16.0233 15.125 18.7184 13.5666 22.0184 15.4733L24.6767 17.0133L27.335 18.5533C30.635 20.4599 30.635 23.5766 27.335 25.4833L24.6767 27.0232L22.0184 28.5633C18.7184 30.47 16.0233 28.9116 16.0233 25.0983V21.9999Z" stroke="#109691" stroke-width="3" stroke-miterlimit="10" stroke-linecap="round" stroke-linejoin="round"/>
</svg>
